/* XPM */
static char *result[] = {
/* columns rows colors chars-per-pixel */
"65 65 131 2 ",
"   c black",
".  c #010101",
"X  c #000103",
"o  c #010104",
"O  c #020104",
"+  c #000204",
"@  c #000205",
"#  c #010205",
"$  c #020204",
"%  c #030205",
"&  c #010206",
"*  c #010306",
"=  c gray8",
"-  c #151414",
";  c #151415",
":  c #151515",
">  c #161515",
",  c #161616",
"<  c #161617",
"1  c gray9",
"2  c #181717",
"3  c #191717",
"4  c #1A1717",
"5  c #181718",
"6  c #181818",
"7  c #191919",
"8  c #1B1A1A",
"9  c #1B1A1B",
"0  c #1B1B1B",
"q  c #1C1B1B",
"w  c #18181E",
"e  c #1C1C1E",
"r  c #1C1C1F",
"t  c #1C1D1F",
"y  c #1E1E1E",
"u  c gray12",
"i  c #251200",
"p  c #261200",
"a  c #261300",
"s  c #311600",
"d  c #301700",
"f  c #311700",
"g  c #321700",
"h  c #331800",
"j  c #341900",
"k  c #351900",
"l  c #3B1C00",
"z  c #3B1D00",
"x  c #3C1C00",
"c  c #3C1D00",
"v  c #3D1E00",
"b  c #3B2005",
"n  c #1C1D20",
"m  c #1E1F22",
"M  c #1E1F23",
"N  c #1F2023",
"B  c #202020",
"V  c gray13",
"C  c #212122",
"Z  c #252525",
"A  c #262525",
"S  c #262526",
"D  c gray15",
"F  c #262729",
"G  c #26272B",
"H  c #27282B",
"J  c #27292B",
"K  c #28292B",
"L  c #28292C",
"P  c #28292D",
"I  c #292A2D",
"U  c #282A2E",
"Y  c #431F00",
"T  c #432000",
"R  c #452000",
"E  c #462000",
"W  c #462100",
"Q  c #472100",
"!  c #492100",
"~  c #482200",
"^  c #492200",
"/  c #482300",
"(  c #492300",
")  c #4D2C0B",
"_  c #512B05",
"`  c #512B09",
"'  c #474646",
"]  c gray28",
"[  c #4B4B4B",
"{  c #4C4B4B",
"}  c #4C4C4C",
"|  c #3E92B8",
" . c #4999BC",
".. c #A3A2A8",
"X. c #A3A2A9",
"o. c #A7A5AC",
"O. c #C2868A",
"+. c #C4878C",
"@. c #C3888C",
"#. c #C4888C",
"$. c #C89699",
"%. c #C99699",
"&. c #CD989D",
"*. c #CC999D",
"=. c #CD9A9D",
"-. c #CD999E",
";. c #CD9A9E",
":. c #CD9B9F",
">. c #CE9A9F",
",. c #CE9B9F",
"<. c #CF9B9F",
"1. c #CE9CA0",
"2. c #DFB1B6",
"3. c #DEB7BB",
"4. c #DFB7BD",
"5. c #DFB8BC",
"6. c #DFB8BD",
"7. c #DFB9BD",
"8. c #DFBABD",
"9. c #E0BABD",
"0. c #E0BABE",
"q. c #D6D6D7",
"w. c #D9D9DA",
"e. c #DAD9DA",
"r. c #DADADB",
"t. c #F5F4F4",
"y. c #F7F5F5",
"u. c gray98",
"i. c #FDFDFC",
"p. c white",
"a. c None",
/* pixels */
"a.a.a.a.a.a.a.a.a.a.a.a.a.a.a.a.a.a.a.a.a.a.a.a.a.a.a.a.a.a.a.a.a.a.a.a.a.a.a.a.a.a.a.a.a.a.a.a.a.a.a.a.a.a.a.a.a.a.a.a.a.a.a.a.a.",
"a.a.a.a.a.a.a.a.a.a.a.a.a.a.a.a.a.a.a.a.a.a.a.a.a.a.a.a.a.a.a.a.a.a.a.a.a.a.a.a.a.a.a.a.a.a.a.a.a.a.a.a.a.a.a.a.a.a.a.a.a.a.a.a.a.",
"a.a.a.a.a.a.a.a.a.a.a.a.a.a.a.a.a.a.a.a.a.a.a.a.a.a.a.a.a.a.a.p i p i i p i i k k k s a.a.a.a.a.a.a.a.a.a.a.a.a.a.a.a.a.a.a.a.a.a.",
"a.a.a.a.a.a.a.a.a.a.a.a.a.a.a.a.a.a.a.a.a.a.a.a.a.a.a.a.a.s s s i i i s f f i i i i k s a.a.p a.a.a.a.a.a.a.a.a.a.a.a.a.a.a.a.a.a.",
"a.a.a.a.a.a.a.a.a.a.a.a.a.a.a.a.a.a.a.a.a.a.a.a.a.a.a.a.s f c c ( i b c c ^ p f p i i k g p p p a.a.a.a.a.a.a.a.a.a.a.a.a.a.a.a.a.",
"a.a.a.a.a.a.a.a.a.a.a.a.a.a.a.a.a.a.a.a.a.a.a.a.a.a.a.a.s ~ c x ~ v v c ! c c i f d i p f p p a.a.a.a.a.a.a.a.a.a.a.a.a.a.a.a.a.a.",
"a.a.a.a.a.a.a.a.a.a.a.a.a.a.a.a.a.a.a.a.a.a.a.a.a.a.s s ~ c ~ a a c c p p c c R i f i i p j j p a.a.a.a.a.a.a.a.a.a.a.a.a.a.a.a.a.",
"a.a.a.a.a.a.a.a.a.a.a.a.a.a.a.a.a.a.a.a.a.a.a.a.a.a.h c c v c a a a a i i ~ c R i i d p i j i i a.a.a.a.a.a.a.a.a.a.a.a.a.a.a.a.a.",
"a.a.a.a.a.a.a.a.a.a.a.a.a.a.a.a.a.a.a.a.a.a.a.a.a.a.c W c _ :.;.;.;.;.;.;.` c Y T W p p k i i i a.a.a.a.a.a.a.a.a.a.a.a.a.a.a.a.a.",
"a.a.a.a.a.a.a.a.a.a.a.a.a.a.a.a.a.a.a.a.a.a.a.a.a.a.c c E 1.,.;.1.;.;.:.;.1.c x c c c E p g p i a.a.a.a.a.a.a.a.a.a.a.a.a.a.a.a.a.",
"a.a.a.a.a.a.a.a.a.a.a.a.a.a.a.a.a.a.a.a.a.a.a.a.a.a.a.p p y.t.z z 0.0.3.z z v x c c c Q $.;.f i a.a.a.a.a.a.a.a.a.a.a.a.a.a.a.a.a.",
"a.a.a.a.a.a.a.a.a.a.a.a.a.a.a.a.a.a.a.a.a.a.a.a.a.a.a.i i u.t.z z 0.0.0.z l i.p.=.p p ,.$.;.f p a.a.a.a.a.a.a.a.a.a.a.a.a.a.a.a.a.",
"a.a.a.a.a.a.a.a.a.a.a.a.a.a.a.a.a.a.a.a.a.a.a.a.a.a.a.a.p p.p./ ~ 0.7.0./ ~ p.p.<.p p >.;.;.p p a.a.a.a.a.a.a.a.a.a.a.a.a.a.a.a.a.",
"a.a.a.a.a.a.a.a.a.a.a.a.a.a.a.a.a.a.a.a.a.a.a.a.a.a.a.a.i p.p.) ) 7.2.0.) ) p.p.-.;.;.;.;.%.f a.a.a.a.a.a.a.a.a.a.a.a.a.a.a.a.a.a.",
"a.a.a.a.a.a.a.a.a.a.a.a.a.a.a.a.a.a.a.a.a.a.a.a.a.a.a.a.a.2.0.2.0.2.0.2.7.2.0.2.&.;.;.;.p p a.a.a.a.a.a.a.a.a.a.a.a.a.a.a.a.a.a.a.",
"a.a.a.a.a.a.a.a.a.a.a.a.a.a.a.a.a.a.a.a.a.a.a.a.a.a.a.a.a.9.2.0.2.0.2.0.2.0.2.0.*.;.;.;.p p a.a.a.a.a.a.a.a.a.a.a.a.a.a.a.a.a.a.a.",
"a.a.a.a.a.a.a.a.a.a.a.a.a.a.a.a.a.a.a.a.a.a.a.a.a.a.a.a.a.0.0.0.0.0.0.0.0.0.0.0.;.;.;.;.p a.a.a.a.a.a.a.a.a.a.a.a.a.a.a.a.a.a.a.a.",
"a.a.a.a.a.a.a.a.a.a.a.a.a.a.a.a.a.a.a.a.a.a.a.a.a.a.a.a.a.9.0.0.8.8.7.7.7.8.0.9.;.;.;.$.a.a.a.a.a.a.a.a.a.a.a.a.a.a.a.a.a.a.a.a.a.",
"a.a.a.a.a.a.a.a.a.a.a.a.a.a.a.a.a.a.a.a.a.a.a.a.a.a.a.a.a.a.a.a.=     o +.#.#.@.$           % a.a.a.a.a.a.a.a.a.a.a.a.a.a.a.a.a.a.",
"a.a.a.a.a.a.a.a.a.a.a.a.a.a.a.a.a.a.a.a.a.a.a.a.a.a.a.a.a.a.a.a.$     $ O.O.O.@.              a.a.a.a.a.a.a.a.a.a.a.a.a.a.a.a.a.a.",
"a.a.a.a.a.a.a.a.a.a.a.a.a.a.a.a.a.a.a.a.a.a.a.a.a.a.a.a.a.a.    C V C $ C C C C   C Z C C C     a.a.a.a.a.a.a.a.a.a.a.a.a.a.a.a.a.",
"a.a.a.a.a.a.a.a.a.a.a.a.a.a.a.a.a.a.a.a.a.a.a.a.a.a.a.a.a.a.  B B Z Z   Z Z Z B   B Z Z V A       a.a.a.a.a.a.a.a.a.a.a.a.a.a.a.a.",
"a.a.a.a.a.a.a.a.a.a.a.a.a.a.a.a.a.a.a.a.a.a.a.a.a.a.a.a.. . B Z Z Z Z   V B Z B   B B D B A =     % a.a.a.a.a.a.a.a.a.a.a.a.a.a.a.",
"a.a.a.a.a.a.a.a.a.a.a.a.a.a.a.a.a.a.a.a.a.a.a.a.a.a.a.a.. B B A A B V   Z V B B   B B V C B B C       a.a.a.a.a.a.a.a.a.a.a.a.a.a.",
"a.a.a.a.a.a.a.a.a.a.a.a.a.a.a.a.a.a.a.a.a.a.a.a.a.a.a.a.. Z B o Z Z D   Z B B Z   C B B o B Z B =     a.a.a.a.a.a.a.a.a.a.a.a.a.a.",
"a.a.a.a.a.a.a.a.a.a.a.a.a.a.a.a.a.a.a.a.a.a.a.a.a.a.a.a.. B C   Z Z Z   Z B Z Z   Z Z B = V B B =     a.a.a.a.a.a.a.a.a.a.a.a.a.a.",
"a.a.a.a.a.a.a.a.a.a.a.a.a.a.a.a.a.a.a.a.a.a.a.a.a.a.a.a.. B y   Z Z Z   Z Z Z Z   Z Z Z     B Z Z C o a.a.a.a.a.a.a.a.a.a.a.a.a.a.",
"a.a.a.a.a.a.a.a.a.a.a.a.a.a.a.a.a.a.a.a.a.a.a.a.a.a.a.a.. B y   D Z Z   D C Z Z   Z Z Z   = B B B B   a.a.a.a.a.a.a.a.a.a.a.a.a.a.",
"a.a.a.a.a.a.a.a.a.a.a.a.a.a.a.a.a.a.a.a.a.a.a.a.a.a.a.a.. B y   Z Z Z             Z Z D     B Z Z B o a.a.a.a.a.a.a.a.a.a.a.a.a.a.",
"a.a.a.a.a.a.a.a.a.a.a.a.a.a.a.a.a.a.a.a.a.a.a.a.a.a.a.a.. V u   C Z Z   |  .p.p.  Z Z V     B B Z C o a.a.a.a.a.a.a.a.a.a.a.a.a.a.",
"a.a.a.a.a.a.a.a.a.a.a.a.a.a.a.a.a.a.a.a.a.a.a.a.a.a.a.a.. B y   D Z Z   | |  .p.  Z Z Z     Z Z B     a.a.a.a.a.a.a.a.a.a.a.a.a.a.",
"a.a.a.a.a.a.a.a.a.a.a.a.a.a.a.a.a.a.a.a.a.a.a.a.a.a.a.a.. B u   B B B             Z B B     B B B     a.a.a.a.a.a.a.a.a.a.a.a.a.a.",
"a.a.a.a.a.a.a.a.a.a.a.a.a.a.a.a.a.a.a.a.a.a.a.a.a.a.a.a.. B u   B B B B B Z B B B B B B   = B Z Z Z < a.a.a.a.a.a.a.a.a.a.a.a.a.a.",
"a.a.a.a.a.a.a.a.a.a.a.a.a.a.a.a.a.a.a.a.a.a.a.a.a.a.a.a.. S     B V B Z Z B B Z B B Z B     B B B S w a.a.a.a.a.a.a.a.a.a.a.a.a.a.",
"a.a.a.a.a.a.a.a.a.a.a.a.a.a.a.a.a.a.a.a.a.a.a.a.a.a.a.a.= = =     C B B B B B B B B B C     o = o =   a.a.a.a.a.a.a.a.a.a.a.a.a.a.",
"a.a.a.a.a.a.a.a.a.a.a.a.a.a.a.a.a.a.a.a.a.a.a.a.a.a.a.a.    O       C B B Z Z Z Z B B =     o = o O   a.a.a.a.a.a.a.a.a.a.a.a.a.a.",
"a.a.a.a.a.a.a.a.a.a.a.a.a.a.a.a.a.a.a.a.a.a.a.a.a.a.a.a.+.O.O.@.=   C V V V V B V V C     @.O.@.+.O.+.a.a.a.a.a.a.a.a.a.a.a.a.a.a.",
"a.a.a.a.a.a.a.a.a.a.a.a.a.a.a.a.a.a.a.a.a.a.a.a.a.a.a.a.+.O.O.+.%   o o =   = =     o o = @.O.O.O.O.O.a.a.a.a.a.a.a.a.a.a.a.a.a.a.",
"a.a.a.a.a.a.a.a.a.a.a.a.a.a.a.a.a.a.a.a.a.a.a.a.a.a.a.a.6.7.7.5.# , 1 o             O # + 5.7.4.6.O.O.a.a.a.a.a.a.a.a.a.a.a.a.a.a.",
"a.a.a.a.a.a.a.a.a.a.a.a.a.a.a.a.a.a.a.a.a.a.a.a.a.a.a.a.5.7.7.7.< , 1 P P @ G P P P n , , 5.7.7.7.O.O.a.a.a.a.a.a.a.a.a.a.a.a.a.a.",
"a.a.a.a.a.a.a.a.a.a.a.a.a.a.a.a.a.a.a.a.a.a.a.a.a.a.a.a.a.a.7.7.q , Z Z P @ : P P P 0 , , 7.7.7.7.a.a.a.a.a.a.a.a.a.a.a.a.a.a.a.a.",
"a.a.a.a.a.a.a.a.a.a.a.a.a.a.a.a.a.a.a.a.a.a.a.a.a.a.a.a.a.a.5.5.Z Z Z , m @ : : P Z 8 q t 5.7.7.5.a.a.a.a.a.a.a.a.a.a.a.a.a.a.a.a.",
"a.a.a.a.a.a.a.a.a.a.a.a.a.a.a.a.a.a.a.a.a.a.a.a.a.a.a.a.a.a.a.a.P Z Z Z , r a.a.P Z 4 3 , , a.a.a.a.a.a.a.a.a.a.a.a.a.a.a.a.a.a.a.",
"a.a.a.a.a.a.a.a.a.a.a.a.a.a.a.a.a.a.a.a.a.a.a.a.a.a.a.a.a.a.a.a.m Z Z Z , * a.a.Z Z K 3 3 , a.a.a.a.a.a.a.a.a.a.a.a.a.a.a.a.a.a.a.",
"a.a.a.a.a.a.a.a.a.a.a.a.a.a.a.a.a.a.a.a.a.a.a.a.a.a.a.a.a.a.a.a.M Z Z Z , , a.a.P K K J , 8 a.a.a.a.a.a.a.a.a.a.a.a.a.a.a.a.a.a.a.",
"a.a.a.a.a.a.a.a.a.a.a.a.a.a.a.a.a.a.a.a.a.a.a.a.a.a.a.a.a.a.a.a.Z Z Z Z , , a.a.P K Z H 3 , a.a.a.a.a.a.a.a.a.a.a.a.a.a.a.a.a.a.a.",
"a.a.a.a.a.a.a.a.a.a.a.a.a.a.a.a.a.a.a.a.a.a.a.a.a.a.a.a.a.a.a.a.Z Z Z L 8 , a.a.L H H K e e a.a.a.a.a.a.a.a.a.a.a.a.a.a.a.a.a.a.a.",
"a.a.a.a.a.a.a.a.a.a.a.a.a.a.a.a.a.a.a.a.a.a.a.a.a.a.a.a.a.a.a.a.Z Z , 7 , , a.a.L 8 7 + 7 , a.a.a.a.a.a.a.a.a.a.a.a.a.a.a.a.a.a.a.",
"a.a.a.a.a.a.a.a.a.a.a.a.a.a.a.a.a.a.a.a.a.a.a.a.a.a.a.a.a.a.a.a.Z Z Z n , , a.a.P q F 7 X r a.a.a.a.a.a.a.a.a.a.a.a.a.a.a.a.a.a.a.",
"a.a.a.a.a.a.a.a.a.a.a.a.a.a.a.a.a.a.a.a.a.a.a.a.a.a.a.a.a.a.a.a.Z Z Z Z , , a.a.P J J J 8 8 a.a.a.a.a.a.a.a.a.a.a.a.a.a.a.a.a.a.a.",
"a.a.a.a.a.a.a.a.a.a.a.a.a.a.a.a.a.a.a.a.a.a.a.a.a.a.a.a.a.a.a.a.Z Z Z Z 8 8 a.a.L Z K J - - a.a.a.a.a.a.a.a.a.a.a.a.a.a.a.a.a.a.a.",
"a.a.a.a.a.a.a.a.a.a.a.a.a.a.a.a.a.a.a.a.a.a.a.a.a.a.a.a.a.a.a.a.Z Z Z P 9 , a.a.P Z Z J > > a.a.a.a.a.a.a.a.a.a.a.a.a.a.a.a.a.a.a.",
"a.a.a.a.a.a.a.a.a.a.a.a.a.a.a.a.a.a.a.a.a.a.a.a.a.a.a.a.a.a.a.a.Z Z Z Z , , a.a.P Z Z Z > > a.a.a.a.a.a.a.a.a.a.a.a.a.a.a.a.a.a.a.",
"a.a.a.a.a.a.a.a.a.a.a.a.a.a.a.a.a.a.a.a.a.a.a.a.a.a.a.a.a.a.a.a.P Z Z P , , a.a.Z Z P P - - a.a.a.a.a.a.a.a.a.a.a.a.a.a.a.a.a.a.a.",
"a.a.a.a.a.a.a.a.a.a.a.a.a.a.a.a.a.a.a.a.a.a.a.a.a.a.a.a.a.a.a.a.m Z Z P n , a.a.Z P I P ; ; a.a.a.a.a.a.a.a.a.a.a.a.a.a.a.a.a.a.a.",
"a.a.a.a.a.a.a.a.a.a.a.a.a.a.a.a.a.a.a.a.a.a.a.a.a.a.a.a.a.a.a.a.P Z Z N ; & a.a.P P I Z > > a.a.a.a.a.a.a.a.a.a.a.a.a.a.a.a.a.a.a.",
"a.a.a.a.a.a.a.a.a.a.a.a.a.a.a.a.a.a.a.a.a.a.a.a.a.a.a.a.a.a.a.a.P I P L ; & a.a.U P P L ; ; a.a.a.a.a.a.a.a.a.a.a.a.a.a.a.a.a.a.a.",
"a.a.a.a.a.a.a.a.a.a.a.a.a.a.a.a.a.a.a.a.a.a.a.a.a.a.a.a.a.a.a.a.[ ' ' [ , 6 a.a.[ ] ] } 6 6 a.a.a.a.a.a.a.a.a.a.a.a.a.a.a.a.a.a.a.",
"a.a.a.a.a.a.a.a.a.a.a.a.a.a.a.a.a.a.a.a.a.a.a.a.a.a.a.a.a.a.a.a.' ' ' } , 6 a.a.{ } [ } 6 6 a.a.a.a.a.a.a.a.a.a.a.a.a.a.a.a.a.a.a.",
"a.a.a.a.a.a.a.a.a.a.a.a.a.a.a.a.a.a.a.a.a.a.a.a.a.a.a.a.a.a.} { ] ] 2 , 2 { { ] ] 5 , 2 , 6 a.a.a.a.a.a.a.a.a.a.a.a.a.a.a.a.a.a.a.",
"a.a.a.a.a.a.a.a.a.a.a.a.a.a.a.a.a.a.a.a.a.a.a.a.a.a.a.a.a.a.} ] ] } 6 , 2 [ } ] } 2 , 6 6 6 a.a.a.a.a.a.a.a.a.a.a.a.a.a.a.a.a.a.a.",
"a.a.a.a.a.a.a.a.a.a.a.a.a.a.a.a.a.a.a.a.a.a.a.a.a.a.a.a.a.a.w.w.w.w.X.X.X.w.w.r.e.o.X.X...X.a.a.a.a.a.a.a.a.a.a.a.a.a.a.a.a.a.a.a.",
"a.a.a.a.a.a.a.a.a.a.a.a.a.a.a.a.a.a.a.a.a.a.a.a.a.a.a.a.a.a.w.w.w.w.X.o.X.q.w.w.w.o.X.X.X.X.a.a.a.a.a.a.a.a.a.a.a.a.a.a.a.a.a.a.a.",
"a.a.a.a.a.a.a.a.a.a.a.a.a.a.a.a.a.a.a.a.a.a.a.a.a.a.a.a.a.a.a.a.a.a.a.a.a.a.a.a.a.a.a.a.a.a.a.a.a.a.a.a.a.a.a.a.a.a.a.a.a.a.a.a.a.",
"a.a.a.a.a.a.a.a.a.a.a.a.a.a.a.a.a.a.a.a.a.a.a.a.a.a.a.a.a.a.a.a.a.a.a.a.a.a.a.a.a.a.a.a.a.a.a.a.a.a.a.a.a.a.a.a.a.a.a.a.a.a.a.a.a."
};
