/* XPM */
static char *result[] = {
/* columns rows colors chars-per-pixel */
"65 65 160 2 ",
"   c black",
".  c #000103",
"X  c #010104",
"o  c #020104",
"O  c #000204",
"+  c #000205",
"@  c #010205",
"#  c #010305",
"$  c #020204",
"%  c #020205",
"&  c #030205",
"*  c #010306",
"=  c #020407",
"-  c #0A0707",
";  c #020408",
":  c #020508",
">  c #0C090C",
",  c #0D090C",
"<  c gray5",
"1  c #0E0E0E",
"2  c gray8",
"3  c #151414",
"4  c #151415",
"5  c #161515",
"6  c #161516",
"7  c #161616",
"8  c #161617",
"9  c #1A1213",
"0  c #191919",
"q  c gray10",
"w  c #1B1A1A",
"e  c #1B1A1B",
"r  c #1C1B1B",
"t  c #1C1C1E",
"y  c #1C1C1F",
"u  c #1C1D1F",
"i  c #1E1E1E",
"p  c #201001",
"a  c #221001",
"s  c #221101",
"d  c #251200",
"f  c #261200",
"g  c #271200",
"h  c #271300",
"j  c #281400",
"k  c #291400",
"l  c #291602",
"z  c #2C1500",
"x  c #2D1500",
"c  c #2D1600",
"v  c #301700",
"b  c #311700",
"n  c #3B1C00",
"m  c #3B1D00",
"M  c #3C1D00",
"N  c #3D1D00",
"B  c #3D1E00",
"V  c #3C1E01",
"C  c #311F0C",
"Z  c #32200D",
"A  c #38220C",
"S  c #39230D",
"D  c #352411",
"F  c #1C1D20",
"G  c #1D1E20",
"H  c #1E1F22",
"J  c #1F2023",
"K  c #202020",
"L  c gray13",
"P  c #212122",
"I  c #232323",
"U  c gray14",
"Y  c #242525",
"T  c #252525",
"R  c #262525",
"E  c #252626",
"W  c gray15",
"Q  c #272628",
"!  c #262729",
"~  c #27282B",
"^  c #27292B",
"/  c #28292B",
"(  c #28292C",
")  c #28292D",
"_  c #292A2D",
"`  c #442100",
"'  c #452200",
"]  c #462200",
"[  c #472200",
"{  c #442407",
"}  c #482300",
"|  c #482400",
" . c #452508",
".. c #442509",
"X. c #44250A",
"o. c #45260A",
"O. c #46270A",
"+. c #46290B",
"@. c #472A0D",
"#. c #4F2908",
"$. c #512B09",
"%. c #4C2B10",
"&. c #563415",
"*. c #573516",
"=. c #5C391C",
"-. c #614023",
";. c #474646",
":. c gray28",
">. c #494949",
",. c #4B4B4B",
"<. c #4C4C4C",
"1. c gray39",
"2. c #656565",
"3. c #B67E82",
"4. c #3E92B8",
"5. c #4998BC",
"6. c #4999BC",
"7. c #C2868A",
"8. c #C2878B",
"9. c #C3878B",
"0. c #C3878C",
"q. c #C4888B",
"w. c #C3888C",
"e. c #C3898C",
"r. c #C4888C",
"t. c #C49294",
"y. c #C59395",
"u. c #C79597",
"i. c #CC999D",
"p. c #CC9A9E",
"a. c #CD9A9E",
"s. c #CD9B9F",
"d. c #D7B1B3",
"f. c #DEB1B6",
"g. c #DFB1B6",
"h. c #DFB2B6",
"j. c #DFB2B7",
"k. c #DDB6BA",
"l. c #DEB7BB",
"z. c #DFB7BC",
"x. c #DFB7BD",
"c. c #DEB8BC",
"v. c #DFB8BC",
"b. c #DFB9BD",
"n. c #DFBABE",
"m. c #E0BABE",
"M. c #E0BBBE",
"N. c #E0BBBF",
"B. c #D8D8D9",
"V. c #D9D9DA",
"C. c #DADADC",
"Z. c #DBDBDC",
"A. c #F3EFED",
"S. c gray94",
"D. c #F4F2F0",
"F. c #F5F3F1",
"G. c #F5F3F2",
"H. c #FFFCFC",
"J. c white",
"K. c None",
/* pixels */
"K.K.K.K.K.K.K.K.K.K.K.K.K.K.K.K.K.K.K.K.K.K.K.K.K.K.K.K.K.K.K.K.K.K.K.K.K.K.K.K.K.K.K.K.K.K.K.K.K.K.K.K.K.K.K.K.K.K.K.K.K.K.K.K.K.",
"K.K.K.K.K.K.K.K.K.K.K.K.K.K.K.K.K.K.K.K.K.K.K.K.K.K.K.K.K.K.K.K.K.K.K.K.K.K.K.K.K.K.K.K.K.K.K.K.K.K.K.K.K.K.K.K.K.K.K.K.K.K.K.K.K.",
"K.K.K.K.K.K.K.K.K.K.K.K.K.K.K.K.K.K.K.K.K.K.K.K.K.K.K.K.K.b v h h g g g l K.K.K.K.K.K.K.K.K.K.K.K.K.K.K.K.K.K.K.K.K.K.K.K.K.K.K.K.",
"K.K.K.K.K.K.K.K.K.K.K.K.K.K.K.K.K.K.K.K.K.K.K.K.K.z K.b b f h h h g g g l z x K.K.K.K.K.K.K.K.K.K.K.K.K.K.K.K.K.K.K.K.K.K.K.K.K.K.",
"K.K.K.K.K.K.K.K.K.K.K.K.K.K.K.K.K.K.K.K.K.K.K.K.S x x v v f n m l g M M j h l h j K.K.K.K.K.K.K.K.K.K.K.K.K.K.K.K.K.K.K.K.K.K.K.K.",
"K.K.K.K.K.K.K.K.K.K.K.K.K.K.K.K.K.K.K.K.K.K.K.K.K.x b h ` M ] ] M M M N [ ` l h h A K.K.K.K.K.K.K.K.K.K.K.K.K.K.K.K.K.K.K.K.K.K.K.",
"K.K.K.K.K.K.K.K.K.K.K.K.K.K.K.K.K.K.K.K.K.K.K.K.c c h h ' ] s M M M M s [ M k h h x K.K.K.K.K.K.K.K.K.K.K.K.K.K.K.K.K.K.K.K.K.K.K.",
"K.K.K.K.K.K.K.K.K.K.K.K.K.K.K.K.K.K.K.K.K.K.K.K.d h h M ] ] s p M M a s n ] ] h h h K.K.K.K.K.K.K.K.K.K.K.K.K.K.K.K.K.K.K.K.K.K.K.",
"K.K.K.K.K.K.K.K.K.K.K.K.K.K.K.K.K.K.K.K.K.K.K.K.z h d M ] M t.i.i.u.a.y.{ M M j h j K.K.K.K.K.K.K.K.K.K.K.K.K.K.K.K.K.K.K.K.K.K.K.",
"K.K.K.K.K.K.K.K.K.K.K.K.K.K.K.K.K.K.K.K.K.K.K.K.f M ] ] ] $.i.i.i.u.a.p.%.B ] ] @.D K.K.K.K.K.K.K.K.K.K.K.K.K.K.K.K.K.K.K.K.K.K.K.",
"K.K.K.K.K.K.K.K.K.K.K.K.K.K.K.K.K.K.K.K.K.K.K.K.M M ] ] M X.X.c.m.M.v.X.V +.M M  .B K.K.K.K.K.K.K.K.K.K.K.K.K.K.K.K.K.K.K.K.K.K.K.",
"K.K.K.K.K.K.K.K.K.K.K.K.K.K.K.K.K.K.K.K.K.K.K.K.j 7.i.A.F.o...m.M.M.b...M D.F.i.7.j K.K.K.K.K.K.K.K.K.K.K.K.K.K.K.K.K.K.K.K.K.K.K.",
"K.K.K.K.K.K.K.K.K.K.K.K.K.K.K.K.K.K.K.K.K.K.K.K.h 9.i.H.J.O.| b.M.M.d.#.} D.J.s.9.h K.K.K.K.K.K.K.K.K.K.K.K.K.K.K.K.K.K.K.K.K.K.K.",
"K.K.K.K.K.K.K.K.K.K.K.K.K.K.K.K.K.K.K.K.K.K.K.K.j 8.s.H.J.-.*.m.m.M.m.=.&.G.J.s.0.h K.K.K.K.K.K.K.K.K.K.K.K.K.K.K.K.K.K.K.K.K.K.K.",
"K.K.K.K.K.K.K.K.K.K.K.K.K.K.K.K.K.K.K.K.K.K.K.K.K.C g.g.j.j.v.g.m.M.g.b.g.m.g.v.Z K.K.K.K.K.K.K.K.K.K.K.K.K.K.K.K.K.K.K.K.K.K.K.K.",
"K.K.K.K.K.K.K.K.K.K.K.K.K.K.K.K.K.K.K.K.K.K.K.K.K.C f.g.j.v.j.m.g.M.n.g.m.g.m.z.Z K.K.K.K.K.K.K.K.K.K.K.K.K.K.K.K.K.K.K.K.K.K.K.K.",
"K.K.K.K.K.K.K.K.K.K.K.K.K.K.K.K.K.K.K.K.K.K.K.K.K.K.z.v.v.v.v.m.m.m.m.m.m.m.m.h.K.K.K.K.K.K.K.K.K.K.K.K.K.K.K.K.K.K.K.K.K.K.K.K.K.",
"K.K.K.K.K.K.K.K.K.K.K.K.K.K.K.K.K.K.K.K.K.K.K.K.K.K.v.v.m.m.m.m.m.m.m.m.m.m.m.N.K.K.K.K.K.K.K.K.K.K.K.K.K.K.K.K.K.K.K.K.K.K.K.K.K.",
"K.K.K.K.K.K.K.K.K.K.K.K.K.K.K.K.K.K.K.K.K.K.K.K.K.&           3.e.r.q.9 X       1 K.K.K.K.K.K.K.K.K.K.K.K.K.K.K.K.K.K.K.K.K.K.K.K.",
"K.K.K.K.K.K.K.K.K.K.K.K.K.K.K.K.K.K.K.K.K.K.K.K.K.            9.w.7.7.- $       < K.K.K.K.K.K.K.K.K.K.K.K.K.K.K.K.K.K.K.K.K.K.K.K.",
"K.K.K.K.K.K.K.K.K.K.K.K.K.K.K.K.K.K.K.K.K.K.K.    I T T P T   T T P P   T T L P i   < K.K.K.K.K.K.K.K.K.K.K.K.K.K.K.K.K.K.K.K.K.K.",
"K.K.K.K.K.K.K.K.K.K.K.K.K.K.K.K.K.K.K.K.K.K.    I I T T T T   T T T T   T T T K K i   < K.K.K.K.K.K.K.K.K.K.K.K.K.K.K.K.K.K.K.K.K.",
"K.K.K.K.K.K.K.K.K.K.K.K.K.K.K.K.K.K.K.K.K.K.  I I T T K W K   T T T K   T T T T T K i   K.K.K.K.K.K.K.K.K.K.K.K.K.K.K.K.K.K.K.K.K.",
"K.K.K.K.K.K.K.K.K.K.K.K.K.K.K.K.K.K.K.K.K.K.  I T T K K L K   T T K L   T T K R R K T   K.K.K.K.K.K.K.K.K.K.K.K.K.K.K.K.K.K.K.K.K.",
"K.K.K.K.K.K.K.K.K.K.K.K.K.K.K.K.K.K.K.K.K.K.  T T T K K K K   T T K K   T T T T T T T   K.K.K.K.K.K.K.K.K.K.K.K.K.K.K.K.K.K.K.K.K.",
"K.K.K.K.K.K.K.K.K.K.K.K.K.K.K.K.K.K.K.K.K.K.  T K K L K K T   T T T K   T T T   T T T   K.K.K.K.K.K.K.K.K.K.K.K.K.K.K.K.K.K.K.K.K.",
"K.K.K.K.K.K.K.K.K.K.K.K.K.K.K.K.K.K.K.K.K.K.  T T K   K K T   T T T T   T T T   T T T   K.K.K.K.K.K.K.K.K.K.K.K.K.K.K.K.K.K.K.K.K.",
"K.K.K.K.K.K.K.K.K.K.K.K.K.K.K.K.K.K.K.K.K.K.  K K K 2 K K T   T T T P   T T T 2 T T T   K.K.K.K.K.K.K.K.K.K.K.K.K.K.K.K.K.K.K.K.K.",
"K.K.K.K.K.K.K.K.K.K.K.K.K.K.K.K.K.K.K.K.K.K.  T T K   K W T             T T T   T T K   K.K.K.K.K.K.K.K.K.K.K.K.K.K.K.K.K.K.K.K.K.",
"K.K.K.K.K.K.K.K.K.K.K.K.K.K.K.K.K.K.K.K.K.K.  T K K   K L T   J.J.5.6.  T T T 2 T T L   K.K.K.K.K.K.K.K.K.K.K.K.K.K.K.K.K.K.K.K.K.",
"K.K.K.K.K.K.K.K.K.K.K.K.K.K.K.K.K.K.K.K.K.K.  K T T   K T T   S.5.6.4.  T T T   T T K   K.K.K.K.K.K.K.K.K.K.K.K.K.K.K.K.K.K.K.K.K.",
"K.K.K.K.K.K.K.K.K.K.K.K.K.K.K.K.K.K.K.K.K.K.  K K K   K K K             T T K   T T K   K.K.K.K.K.K.K.K.K.K.K.K.K.K.K.K.K.K.K.K.K.",
"K.K.K.K.K.K.K.K.K.K.K.K.K.K.K.K.K.K.K.K.K.K.  T T K 2 K K K K K K K T K T T K   T T T   K.K.K.K.K.K.K.K.K.K.K.K.K.K.K.K.K.K.K.K.K.",
"K.K.K.K.K.K.K.K.K.K.K.K.K.K.K.K.K.K.K.K.K.K.  K K K   K K T K K T K K T T T L   U T T   K.K.K.K.K.K.K.K.K.K.K.K.K.K.K.K.K.K.K.K.K.",
"K.K.K.K.K.K.K.K.K.K.K.K.K.K.K.K.K.K.K.K.K.K.  K K K   K P K K K K K K K K K P   U U U   K.K.K.K.K.K.K.K.K.K.K.K.K.K.K.K.K.K.K.K.K.",
"K.K.K.K.K.K.K.K.K.K.K.K.K.K.K.K.K.K.K.K.K.K.  X % X   i 2 K K T T T T K K = +   o       K.K.K.K.K.K.K.K.K.K.K.K.K.K.K.K.K.K.K.K.K.",
"K.K.K.K.K.K.K.K.K.K.K.K.K.K.K.K.K.K.K.K.K.K.  > % > # O   = L L K L L L = +   2 ,       K.K.K.K.K.K.K.K.K.K.K.K.K.K.K.K.K.K.K.K.K.",
"K.K.K.K.K.K.K.K.K.K.K.K.K.K.K.K.K.K.K.K.K.K.7.7.7.7.O 2 X X     2 2   2 +       7.7.7.7.K.K.K.K.K.K.K.K.K.K.K.K.K.K.K.K.K.K.K.K.K.",
"K.K.K.K.K.K.K.K.K.K.K.K.K.K.K.K.K.K.K.K.K.K.k.b.x.k.# O @ o             X       k.b.b.b.K.K.K.K.K.K.K.K.K.K.K.K.K.K.K.K.K.K.K.K.K.",
"K.K.K.K.K.K.K.K.K.K.K.K.K.K.K.K.K.K.K.K.K.K.k.b.b.k.Q 7 7 F E ) ) ; + ) ) 0 0 8 k.b.b.l.K.K.K.K.K.K.K.K.K.K.K.K.K.K.K.K.K.K.K.K.K.",
"K.K.K.K.K.K.K.K.K.K.K.K.K.K.K.K.K.K.K.K.K.K.K.b.b.k.u 7 T T T ) : * + ) T T 7 r k.b.b.K.K.K.K.K.K.K.K.K.K.K.K.K.K.K.K.K.K.K.K.K.K.",
"K.K.K.K.K.K.K.K.K.K.K.K.K.K.K.K.K.K.K.K.K.K.K.v.b.k.G u T 0 0 : * * + H 7 T T 5 k.b.b.K.K.K.K.K.K.K.K.K.K.K.K.K.K.K.K.K.K.K.K.K.K.",
"K.K.K.K.K.K.K.K.K.K.K.K.K.K.K.K.K.K.K.K.K.K.K.K.K.K.7 7 T T 0 K.K.K.K.7 T T T 3 K.K.K.K.K.K.K.K.K.K.K.K.K.K.K.K.K.K.K.K.K.K.K.K.K.",
"K.K.K.K.K.K.K.K.K.K.K.K.K.K.K.K.K.K.K.K.K.K.K.K.K.K.7 T T T 3 K.K.K.K.7 T T T 3 K.K.K.K.K.K.K.K.K.K.K.K.K.K.K.K.K.K.K.K.K.K.K.K.K.",
"K.K.K.K.K.K.K.K.K.K.K.K.K.K.K.K.K.K.K.K.K.K.K.K.K.K.w T ^ / 3 K.K.K.K.7 T T T 3 K.K.K.K.K.K.K.K.K.K.K.K.K.K.K.K.K.K.K.K.K.K.K.K.K.",
"K.K.K.K.K.K.K.K.K.K.K.K.K.K.K.K.K.K.K.K.K.K.K.K.K.K.7 T ~ T 3 K.K.K.K.7 T T T 3 K.K.K.K.K.K.K.K.K.K.K.K.K.K.K.K.K.K.K.K.K.K.K.K.K.",
"K.K.K.K.K.K.K.K.K.K.K.K.K.K.K.K.K.K.K.K.K.K.K.K.K.K.t T / ~ 6 K.K.K.K.w ( T T 3 K.K.K.K.K.K.K.K.K.K.K.K.K.K.K.K.K.K.K.K.K.K.K.K.K.",
"K.K.K.K.K.K.K.K.K.K.K.K.K.K.K.K.K.K.K.K.K.K.K.K.K.K.7 0 O 0 w K.K.K.K.7 0 7 0 3 K.K.K.K.K.K.K.K.K.K.K.K.K.K.K.K.K.K.K.K.K.K.K.K.K.",
"K.K.K.K.K.K.K.K.K.K.K.K.K.K.K.K.K.K.K.K.K.K.K.K.K.K.y . 0 ! r K.K.K.K.7 Y q q 3 K.K.K.K.K.K.K.K.K.K.K.K.K.K.K.K.K.K.K.K.K.K.K.K.K.",
"K.K.K.K.K.K.K.K.K.K.K.K.K.K.K.K.K.K.K.K.K.K.K.K.K.K.w T ^ ^ 3 K.K.K.K.7 T T T 3 K.K.K.K.K.K.K.K.K.K.K.K.K.K.K.K.K.K.K.K.K.K.K.K.K.",
"K.K.K.K.K.K.K.K.K.K.K.K.K.K.K.K.K.K.K.K.K.K.K.K.K.K.3 T ^ / 3 K.K.K.K.w T T T 5 K.K.K.K.K.K.K.K.K.K.K.K.K.K.K.K.K.K.K.K.K.K.K.K.K.",
"K.K.K.K.K.K.K.K.K.K.K.K.K.K.K.K.K.K.K.K.K.K.K.K.K.K.5 T ^ T 3 K.K.K.K.e ) T U 3 K.K.K.K.K.K.K.K.K.K.K.K.K.K.K.K.K.K.K.K.K.K.K.K.K.",
"K.K.K.K.K.K.K.K.K.K.K.K.K.K.K.K.K.K.K.K.K.K.K.K.K.K.5 T T T 3 K.K.K.K.7 T T T 3 K.K.K.K.K.K.K.K.K.K.K.K.K.K.K.K.K.K.K.K.K.K.K.K.K.",
"K.K.K.K.K.K.K.K.K.K.K.K.K.K.K.K.K.K.K.K.K.K.K.K.K.K.3 T T ) 3 K.K.K.K.7 ) T T 3 K.K.K.K.K.K.K.K.K.K.K.K.K.K.K.K.K.K.K.K.K.K.K.K.K.",
"K.K.K.K.K.K.K.K.K.K.K.K.K.K.K.K.K.K.K.K.K.K.K.K.K.K.4 T T _ 3 K.K.K.K.F ) T T 3 K.K.K.K.K.K.K.K.K.K.K.K.K.K.K.K.K.K.K.K.K.K.K.K.K.",
"K.K.K.K.K.K.K.K.K.K.K.K.K.K.K.K.K.K.K.K.K.K.K.K.K.K.5 T T W 3 K.K.K.K.4 J T T 3 K.K.K.K.K.K.K.K.K.K.K.K.K.K.K.K.K.K.K.K.K.K.K.K.K.",
"K.K.K.K.K.K.K.K.K.K.K.K.K.K.K.K.K.K.K.K.K.K.K.K.K.K.4 T T E 3 K.K.K.K.4 ( ) _ 7 K.K.K.K.K.K.K.K.K.K.K.K.K.K.K.K.K.K.K.K.K.K.K.K.K.",
"K.K.K.K.K.K.K.K.K.K.K.K.K.K.K.K.K.K.K.K.K.K.K.K.K.K.<.>.<.:.:.K.K.K.K.<.,.;.;.,.K.K.K.K.K.K.K.K.K.K.K.K.K.K.K.K.K.K.K.K.K.K.K.K.K.",
"K.K.K.K.K.K.K.K.K.K.K.K.K.K.K.K.K.K.K.K.K.K.K.K.K.K.<.<.<.,.<.K.K.K.K.<.<.;.;.;.K.K.K.K.K.K.K.K.K.K.K.K.K.K.K.K.K.K.K.K.K.K.K.K.K.",
"K.K.K.K.K.K.K.K.K.K.K.K.K.K.K.K.K.K.K.K.K.K.K.K.K.K.2.2.2.2.1.K.K.K.K.2.2.2.2.1.K.K.K.K.K.K.K.K.K.K.K.K.K.K.K.K.K.K.K.K.K.K.K.K.K.",
"K.K.K.K.K.K.K.K.K.K.K.K.K.K.K.K.K.K.K.K.K.K.K.K.K.K.2.2.2.2.2.K.K.K.K.2.2.2.2.1.K.K.K.K.K.K.K.K.K.K.K.K.K.K.K.K.K.K.K.K.K.K.K.K.K.",
"K.K.K.K.K.K.K.K.K.K.K.K.K.K.K.K.K.K.K.K.K.K.K.K.K.K.B.Z.B.C.B.K.K.K.K.V.V.V.V.V.K.K.K.K.K.K.K.K.K.K.K.K.K.K.K.K.K.K.K.K.K.K.K.K.K.",
"K.K.K.K.K.K.K.K.K.K.K.K.K.K.K.K.K.K.K.K.K.K.K.K.K.K.B.Z.Z.C.Z.K.K.K.K.V.V.V.V.V.K.K.K.K.K.K.K.K.K.K.K.K.K.K.K.K.K.K.K.K.K.K.K.K.K.",
"K.K.K.K.K.K.K.K.K.K.K.K.K.K.K.K.K.K.K.K.K.K.K.K.K.K.K.K.K.K.K.K.K.K.K.K.K.K.K.K.K.K.K.K.K.K.K.K.K.K.K.K.K.K.K.K.K.K.K.K.K.K.K.K.K.",
"K.K.K.K.K.K.K.K.K.K.K.K.K.K.K.K.K.K.K.K.K.K.K.K.K.K.K.K.K.K.K.K.K.K.K.K.K.K.K.K.K.K.K.K.K.K.K.K.K.K.K.K.K.K.K.K.K.K.K.K.K.K.K.K.K."
};
