/* XPM */
static char *result[] = {
/* columns rows colors chars-per-pixel */
"64 64 139 2 ",
"   c black",
".  c #010101",
"X  c #020202",
"o  c gray1",
"O  c #020305",
"+  c #030306",
"@  c #040306",
"#  c #020406",
"$  c #020407",
"%  c #030407",
"&  c #040406",
"*  c #050407",
"=  c #030408",
"-  c #030508",
";  c #161616",
":  c #171616",
">  c #171617",
",  c gray9",
"<  c #181717",
"1  c #181818",
"2  c #181819",
"3  c #191919",
"4  c #1A1919",
"5  c #1B1919",
"6  c #1A191A",
"7  c gray10",
"8  c #1B1B1B",
"9  c #1C1919",
"0  c #1D1C1C",
"q  c #1D1C1D",
"w  c #1D1D1D",
"e  c #1E1D1D",
"r  c #271400",
"t  c #281400",
"y  c #281500",
"u  c #331800",
"i  c #321900",
"p  c #331900",
"a  c #331A00",
"s  c #341900",
"d  c #341901",
"f  c #351A00",
"g  c #361B00",
"h  c #371B00",
"j  c #3D1E00",
"k  c #3D1F01",
"l  c #3E1E00",
"z  c #3E1F00",
"x  c #3D1F02",
"c  c #3F2000",
"v  c #3F2001",
"b  c #3D2207",
"n  c #1A1A20",
"m  c #1E1E20",
"M  c #1E1E21",
"N  c #1E1F21",
"B  c #1E1F22",
"V  c #202020",
"C  c gray13",
"Z  c #222222",
"A  c #232323",
"S  c #202124",
"D  c #202125",
"F  c #212225",
"G  c #232324",
"H  c #272727",
"J  c #282727",
"K  c #282728",
"L  c #282828",
"P  c #28292B",
"I  c #28292D",
"U  c #292A2D",
"Y  c #292B2D",
"T  c #2A2B2D",
"R  c #2A2B2E",
"E  c #2A2B2F",
"W  c #2B2C2F",
"Q  c #2A2C30",
"!  c #452100",
"~  c #452200",
"^  c #472200",
"/  c #482200",
"(  c #482300",
")  c #492300",
"_  c #4B2300",
"`  c #4A2400",
"'  c #4B2400",
"]  c #4B2500",
"[  c #4A2401",
"{  c #4A2501",
"}  c #4F2E0D",
"|  c #532D07",
" . c #532D0B",
".. c #494848",
"X. c #494949",
"o. c gray30",
"O. c #4E4D4D",
"+. c #4E4E4E",
"@. c #4093B8",
"#. c #4B9ABC",
"$. c #A4A3A8",
"%. c #A4A3A9",
"&. c #A7A6AC",
"*. c #C2878B",
"=. c #C3898D",
"-. c #C4888D",
";. c #C4898D",
":. c #C8979A",
">. c #C9979A",
",. c #CD999E",
"<. c #CC9A9E",
"1. c #CD9B9E",
"2. c #CD9A9F",
"3. c #CD9B9F",
"4. c #CE9BA0",
"5. c #CD9CA0",
"6. c #CE9CA0",
"7. c #CF9CA0",
"8. c #CE9DA1",
"9. c #DFB1B6",
"0. c #DEB7BB",
"q. c #DFB7BD",
"w. c #DFB8BC",
"e. c #DFB8BD",
"r. c #DFB9BD",
"t. c #DFBABD",
"y. c #E0BABD",
"u. c #E0BABE",
"i. c #D6D6D7",
"p. c #D9D9DA",
"a. c #DAD9DA",
"s. c #DADADB",
"d. c #F5F4F4",
"f. c #F6F5F5",
"g. c #F9F9F9",
"h. c #FCFCFB",
"j. c #FEFEFE",
"k. c white",
"l. c None",
/* pixels */
"l.l.l.l.l.l.l.l.l.l.l.l.l.l.l.l.l.l.l.l.l.l.l.l.l.l.l.l.l.l.l.l.l.l.l.l.l.l.l.l.l.l.l.l.l.l.l.l.l.l.l.l.l.l.l.l.l.l.l.l.l.l.l.l.",
"l.l.l.l.l.l.l.l.l.l.l.l.l.l.l.l.l.l.l.l.l.l.l.l.l.l.l.l.l.l.l.l.l.l.l.l.l.l.l.l.l.l.l.l.l.l.l.l.l.l.l.l.l.l.l.l.l.l.l.l.l.l.l.l.",
"l.l.l.l.l.l.l.l.l.l.l.l.l.l.l.l.l.l.l.l.l.l.l.l.l.l.l.l.l.u h h h r r t r r t r t l.l.l.l.l.l.l.l.l.l.l.l.l.l.l.l.l.l.l.l.l.l.l.",
"l.l.l.l.l.l.l.l.l.l.l.l.l.l.l.l.l.l.l.l.l.l.l.l.l.t l.l.u h r r r r p p u r r r u u u l.l.l.l.l.l.l.l.l.l.l.l.l.l.l.l.l.l.l.l.l.",
"l.l.l.l.l.l.l.l.l.l.l.l.l.l.l.l.l.l.l.l.l.l.l.l.t t t d h r r t p t ' z z b r ] z z a u l.l.l.l.l.l.l.l.l.l.l.l.l.l.l.l.l.l.l.l.",
"l.l.l.l.l.l.l.l.l.l.l.l.l.l.l.l.l.l.l.l.l.l.l.l.l.t t p t r i p r z z _ z v c ` l z [ u l.l.l.l.l.l.l.l.l.l.l.l.l.l.l.l.l.l.l.l.",
"l.l.l.l.l.l.l.l.l.l.l.l.l.l.l.l.l.l.l.l.l.l.l.l.t g g t r r p r ^ z z t t z z y y ` z ` u u l.l.l.l.l.l.l.l.l.l.l.l.l.l.l.l.l.l.",
"l.l.l.l.l.l.l.l.l.l.l.l.l.l.l.l.l.l.l.l.l.l.l.l.r r g r t i r r ^ z ` r r y y y y z c z z f l.l.l.l.l.l.l.l.l.l.l.l.l.l.l.l.l.l.",
"l.l.l.l.l.l.l.l.l.l.l.l.l.l.l.l.l.l.l.l.l.l.l.l.r r r h t t ( ~ ! z  .3.3.3.3.3.3.5.| z ( z l.l.l.l.l.l.l.l.l.l.l.l.l.l.l.l.l.l.",
"l.l.l.l.l.l.l.l.l.l.l.l.l.l.l.l.l.l.l.l.l.l.l.l.r t s t / z z z l z 8.3.5.3.3.8.3.6.8./ z z l.l.l.l.l.l.l.l.l.l.l.l.l.l.l.l.l.l.",
"l.l.l.l.l.l.l.l.l.l.l.l.l.l.l.l.l.l.l.l.l.l.l.l.r p 3.:.) z z z l v k x 0.u.u.k x d.f.t t l.l.l.l.l.l.l.l.l.l.l.l.l.l.l.l.l.l.l.",
"l.l.l.l.l.l.l.l.l.l.l.l.l.l.l.l.l.l.l.l.l.l.l.l.t p 3.:.6.t t 1.k.h.j k u.u.u.k k d.g.r r l.l.l.l.l.l.l.l.l.l.l.l.l.l.l.l.l.l.l.",
"l.l.l.l.l.l.l.l.l.l.l.l.l.l.l.l.l.l.l.l.l.l.l.l.t t 3.3.4.t t 7.k.k.` { u.r.u.` { k.k.t l.l.l.l.l.l.l.l.l.l.l.l.l.l.l.l.l.l.l.l.",
"l.l.l.l.l.l.l.l.l.l.l.l.l.l.l.l.l.l.l.l.l.l.l.l.l.p >.3.3.3.3.2.j.j.} } u.9.r.} } k.j.r l.l.l.l.l.l.l.l.l.l.l.l.l.l.l.l.l.l.l.l.",
"l.l.l.l.l.l.l.l.l.l.l.l.l.l.l.l.l.l.l.l.l.l.l.l.l.l.t t 3.3.3.,.9.u.9.r.9.u.9.u.9.u.9.l.l.l.l.l.l.l.l.l.l.l.l.l.l.l.l.l.l.l.l.l.",
"l.l.l.l.l.l.l.l.l.l.l.l.l.l.l.l.l.l.l.l.l.l.l.l.l.l.t t 3.3.3.<.u.9.u.9.u.9.u.9.u.9.y.l.l.l.l.l.l.l.l.l.l.l.l.l.l.l.l.l.l.l.l.l.",
"l.l.l.l.l.l.l.l.l.l.l.l.l.l.l.l.l.l.l.l.l.l.l.l.l.l.l.t 3.3.3.3.u.u.u.u.u.u.u.u.u.u.u.l.l.l.l.l.l.l.l.l.l.l.l.l.l.l.l.l.l.l.l.l.",
"l.l.l.l.l.l.l.l.l.l.l.l.l.l.l.l.l.l.l.l.l.l.l.l.l.l.l.l.:.3.3.3.y.u.t.r.r.r.t.t.u.u.y.l.l.l.l.l.l.l.l.l.l.l.l.l.l.l.l.l.l.l.l.l.",
"l.l.l.l.l.l.l.l.l.l.l.l.l.l.l.l.l.l.l.l.l.l.l.l.l.* .     . . & =.;.;.-.+ .   ; l.l.l.l.l.l.l.l.l.l.l.l.l.l.l.l.l.l.l.l.l.l.l.l.",
"l.l.l.l.l.l.l.l.l.l.l.l.l.l.l.l.l.l.l.l.l.l.l.l.l.  .     . .   =.*.*.*.& .   & l.l.l.l.l.l.l.l.l.l.l.l.l.l.l.l.l.l.l.l.l.l.l.l.",
"l.l.l.l.l.l.l.l.l.l.l.l.l.l.l.l.l.l.l.l.l.l.l.l.  . G G G H G   G G G G & G A G X X l.l.l.l.l.l.l.l.l.l.l.l.l.l.l.l.l.l.l.l.l.l.",
"l.l.l.l.l.l.l.l.l.l.l.l.l.l.l.l.l.l.l.l.l.l.l.    . J A H H Z   Z H H H . H H Z Z X l.l.l.l.l.l.l.l.l.l.l.l.l.l.l.l.l.l.l.l.l.l.",
"l.l.l.l.l.l.l.l.l.l.l.l.l.l.l.l.l.l.l.l.l.l.* . . ; J Z L Z Z   Z H Z A . H H H H Z o o l.l.l.l.l.l.l.l.l.l.l.l.l.l.l.l.l.l.l.l.",
"l.l.l.l.l.l.l.l.l.l.l.l.l.l.l.l.l.l.l.l.l..     G Z Z G A Z Z   Z Z A H . A Z J J Z Z o l.l.l.l.l.l.l.l.l.l.l.l.l.l.l.l.l.l.l.l.",
"l.l.l.l.l.l.l.l.l.l.l.l.l.l.l.l.l.l.l.l.l.. . ; Z H Z + Z Z G   H Z Z H   L H H + Z H o l.l.l.l.l.l.l.l.l.l.l.l.l.l.l.l.l.l.l.l.",
"l.l.l.l.l.l.l.l.l.l.l.l.l.l.l.l.l.l.l.l.l.    ; Z Z A ; Z H H   H H Z H X H H H   G Z o l.l.l.l.l.l.l.l.l.l.l.l.l.l.l.l.l.l.l.l.",
"l.l.l.l.l.l.l.l.l.l.l.l.l.l.l.l.l.l.l.l.l.+ G H H Z     H H H   H H H H X H H H . V Z o l.l.l.l.l.l.l.l.l.l.l.l.l.l.l.l.l.l.l.l.",
"l.l.l.l.l.l.l.l.l.l.l.l.l.l.l.l.l.l.l.l.l.  Z Z Z Z ; . H H H   H H G L X H H L   V Z o l.l.l.l.l.l.l.l.l.l.l.l.l.l.l.l.l.l.l.l.",
"l.l.l.l.l.l.l.l.l.l.l.l.l.l.l.l.l.l.l.l.l.+ Z H H Z     L H H   . . .     H H H   V Z o l.l.l.l.l.l.l.l.l.l.l.l.l.l.l.l.l.l.l.l.",
"l.l.l.l.l.l.l.l.l.l.l.l.l.l.l.l.l.l.l.l.l.+ G H Z Z     A H H   k.k.#.@.  H H G . C A o l.l.l.l.l.l.l.l.l.l.l.l.l.l.l.l.l.l.l.l.",
"l.l.l.l.l.l.l.l.l.l.l.l.l.l.l.l.l.l.l.l.l.. . Z H H .   H H H   k.#.@.@.  H H L   V Z o l.l.l.l.l.l.l.l.l.l.l.l.l.l.l.l.l.l.l.l.",
"l.l.l.l.l.l.l.l.l.l.l.l.l.l.l.l.l.l.l.l.l.. . Z Z Z     Z Z H   .         Z Z Z . C Z o l.l.l.l.l.l.l.l.l.l.l.l.l.l.l.l.l.l.l.l.",
"l.l.l.l.l.l.l.l.l.l.l.l.l.l.l.l.l.l.l.l.l.2 H H H Z ; . Z Z Z Z Z Z H Z Z Z Z Z X C Z o l.l.l.l.l.l.l.l.l.l.l.l.l.l.l.l.l.l.l.l.",
"l.l.l.l.l.l.l.l.l.l.l.l.l.l.l.l.l.l.l.l.l.n K Z Z Z .   Z H Z Z H Z Z H H Z A Z     K o l.l.l.l.l.l.l.l.l.l.l.l.l.l.l.l.l.l.l.l.",
"l.l.l.l.l.l.l.l.l.l.l.l.l.l.l.l.l.l.l.l.l.  ; + ; +     G Z Z Z Z Z Z Z Z Z G   . ; ; ; l.l.l.l.l.l.l.l.l.l.l.l.l.l.l.l.l.l.l.l.",
"l.l.l.l.l.l.l.l.l.l.l.l.l.l.l.l.l.l.l.l.l.. @ + ; +     ; Z Z H H H H Z Z G . .   @   . l.l.l.l.l.l.l.l.l.l.l.l.l.l.l.l.l.l.l.l.",
"l.l.l.l.l.l.l.l.l.l.l.l.l.l.l.l.l.l.l.l.l.-.*.-.=.*.=.    G A A Z A A A A G . ; =.*.*.-.l.l.l.l.l.l.l.l.l.l.l.l.l.l.l.l.l.l.l.l.",
"l.l.l.l.l.l.l.l.l.l.l.l.l.l.l.l.l.l.l.l.l.*.*.*.*.*.=.; + +     ; ;   ; + +   * -.*.*.-.l.l.l.l.l.l.l.l.l.l.l.l.l.l.l.l.l.l.l.l.",
"l.l.l.l.l.l.l.l.l.l.l.l.l.l.l.l.l.l.l.l.l.*.*.e.q.r.w.# % @     . .   . + 3 1 % w.r.r.e.l.l.l.l.l.l.l.l.l.l.l.l.l.l.l.l.l.l.l.l.",
"l.l.l.l.l.l.l.l.l.l.l.l.l.l.l.l.l.l.l.l.l.*.*.r.r.r.w.1 1 B E E E I $ E E 3 1 2 r.r.r.w.l.l.l.l.l.l.l.l.l.l.l.l.l.l.l.l.l.l.l.l.",
"l.l.l.l.l.l.l.l.l.l.l.l.l.l.l.l.l.l.l.l.l.l.l.r.r.r.r.1 1 w E E E , $ E H H 1 e r.r.l.l.l.l.l.l.l.l.l.l.l.l.l.l.l.l.l.l.l.l.l.l.",
"l.l.l.l.l.l.l.l.l.l.l.l.l.l.l.l.l.l.l.l.l.l.l.w.r.r.w.N e 0 H E , , $ S 1 H H H w.w.l.l.l.l.l.l.l.l.l.l.l.l.l.l.l.l.l.l.l.l.l.l.",
"l.l.l.l.l.l.l.l.l.l.l.l.l.l.l.l.l.l.l.l.l.l.l.l.l.l.1 1 5 9 H E l.l.M 1 H H H E l.l.l.l.l.l.l.l.l.l.l.l.l.l.l.l.l.l.l.l.l.l.l.l.",
"l.l.l.l.l.l.l.l.l.l.l.l.l.l.l.l.l.l.l.l.l.l.l.l.l.l.1 5 5 T H H l.l.- 1 H H H S l.l.l.l.l.l.l.l.l.l.l.l.l.l.l.l.l.l.l.l.l.l.l.l.",
"l.l.l.l.l.l.l.l.l.l.l.l.l.l.l.l.l.l.l.l.l.l.l.l.l.l.0 1 Y T T E l.l.1 1 H H H D l.l.l.l.l.l.l.l.l.l.l.l.l.l.l.l.l.l.l.l.l.l.l.l.",
"l.l.l.l.l.l.l.l.l.l.l.l.l.l.l.l.l.l.l.l.l.l.l.l.l.l.1 5 U H T E l.l.1 1 H H H H l.l.l.l.l.l.l.l.l.l.l.l.l.l.l.l.l.l.l.l.l.l.l.l.",
"l.l.l.l.l.l.l.l.l.l.l.l.l.l.l.l.l.l.l.l.l.l.l.l.l.l.m m T U U R l.l.1 0 R H H H l.l.l.l.l.l.l.l.l.l.l.l.l.l.l.l.l.l.l.l.l.l.l.l.",
"l.l.l.l.l.l.l.l.l.l.l.l.l.l.l.l.l.l.l.l.l.l.l.l.l.l.1 8 # 8 0 R l.l.1 1 8 1 H H l.l.l.l.l.l.l.l.l.l.l.l.l.l.l.l.l.l.l.l.l.l.l.l.",
"l.l.l.l.l.l.l.l.l.l.l.l.l.l.l.l.l.l.l.l.l.l.l.l.l.l.M O 8 P e E l.l.1 1 B H H H l.l.l.l.l.l.l.l.l.l.l.l.l.l.l.l.l.l.l.l.l.l.l.l.",
"l.l.l.l.l.l.l.l.l.l.l.l.l.l.l.l.l.l.l.l.l.l.l.l.l.l.0 0 Y Y Y E l.l.1 1 H H H H l.l.l.l.l.l.l.l.l.l.l.l.l.l.l.l.l.l.l.l.l.l.l.l.",
"l.l.l.l.l.l.l.l.l.l.l.l.l.l.l.l.l.l.l.l.l.l.l.l.l.l.: : Y T H R l.l.0 0 H H H H l.l.l.l.l.l.l.l.l.l.l.l.l.l.l.l.l.l.l.l.l.l.l.l.",
"l.l.l.l.l.l.l.l.l.l.l.l.l.l.l.l.l.l.l.l.l.l.l.l.l.l.< < Y H H E l.l.1 q E H H H l.l.l.l.l.l.l.l.l.l.l.l.l.l.l.l.l.l.l.l.l.l.l.l.",
"l.l.l.l.l.l.l.l.l.l.l.l.l.l.l.l.l.l.l.l.l.l.l.l.l.l.< < H H H E l.l.1 1 H H H H l.l.l.l.l.l.l.l.l.l.l.l.l.l.l.l.l.l.l.l.l.l.l.l.",
"l.l.l.l.l.l.l.l.l.l.l.l.l.l.l.l.l.l.l.l.l.l.l.l.l.l.: : E E H H l.l.1 1 E H H E l.l.l.l.l.l.l.l.l.l.l.l.l.l.l.l.l.l.l.l.l.l.l.l.",
"l.l.l.l.l.l.l.l.l.l.l.l.l.l.l.l.l.l.l.l.l.l.l.l.l.l.> > E W E H l.l.1 B E H H S l.l.l.l.l.l.l.l.l.l.l.l.l.l.l.l.l.l.l.l.l.l.l.l.",
"l.l.l.l.l.l.l.l.l.l.l.l.l.l.l.l.l.l.l.l.l.l.l.l.l.l.< < H W E E l.l.= > F H H E l.l.l.l.l.l.l.l.l.l.l.l.l.l.l.l.l.l.l.l.l.l.l.l.",
"l.l.l.l.l.l.l.l.l.l.l.l.l.l.l.l.l.l.l.l.l.l.l.l.l.l.> > R E E Q l.l.= > R E W E l.l.l.l.l.l.l.l.l.l.l.l.l.l.l.l.l.l.l.l.l.l.l.l.",
"l.l.l.l.l.l.l.l.l.l.l.l.l.l.l.l.l.l.l.l.l.l.l.l.l.l.7 7 +.X.X.o.l.l.7 1 o.....o.l.l.l.l.l.l.l.l.l.l.l.l.l.l.l.l.l.l.l.l.l.l.l.l.",
"l.l.l.l.l.l.l.l.l.l.l.l.l.l.l.l.l.l.l.l.l.l.l.l.l.l.7 7 +.o.+.O.l.l.7 1 +.......l.l.l.l.l.l.l.l.l.l.l.l.l.l.l.l.l.l.l.l.l.l.l.l.",
"l.l.l.l.l.l.l.l.l.l.l.l.l.l.l.l.l.l.l.l.l.l.l.l.l.l.7 1 4 1 6 X.X.O.O.4 1 4 X.X.O.+.l.l.l.l.l.l.l.l.l.l.l.l.l.l.l.l.l.l.l.l.l.l.",
"l.l.l.l.l.l.l.l.l.l.l.l.l.l.l.l.l.l.l.l.l.l.l.l.l.l.7 7 7 1 4 +.X.+.o.4 1 7 +.X.X.+.l.l.l.l.l.l.l.l.l.l.l.l.l.l.l.l.l.l.l.l.l.l.",
"l.l.l.l.l.l.l.l.l.l.l.l.l.l.l.l.l.l.l.l.l.l.l.l.l.l.%.$.%.%.&.a.s.p.p.%.%.%.p.p.p.p.l.l.l.l.l.l.l.l.l.l.l.l.l.l.l.l.l.l.l.l.l.l.",
"l.l.l.l.l.l.l.l.l.l.l.l.l.l.l.l.l.l.l.l.l.l.l.l.l.l.%.%.%.%.&.p.p.p.i.%.&.%.p.p.p.p.l.l.l.l.l.l.l.l.l.l.l.l.l.l.l.l.l.l.l.l.l.l.",
"l.l.l.l.l.l.l.l.l.l.l.l.l.l.l.l.l.l.l.l.l.l.l.l.l.l.l.l.l.l.l.l.l.l.l.l.l.l.l.l.l.l.l.l.l.l.l.l.l.l.l.l.l.l.l.l.l.l.l.l.l.l.l.l."
};
