/* XPM */
static char *result[] = {
/* columns rows colors chars-per-pixel */
"65 65 48 1 ",
"  c gray13",
". c #252625",
"X c #262726",
"o c #272827",
"O c #282928",
"+ c #282A28",
"@ c #292A29",
"# c #292B29",
"$ c #2A2B2A",
"% c #2A2C2A",
"& c #2B2C2B",
"* c #2B2D2B",
"= c #2C2D2C",
"- c #2C2E2C",
"; c #2C2F2C",
": c #2D2F2D",
"> c #2D302D",
", c #2E302E",
"< c #2E312E",
"1 c #2F312F",
"2 c #2F322F",
"3 c #2F332F",
"4 c #303230",
"5 c #303330",
"6 c #313331",
"7 c #303430",
"8 c #313431",
"9 c #313531",
"0 c #323432",
"q c #323532",
"w c #323632",
"e c #333633",
"r c #333733",
"t c #343734",
"y c #343834",
"u c #343934",
"i c #353835",
"p c #353935",
"a c #363936",
"s c #363A36",
"d c #373A37",
"f c #373B37",
"g c #373C37",
"h c #383B38",
"j c #383C38",
"k c #383C39",
"l c #393D39",
"z c #3C3F3C",
/* pixels */
"jeeqq5%ejjj8pjjeq8jj-j8jjjjj68jjjjpejjjj*jj8j6-jqjjjj2j5jjqqjqjjj",
"jjjjje445jjjjjj,t8jjee8j8jjj-8jjjj,tO8jj*:qj88qj,jjjjjjj8j*qqqjjj",
"5-j5-$tt5jqjj5j8tjjqeejj88jj8jaj8j5ejjjj**tj88jj8ttjjj2jjj55jjqqj",
"5ejj,,j566q5:,jjttjjj1eiq8855jajkjjj8jje#jjj8qjj55jqqjj*.j5-q-jjj",
"jjtjeej>86j5:rj,4,,-jyjee10jqqjyjjj88jje,jjjj-8-8jjqjja#*jpps8*jj",
"j2,8j88tj8jttjj0jjjqqjjjw10jjj6<-jjjjjj8qqqjj888@=4jqj5ajj5jj8*jt",
"j-2jjyyjjjj,,5jejj5jjj5j868-866tqtjq8jj1iqqjj8jjq#5q*jqeejjjj4ajt",
"rrjjjyyjjtj8qjjjj55::5j>>jjjjjjt1@1%-jjjjjjjj,ej::%2qq:e,e,jj8jjj",
"jjtejjj,,r,tjjjjj5e@@j4jjpp55jjjjjjj5jj58jj,jjjjjj,2jjjjjjj88j5jj",
"t1<jqq-o,-r5jjjj,-jjj:4jjjj-5jj:1:-j4jjj@-jjjjj,,jj8jjjeejpj11jjj",
"5,4jqq22jj8*4jjt<;jej:jjjjj4*jjijj:q4e6j8@jj55jjjqq-jj&t-tpjjjjj5",
"qjjj44jjjtj88jjt<#qqjjyj8*5jjjjij5*6jj6ij1:j%5jjj%jjj5,jj0j5jj885",
"q<<jjj8jjt288jj5j8qjj8qjq2p88-aq0jj6jjrjejj5%qejjjj>>5:j=8j5jjjjj",
"jjjqejq228-j>:jq--jttjjeqjjjjeaqjje-pj0eew55jjeq8X::o0jj6-8jjj88j",
"jjtjl45%,jqjj:qj888jjjj:jjqjjjejjj$+5wjjw,8,jjjqioqj00jjjjj88jjdj",
"jjt5l=#:jjq%jXorqqjjj5j5eejqjj8,j;;jj--jj51qqqaj8rjq<j51jjjqqjjjj",
"q,858@q:j,jjj8i8qO8yj54>jjj8jj8jjj8t6@:je=++ttajqq8-2jj5jjjj88jjj",
"jjjj-8jjj,jjjqqjj2j44jtejtyjj>j1e:tj6,tj:j=@88j2Oq8-5jjjqe%qjjpjj",
"-qjj88jejjjjeejaajjj-21ejjjjj8t2qjj2,*aa&jj<8,jj8j8jjjjjqq8jjj-#e",
"688q-88,jj55qjjqt8,*O-,j44jjjjjpqjjjj5a*-ji8**j4yjjt,jiii:qjtj:O*",
"j888jjjjjj5%%jjqt88**ra81>j66j8*#j*jjjy2ejjj*O-4jjjttji%$jjjj5-68",
"8jjjjjjj,jjj55,q+@<8jjt*<jjjejj**jjjjj8jjjjjr-2j55jjj,,j-j::jej6j",
"jqtjjqqjjjj:j581+=jijjj55,,j1jy,,jjjjj8jjjjta,1t4jjjjppj%errj:jjj",
"j:*jjqqjj-@1jw,5=jjjjjj8j,,jjj82:rjjttO%,85*8jee>5:e,,jqjj%%jjj:j",
"***#,qij8@8jeewje:&-ejj,rjjjjyjj-<jjjr,:rj5<14jjjejq1ijqjjjj>8jq2",
"jjjee81j5jjijejjjja*2jj%:tjj8yo-5hqj-r:tj,,j>4jtjejj8&*yjjj4r6jdj",
"jjjjjjjjjj66r0j-:taay88O,:O*jj@-54oeejOjj,,jjjjyjjqj8;tjj5jw>jjjj",
"j8jjjjjjjjejjjw-@,*5jjjtrrj602j6jj,ej6*jjjjj6jjj8qjjj4tj6aj      ",
"jOj88j8-544jjp5j66,jjjjtj-ej=Xj62j82f0j8jj1e6jjjjjjj8*,jjjj      ",
"etej8jq%jjq66-+jtj2jjjjjjjeef$j&$jj$f2jyyjjjjj8>jjje88jjjjj      ",
"p,5jjjj1j-:*je$;8tjj*jjjjqo,jj2dd2jjjj@oj8yj8jtj88eaajjjjj6      ",
"jjjjjjt@j:j5jjj;j:jjjjjr<445jjd2d&$j66--j2,**p21j,jqqii:jtt      ",
"jj8kj-q1j1jj0jjjjeqq#*,:-55j$2d2d2d22&55-:,*#qqejjjj0jj1j1q      ",
"jjjjy<ttj:iiqqj,j12p**,2l--66j2d22djj&44<rjjjjj:j;jjj5j:j@t      ",
"jjaaj66jjjjjaae88jtj5jy8jo@jj&ddd22j8foqjjjj*jjt8;$ej*:-j1j      ",
"88jjqj6jjjjj-qt5qj8jjjpjj5*,qqjz<&dq&&hjjjujjsaj13f566qjj%q      ",
"8;wjqj8j5j,j8jj2jjjj6e1jjjj,qja&<4d8j55hjhjjjjh5hjh5jj445-8      ",
"eejjjg:g6jtj8jejjjjj6jjs>282jj,jj6j,f225jj2jjjj5jqjqjjejjjj      ",
"jjjj>rj5jjt2ptjjp%jjjj,:o*17ffo45-@*j822jjj>ejjj8jt<r66jjjj      ",
"jjj6r4jjjy*&8jjqj5j4>j,,jq:r-jq45-o5j2*2j4-1ejjj1pj2jijj5j1      ",
"2qj8>jjjjqji1qjqjjj41<5jr:,rjjj<-jjjj>ojj4>qjjjj<1jiej8@8ji      ",
"j:jjj%%jjqj,,e:5>eej8*58,%Ottjjr:28jjs:,jtjjj88ej;eiji@-jjq      ",
"jjj:jrre%jppjjjj4t1,atjjjj8jjjjj,,ye5jj;%t25::8pj@e1jejjjjq      ",
"j6jej::j-j,,jjj55j2-rjjjjj8jjjjj**jjyjjjttj*ojj6p8,jjjjj,jj      ",
"86-5jjjj$%ijttjjj4-O*jjje2yjjj*j#*88j*2jiejj4tj6jjee2h5jjjj      ",
"*O:jtjq:iiij,tjjy4j**8ij-*a5jjjjqpjjj,e0eeyjqqjjjjjjjy5jj,8      ",
"e#-jjj8qqjjjjj8j8jj,8<jj&aa*,2jjq2tjjjj,ejy8jj:8tjjjjjjjjej      ",
"jjpjjq%eqjjj5-8qO2j88@=j:jt,6jt:e1jjjj%5jjj44j:,tjjjjjj,jjj      ",
"jjj88jjjj5jj2-8qqjatt++=ej:@6t8jjj8qjjpjjqsjjjjjjjiijjj,j:q      ",
"jjjjqqjjj15j<qjr8jaqqq15jj--jj;;j,852jjqqj4=jjjij5>jqhqjj:#      ",
"jjjj88jjjjj00jqoiqjjj,8,wjjw5+$jjjetjejjjjjjjttjj85e2jqj,%5      ",
"j88jjj8-6jj0o::X8qejj55wee0jp-ejjqaqjjttjjj8jttjt,j85;-822q      ",
"jjjjj5j8=j:5>>jjjjeq%5jjejrjj6jj0qa-88p2qjq8jjq8j5jj89jjjq*      ",
"588jj5j0jj,5jjj%jjj5%j:1ji6jj6*5jijjjj5*8jyjjqq#<tjj88jjjqj      ",
"5jjjjjpt-t&jj-qqjjj55jj@8j6e4q:jjijj*4jjjjj:jej;<tjj4*&jj:q      ",
"jjj11jpjeejjj8jj,,jjjjj-@jjj4j-:1:jj5-jjjj4:jjj-,jjjj7tejee      ",
"jj5j88jjjjjjj2,jjjjjj,jj85jj5jjjjjjj55ppjj4j@@e5jjjjjy-ej,e      ",
"jjj8jj,e,e:qq2%::je,jjjjjjjj-%1@1tjjjjjj>>j5::55jjjjq8tjjej      ",
"tja4jjjjeeqj*q5#qjj8jjqqi1jj8qjtqt668-868j5jjj5jjej5,<ppj,j      ",
"tj*8jj5jja5jqj4=@888jjqqq8jjjjjj-<6jjj01wjjjqqjjj0jjttjj8jj      ",
"jj*8sppj*#ajjqjj8-8-jjjj,ejj88jjjyjqqj01eejyj-,,4,jr:7j18jj      ",
"jjj-q-5j.*jjqqj55jjq8jjj#ejj8jjjkjaj5588qie1jjjttjj,:7j1j84      ",
"jqqjj55jjj2jjjtt8jj88jt**jjjje5j8jaj8jj88jjeeqjjt8j5jhjj5ja      ",
"jjjqqq*j8jjjjjjj,jq88jq:*jj8Ot,jjjj8-jjj8j8eejj8t,jjjhjjjjj      ",
"jjjqjqqjj5j2jjjjqj-6j8jj*jjjjepjjjj86jjjjj8j-jj8qejjp85jjjt      "
};
