/* XPM */
static char *result[] = {
/* columns rows colors chars-per-pixel */
"65 65 53 1 ",
"  c #202020",
". c #202120",
"X c gray13",
"o c #222222",
"O c #222322",
"+ c #232323",
"@ c #252625",
"# c #262726",
"$ c #272827",
"% c #282928",
"& c #282A28",
"* c #292A29",
"= c #292B29",
"- c #2A2B2A",
"; c #2A2C2A",
": c #2B2C2B",
"> c #2B2D2B",
", c #2C2D2C",
"< c #2C2E2C",
"1 c #2C2F2C",
"2 c #2D2F2D",
"3 c #2D302D",
"4 c #2E302E",
"5 c #2E312E",
"6 c #2F312F",
"7 c #2F322F",
"8 c #2F332F",
"9 c #303230",
"0 c #303330",
"q c #313331",
"w c #303430",
"e c #313431",
"r c #313531",
"t c #323432",
"y c #323532",
"u c #323632",
"i c #333633",
"p c #333733",
"a c #343734",
"s c #343834",
"d c #343934",
"f c #353835",
"g c #353935",
"h c #363936",
"j c #363A36",
"k c #373A37",
"l c #373B37",
"z c #373C37",
"x c #383B38",
"c c #383C38",
"v c #383C39",
"b c #393D39",
"n c #3C3F3C",
/* pixels */
"ciiyy0;icccegcciyecc<cecccccqeccccgicccc>ccecq<cycccc7c0ccyXXXXXO",
"ccccci990cccccc4aecciiececcc<ecccc4a%ecc>2yceeyc4cccccccec>XXoXXX",
"0<c0<-aa0cycc0ceaccyiicceeccechcec0icccc>>aceecceaaccc7ccc0XXXXXX",
"0icc44c0qqy024ccaaccc6ifyee00chcvcccecci=ccceycc00cyycc>@c0XXXXXX",
"ccaciic3eqc02pc4944<cscii6tcyycsccceecci4cccc<e<eccycch=>cgXXXXXX",
"c74eceeacecaacctcccyycccu6tcccq5<cccccceyyycceee*,9cyc0hcc0XXXXXX",
"c<7ccsscccc440cicc0ccc0ceqe<eqqayacyecc6fyycceccy=0y>cyiiccXXXXXX",
"ppcccssccaceycccc00220c33cccccca6*6;<cccccccc4ic22;7yy2i4i4XXXXXX",
"ccaiccc44p4accccc0i**c9ccgg00ccccccc0cc0ecc4cccccc47cccccccXXXXXX",
"a65cyy<$4<p0cccc4<ccc29cccc<0cc262<c9ccc*<ccccc44cceccciicgXXXXXX",
"049cyy77cce>9cca51cic2ccccc9>ccfcc2y9iqce*cc00cccyy<cc:a<agXXXXXX",
"yccc99cccaceecca5=yyccsce>0ccccfc0>qccqfc62c;0ccc;ccc04cctcXXXXXX",
"y55cccecca7eecc0ceycceycy7gee<hytccqccpcicc0;yicccc3302c,ecXXXXXX",
"cccyicy77e<c32cy<<caacciyccccihycci<gctiiu00cciye#22$tccq<eXXXXXX",
"ccacb90;4cycc2yceeecccc2ccyccciccc-&0uccu4e4cccyf$ycttcccccXXXXXX",
"cca0b,=2ccy;c#$pyyccc0c0iicycce4c11cc<<cc06yyyhcepcy5c06cccXXXXXX",
"y4e0e*y2c4cccefey%esc093cccecceccceaq*2ci,&&aahcyye<7cc0cccXXXXXX",
"cccc<eccc4cccyycc7c99caicascc3c6i2acq4ac2c,*eec7%ye<0cccyi;XXXXXX",
"<ycceecicccciichhccc<76icccccea7ycc74>hh:cc5e4ccececccccyyeXXXXXX",
"qeey<ee4cc00yccyae4>%<4c99cccccgycccc0h><cfe>>c9scca4cfff2yXXXXXX",
"ceeecccccc0;;ccyaee>>phe63cqqce>=c>cccs7iccc>%<9cccaacf;-ccXXXXXX",
"eccccccc4ccc004y&*5ecca>5cccicc>>cccccecccccp<7c00ccc44c<c2XXXXXX",
"cyaccyycccc2c0e6&,cfccc0044c6cs44ccccceccccah46a9ccccggc;ipXXXXXX",
"c2>ccyycc<*6cu40,ccccccec44ccce72pccaa%;4e0>ecii302i44cycc;XXXXXX",
">>>=4yfce*eciiuci2:<icc4pccccscc<5cccp42pc0569cccicy6fcycccXXXXXX",
"ccciie6c0ccfcicccch>7cc;2acces$<0xyc<p2ac44c39cacicce:>scccXXXXXX",
"ccccccccccqqptc<2ahhsee%42%>cc*<09$iic%cc44ccccsccyce1acc0cXXXXXX",
"ceccccccccicccu<*4>0cccappcqt7cqcc4icq>cccccqccceyccc9acqhcXXXXXX",
"c%ceece<099ccg0cqq4ccccac<ic,#cq7ce7ltcecc6iqccccccce>4ccccXXXXXX",
"iaicecy;ccyqq<&cac7ccccccciil-c:-cc-l7cssccccce3cccieecccccXXXXXX",
"g40cccc6c<2>ci-1eacc>ccccy$4cc7kk7cccc*$cescecaceeihhcccccqXXXXXX",
"cccccca*c2c0ccc1c2cccccp5990cck7k:-cqq<<c74>>g76c4cyyff2caaXXXXXX",
"ccevc<y6c6cctcccciyy=>42<00c-7k7k7k77:00<24>=yyicccctcc6c6yXXXXXX",
"ccccs5aac2ffyyc4c67g>>47b<<qqc7k77kcc:995pccccc2c1ccc0c2c*aXXXXXX",
"cchhcqqccccchhieecac0csec$*cc:kkk77cel$ycccc>ccae1-ic>2<c6cXXXXXX",
"eeccycqccccc<ya0ycecccgcc0>4yycn5:ky::xcccdccjhc68l0qqycc;cXXXXXX",
"e1ucycec0c4cecc7ccccqi6cccc4ych:59kec00xcxccccx0xcx0cc990xcXXXXXX",
"iicccz2zqcacecicccccqccj37e7cc4ccqc4l770cc7cccc0cycycciccccXXXXXX",
"cccc3pc0cca7gaccg;cccc42$>6wll$90<*>ce77ccc3iccceca5pqqccccyc2%cc",
"cccqp9cccs>:eccyc0c93c44cy2p<cy90<$0c7>7c9<6iccc6gc7cfcc0cfycc7cc",
"7yce3ccccycf6ycyccc9650cp24pccc5<cccc3$cc93ycccc56cfice*ecxcycccc",
"c2ccc;;ccyc44i203iice>0e4;%aaccp27eccj24caccceeic1ifcf*<ccccccccc",
"ccc2cppi;cggcccc9a64hacccceccccc44si0cc1;a7022egc*i6ciccccycccccs",
"cqcic22c<c44ccc00c7<pccccceccccc>>ccscccaac>$ccqge4ccccc4yyycccy6",
"eq<0cccc-;fcaaccc9<%>ccci7sccc>c=>eec>7cficc9acqccii7x0cscccc4ycc",
">%2cacy2fffc4accs9c>>efc<>h0ccccygccc4itiiscyycccccccs0cyccceccec",
"i=<ccceyycccccececc4e5cc:hh>47ccy7acccc4icsecc2eaccccccuccceecccc",
"ccgccy;iyccc0<ey%7cee*,c2ca4qca2i6cccc;0ccc99c24accccccye<yyccccc",
"ccceecccc0cc7<eyychaa&&,ic2*qaeccceyccgccyjcccccccffccccc&cyyuccc",
"ccccyyccc60c5ycpechyyy60cc<<cc11c4e07ccyyc9,cccfc03cyxyc8ccyyiiyc",
"cccceecccccttcy$fyccc4e4uccu0&-ccciacicccccccaacce0i7cccccsseeicc",
"ceeccce<qcct$22#eyicc00uiitcg<iccyhyccaacccecaaca4ce01aciiiceecpc",
"ccccc0ce,c2033cccciy;0ccicpccqcctyh<eeg7ycyeccyec0ccercccceccc55y",
"0eecc0ctcc40ccc;ccc0;c26cfqccq>0cfcccc0>ecsccyy=5acceeccccc99cccy",
"0cccccga<a:cc<yyccc00cc*ecqi9y2ccfcc>9ccccc2cic15acc9>:cc77yyc940",
"ccc66cgciicccecc44ccccc<*ccc9c<262cc0<cccc92ccc<4ccccwaici<yyc56a",
"cc0ceeccccccc74cccccc4cce0cc0ccccccc00ggcc9c**i0cccccs<ic4ccciacc",
"cccecc4i4i2yy7;22ci4cccccccc<;6*6acccccc33c02200ccccyeaccisscccpp",
"ach9cccciiyc>y0=ycceccyyf6cceycayaqqe<eqec0ccc0ccic045ggc4sscc7<c",
"ac>ecc0cch0cyc9,*eeeccyyyecccccc<5qccct6ucccyyccctccaacceceece47c",
"cc>ejggc>=hccycce<e<cccc4icceecccscyyct6iicsc<4494cp2wc6ecciicacc",
"ccc<y<0c@>ccyyc00ccyeccc=iccecccvchc00eeyfi6cccaacc42wc6cec44cci0",
"cyycc00ccc7cccaaecceeca>>cccci0cechcecceecciiyccaec0cxcc0ca-<0c<0",
"cccyyy>ceccccccc4cyeecy2>cce%a4cccce<ccceceiiccea4cccxccccciccccc",
"cccycyycc0c7ccccyc<qcecc>ccccigcccceqcccccec<cceyiccge0ccca7yyiic"
};
