/* XPM */
static char *result[] = {
/* columns rows colors chars-per-pixel */
"65 65 133 2 ",
"   c #202020",
".  c #202120",
"X  c gray13",
"o  c #212221",
"O  c #222222",
"+  c #222322",
"@  c #252625",
"#  c #262726",
"$  c #272727",
"%  c #272827",
"&  c #282928",
"*  c #282A28",
"=  c #292A29",
"-  c #292B29",
";  c #2A2B2A",
":  c #2A2C2A",
">  c #2A2D2A",
",  c #2B2C2B",
"<  c #2B2D2B",
"1  c #2C2D2C",
"2  c #2C2E2C",
"3  c #2C2F2C",
"4  c #2D2F2D",
"5  c #2D302D",
"6  c #2E302E",
"7  c #2E312E",
"8  c #2F312F",
"9  c #2F322F",
"0  c #303230",
"q  c #303330",
"w  c #313331",
"e  c #303430",
"r  c #313431",
"t  c #323432",
"y  c #323532",
"u  c #333533",
"i  c #323632",
"p  c #333633",
"a  c #333733",
"s  c #343634",
"d  c #343734",
"f  c #353735",
"g  c #343834",
"h  c #353835",
"j  c #353935",
"k  c #363936",
"l  c #363A36",
"z  c #363B36",
"x  c #373A37",
"c  c #373B37",
"v  c #373C37",
"b  c #383B38",
"n  c #383C38",
"m  c #383C39",
"M  c #393D39",
"N  c #3A3E3A",
"B  c #3B3E3B",
"V  c #3B3F3B",
"C  c #3C3F3C",
"Z  c DimGray",
"A  c #6A6A6A",
"S  c gray42",
"D  c #6C6C6C",
"F  c #6D6D6D",
"G  c #6E6D6D",
"H  c gray43",
"J  c #6F6F6F",
"K  c gray44",
"L  c #717070",
"P  c #717171",
"I  c #727272",
"U  c gray45",
"Y  c #747373",
"T  c #747474",
"R  c gray46",
"E  c #767575",
"W  c #767676",
"Q  c #777777",
"!  c gray47",
"~  c #797979",
"^  c #7A7979",
"/  c gray48",
"(  c #7B7A7A",
")  c #7B7B7B",
"_  c #7C7B7B",
"`  c #7C7C7C",
"'  c #7D7C7C",
"]  c gray49",
"[  c #7E7D7D",
"{  c #7E7E7E",
"}  c gray50",
"|  c #807F7F",
" . c #808080",
".. c #818080",
"X. c #818181",
"o. c #828181",
"O. c gray51",
"+. c #838383",
"@. c #848383",
"#. c #848484",
"$. c gray52",
"%. c #868686",
"&. c #878686",
"*. c gray53",
"=. c #888787",
"-. c #888888",
";. c #898888",
":. c #898989",
">. c gray54",
",. c #8B8A8A",
"<. c #8B8B8B",
"1. c gray55",
"2. c #8D8D8D",
"3. c #8E8D8D",
"4. c #8E8E8E",
"5. c #8F8E8E",
"6. c gray56",
"7. c #909090",
"8. c gray57",
"9. c #929292",
"0. c #939393",
"q. c gray58",
"w. c #959595",
"e. c #969595",
"r. c gray59",
"t. c #979797",
"y. c #989898",
"u. c gray60",
"i. c #9A9A9A",
"p. c gray61",
"a. c #9D9D9D",
"s. c gray62",
"d. c #9F9F9F",
/* pixels */
"Z U U Z 7.7.W $.Z Z 5.Z -.q.| P K Z R R Z T :.=.U [ F T 1.A ! Z X   X y y n n n n n g 8 n n n n n n n n y y q d n a n n n q q n n ",
"-.{ P Z Z Z Q X.W ] 6.` 7.9.+.' Q Z R <.J Z I { F Z  . .Z ` Z Z X . X 4 y n n n n n n y n r n n n y n a 7 n 6 8 n a 2 9 n p 2 n p ",
"-./ Z Z Z Z / Z W 6.U ` / Z Q -.I ~ R I -.Z Z { X.U +. ./ *.#.Z X X X n n r & 9 n n n n y n n n n p p n 7 n 0 7 d n 9 6 d n n n p ",
"s.Z Z +.+.~ R X.Z ~ U ` I U Z ~ >.-.Z Z -.Z D H H Z Z Z / *.` Z X X X n n r 4 n n n n n 6 n n n i p r r n n n n p n n r n n q n y ",
"Z Z P %.+.<.R 2.%.! Z ! ! U Z Z 1.{ Z Z O.Z } K $.Z Z Z 1.W #.U X X X n n n n n y n n n n r r n y y r r n 0 y y n n n n p 6 2 n y ",
"Z Z ~ ~ 1.9.#.T Z Z K K }  .$.Z %.Z Z P r.+.{ T *.Q 1./ Q ) $.Z X X X n n n y y n n n y n n r y y y g n n 0 y y n g g r p 6 ; p q ",
"T %.%.~ ^ +.#.$.~ *.<.Z +.$. .Z *.I Z ) #.Z T O.+.#./ a.W Z Z ~ X X X n n n n h n n y y n n n y n n g p r n 9 2 n g g r n n d 0 : ",
"y.y.+.Z W ~ J $.Z Z ) *. .O._ Z Z / F ) Z W R :.*. .X.s./ K Z %.X X X n n r r n n n n y n n n 2 * n n p n n 9 % 6 n n d 5 q d 0 p ",
"Z Z >.T W W Z 2.0.Z Z Z K  .] Z } F Z Z Z  .Q W X.) X.<.Z $.R | X X X n n n n n n n n h d y n r & 9 n p n n n 6 6 n n n r w q q n ",
"Z ! O.+.7.Z W ! -.) ) Z Q 1.' q._ J J { O.! F Z { X.Z ] ~ -.! X.X X X n r r n n n r n r d n y y n n n n d d n 2 a d n r w w n n n ",
"Z U 7.u.+.s.d.t.6.Z Z ` O.0.-.e.-.>.J } O.| 6.*.} Z Z Z *.#.F } X X X 0 r r p p d 9 9 n 4 n n n r n n d 9 n r a 6 n n n n y y n n ",
"Z { W 1.Z s.d.#.] Z Z 7.Z ] ] Z Z ]  .Z Z | %.<.) Z U _ W  . .K X X X 6 n d n n d h p n n g n n n n n 2 r r < q d r 6 d q q n n r ",
"Z 7.4.*.P Q Q Z P P P Z Z F Z Z ~ #.-.Z ) Z Z Z Z K %.] ` J Z K X X X y y < y 9 n n n n 9 n n n n y 9 q r r 0 n n y 6 d 4 4 n n j ",
"H $.$.I +.%.] P 1.J W >.-./ 8.1.Z Z *.Z Z J J Z Z K  .Z ! $.+.Q X X X q q y 7 9 h h 8 n p n n n h n p r n n n n n n q n a 6 q n n ",
"Z Z Z I Z U ! O.<.~ Z O.@.$.1.1.1.6.Z I Z J W Z Z Z Z Z Z O.U ` X X X n n n d n n p p 6 p n n n h 5 q n n n n n n n n n n n n n n ",
"Z Z Z Z / J Z *.O.Z Z U U O.Z H 4.w.} Z Z Z P K  .Z 1.$.Z Z Z { X X X 9 n y n j 8 3 = r n n n n n q r 6 q d d n n n p t 6 n r 6 p ",
"Z Z Z O.8.0.I O.{ ! Z R R Z Z Z Z $.X.Z Z Z Z Z } U $.Z Z W +. .X X X 8 n n r 8 7 n n j n n d d n n n d n 7 7 6 n n n n 0 d d d y ",
"Z Z ! K K ) O.O.Z Z Z Z Z Z 6.%.Z R K K ] ] Z D J Z L { $.~  . .X X X n q q n n n p j w w n r 6 n h n n r - 3 2 q q n n 6 d n r r ",
"Z Z ) 2.U Z +.X.O.W Z *.Z K y.) Z Z Z Z -.T *.H 7.7.} X.! X.Z P X X X k n n n n n r r n n n 4 4 n n d d y y n n p q q n 6 n n n n ",
"Z { Z Z X.Q #.Z X.-.I I J Z w.6.Z Z Z ] ] 9.Z Z 2.2.} -.Z $.X.$.X X X k n n n n n r 4 n d y n n n n d d n y p n = 4 n y 2 n y n n ",
"/ ;.1.] Q Q Z Z U / I { W  .W *.J J F Z >.%.[ Z D ) <.} Z %.} ] X X X n n n p p n n 4 % 0 y n 0 n n n n n n n n = 4 n y n n p p 2 ",
" .} +.K Z W O.Z P Q ! -.W ! 0.7.-.J ) 5.0.4.{ Z Z ) ) Z Z Z Z Z X X X n n n 5 8 y n q < n n r 0 n 1 n r r n 4 4 n q n n g 8 p p n ",
"Z } } Z Z Z #.4.&.P Q ~ J W 7.y.u.i.#.8.2. .{ Z Z W Z Q Z Z Z Z X X X g n 9 n 2 5 n 9 n n g g n l 0 n n y g n 0 0 n q n n p n r r ",
"Z Z Z ] $.( o.{ Z Z Z I U Q Z I u.8.<.) Z Z Z Z Z +.Q W Z P 6.) X X X n n n n 0 0 d d d p p n n y n n n n n n n n 5 n n p h n n n ",
"W Z Z Z p.I Z X.Q 2.-.I E E Z  .4./ s.p. .Z $.q.t.1.W Z Z +.~ ~ o X X n n n n n n n : d h p p n n y n n y r n n n 5 r i p y r r n ",
"W  .4.Z Z ~ ~ R R Z Z P E E Z Y Y Z Z O.3.) 1.o.{ Z Z Z +.#.P Z o X X n n q 9 9 n 6 3 n n t 6 q n y n d 9 < n n j n w 8 8 r r n n ",
"Q } Z Z Z ~ ~ $.$.Z Z Z 1.*.Z Z Z Z ~  .,.-.) R I Z Z 2.] O.) ) + X X n n 9 9 < % 4 n n 9 p n : j n n d j q n n j n r t t r n n n ",
"%.} Z / X.6.P } } } } Z X.%.+.Z K K F  .` Z J R Z Z Z J Z Z X.) + X X n n 9 r 9 5 l n n < 6 n n n n p n r n 0 2 q n 2 n n q n n n ",
"T Z Z ] $.1.Z -.] Z P Z Z Z ) Y K K ) U / / J I Z Z Z ] %.Q W X.O X X n y 6 n n n n q g n n n n n 9 n n r n < q q n r n y q r 2 w ",
"U U Z Z U U K  .! Z P Z Z Z Z Z R R I U / / -.I ] Z Z { } $.G G + X X y y 6 < q n n p n r n n n y q d y 2 n n n n n w n y n n r r ",
"..Z Z W W  . .] Z Z J Z Z ) Q Z R R T T Z S -.Z ] Z Z Z Z ( I F + X X n n n = % n r g n r n d n r r p k k n n n n n w w n k k n n ",
"Z Z Z W W  . .T T Z O.T P H ] *.Z ~ Z Z Q ~ Z #.Z F O.%.Z Z *.) + X X n w w 2 2 n 9 6 < < j 9 8 n 6 n y y h h 4 n d d 7 g n n n n ",
"X X X X X X X X X X X X X X X X X X X X X     . + X X + + + $ X   X X 9 9 n q q 2 4 6 < - y y p n n n n t n n 8 n 8 y 2 n m r n n ",
"X X X X X X X X X X X X X X X X X X X X X X X X X X X X X X X X X X X n n n 0 0 7 a n n n n n 4 n 3 n n n q n 4 n = d n n n n n n ",
"X X X X X X X X X X X X X X X X X X X X X X X X X X X X X X X X X X X n r 6 % y n n n n < n n d r 3 ; p n < 4 2 n 8 n n n n q 6 j ",
"n n n n n y n n n n n r r p n n n 5 r n n n n n g g n 9 # ; n n 9 n n y n p p n n n n n n n 9 n d n * 2 w w y n n : y n r n p d p ",
"p 7 n n n n n n n n 6 < r n n n n n n n w p 8 n n r n t 1 9 r n 9 w n y y n n l n d n n n n 6 w w n q j n n 0 0 q 2 r n r r n & n ",
"p p n n n h n k w n d 0 n n n y r n n n w n n n n n < w n p 6 n n w n 6 6 9 9 e a d n n n q < 6 = 2 i n n n p n n n n n n n n r n ",
"n n n n 5 a n q n n d 3 r n y n n g n n n n 6 6 n n & n p p % 0 q 2 = < n r 9 7 6 & r r g k k d 4 2 n t a w w n n n n n n n n n n ",
"n n n w a 0 n n n g < , r n n p n d n 0 5 n 6 6 n d 4 a 2 n y 0 q 2 % q n 9 < 9 n 0 n n 9 < k n n n n p n h n n q n 8 r p p n n n ",
"9 y n r 5 n n n n y n h 8 y n p n n n 0 8 7 q n a 4 6 a n n n 7 2 n n n n 5 % n n 0 n n p 2 , 4 p n i p p n r = r n h y 6 - < < < ",
"n 4 n n n : : n n y n 6 6 p 4 q 5 p p n r < q r 6 : & d d n n a 4 9 r n n l 4 6 n d n n n n n n 1 q 6 i n 8 = 2 n n y y n n < 4 n ",
"n n n 4 n a a p : n j j n n n n 0 d 8 6 k d n n n n r n n n n n 6 6 g p q n n 3 > s n n n h n 1 * 8 r q n 4 n n n n y y n n d y n ",
"n w n p n 4 4 n 2 n 6 6 n n n q q n 9 2 a n n n n n r n n n n n < < n n g n n n 7 < d n n r 7 = * y 6 q q n n n 6 n n n n n n n r ",
"r w 2 q n n n n ; : h n d d n n n 0 2 & < n n n p 9 g n n n 2 M - < r r n < p 5 8 r k a < < r r d y n n : : q n n n n n n r r r n ",
"< & 4 n d n y 4 h h h n 6 d n n g 0 n < < r h n 2 < x r n n n n y j n n n 6 j 0 0 n 6 2 & < 6 r d y n n y q q n n 6 r r 2 y r r w ",
"p - 2 n n n r y y n n n n n r n r n n 6 r 7 M n , k k < 6 9 n n y 9 d n n n n 6 p n u 9 2 n n n k k n p p n n n n p n r r n n y 2 ",
"n n j n n y : p y n n n q 2 r y & 9 n r r , 1 n 4 n d 6 w n d 4 p 8 n n n n : q n n z n 0 0 n 9 n n y y n n n 6 n n n r 2 n n n n ",
"n n n r r n n n n q n n 9 2 r p p M x h d * * 1 p n 4 = w d y n n n r y n n j n n y d q n g r & y r h r n n n 6 n 4 y = r q r 6 y ",
"n n n n y y n n n 8 q n 7 y n g r n k y y y 8 q n n 2 4 M n 3 3 n 6 r q 9 n n y y h n q n n n y y a % # n : y n n 4 - 1 n q d n n ",
"n n n n r r n n n n n t t n y % h y n n n 6 r 8 d B M i q * ; n n n p d n p n n v 4 n n n n r r r n y 4 n n y n 6 : q 0 n n d n n ",
"n r r n n n r 2 w n n t % 4 4 # r y p n M y r i p p t n j 2 p n n y k y n n d d c p n n d d n 2 2 y n 4 5 n 2 r 9 9 y n y y n n n ",
"n n n n n q n r 1 n 6 q 5 5 n n n N b f < q n n p n a n n w n n t y k 2 r r j 9 r 6 n n d 6 n q 9 7 t % 5 n n n n y < y n y n n n ",
"q r r n n q n t n n 6 q n n n 2 V M n q : n 4 8 n h w n n w < q n h n n n n q , h 6 j 6 n n n n n n t t q q n n n y n n n n n n 9 ",
"q n n n n n l d 2 d , n N w k p n n n q q n n = r n w p 0 y 4 n n h n n < d d < n n j 6 h h n n n q n n 4 6 , n n 4 y q k n 9 n n ",
"n n n 8 0 n j n p d n N M r n n 6 6 n n n n n 2 = n n n 0 n 2 4 8 4 n n q n n g y y n n : h n n q 8 n n n n d p n p p k - < n n q ",
"n n q M r r n n M C M n n 9 6 n n n n n n 6 n n r q n n q n n n n n n n q w n n n n : 2 ; h y y n n n w 1 n 2 p n 6 p n < @ n r n ",
"n n n r n n 6 d 8 p 4 y y 9 : 4 4 n p 6 n n n n n n n n 2 : 8 = 8 d n n n n b n n n p n n 4 y p n n n 2 r t d n n p n n n n n n n ",
"d n k 0 n M n n p p y n < y q - y n n r n n y y h 8 n n r y n d y d w w r 2 r n n : a 4 n y r : n n n r n n j j n 6 n q j q q < y ",
"d n < r n n q n n k q n y n 0 1 = r r r n n y y y r n n n n n n 2 7 w n n n t 0 n : a 4 n n n y n y r n q q n n r n n n j 2 q y y ",
"n n < r l j j n < - k n n y n n r 2 r 2 n n n n 6 p n n r r n n n g n y y n t a 5 n n n n d n n r y r n n n n 8 r n n n l y n y n ",
"n n n 2 y 2 q n @ < n n y y n q q n n y r n n n - p n n r n n n m n k n q q n w r n 4 p q n n n r n n n n n n 8 n r 0 r r 2 n y y ",
"n y y n n q q n n n 9 n n n d d r n n r r n d < < n n n n p q n r n k n r n n n n n n n 2 4 2 j n n n r n r n n q n k < < n y n n ",
"n n n y y y < n r n n n n n n n 6 n y r r n y 4 < n n r & d 6 n n n n r 2 p n n y 4 n w w & - n n n n r n r n n n n n n n n y n n ",
"n n n y n y y n n q n 9 n n n n y n 2 w n r n n < n n n n p j n n n n r p p n n 9 n n n r < p n n n n n n q q n n n d d n n n n n "
};
