/* XPM */
static char *result[] = {
/* columns rows colors chars-per-pixel */
"65 65 124 2 ",
"   c #202020",
".  c #202120",
"X  c gray13",
"o  c #212221",
"O  c #222222",
"+  c #222322",
"@  c #232323",
"#  c #252525",
"$  c #252625",
"%  c #262726",
"&  c #272827",
"*  c #282928",
"=  c #282A28",
"-  c #292A29",
";  c #292B29",
":  c #2A2B2A",
">  c #2A2C2A",
",  c #2B2C2B",
"<  c #2B2D2B",
"1  c #2B2E2B",
"2  c #2C2D2C",
"3  c #2C2E2C",
"4  c #2C2F2C",
"5  c #2D2F2D",
"6  c #2D302D",
"7  c #2E302E",
"8  c #2E312E",
"9  c #2F312F",
"0  c #2F322F",
"q  c #303230",
"w  c #303330",
"e  c #313331",
"r  c #313431",
"t  c #323432",
"y  c #323532",
"u  c #323632",
"i  c #333633",
"p  c #333733",
"a  c #343734",
"s  c #343834",
"d  c #353835",
"f  c #353935",
"g  c #363936",
"h  c #373937",
"j  c #363A36",
"k  c #373B37",
"l  c #373C37",
"z  c #383C38",
"x  c #383C39",
"c  c #393C39",
"v  c #393D39",
"b  c #3A3E3A",
"n  c #3B3F3B",
"m  c #3D403D",
"M  c DimGray",
"N  c #6A6A6A",
"B  c gray42",
"V  c #6C6C6C",
"C  c #6D6D6D",
"Z  c gray43",
"A  c #6F6F6F",
"S  c gray44",
"D  c #717070",
"F  c #717171",
"G  c #727272",
"H  c gray45",
"J  c #747474",
"K  c #757474",
"L  c gray46",
"P  c #767575",
"I  c #767676",
"U  c #777676",
"Y  c #777777",
"T  c gray47",
"R  c #797979",
"E  c gray48",
"W  c #7B7A7A",
"Q  c #7B7B7B",
"!  c #7C7B7B",
"~  c #7C7C7C",
"^  c gray49",
"/  c #7E7D7D",
"(  c #7E7E7E",
")  c #7F7E7E",
"_  c gray50",
"`  c #808080",
"'  c #818181",
"]  c gray51",
"[  c #838282",
"{  c #838383",
"}  c #848383",
"|  c #848484",
" . c gray52",
".. c #868585",
"X. c #868686",
"o. c #878686",
"O. c gray53",
"+. c #888787",
"@. c #888888",
"#. c #898989",
"$. c gray54",
"%. c #8B8A8A",
"&. c #8B8B8B",
"*. c gray55",
"=. c #8D8C8C",
"-. c #8D8D8D",
";. c #8E8E8E",
":. c gray56",
">. c #909090",
",. c gray57",
"<. c #929292",
"1. c #939393",
"2. c #949393",
"3. c gray58",
"4. c #959595",
"5. c gray59",
"6. c #979797",
"7. c #989898",
"8. c gray60",
"9. c #9A9A9A",
"0. c #9B9B9B",
"q. c gray61",
"w. c #9D9D9D",
"e. c gray62",
/* pixels */
"z i i y y w > i z z z r f z z i y r z z 3 z r z z z z z e r z z z z f i z z z z < z z r z e 3 z y z z z z 0 z w z z y y z y z z z ",
"z z z z z i q q w z z z z z z 7 a r z z i i r z r z z z 3 r z z z z 7 a * r z z < 5 y z r r y z 7 z z z z z z z r z < y y y z z z ",
"w 3 z w 3 : a a w z y z z w z r a z z y i i z z r r z z r z g z r z w i z z z z < < a z r r z z r a a z z z 0 z z z w w z z y y z ",
"w i z z 7 7 z w e e y w 5 7 z z a a z z z 9 i d y r r w w z g z x z z z r z z i ; z z z r y z z w w z y y z z < $ z w 3 y 3 z z z ",
"z z a z i i z 6 r e z w 5 p z 7 q 7 7 3 z s z i i 9 t z y y z s z z z r r z z i 7 z z z z 3 r 3 r z z y z z g ; < z f f j r < z z ",
"z 0 7 r z r r a z r z a a z z t z z z y y z z z u 9 t z z z e 8 3 z z z z z z r y y y z z r r r - 2 q z y z w g z z w z z r < z a ",
"z 3 0 z z s s z z z z 7 7 w z i z z w z z z w z r e r 3 r e e a y a z y r z z 9 d y y z z r z z y ; w y < z y i i z z z z q g z a ",
"p p z z z s s z z a z r y z z z z w w 5 5 w z 6 6 z z z z z z a 9 - 9 > 3 z z z z z z z z 7 i z 5 5 > 0 y y 5 i 7 i 7 z z r z z z ",
"z z a i z z z 7 7 p 7 a z z z z z w i - - z q z z f f w w z z z z z z z w z z w r z z 7 z z z z z z 7 0 z z z z z z z r r z w z z ",
"a 9 8 z y y 3 & 7 3 p w z z z z 7 3 z z z 5 q z z z z 3 w z z 5 9 5 3 z q z z z - 3 z z z z z 7 7 z z r z z z i i z f z 9 9 z z z ",
"w 7 q z y y 0 0 z z r < q z z a 8 4 z i z 5 z z z z z q < z z d z z 5 y q i e z r - z z w w z z z y y 3 z z , a 3 a f z z z z z w ",
"y z z z q q z z z a z r r z z a 8 ; y y z z s z r < w z z z z d z w < e z z e d z 9 5 z > w z z z > z z z w 7 z z t z w z z r r w ",
"y 8 8 z z z r z z a 0 r r z z w z r y z z r y z y 0 f r r 3 g y t z z e z z p z i z z w > y i z z z z 6 6 w 5 z 2 r z w z z z z z ",
"z p z r r z i i i z a 3 w r z 7 a z a a z r z z z a a z z y g y z z i 3 f z t i i u w w z z i y r % 5 5 & t z z e 3 r z z z r r z ",
"z z i r r s s z z z z z 0 i w r z z a a z z z z z z z i z a i z z z : = w u z z u 7 r 7 z z z y d & y z t t z z z z z r r z z z z ",
"z y i i y y z z 0 z z z y z 6 w z d z z z 2 q z y y z z 0 w r 7 z 4 4 z z 3 3 z z w 9 y y y g z r p z y 8 z w 9 z z z y y z z z z ",
"z z z u y y z = * z r z z d d z z z z z z z j y z z f z z y r z z z r a e - 5 z i 2 = = a a g z y y r 3 0 z z w z z z z r r z z z ",
"z z z z z y y 3 r y z z z z z z a 7 5 z q q z z z w > z z z z 9 i 5 a z e 7 a z 5 z 2 - r r z 0 * y r 3 w z z z y i > y z z f z z ",
"z z z z r r z z z y z z z z z z a r 5 z z r s z i 7 z z z z a 0 y z z 0 7 < g g , z z 8 r 7 z z r z r z z z z z y y r z z z 3 ; i ",
"z r z z r z z z y z z s z z z z z z z y y z s i i t i 7 z z z f y z z z z w g < 3 z d r < < z q s z z a 7 z d d d 5 y z a z 5 * < ",
"z z y 7 z z z z a a 5 z 0 i i z z e z a q z z i d z 0 < z r r < ; z < z z z s 0 i z z z < * 3 q z z z a a z d > : z z z z w 3 e r ",
"9 y z z z y y y d r z z z z 7 r f e z z & < z a a z z z s z z < < z z z z z r z z z z z p 3 0 z w w z z z 7 7 z 3 z 5 5 z i z e z ",
"s z z z z z y z z z 0 i z 9 i - z f r 5 5 w 0 a > 4 z z w i s 7 7 z z z z z r z z z z a g 7 9 a q z z z z f f z > i p p z 5 z z z ",
"z z z z z z z z z r 0 d z d i 4 z i r k z z z a z 7 5 j z z r 0 5 p z z a a * > 7 r w < r z i i 6 w 5 i 7 7 z y z z > > z z z 5 z ",
"z z r w 0 d h z z z a a z d z 9 8 z z 3 i z 6 q z z & 6 z z z z 3 8 z z z p 7 5 p z w 8 9 q z z z i z y 9 d z y z z z z 6 r z y 0 ",
"z z l i i r 9 z z z i z a r z f 9 z j < 0 z i 4 z 0 < 0 z w & 3 w q y z 3 p 5 a z 7 7 z 6 q z a z i z z r , < s z z z q p e z z z ",
"z z z z z z z z z z i z p t z z 8 d g g s r r * 9 0 0 r z < - 3 w q & i i z * z z 7 7 z z z z s z z y z r 4 a z z w z p 6 z z z z ",
"l r z z z z z z z k i l z z u y > 7 < w z z z a p w 0 0 7 7 z e z z 7 i z e < z z z z z e z z z r y z z z q a z e g z d z z z i i ",
"z * z r r z r 3 z q q z z f w z e e 7 z z z z a z z z z y y z e 0 z r 0 2 t z r z z 9 i e z z z z z z z r < 7 z z z z z z z z 8 i ",
"i a i z r z y > z z y e e 3 = d a z 0 z z z z z z z z i 0 y z z 0 z z : % 0 z s s z z z z z r 6 z z z i r r z z z z z y z z z z z ",
"f 7 w z z z z 9 z 3 5 < z i : 1 r a z z < z z z z y & 7 r z X X X X X X X X X X X X X X X X X X X X X X X X X X X X X X X X X X X ",
"z z z z z z a - z 5 z w z z z 4 z 5 z z z z z p 8 q q z z z X X X X X X X X X X X X X X X X X X X X X X X X X X X X X X X X X X X ",
"z z r x z 3 y 9 z 9 z z t z z z z i y y ; < 7 5 3 w w z 0 0 X X   X X + + + X X + .     X X X X X X X X X X X X X X X X X X X X X ",
"z z z z s 8 a a z 5 d d y y z 7 z 9 0 f < < 7 0 z 3 3 e e z X X + :.3.M ` :.,.S ^ ^ M M M M M M M M M M M M M M M M M M M M M M M ",
"z z g g z e e z z z z z g g i r r z a z r z s r z & - z z z X X + J M F R E R S M M M L L M ` Y Y F A A ( C Y Y V F M M ( L Y H ' ",
"r r z z y z e z z z z z 3 y a w y z z z r z i z z w < 7 y y X @ + ( ` &.M M M S @.<.Y O.Q ` ^ L M M J M ^ $.Y ' V _ :.8.~ M M M M ",
"e 3 r w y z r z w w < z r z z 0 z z z z z s w z z z z 7 y z X # O I ] *.M M M ` @.<.Y q.^ ] ^ M M {  .( ( 3.| M ,.>.0.w.>.( M S M ",
"z z z w z z 3 z w 3 q z r z i z z z z 7 < z z j 6 0 r 0 z z X @ + I M M M M F ` M M L L ` O.I M M Y { ^ Q O.Y M #.#.] T ( ( M L A ",
"z z z r t t r z f z z w f a z z f > z i 0 z z 5 & < 0 0 z z X X + M E E ^ { ^ I ( M L ' Z I { ( M Y M A ` ,. .>.M M R R ] M ] >.>.",
"z z r r 9 9 e z f z z < 0 a z y z w 7 t z z 4 7 z 0 0 w z z X X o M I H R *.-.M M I H M M @.@.q.q.M M M M >. .Q Q M F F ! M M M J ",
"z r r y i u r 6 z z z r y z z y z z i i d a > z z z z z z z X X o M L Q M M M Q M O.E  .M M M q.q.M I I A M M M M M F  .M B B L O.",
"z z z d i z z 6 z z z z z z z z y z z i i a a a q q z z z z X X X M &.| M | | <.F >.M Q M <.;.M M T M *.^ O.R #.:.I M M M M `  .L ",
"r r z i z z w z q q z s y z z q j z s s z z 0 z 6 3 z 0 z s X X X ` | >.M ~ R ] O.R *.M M X.( ( M T M _ N @.{ M L M B M M M X.X.M ",
"z i i 9 s z z w z 5 5 z r r z 2 z q r z z < w z y 9 6 z z z X X X ^ M { %.M ) M S ( *.M E *.R H H M L L M ~ T M V E B R #.M V M M ",
"3 i i z z y z 5 - z z z z z z z z q z y q & 5 z z i i z z z X X X M M q.M M M M M R M R O.E [ Y R H _ E E 1.<.M Z @.^ R ;.{ L M D ",
"z z y z 3 y z 5 - z i y z a a z z z z y a z 5 r z z z z z g X X X  . .e.M _ A Q Q Y Y Y E M X.|  .H B A E R M M H { ^ G L ( M G Q ",
"z z z z 7 z w w i z z y y a a n z 5 5 z z z r r z z z z z g X X X H ` R J _ ^ L @.o.] _ M M M C ` { @.O.M / &.=.} ` ] G G G #.9.J ",
"r r z a 7 z z w w 3 4 ; r z z c z 7 r z e e f i z z z w w z X X X M ' _ M M M *.:.|  ._ *. .4.5.^ M I I M M M ~ ~ Q ] M M M M Y ` ",
"y a a a q z z z z 7 8 8 z a z n z a a z z f z z 8 9 r z z 9 X X X H M T ^ G T :.@.[ M M { R 6.7.| M ! I ,.L M L I ^ _ _ M M I Y T ",
"i 7 r z 7 t i z z z a a w 7 r a z z z z z r - 4 9 f z y z 0 X X X ' ~ T $.E _ $.R R M Y *.M M #.R _ H S ,.X.M -. .` @.X.M M #.#.H ",
"z z z z z z z z z z z z z z w w d z z z i 7 i i z z a z z z X X X @.O.M $.E M M M A M M C R M $.R M M X.Y `  .C ,.T Q L M | X.5.,.",
"z z w 7 p z w z z z z z z r i m g z z z i z 9 d d 0 8 y w w X X X @.O.<.-.&.M M G G M M C C M #.K M M M I O._ C <.R M M M | Y ^ ^ ",
"f z z 5 5 a 7 y z z q r r w 0 g v z z z 0 z z z z 0 y < y y X X X M M <.| M H M G G | @.M | :.{  .G M M M ' ( F | X.U | M M M J ;.",
"r z z w w a 7 r a w < r r 3 z n v z z s z z i d a z z a z 7 X X X T ` R M M H H H G &.| >.` :._ M J ,.` L G ` ] C ^ U M M M R <.;.",
"z z y y z z z z 7 p r z 0 a z z r z z z 5 z 0 0 a i i r r q X X X T ` M I E M M M M |  .>.>.` Q M T Y @. .M ` #.^ L Q Q R M w.R ~ ",
"z z z e e r z a p 3 z a a z z z z y y z a r z r z z z r r z X X X | M M M M R M M A A Z M ( ( 1.M M Z O.O.R M M ` E M X.M G w.S U ",
"z w w e r z z z 7 7 z z z i z 0 * r z y a d z z z z z z z z X X X O.M M M M G M M A T T F Y ( ^ B Y M F F R M ' Y M ( M M M M A M ",
"i q a w 6 a z z 7 & 0 z z i z z = 3 z z z y z z z z r r z z X X X #.Q F M F ^ ` Y M M O...{ *.B B M J J #.^ Q X.Y M M F F | M M M ",
"> q a z z r s s z 3 0 z r i s z z y z z z y y z z d z z z z X X X ~ I M O.O.Q ' Y M M @.L M M M M M M ` @.M Q Q M M M F F | M #.R ",
"w i : 7 i r s s z y y q z z s y y y r z z y z z z y y z z z X X X M M M O.O.*.G M ' X.' Z R *.' C M M S M O.E M L X._ M M M M R *.",
"y z 3 7 i z z z z y y q z r r y y z r r z z z z y z z z z z X X X ;.-.M M H H J J M T M M F F M ~ X.Q M R M M Y M O.| M N N M E M ",
"y z w z z r b v a z z z z r r i u z z z 7 z z z z z 5 r z z X X X ;.1.M F F M J T J A M M S O.M Q ` X.R M H H { S ' J R ` I M ] ' ",
"i z z z a 7 0 z a 8 q z 8 z i i z z z z y z z z z 0 * r z z X X X M M M M M W M M Q Y L G ] ~ L M M R R M ` ' Z ,.*.#.( I +.P ^ ' ",
"i z 3 i z 0 3 p z 9 7 z 8 p z y z z z r z y z z z z z z y 5 X . X E w.M P M O.$.$.Q e._ *.<.M M Q G M M M { ' Z ,.~ Q ` { ' ^ M M ",
"z z w w z z z p z a w y y z z z z z z z z 9 s z z z z z y y X   X R _ M M M M M F Y w.M X.9.2.L ` L M M M M M M H ^ L  .^ R ^ M I "
};
