/* XPM */
static char *result[] = {
/* columns rows colors chars-per-pixel */
"65 65 114 2 ",
"   c #202020",
".  c #202120",
"X  c gray13",
"o  c #212221",
"O  c #222222",
"+  c #222322",
"@  c #252625",
"#  c #262726",
"$  c #272827",
"%  c #282928",
"&  c #282A28",
"*  c #292A29",
"=  c #292B29",
"-  c #2A2B2A",
";  c #2A2C2A",
":  c #2B2C2B",
">  c #2B2D2B",
",  c #2C2D2C",
"<  c #2C2E2C",
"1  c #2C2F2C",
"2  c #2D2F2D",
"3  c #2D302D",
"4  c #2E302E",
"5  c #2E312E",
"6  c #2F312F",
"7  c #2F322F",
"8  c #303230",
"9  c #303330",
"0  c #313331",
"q  c #313431",
"w  c #323432",
"e  c #323532",
"r  c #323632",
"t  c #333633",
"y  c #333733",
"u  c #343734",
"i  c #343834",
"p  c #353835",
"a  c #353935",
"s  c #363936",
"d  c #363A36",
"f  c #383C38",
"g  c #383C39",
"h  c #676767",
"j  c DimGray",
"k  c #6A6A6A",
"l  c gray42",
"z  c #6C6C6C",
"x  c #6D6D6D",
"c  c gray43",
"v  c #6F6F6F",
"b  c gray44",
"n  c #717171",
"m  c #727171",
"M  c #727272",
"N  c #737272",
"B  c gray45",
"V  c #747474",
"C  c gray46",
"Z  c #767676",
"A  c #777676",
"S  c #777777",
"D  c gray47",
"F  c #797878",
"G  c #797979",
"H  c #7A7979",
"J  c gray48",
"K  c #7B7A7A",
"L  c #7B7B7B",
"P  c #7C7B7B",
"I  c #7C7C7C",
"U  c #7D7C7C",
"Y  c gray49",
"T  c #7E7C7C",
"R  c #7E7D7D",
"E  c #7E7E7E",
"W  c gray50",
"Q  c #807F7F",
"!  c #808080",
"~  c #818080",
"^  c #818181",
"/  c #828181",
"(  c gray51",
")  c #838282",
"_  c #838383",
"`  c #848383",
"'  c #848484",
"]  c #858484",
"[  c gray52",
"{  c #868686",
"}  c #878686",
"|  c gray53",
" . c #888787",
".. c #888888",
"X. c #898989",
"o. c gray54",
"O. c #8B8A8A",
"+. c #8B8B8B",
"@. c gray55",
"#. c #8D8D8D",
"$. c #8E8E8E",
"%. c gray56",
"&. c #909090",
"*. c gray57",
"=. c #929292",
"-. c #939393",
";. c gray58",
":. c #959595",
">. c #969595",
",. c gray59",
"<. c gray61",
"1. c #9D9D9D",
"2. c gray62",
"3. c #9F9F9F",
/* pixels */
"f t t e e 9 ; t f f f q a f f t e q f f < f q f f f f f 0 q f f f f a t f f f f > f f q f 0 < f e f f f f 7 f 9 f f e e f e f f f ",
"f f f f f t 8 8 9 f f f f f f 4 u q f f t t q f q f f f < q f f f f 4 u % q f f > 2 e f q q e f 4 f f f f f f f q f > e e e f f f ",
"9 < f 9 < - u u 9 f e f f 9 f q u f f e t t f f q q f f q f s f q f 9 t f f f f > > u f q q f f q u u f f f 7 f f f 9 9 f f e e f ",
"9 t f f 4 4 f 9 0 0 e 9 2 4 f f u u f f f 6 t p e q q 9 9 f s f g f f f q f f t = f f f q e f f 9 9 f e e f f > @ f 9 < e < f f f ",
"f f u f t t f 3 q 0 f 9 2 y f 4 8 4 4 < f i f t t 6 w f e e f i f f f q q f f t 4 f f f f < q < q f f e f f s = > f a a d q > f f ",
"f 7 4 q f q q u f q f u u f f w f f f e e f f f r 6 w f f f 0 5 < f f f f f f q e e e f f q q q * , 8 f e f 9 s f f 9 f f q > f u ",
"f < 7 f f i i f f f f 4 4 9 f t f f 9 f f f 9 f q 0 q < q 0 0 u e u f e q f f 6 p e e f f q f f e = 9 e > f e t t f f f f 8 s f u ",
"y y f f f i i f f u f q e f f f f 9 9 2 2 9 f 3 3 f f f f f f u 6 * 6 ; < f f f f f f f f 4 t f 2 2 ; 7 e e 2 t 4 t 4 f f q f f f ",
"f f u t f f f 4 4 y 4 u f f f f f 9 t * * f 8 f f a a 9 9 f f f f f f f 9 f f 9 q f f 4 f f f f f f 4 7 f f f f f f f q q f 9 f f ",
"u 6 5 f e e < $ 4 < y 9 f f f f 4 < f f f 2 8 f f f f < 9 f f 2 6 2 < f 8 f f f * < f f f f f 4 4 f f q f f f t t f a f 6 6 f f f ",
"9 4 8 f e e 7 7 f f q > 8 f f u 5 1 f t f 2 f f f f f 8 > f f p f f 2 e 8 t 0 f q * f f 9 9 f f f e e < f f : u < u a f f f f f 9 ",
"e f f f 8 8 f f f u f q q f f u 5 = e e f f i f q > 9 f f f f p f 9 > 0 f f 0 p f 6 2 f ; 9 f f f ; f f f 9 4 f f w f 9 f f q q 9 ",
"e 5 5 f f f q f f u 7 q q f f 9 f q e f f q e f e 7 a q q < s e w f f 0 f f y f t f f 9 ; e t f f f f 3 3 9 2 f , q f 9 f f f f f ",
"f y f q q f t t t f u < 9 q f 4 u f u u f q f f f u u f f e s e f f t < a f w t t r 9 9 f f t e q # 2 2 $ w f f 0 < q f f f q q f ",
"f f t q q i i f f f f f 7 t 9 q f f u u f f f f f f f t f u t f f f - & 9 r f f r 4 q 4 f f f e p $ e f w w f f f f f q q f f f f ",
"f e t t e e f f 7 f f f e f 3 9 f p f f f , 8 f e e f f 7 9 q 4 f 1 1 f f < < f f 9 6 e e e s f q y f e 5 f 9 6 f f f e e f f f f ",
"f f f r e e f & % f q f f p p f f f f f f f d e f f a f f e q f f f q u 0 * 2 f t , & & u u s f e e q < 7 f f 9 f f f f q q f f f ",
"f f f f f e e < q e f f f f f f u 4 2 f 8 8 f f f 9 ; f f f f 6 t 2 u f 0 4 u f 2 f , * q q f 7 % e q < 9 f f f e t ; e f f a f f ",
"f f f f q q f f f e f f f f f f u q 2 f f q i f t 4 f f f f u 7 e f f 7 4 > s s : f f 5 q 4 f f q f q f f f f f e e q f f f < = t ",
"f q f f q f f f e f f i f f f f f f f e e f i t t w t 4 f f f a e f f f f 9 s > < f p q > > f 8 i f f u 4 f p p p 2 e f u f 2 % > ",
"f f e 4 f f f f u u 2 f 7 t t f f 0 f u 8 f f t p f 7 > f q q > = f > f f f i 7 t f f f > % < 8 f f f u u f p ; - f f f f 9 < 0 q ",
"6 e f f f e e e p q f f f f 4 q a 0 f f $ > f u u f f f i f f > > f f f f f q f f f f f y < 7 f 9 9 f f f 4 4 f < f 2 2 f t f 0 f ",
"i f f f f f e f f f 7 t f 6 t * f a q 2 2 9 7 u ; 1 f f 9 t i 4 4 f f f f f q f f f f u s 4 6 u 8 f f f f a a f ; t y y f 2 f f f ",
"f f f f f f f f f q 7 p f p t 1 f t q q f f f u f 4 2 d f f q 7 2 y f f u u % ; 4 q 9 > q f t t 3 9 2 t 4 4 f e f f ; ; f f f 2 f ",
"f f f f e f f f f f u u f p f 6 5 f f f f e 3 8 f f $ 3 f f f f < 5 f f f y 4 2 y f 9 5 6 8 f f f t f e 6 p f e f f f f 3 q f e 7 ",
"f f 7 f f e p f f f t f 7 7 f a 6 f f f t 6 < 8 f 7 > 7 f 9 $ < 9 8 e f < y 2 u f 4 4 f 3 8 f u f t f f q : > i f f f 8 y 0 f f f ",
"f f % 2 f e f q f f t f e 5 u f q f f f t 3 f f f 7 7 q f > * < 9 8 $ t t f % f f 4 4 f f f f i f f e f q 1 u f f 9 f y 3 f f f f ",
"f f q q f f f q f q q u > e f e f 9 f f f f 7 f f 9 7 7 4 4 f 0 f f 4 t f 0 > f f f f f 0 f f f q e f f f 8 u f 0 s f p f f f t t ",
"e e f f f f f f f q q f e 9 f f f 9 f f f f f f f f f f e e f 0 7 f q 7 , w f q f f 6 t 0 f f f f f f f q > 4 f f f f f f f f 5 t ",
"e 2 f f f f f f f f 8 4 e 9 f 7 6 f s s f f i f f f f f f e f f 7 f f - # 7 f i i f f f f f q 3 f f f t q q f f f f f e f f f f f ",
"X X X X X X X X X X X X X X X X X X X X X X X X X X X X X X X X X X X f f f * $ f q i f q f u f q q t s s f f f f f 0 0 f s s f f ",
"  . X X X X X X X X X X X X X X X X X X X X X X X X X X X X X X X X X f 0 0 < < f 7 4 > > a 7 6 f 4 f e e p p 2 f u u 5 i f f f f ",
"X X X X X X X X X X X X X X X X X X X X X X X X o o + + O + + +   X X 7 7 f 9 9 < 2 4 > = e e t f f f f w f f 6 f 6 e < f g q f f ",
"j j j j j j j j j C ' Y W &.j S S Z j j x n K *.:.j } j J j [ j X X X f f f 8 8 5 y f f f f f 2 f 1 f f f 9 f 2 f * u f f f f f f ",
"$.M j j Z ' E | V B G C j j M M j G l j x x j &.&.j j j L L j j X X X f q 4 $ e f f f f > f f u q 1 - t f > 2 < f 6 f f f f 9 4 a ",
"%.V J b C X.L W Z / ( C j j E E j I &.v D j n j j j B j j L L C + X X - 7 t t f f f f f f f 7 f u f & < 0 0 e f f ; e f q f t u t ",
" .V J ' *.| E ^ S ^ W C C j I I v l l Z n j J ' $.$.E @.@.*...^ + X X # , f t < f u f f f f 4 0 0 f 9 a f f 8 8 9 < q f q q f % f ",
">.j J M o.o.L v v D W E v z j j j D ( | n j j h j U / &.*.( I C + X X 7 w 0 f y y u f f f 9 > 4 * < r f f f t f f f f f f f f q f ",
";.W ' ( J ! j ! j A C C ( [ B j j x J j j j S S j j ! _ E j j Z X X X f f > % 2 4 % q q i s s u 2 < f w y 0 0 f f f f f f f f f f ",
"j j Y ^ Q ( R I j A V ^ ( D J V j c S j j z z j c { [ [ j j j C X X X i q f f u 2 ; f f 7 > s f f f f t f p f f 9 f 6 q t t f f f ",
"o.#.&.G D j ( j Z Z j M j j j j E ! I G G E j ! j L ! ! j V V ^ + X X i f f f f y 4 f f t < : 2 t f r t t f q * q f p e 4 = > > > ",
"V %.=.[ ' ' b ' j j j M j Y W ....b j G G j j o.*.;.[ j j Y V Z . X X f f f 4 4 f q f f f f f f , 9 4 r f 6 * < f f e e f f > 2 f ",
"#.=.=.' j j V V j j E j j X.Y @.@.N V j j %.v j j S { Y j j ' |   X X f 6 f 4 4 9 9 f f f p f , & 6 q 9 f 2 f f f f e e f f u e f ",
"! I Y +.j G j j j { E z z V [ &.%.j Z Z j ( v j j S j j j j _ ^   X X f t f f f 5 > u f f q 5 * & e 4 9 9 f f f 4 f f f f f f f q ",
"C C S ..D j j G ! @.B | 2.j j j v j j &.j x j j j j j j j ....*.X X X f 0 0 f 3 6 q s y > > q q u e f f ; ; 9 f f f f f f q q q f ",
"j j j ..L D D Y { ' Z ( Y B Z Z W j j j j j j j j j M j j ..*.j X X X f f f f 0 8 f 4 < % > 4 q u e f f e 9 9 f f 4 q q < e q q 0 ",
"B X.j j ! X.Y V j D W ] j G Z ....j j j j J L j j J _ j W C *.{ X X X q f f f f f t 6 7 < f f f s s f t t f f f f t f q q f f e < ",
"Z 2.j j Y o.` V G W j G j G B | | n j j c V W l ' I J ..| j #.+.X X X 3 f f i u f t u f 8 8 f 7 f f e e f f f 4 f f f q < f f f f ",
"Z <.j H #.{ { | W B M j j j j _ B j j &.$.$.| | ' c j ....W .._ X X X f f q f f f 3 8 9 f i q % e q p q f f f 4 f 2 e * q 9 q 4 e ",
"D j G ' ' B j C Y E C j j B B _ S j G l #.@.| | j D j J j &..._ X X X f f e f t t 9 f 9 f f f e e y $ # f ; e f f 2 = , f 9 u f f ",
"Y j #.j L L G ^ W E E n ' ' J v v k Y v l j j ' ' D E j D E _ =.X X X f f f e f f 2 f f f f q q q f e 2 f f e f 4 ; 9 8 f f u f f ",
"%.j G G L L { j V V [ | ' D j ..[ G j n b v j j j Y j ! [ J M +.X X X t f f f f e t f f u u f < < e f 2 3 f < q 7 7 e f e e f f f ",
"^ Y o.! &.@.| D S [ #.&.#.j j v v v z | S k j j j E ! ( o...j D X X X q q f q q 6 4 f f u 4 f 9 7 5 w $ 3 f f f f e > e f e f f f ",
"I j ~ C ! ( ! I x Z } E D B Z j v L j @.$.#.C { ^ S j j j j j B X X X q > 8 1 : p 4 a 4 f f f f f f w w 9 9 f f f e f f f f f f 7 ",
"X.V B j L W *.n j 2.! E ( F j n v E v j 2.[ n ,.J Z Z j j j B j X X X f 4 u u > f f a 4 p p f f f 9 f f 2 4 : f f 2 e 9 s f 7 f f ",
"V | ..Z &.D n n j C C C v j j { ..J v j [ #.W I j Y Z l j ,.-.C X X X f f f f i e e f f ; p f f 9 6 f f f f u t f t t s = > f f 9 ",
"E j ( j j L L j _ | L j 1.v j j j j j c j j j j j [ B l j E j V X X X f f 0 f f f f ; < - p e e f f f 0 , f < t f 4 t f > @ f q f ",
"Y j j j j j j j ! j n Z 3.j j n j ^ ^ n B z j &.2.( D o.L j j +.X X X f f s 9 f f f t f f 2 e t f f f < q w u f f t f f f f f f f ",
"| _ &.) P j j | ..! j j j b j j j ^ #.S B z j ! [ j m { %...Y j X X X f f f f f f ; y 2 f e q ; f f f q f f a a f 4 f 9 a 9 9 > e ",
"G _ &.*.{ j M W B M M _ ..B D j _ _ Y D j [ L ! [ j Z B X.V G M X X X e f p y 8 f ; y 2 f f f e f e q f 9 9 f f q f f f a < 9 e e ",
"M j S _ I Z ' ' Y B j V G b ! Z Y Y M j c j L B B W G } @.j j j X X X f f f 3 y 3 f f f f u f f q e q f f f f 6 q f f f d e f e f ",
"I j j v =.[ +.[ _ +.M L ! D J x @.( l ( v *.T O.' @.j j B D ! ! X X X f f f f 0 q f 2 t 9 f f f q f f f f f f 6 f q 8 q q < f e e ",
"o.! @.j *.G o.P ` S J V Y Y n n ! &.,.^ v *.c <.2.' ' &.&.#._ W X X X f f f f f f f f f < 2 < a f f f q f q f f 9 f s > > f e f f ",
"j ^ ^ j j j E _ Q j V ^ [ S -.j j &.&.k *.j j 1.<.l o.' 2.E A _ X X X f 5 t f f e 2 f 0 0 % = f f f f q f q f f f f f f f f e f f ",
"W j o.j v j #.#.W Z j j B ( &.v j j ! k ;.j j v z j L C 2.E j Y X X X f t t f f 7 f f f q > t f f f f f f 9 9 f f f u u f f f f f "
};
