/* XPM */
static char *result[] = {
/* columns rows colors chars-per-pixel */
"65 65 121 2 ",
"   c #202020",
".  c #202120",
"X  c gray13",
"o  c #212221",
"O  c #222222",
"+  c #222322",
"@  c #232323",
"#  c #252525",
"$  c #252625",
"%  c gray15",
"&  c #262726",
"*  c #272727",
"=  c #272827",
"-  c #282928",
";  c #282A28",
":  c #292A29",
">  c #292B29",
",  c #2A2B2A",
"<  c #2A2C2A",
"1  c #2B2C2B",
"2  c #2B2D2B",
"3  c #2C2D2C",
"4  c #2C2E2C",
"5  c #2C2F2C",
"6  c #2D2F2D",
"7  c #2D302D",
"8  c #2E302E",
"9  c #2E312E",
"0  c #2F312F",
"q  c #2F322F",
"w  c #303230",
"e  c #303330",
"r  c #313331",
"t  c #303430",
"y  c #313431",
"u  c #323432",
"i  c #323532",
"p  c #323632",
"a  c #333633",
"s  c #333733",
"d  c #343734",
"f  c #343834",
"g  c #353835",
"h  c #353935",
"j  c #363936",
"k  c #363A36",
"l  c #373B37",
"z  c #373C37",
"x  c #383C38",
"c  c #383C39",
"v  c #393D39",
"b  c #676767",
"n  c DimGray",
"m  c #6A6A6A",
"M  c gray42",
"N  c #6C6C6C",
"B  c #6D6D6D",
"V  c gray43",
"C  c #6F6F6F",
"Z  c gray44",
"A  c #717171",
"S  c #727272",
"D  c gray45",
"F  c #747474",
"G  c gray46",
"H  c #767676",
"J  c #777676",
"K  c #777777",
"L  c gray47",
"P  c #797979",
"I  c gray48",
"U  c #7B7A7A",
"Y  c #7B7B7B",
"T  c #7C7C7C",
"R  c #7D7C7C",
"E  c gray49",
"W  c #7E7E7E",
"Q  c #7F7E7E",
"!  c gray50",
"~  c #807F7F",
"^  c #808080",
"/  c #818080",
"(  c #818181",
")  c #828181",
"_  c gray51",
"`  c #838282",
"'  c #838383",
"]  c #848383",
"[  c #848484",
"{  c #858484",
"}  c gray52",
"|  c #868686",
" . c gray53",
".. c #888888",
"X. c #898888",
"o. c #898989",
"O. c gray54",
"+. c #8B8A8A",
"@. c #8B8B8B",
"#. c gray55",
"$. c #8D8D8D",
"%. c #8E8E8E",
"&. c gray56",
"*. c #909090",
"=. c gray57",
"-. c #929191",
";. c #929292",
":. c #939292",
">. c #939393",
",. c #949393",
"<. c gray58",
"1. c #959595",
"2. c #969595",
"3. c gray59",
"4. c #979797",
"5. c #989898",
"6. c gray60",
"7. c #9A9A9A",
"8. c gray61",
"9. c #9D9D9D",
"0. c gray62",
/* pixels */
"x x x x x g d x x x e e x x x x x x a 2 y x x x e x x a a x X X X &.Z n 8.n n K ( ! V V  . .n I n ! ! V n I  .n n n n G o.P D I n ",
"x x i x x x x x x x x y x y x x x x > - r r x 6 i x x a 9 x X X X O.Z n n n n P O.K K n  .5.n n K [ ! ( &.Y P n K K n n _ [ A Z Z ",
"x x i x 2 2 j x e x x y x y x x x h 4 6 4 x x x v x x x x x X X X _ D n H Z ' P ~ <.I C n ^ I I S n n 4.3.n 9.n n n n n n W P Z O.",
"i i x 4 i y w y x 0 x x x x x x y x x x e a 6 x i r x x x x X X X D D 1.n Z n o.[ n C C n ^ ^ I S n n %._ n P n n W W n n P P n n ",
"x i x i l x x x y 0 x x x x y i y x x d x x x x 7 s 7 x x x X X X G n =.H Z n o.[ n n n n n Z L S n @.1.#.n n _ n Y D Z n n C I n ",
"i i e 4 h x x x y x x e e x y i x i x x x 6 s < x w s g x i X X X _ _ #.#.Y ..@.L E E C n n %.L K n 1.) ! A n n K E n Y n A | T =.",
"i 2 e e h e x 8 x h h x x y x x x < y i x 6 s < x x x x x x X X X <.&.#.#.#.#.@.F #.#.n n | 4.Y ( E ~ } &.X.n  .K E n K  .n ' E %.",
"x x x x x x x a x x d u y 4 x x x a i 6 x x a x x x e j x x X X # *._ $.I n n n n D o.n *.n n Y Y Y G H Y J n  .N 7.>. . .$.1.n n ",
"x y x $ 2 x a 8 x a 4 x 3 r x x x i i g , 4 < x x x x r x x X X # n W %.I B n n O.I n n n n n O.=.n P / A W n &.2.! T  . .L ^ I n ",
"e x x 2 > j a a x a d x x x x 0 e x x g < x x i i f x x x x X X % #.D m L B H H O.I n o.I A n ,.;.n P ! T W | n n C C O.O.n n I B ",
"x x q x j e i 6 x x 1 8 6 x x e x x x g g 8 h x x 2 d d 8 x X X X K I A n n n M n n n o.! D H ^ n n n n S n I I W n n n ( ( n n @.",
"q x x x x x x i x x x e e u u x x x x x x 8 h 8 g 1 5 w 2 y X X * n Y Y n n C M D n ^ ! S &.W L n ^ n C 6.n 0.8.4._ n %.<.;.o.n 6.",
"x x x i x i 2 i x x x x 7 = u 9 q e x 8 d x x 8 0 y y x y y X X X n n n n n n K E n _ n | n n n n ^ n n T m 8.8.>.<.@.n n o.V ..W ",
"x x x i a x i q q y 4 x 7 6 x i 4 4 x d d x x a i x x x x a X X X n n E F n n n T } n n E E D D n @.n M ! ! n n #.#.E n 1.^ n #.A ",
"x x d x v w e < 8 x i x x 6 i x y y y x x x x 6 x x i x x x X X X W n E n W I Y } %.n N } [ n ..o.4.n n n Y Y ! n n ! n 1.n n A A ",
"x x d e v 3 > 6 x x i < x & = s i i x x x e x e a a x i x x X X X W n n n n n n Y Y n K ..[ C n n } n K K n C ! n ( | n n C n ^ n ",
"i 8 y e y : i 6 x 8 x x x y g y i - y f x e w 7 x x x y x x X X X n n ^ P V ^ _ n n n n n n F n | %.n T T n +.C n ( H n n C D 9.! ",
"x x x x 4 y x x x 8 x x x i i x x q x w w x d a x d f x x 7 X X X n n ^ H F K [ -.C C n Y Y n n S n n | | n n n n n n n n ^ Z | A ",
"4 i x x y y x a x x x x a a x j j x x x 4 q 0 a x x x x x y X X X G G n n S P  .:.P K V [ ( ( n n n n Y Y n I n O._ I n o.n Z S E ",
"r y y i 4 y y 8 x x e e i x x i d y 8 2 - 4 8 x w w x x x x X X X [ Y S P } S F ! ^ T | n A ! n n n M Y n G I n W I _ K [ n S S S ",
"x y y y x x x x x x e < < x x i d y y 2 2 s j y 0 7 x r r x X X X G W n E } Y n n S S 0.8.Z L n C ^ ( %.N K ..'  ._ K 6.*.' .._ n ",
"y x x x x x x x 8 x x x e e 8 i ; : 9 y x x d 2 9 x x x a x X X   E [ E I Y n H E I E n n n G  .C ^ Q K N N Q n n V W *.<.O...D n ",
"x i d x x i i x x x x 6 x e y 0 ; 3 x g x x x e e 8 8 x 0 x X X   _ n W W A n W E o.O.n D D M ] A n K K n n  .n n n F n n n H S I ",
"x 6 2 x x i i x x 4 : 0 x p 8 e 3 x x x x x x y x 8 8 x x x X X . I G [ E I I n n [ ^ [ D D M W E n ..Y Y n Y n Y Y ;.o...O.L K >.",
"2 2 2 > 8 i g x y : y x a a p x a 6 1 4 a x x 8 s x x x x f X X + ..} ` n n S n n o.#.K n n H H n n n Y Y n _ n { { @.*.6.4.C V L ",
"x x x a a y 0 x e x x g x a x x x x j 2 q x x < 6 d x x y f X X X n n n n Y [  .! &.K K n n E D H m *.4.n n H ( ' K n A n @.n E ' ",
"x x x x x x x x x x r r s u x 4 6 d j j f y y - 8 6 - 2 x x X X X Y Y n n F ^ T @.Z n n n n T n n L n n ! ^ F I n n J R H n n I | ",
"x y x x x x x x x x a x x x p 4 : 8 2 e x x x d s s x r u q X X + ..Y H n n n G $.b n [ D n P =.*.n n n Z W Y n n K n n H N S C n ",
"x - x y y x y 4 e w w x x h e x r r 8 x x x x d x 4 a x 3 & X X + U U ' ^ _ n n ' Z Z ;.;.n n =.#.n n n n Y n ^ T O.F n n n n n n ",
"a d a x y x i < x x i r r 4 ; x d x q x x x x x x x a a q , X X + n n ^ @.*.n n ^ ^ n n n n n n n n n  . .%.| n &.T } H M M n #.#.",
"h 8 e x x x x 0 x 4 6 2 x a , 5 y d x x 2 x x x x i = 8 y x X X X ..n [ [ H H n ^ ' S H ..n n E E n n  . .n n n T M _ n | M n #.%.",
"x x x x x x d : x 6 x e x x x 5 x 6 x x x x x s 9 w w x x x X X X $.L n n H H E A n ! _ #.'  ...I K n | @._ A n W n D [ E E _ <.*.",
"x x y c x 4 i 0 x 0 x x u x x x x a i i > 2 8 6 4 e e x q q X X   + + + O + + o o X X X X X X X X X X X X X X X X X X @ X X X X X ",
"x x x x f 9 d d x 6 g g i i x 8 x 0 q h 2 2 8 q x 4 4 r r x X X X X X X X X X X X X X X X X X X X X X X X X X X X X X X X X X .   ",
"x x j j x r r x x x x x j j a y y x d x e x f y x = : x x x X X X X X X X X X X X X X X X X X X X X X X X X X X X X X X X X X X X ",
"y y x x i x r x x x x x 4 i d e i x y x x x h x x e 2 8 i i x x q x x i x x x x x x f x x j j x 0 q x e i 8 w x x x x x x x x 6 i ",
"y 5 p x i x y x e x 8 x y x x q x x x x r a 0 x x x x 8 i x y x q r x i i x x x x x x x x x x e x x x e i x y y x x x x x x x i i ",
"a a x x x z 6 z r x d x y x a x x x x x r x x k 7 q y q x x 8 x x r x 8 8 q q e x x q x x x x e x i x i 2 d y y x y x x x y y x x ",
"x x x x 7 s x e x x d q h d x x h < x x x x 8 6 = 2 0 t l l = w e 4 : 2 x y q q x x x 7 a x x x y x d 9 i x a x x y x i x 6 - x x ",
"x x x r s w x x x f 2 1 y x x i x e x w 7 x 8 8 x i 6 s 4 x i w e 4 = e x q 2 q x w 4 0 a x x x 0 h x q q x a x x x g i x x q x x ",
"q i x y 7 x x x x i x g 0 i x i x x x w 0 9 e x s 6 8 s x x x 9 4 x x x x 7 = x x w 7 i x x x x 9 0 x g x d d x x x x x i x x x x ",
"x 6 x x x < < x x i x 8 8 a 6 e 7 a a x y 2 e y 8 < - d d x x s 6 q y x x k 6 8 x d x x x y y a x 5 a g x g q y x x x x x x x x x ",
"x x x 6 x s s a < x h h x x x x w d 0 8 j d x x x x y x x x x x 8 8 f a e x x 5 < d q e 6 6 y h x : a 0 x a q x x x i x x x x x f ",
"x r x a x 6 6 x 4 x 8 8 x x x e e x q 4 s x x x x x y x x x x x 2 2 x x f x x x d d x 2 = x x r h y 8 x x x x y g i i i x x x i 0 ",
"y r 4 e x x x x , < g x d d x x x w 4 - 2 x x x a q f x x x 2 x > 2 y y x 2 q x g a x x w d x r x x a a q x 6 d d x x x x 8 i x x ",
"2 - 6 x d x i 6 g g g x 8 d x x f w x 2 2 y g x 4 2 j e x x x x i h x x x 8 a u a a f x i i x x x x x x x f x x i x x x y x x y x ",
"a > 4 x x x y i i x x x x x y x y x x 8 y 9 x x 1 j j 2 8 q x x i q d x x x x 8 a x f y x x 6 y d x x x x x x i x x x y y x x x x ",
"x x h x x i < a i x x x e 4 y i - q x y y : 3 x 6 x d 8 r x d 6 a 0 x x x x < e x x x w w x 6 8 d x x x x x x i y 4 i i x x x x x ",
"x x x y y x x x x e x x q 4 y i i x j d d ; ; 3 a x 6 : r d y x x x y i x x h x x i k x x x x x x x g g x x y x - ; x i i p x x x ",
"x x x x i i x x x 0 e x 9 i x s y x j i i i 0 e x x 4 4 x x 5 5 x 8 y e q x x i i x w 3 x x x g x e 7 x i x x x q x x i i a a i x ",
"x x x x y y x x x x x u u x i = g i x x x 8 y 8 p x x p e ; , x x x a d x a x x x x x x x d d x x y e a q x x x x x f f y y a x x ",
"x y y x x x y 4 r x x u = 6 6 & y i a x x e e p a a u x h 4 a x x i j i x x d d x x x y x d d x d 8 x y e 4 d x a a a x y y x s x ",
"x x x x x e x y 3 x 6 e 7 7 x x x x a i < e x x a x s x x r x x u i j 4 y y h q i x i y x x i y x e x x y y q d x x y x x x 9 9 i ",
"e y y x x e x u x x 8 e x x x < x x x e < x 6 0 x g r x x r 2 e x g x x x x e 2 y x f x x i i > 9 d x x y y x d x x x w w x x x i ",
"e x x x x x h d 4 d 1 x x 4 i i x x x e e x x : y x r a w i 6 x x g x x 2 w x x x x x 6 x a x 5 9 d x x w 2 y x x q q i i x w 8 e ",
"x x x 0 0 x h x a a x x x y x x 8 8 x x x x x 4 : x x x w x 4 6 0 6 x x e 4 x x x x w 6 x x x 4 8 x x x x e s 4 8 = 4 i i x 9 0 d ",
"x x e x y y x x x x x x x q 8 x x x x x x 8 x x y e x x e x x x x x x x e e h h x x w x : : a e x x x x x d 8 s 8 8 x x x a d x x ",
"x x x y x x 8 a 8 a 6 i i q < 6 6 x a 8 x x x x x x x x 4 < 0 : 0 d x x x x x x 7 7 x e 6 6 e e x x x x i y x d x x f f x x x s s ",
"d x j w x x x x a a i x 2 i e > i x x y x x i i g 0 x x y i x d i d r r y 4 y r y x e x x x e x x a x e 8 8 x x x x f f x x q 4 x ",
"d x 2 y x x e x x j e x i x w 3 : y y y x x i i i y x x x x x x 4 9 r x x x u 0 p x x x i i x x x u x x d d x y x d y y x y 8 q x ",
"x x 2 y k h h x 2 > j x x i x x y 4 y 4 x x x x 8 a x x y y x x x f x i i x u 0 a a x f x 4 8 8 w 8 x s 6 e x r y 7 x a a x d x x ",
"x x x 4 i 4 e x $ 2 x x i i x e e x x i y x x x > a x x y x x x c x j x e e y y i g a 0 x x x d d x x 8 6 e i r r e x 8 8 x x a e ",
"x i i x x e e x x x q x x x d d y x x y y x d 2 2 x x x x a e x y x j x y x x y y x x a a i x x d y x e x x i x e d d , 4 e x 4 e ",
"x x x i i i 2 x y x x x x x x x 8 x i y y x i 6 2 x x y - d 8 x x x x y 4 x x x y x y a a x x y d 8 x x x x x x e w w a x x x x x ",
"x x x i x i i x x e x q x x x x i x 4 r x y x x 2 x x x x a h x x x x y r x x x x x y x 4 x x y i a x x h y x x x a < e i i a a x "
};
