/* XPM */
static char *result[] = {
/* columns rows colors chars-per-pixel */
"65 65 127 2 ",
"   c #202020",
".  c #202120",
"X  c gray13",
"o  c #212221",
"O  c #222222",
"+  c #222322",
"@  c #252625",
"#  c #262726",
"$  c #272827",
"%  c #282928",
"&  c #282A28",
"*  c #292A29",
"=  c #292B29",
"-  c #2A2B2A",
";  c #2A2C2A",
":  c #2B2C2B",
">  c #2B2D2B",
",  c #2C2D2C",
"<  c #2C2E2C",
"1  c #2C2F2C",
"2  c #2D2F2D",
"3  c #2D302D",
"4  c #2E302E",
"5  c #2E312E",
"6  c #2F312F",
"7  c #2F322F",
"8  c #303230",
"9  c #303330",
"0  c #313331",
"q  c #313431",
"w  c #323432",
"e  c #323532",
"r  c #323632",
"t  c #333633",
"y  c #333733",
"u  c #343734",
"i  c #343834",
"p  c #353835",
"a  c #353935",
"s  c #363936",
"d  c #363A36",
"f  c #383C38",
"g  c #383C39",
"h  c #676767",
"j  c DimGray",
"k  c #6A6A6A",
"l  c gray42",
"z  c #6C6C6C",
"x  c #6D6D6D",
"c  c gray43",
"v  c #6F6F6F",
"b  c gray44",
"n  c #717070",
"m  c #717171",
"M  c #727171",
"N  c #727272",
"B  c #737272",
"V  c gray45",
"C  c #747474",
"Z  c #757474",
"A  c gray46",
"S  c #767575",
"D  c #767676",
"F  c #777676",
"G  c #777777",
"H  c gray47",
"J  c #797878",
"K  c #797979",
"L  c #7A7979",
"P  c gray48",
"I  c #7B7A7A",
"U  c #7B7B7B",
"Y  c #7C7B7B",
"T  c #7C7C7C",
"R  c #7D7C7C",
"E  c gray49",
"W  c #7E7C7C",
"Q  c #7E7D7D",
"!  c #7E7E7E",
"~  c #7F7E7E",
"^  c gray50",
"/  c #807F7F",
"(  c #808080",
")  c #818080",
"_  c #818181",
"`  c #828181",
"'  c gray51",
"]  c #838282",
"[  c #838383",
"{  c #848383",
"}  c #848484",
"|  c #858484",
" . c gray52",
".. c #868585",
"X. c #868686",
"o. c #878686",
"O. c gray53",
"+. c #888787",
"@. c #888888",
"#. c #898989",
"$. c gray54",
"%. c #8B8A8A",
"&. c #8B8B8B",
"*. c gray55",
"=. c #8D8C8C",
"-. c #8D8D8D",
";. c #8E8E8E",
":. c gray56",
">. c #909090",
",. c gray57",
"<. c #929292",
"1. c #939292",
"2. c #939393",
"3. c #949393",
"4. c gray58",
"5. c #959595",
"6. c #969595",
"7. c gray59",
"8. c #979797",
"9. c #989898",
"0. c gray60",
"q. c #9A9A9A",
"w. c #9B9B9B",
"e. c gray61",
"r. c #9D9D9D",
"t. c gray62",
"y. c #9F9F9F",
/* pixels */
"f t t e e 9 ; t f f f q a f f t e q f f < f q f f f f f 0 q f f f f a t f f f f > f f q f 0 < f e f f f f 7 f 9 f f e e f e f f f ",
"f f f f f t 8 8 9 f f f f f f 4 u q f f t t q f q f f f < q f f f f 4 u % q f f > 2 e f q q e f 4 f f f f f f f q f > e e e f f f ",
"9 < f 9 < - u u 9 f e f f 9 f q u f f e t t f f q q f f q f s f q f 9 t f f f f > > u f q q f f q u u f f f 7 f f f 9 9 f f e e f ",
"9 t f f 4 4 f 9 0 0 e 9 2 4 f f u u f f f 6 t p e q q 9 9 f s f g f f f q f f t = f f f q e f f 9 9 f e e f f > @ f 9 < e < f f f ",
"f f u f t t f 3 q 0 f 9 2 y f 4 8 4 4 < f i f t t 6 w f e e f i f f f q q f f t 4 f f f f < q < q f f e f f s = > f a a d q > f f ",
"f 7 4 q f q q u f q f u u f f w f f f e e f f f r 6 w f f f 0 5 < f f f f f f q e e e f f q q q * , 8 f e f 9 s f f 9 f f q > f u ",
"f < 7 f f i i f f f f 4 4 9 f t f f 9 f f f 9 f q 0 q < q 0 0 u e u f e q f f 6 p e e f f q f f e = 9 e > f e t t f f f f 8 s f u ",
"y y f f f i i f f u f q e f f f f 9 9 2 2 9 f 3 3 f f f f f f u 6 * 6 ; < f f f f f f f f 4 t f 2 2 ; 7 e e 2 t 4 t 4 f f q f f f ",
"f f u t f f f 4 4 y 4 u f f f f f 9 t * * f 8 f f a a 9 9 f f f f f f f 9 f f 9 q f f 4 f f f f f f 4 7 f f f f f f f q q f 9 f f ",
"u 6 5 f e e < $ 4 < y 9 f f f f 4 < f f f 2 8 f f f f < 9 f f 2 6 2 < f 8 f f f * < f f f f f 4 4 f f q f f f t t f a f 6 6 f f f ",
"9 4 8 f e e 7 7 f f q > 8 f f u 5 1 f t f 2 f f f f f 8 > f f p f f 2 e 8 t 0 f q * f f 9 9 f f f e e < f f : u < u a f f f f f 9 ",
"e f f f 8 8 f f f u f q q f f u 5 = e e f f i f q > 9 f f f f p f 9 > 0 f f 0 p f 6 2 f ; 9 f f f ; f f f 9 4 f f w f 9 f f q q 9 ",
"e 5 5 f f f q f f u 7 q q f f 9 f q e f f q e f e 7 a q q < s e w f f 0 f f y f t f f 9 ; e t f f f f 3 3 9 2 f , q f 9 f f f f f ",
"f y f q q f t t t f u < 9 q f 4 u f u u f q f f f u u f f e s e f f t < a f w t t r 9 9 f f t e q # 2 2 $ w f f 0 < q f f f q q f ",
"f f t q q i i f f f f f 7 t 9 q f f u u f f f f f f f t f u t f f f - & 9 r f f r 4 q 4 f f f e p $ e f w w f f f f f q q f f f f ",
"f e t t e e f f 7 f f f e f 3 9 f p f f f , 8 f e e f f 7 9 q 4 f 1 1 f f < < f f 9 6 e e e s f q y f e 5 f 9 6 f f f e e f f f f ",
"f f f r e e f & % f q f f p p f f f f f f f d e f f a f f e q f f f q u 0 * 2 f t , & & u u s f e e q < 7 f f 9 f f f f q q f f f ",
"f f f f f e e < q e f f f f f f u 4 2 f 8 8 f f f 9 ; f f f f 6 t 2 u f 0 4 u f 2 f , * q q f 7 % e q < 9 f f f e t ; e f f a f f ",
"f f f f q q f f f e f f f f f f u q 2 f f q i f t 4 f f f f u 7 e f f 7 4 > s s : f f 5 q 4 f f q f q f f f f f e e q f f f < = t ",
"f q f f q f f f e f f i f f f f f f f e e f i t t w t 4 f f f a e f f f f 9 s > < f p q > > f 8 i f f u 4 f p p p 2 e f u f 2 % > ",
"f f e 4 f f f f u u 2 f 7 t t f f 0 f u 8 f f t p f 7 > f q q > = f > f f f i 7 t f f f > % < 8 f f f u u f p ; - f f f f 9 < 0 q ",
"6 e f f f e e e p q f f f f 4 q a 0 f f $ > f u u f f f i f f > > f f f f f q f f f f f y < 7 f 9 9 f f f 4 4 f < f 2 2 f t f 0 f ",
"i f f f f f e f f f 7 t f 6 t * f a q 2 2 9 7 u ; 1 f f 9 t i 4 4 f f f f f q f f f f u s 4 6 u 8 f f f f a a f ; t y y f 2 f f f ",
"f f f f f f f f f q 7 p f p t 1 f t q q f f f u f 4 2 d f f q 7 2 y f f u u % ; 4 q 9 > q f t t 3 9 2 t 4 4 f e f f ; ; f f f 2 f ",
"f f f f e f f f f f u u f p f 6 5 f f f f e 3 8 f f $ 3 f f f f < 5 f f f y 4 2 y f 9 5 6 8 f f f t f e 6 p f e f f f f 3 q f e 7 ",
"f f 7 f f e p f f f t f 7 7 f a 6 f f f t 6 < 8 f 7 > 7 f 9 $ < 9 8 e f < y 2 u f 4 4 f 3 8 f u f t f f q : > i f f f 8 y 0 f f f ",
"f f % 2 f e f q f f t f e 5 u f q f f f t 3 f f f 7 7 q f > * < 9 8 $ t t f % f f 4 4 f f f f i f f e f q 1 u f f 9 f y 3 f f f f ",
"X X X X X + X X X X X O X X X X X X X X X X X X X X X X X X X X X X X X X X X X X X X X X X X X X X X X X X X X X X X X X X X X X ",
"X X X X X X X X X X X X X X X X X X X X X X X X X X X X X X X X X X X X X X X X X X X X X X X X X X X X X X X X X X X X X X X X X ",
"X X X X X X X X X X X X X X X X X X X X X X X X X X X X X X X X X X X X X X X X X X X X X X X X X X X X X X X X X X X X X X X X X ",
"X X X X X X X X X X X X X X X X X X X X X X X X X X X X X X X X X X X X X X X X X X X X X X X X X X X X X X X X X X X X X X X X X ",
"  . X X X X X X X X X X X X X X X X X X X X X X X X X X X X X X X X X X X X X X X X X X X X X X X X X X X X X X X X X X X X X X X ",
"X X X X X X X X X X X X X X X X X X X X X X X X o o + + O + + +   X X + + + X X + .     X X X X X X X X X X X X X X X X X X X X X ",
"j j j j j j j j j A } E ^ >.j G G D j j x m I ,.5.j o.j P j  .j C :.4.j ( :.,.b E E j j j j j j j j j j j j j j j j j j j j j j j ",
";.N j j D } ! O.C V K A j j N N j K l j x x j >.>.j j j U U j j X.C j m K P K b j j j A A j ( G G m v v ! x G G z m j j ! A G V _ ",
":.C P b A #.U ^ D ` ' A j j ! ! j T >.v H j m j j j V j j U U A C ! ( &.j j j b @.<.G O.U ( E A j j C j E $.G _ z ^ :.0.T j j j j ",
"+.C P } ,.O.! _ G _ ^ A A j T T v l l D m j P } ;.;.! *.*.,.@._ j D ' *.j j j ( @.<.G e.E ' E j j [  .! ! 4.} j ,.>.w.r.>.! j b j ",
"6.j P N $.$.U v v H ^ ! v z j j j H ' O.m j j h j R ` >.,.' T A j D j j j j m ( j j A A ( O.D j j G [ E U O.G j #.#.' H ! ! j A v ",
"4.^ } ' P ( j ( j F A A '  .V j j x P j j j G G j j ( [ ! j j D D j P P E [ E D ! j A _ c D [ ! j G j v ( ,. .>.j j K K ' j ' >.>.",
"j j E _ / ' Q T j F C _ ' H P C j c G j j z z j c X. . .j j j A A j D V K *.-.j j D V j j @.@.e.e.j j j j >. .U U j m m Y j j j C ",
"$.-.>.K H j ' j D D j N j j j j ! ( T K K ! j ( j U ( ( j C C _ ! j A U j j j U j O.P  .j j j e.e.j D D v j j j j j m  .j l l A O.",
"C :.<. .} } b } j j j N j E ^ @.@.b j K K j j $.,.4. .j j E C D z j &.} j } } <.m >.j U j <.;.j j H j *.E O.K #.:.D j j j j (  .A ",
"-.<.<.} j j C C j j ! j j #.E *.*.B C j j :.v j j G X.E j j } O.( ( } >.j T K ' O.K *.j j X.! ! j H j ^ k @.[ j A j l j j j X.X.j ",
"( T E &.j K j j j X.! z z C  .>.:.j D D j ' v j j G j j j j [ _ l E j [ %.j ~ j b ! *.j P *.K V V j A A j T H j z P l K #.j z j j ",
"A A G @.H j j K ( *.V O.t.j j j v j j >.j x j j j j j j j @.@.,.,.j j e.j j j j j K j K O.P ] G K V ^ P P 2.<.j c @.E K ;.[ A j n ",
"j j j @.U H H E X.} D ' E V D D ^ j j j j j j j j j N j j @.,.j '  . .t.j ^ v U U G G G P j X.}  .V l v P K j j V [ E N A ! j N U ",
"V #.j j ( #.E C j H ^ | j K D @.@.j j j j P U j j P [ j ^ A ,.X.D V ( K C ^ E A @.o.' ^ j j j x ( [ @.O.j Q &.=.{ ( ' N N N #.q.C ",
"D t.j j E $.{ C K ^ j K j K V O.O.m j j c C ^ l } T P @.O.j -.&.V j _ ^ j j j *.:.}  .^ *. .5.7.E j D D j j j T T U ' j j j j G ( ",
"D e.j L -.X.X.O.^ V N j j j j [ V j j >.;.;.O.O.} c j @.@.^ @.[  .V j H E N H :.@.] j j [ K 8.9.} j Y D ,.A j A D E ^ ^ j j D G H ",
"H j K } } V j A E ! A j j V V [ G j K l -.*.O.O.j H j P j >.@.[ :._ T H $.P ^ $.K K j G *.j j #.K ^ V b ,.X.j -. .( @.X.j j #.#.V ",
"E j -.j U U K _ ^ ! ! m } } P v v k E v l j j } } H ! j H ! [ <.@.@.O.j $.P j j j v j j x K j $.K j j X.G (  .x ,.H U A j } X.7.,.",
":.j K K U U X.j C C  .O.} H j @. .K j m b v j j j E j (  .P N &.O.@.O.<.-.&.j j N N j j x x j #.Z j j j D O.^ x <.K j j j } G E E ",
"_ E $.( >.*.O.H G  .-.>.-.j j v v v z O.G k j j j ! ( ' $.@.j H H j j <.} j V j N N } @.j } :.[  .N j j j _ ! m } X.F } j j j C ;.",
"T j ) A ( ' ( T x D o.! H V D j v U j *.;.-.A X._ G j j j j j V j H ( K j j V V V N &.} >.( :.^ j C ,.( A N ( ' x E F j j j K <.;.",
"#.C V j U ^ ,.m j t.( ! ' J j m v ! v j t. .m 7.P D D j j j V j j H ( j D P j j j j }  .>.>.( U j H G @. .j ( #.E A U U K j r.K T ",
"C O.@.D >.H m m j A A A v j j X.@.P v j  .-.^ T j E D l j 7.2.A x } j j j j K j j v v c j ! ! 2.j j c O.O.K j j ( P j X.j N r.b F ",
"! j ' j j U U j [ O.U j r.v j j j j j c j j j j j  .V l j ! j C ^ O.j j j j N j j v H H m G ! E l G j m m K j _ G j ! j j j j v j ",
"E j j j j j j j ( j m D y.j j m j _ _ m V z j >.t.' H $.U j j &.#.#.U m j m E ( G j j O...[ *.l l j C C #.E U X.G j j m m } j j j ",
"O.[ >.] Y j j O.@.( j j j b j j j _ -.G V z j (  .j M X.:.@.E j _ T D j O.O.U _ G j j @.A j j j j j j ( @.j U U j j j m m } j #.K ",
"K [ >.,.X.j N ^ V N N [ @.V H j [ [ E H j  .U (  .j D V #.C K N j j j j O.O.*.N j _ X._ c K *._ x j j b j O.P j A X.^ j j j j K *.",
"N j G [ T D } } E V j C K b ( D E E N j c j U V V ^ K o.*.j j j X.;.-.j j V V C C j H j j m m j T X.U j K j j G j O.} j k k j P j ",
"T j j v <. .&. .[ &.N U ( H P x *.' l ' v ,.W %.} *.j j V H ( ( O.;.2.j m m j C H C v j j b O.j U ( X.K j V V [ b _ C K ( D j ' _ ",
"$.( *.j ,.K $.Y { G P C E E m m ( >.7._ v ,.c e.t.} } >.>.-.[ ^ ^ j j j j j I j j U G A N ' T A j j K K j ( _ c ,.*.#.! D +.S E _ ",
"j _ _ j j j ! [ / j C _  .G 2.j j >.>.k ,.j j r.e.l $.} t.! F [ 1.P r.j S j O.$.$.U t.^ *.<.j j U N j j j [ _ c ,.T U ( [ _ E j j ",
"^ j $.j v j -.-.^ D j j V ' >.v j j ( k 4.j j v z j U A t.! j E ,.K ^ j j j j j m G r.j X.q.3.A ( A j j j j j j V E A  .E K E j D "
};
