/* XPM */
static char *result[] = {
/* columns rows colors chars-per-pixel */
"65 65 127 2 ",
"   c #202020",
".  c #202120",
"X  c gray13",
"o  c #212221",
"O  c #222222",
"+  c #222322",
"@  c #232323",
"#  c #252525",
"$  c #252625",
"%  c gray15",
"&  c #262726",
"*  c #272727",
"=  c #272827",
"-  c #282928",
";  c #282A28",
":  c #292A29",
">  c #292B29",
",  c #2A2B2A",
"<  c #2A2C2A",
"1  c #2B2C2B",
"2  c #2B2D2B",
"3  c #2C2D2C",
"4  c #2C2E2C",
"5  c #2C2F2C",
"6  c #2D2F2D",
"7  c #2D302D",
"8  c #2E302E",
"9  c #2E312E",
"0  c #2F312F",
"q  c #2F322F",
"w  c #303230",
"e  c #303330",
"r  c #313331",
"t  c #313431",
"y  c #323432",
"u  c #323532",
"i  c #323632",
"p  c #333633",
"a  c #333733",
"s  c #343734",
"d  c #343834",
"f  c #353835",
"g  c #353935",
"h  c #363936",
"j  c #363A36",
"k  c #383C38",
"l  c #383C39",
"z  c #686868",
"x  c DimGray",
"c  c #6A6A6A",
"v  c gray42",
"b  c #6C6C6C",
"n  c #6D6D6D",
"m  c gray43",
"M  c #6F6F6F",
"N  c gray44",
"B  c #717070",
"V  c #717171",
"C  c #727272",
"Z  c gray45",
"A  c #747474",
"S  c #757474",
"D  c gray46",
"F  c #767575",
"G  c #767676",
"H  c #777676",
"J  c #777777",
"K  c gray47",
"L  c #797979",
"P  c gray48",
"I  c #7B7A7A",
"U  c #7B7B7B",
"Y  c #7C7B7B",
"T  c #7C7C7C",
"R  c #7D7C7C",
"E  c gray49",
"W  c #7E7D7D",
"Q  c #7E7E7E",
"!  c #7F7E7E",
"~  c gray50",
"^  c #807F7F",
"/  c #808080",
"(  c #818080",
")  c #818181",
"_  c #828181",
"`  c gray51",
"'  c #838282",
"]  c #838383",
"[  c #848383",
"{  c #848484",
"}  c #858484",
"|  c gray52",
" . c #868585",
".. c #868686",
"X. c #878686",
"o. c gray53",
"O. c #888787",
"+. c #888888",
"@. c #898888",
"#. c #898989",
"$. c gray54",
"%. c #8B8A8A",
"&. c #8B8B8B",
"*. c gray55",
"=. c #8D8C8C",
"-. c #8D8D8D",
";. c #8E8E8E",
":. c gray56",
">. c #909090",
",. c gray57",
"<. c #929191",
"1. c #929292",
"2. c #939292",
"3. c #939393",
"4. c #949393",
"5. c gray58",
"6. c #959595",
"7. c #969595",
"8. c gray59",
"9. c #979797",
"0. c #989898",
"q. c gray60",
"w. c #9A9A9A",
"e. c #9B9B9B",
"r. c gray61",
"t. c #9D9D9D",
"y. c gray62",
/* pixels */
"k k k k k s s k k k e e k k k k k k p 2 t k k k q k k p p k X X X >.N x r.x x J ) ~ m m o.o.x P x ~ ~ m x P o.x x x x D #.L Z P x ",
"k k u k k k k k k k k t k t k k k k > - r r k 6 u k k p 9 k X X X &.N x x z x L $.J J x o.0.x x J { ~ ) :.U L x J J x x ` { V N N ",
"k k u k 2 2 h k e k k t k t k k k g 4 6 4 k k k k k k k k k X X X ] Z x G N ] L ^ 5.P M x / P P C x x 9.8.x t.x x x x x x Q L N $.",
"u u k 4 t t w t k 0 k k k k k k t k k k e p 6 k t r k k k k X X X Z Z 6.x N x #.{ x M M x / / P C x x ;.` x L x x Q Q x x L L x x ",
"k u k u j k k k t 0 k k k k t u t k k s k k k k 7 a 7 k k k X X X D x ,.G N x #.{ x x x x x N K C x &.6.*.x x ` x U Z N x x M P x ",
"u u e 4 g k k k t k k e e k t u k u k k k 6 a < k w a f k u X X X ` ` *.*.U +.&.K E E M x x ;.K J x 6._ ~ V x x J E x U x V ..T ,.",
"u 2 e e g e k 8 k g g k k t k k k < t u k 6 a < k k k k k k X X X 5.:.*.*.*.*.&.A *.*.x x ..9.U ) E ^ | :.@.x o.J E x J o.x ] E ;.",
"k k k k k k k p k k s y t 4 k k k p u 6 k k p k k k e h k k X X # >.` -.P x x x x Z #.x >.x x U U U D G U H x o.b w.3.o.o.-.6.x x ",
"k t k $ 2 k p 8 k p 4 k 3 r k k k u u f , 4 < k k k k r k k X X # x Q ;.P n x x $.P x x x x x $.,.x L ( V Q x :.7.~ T o.o.K / P x ",
"e k k 2 > h p p k p s k k k k 0 e k k f < k k u u d k k k k X X % *.Z c K n G G $.P x #.P V x 4.1.x L ~ T Q ..x x M M $.$.x x P n ",
"k k q k h e u 6 k k 1 8 6 k k e k k k f f 8 g k k 2 s s 8 k X X X J P V x x x v x x x #.~ Z G / x x x x C x P P Q x x x ) ) x x &.",
"q k k k k k k u k k k e e y y k k k k k k 8 g 8 f 1 5 w 2 t X X * x U U x x M v Z x / ~ C :.Q K x / x M q.x y.r.9.` x ;.5.1.#.x q.",
"k k k u k u 2 u k k k k 7 = y 9 q e k 8 s k k 8 0 t t k t t X X X x x x x x x J E x ` x ..x x x x / x x T c r.r.3.5.&.x x #.m +.Q ",
"k k k u u k u q q t 4 k 7 6 k u 4 4 k s s k k p u k k k k p X X X x x E A x x x T | x x E E Z Z x &.x v ~ ~ x x *.*.E x 6./ x *.V ",
"k k s k k w e < 8 k u k k 6 u k t t t k k k k 6 k k u k k k X X X Q x E x Q P U | ;.x b | { x +.#.9.x x x U U ~ x x ~ x 6.x x V V ",
"k k s e k 3 > 6 k k u < k & = a u u k k k e k e p p k u k k X X X Q x x x x x x U U x J +.{ M x x | x J J x M ~ x ) ..x x M x / x ",
"u 8 t e t : u 6 k 8 k k k t f t u - t d k e w 7 k k k t k k X X X x x / L m / ` x x x x x x A x ..;.x T T x %.M x ) G x x M Z t.~ ",
"k k k k 4 t k k k 8 k k k u u k k q k w w k s p k s d k k 7 X X X x x / G A J { <.M M x U U x x C x x ....x x x x x x x x / N ..V ",
"4 u k k t t k p k k k k p p k h h k k k 4 q 0 p k k k k k t X X X D D x x C L o.2.L J m { ) ) x x x x U U x P x $.` P x #.x N C E ",
"r t t u 4 t t 8 k k e e u k k u s t 8 2 - 4 8 k w w k k k k X X X { U C L | C A ~ / T ..x V ~ x x x v U x D P x Q P ` J { x C C C ",
"k t t t k k k k k k e < < k k u s t t 2 2 a h t 0 7 k r r k X X X D Q x E | U x x C C y.r.N K x M / ) ;.b J +.] o.` J q.>.] +.` x ",
"t k k k k k k k 8 k k k e e 8 u ; : 9 t k k s 2 9 k k k p k X X   E { E P U x G E P E x x x D o.M / ! J b b ! x x m Q >.5.$.+.Z x ",
"k u s k k u u k k k k 6 k e t 0 ; 3 k f k k k e e 8 8 k 0 k X X   ` x Q Q V x Q E #.$.x Z Z v [ V x J J x x o.x x x A x x x G C P ",
"k 6 2 k k u u k k 4 : 0 k i 8 e 3 k k k k k k t k 8 8 k k k X X . P D { E P P x x { / { Z Z v Q E x +.U U x U x U U 1.#.+.$.K J 3.",
"2 2 2 > 8 u f k t : t k p p i k p 6 1 4 p k k 8 a k k k k d X X + +.| ' x x C x x #.*.J x x G G x x x U U x ` x } } &.>.q.9.M m K ",
"k k k p p t 0 k e k k f k p k k k k h 2 q k k < 6 s k k t d X X X x x x x U { o.~ :.J J x x E Z G c >.9.x x G ) ] J x V x &.x E ] ",
"k k k k k k k k k k r r a y k 4 6 s h h d t t - 8 6 - 2 k k X X X U U x x A / T &.N x x x x T x x K x x ~ / A P x x H R G x x P ..",
"k t k k k k k k k k p k k k i 4 : 8 2 e k k k s a a k r y q X X + #.U G x x x D -.x x { Z x L ,.>.x x x N Q U x x J x x G b C M x ",
"k - k t t k t 4 e w w k k g e k r r 8 k k k k s k 4 p k 3 & X X + I I ] / ` x x ] N N 1.1.x x ,.*.x x x x U x / T $.A x x x x x x ",
"p s p k t k u < k k u r r 4 ; k s k q k k k k k k k p p q , X X + x x / &.>.x x / / x x x x x x x x x o.o.;...x :.T | G v v x *.*.",
"g 8 e k k k k 0 k 4 6 2 k p , 5 t s k k 2 k k k k u = 8 t k X X X #.x { { G G x / ] C G +.x x E E x x o.o.x x x T v ` x ..v x *.;.",
"k k k k k k s : k 6 k e k k k 5 k 6 k k k k k a 9 w w k k k X X X -.K x x G G E V x ~ ` *.] o.+.P J x ..&.` V x Q x Z { E E ` 5.>.",
"k k t l k 4 u 0 k 0 k k y k k k k p u u > 2 8 6 4 e e k q q X X   ` x Z { E A E x x x L T { { J x x x ..*.~ -.-.L x ~ Z x x U x n ",
"k k k k d 9 s s k 6 f f u u k 8 k 0 q g 2 2 8 q k 4 4 r r k X X + v 5.x / :.,.N E E x x T / x E T | [ B x n U / ] x U V 1.N P @.&.",
"k k h h k r r k k k k k h h p t t k s k t k d t k = : k k k X X + c x V L P L N x x x D D x / J J V M M Q n J J b V x x Q D J Z ) ",
"t t k k u k r k k k k k 4 u s e u k k k t k p k k e 2 8 u u X @ + c / &.x x x N +.1.J o.U / E D x x A x E $.J ) b ~ :.q.T x x x x ",
"r 4 t e u k t k e e 2 k t k k q k k k k k d e k k k k 8 u k X # O G ` *.x x x / +.1.J r.E ` E x x ] | Q Q 5.{ x ,.>.e.t.>.Q x N x ",
"k k k e k k 4 k e 4 w k t k p k k k k 8 2 k k j 7 q t q k k X @ + G x x x x V / x x D D / o.G x x J ] E U o.J x #.#.` K Q Q x G M ",
"k k k t y y t k g k k e g s k k g < k p q k k 6 = 2 q q k k X X + x P P E ] E G Q x D ) m G ] Q x J x M / ,.| >.x x L L ` x ` >.>.",
"k k t t 0 0 r k g k k 2 q s k u k e 8 y k k 5 8 k q q e k k X X o x G Z L *.-.x x G Z x x +.+.r.r.x x x x >.| U U x V V Y x x x A ",
"k t t u p i t 7 k k k t u k k u k k p p f s < k k k k k k k X X o x D U x x x U x o.P | x x x r.r.x G G M x x x x x V | x v v D o.",
"k k k f p k k 7 k k k k k k k k u k k p p s s s w w k k k k X X X x &.{ x ] { 1.V >.x U x 1.;.x x K x *.E o.L #.:.G x x x x / | D ",
"t t k p k k e k w w k d u k k w j k d d k k q k 7 4 k q k d X X X / { >.x T L ` o.L *.x x ..Q Q x K x ~ c +.] x D x v x x x ....x ",
"k p p 0 d k k e k 6 6 k t t k 3 k w t k k 2 e k u 0 7 k k k X X X E x ] %.x ! x N Q *.x P *.L Z Z x D D x T K x b P v L #.x b x x ",
"4 p p k k u k 6 : k k k k k k k k w k u w = 6 k k p p k k k X X X x x r.x x x x x L x L o.P ' J L Z ~ P P 3.1.x m +.E L ;.] D x B ",
"k k u k 4 u k 6 : k p u k s s k k k k u s k 6 t k k k k k h X X X | | y.x ~ M U U J J J P x ..{ | Z v M P L x x Z ] E C D Q x C U ",
"k k k k 8 k e e p k k u u s s k k 6 6 k k k t t k k k k k h X X X Z / L A ~ E D +.X.` ~ x x x n / ] +.o.x W &.=.[ / ` C C C #.w.A ",
"t t k s 8 k k e e 4 5 > t k k f k 8 t k r r g p k k k e e k X X X x ) ~ x x x *.:.{ | ~ *.| 6.8.E x G G x x x T T U ` x x x x J / ",
"u s s s w k k k k 8 9 9 k s k k k s s k k g k k 9 0 t k k 0 X X X Z x K E C K :.+.' x x ] L 9.0.{ x Y G ,.D x D G E ~ ~ x x G J K ",
"p 8 t k 8 y p k k k s s e 8 t e k k k k k t : 5 0 g k u k q X X X ) T K $.P ~ $.L L x J *.x x #.L ~ Z N ,...x -.| / +...x x #.#.Z ",
"k k k k k k k k k k k k k k e 7 f k k k p 8 p p k k s k k k X X X +.o.x $.P x x x M x x n L x $.L x x ..J / | n ,.K U D x { ..8.,.",
"k k e 8 a k e k k k k k k t p k f k k k p k 0 f f q 9 u e e X X X +.o.1.-.&.x x C C x x n n x #.S x x x G o.~ n 1.L x x x { J E E ",
"g k k 6 6 s 8 u k k w t t e q u k k k k q k k k k q u 2 u u X X X x x 1.{ x Z x C C { +.x { :.] | C x x x ) Q V { ..H { x x x A ;.",
"t k k e e s 8 t s e 2 t t 4 k k k k k d k k p f s k k s k 8 X X X K / L x x Z Z Z C &.{ >./ :.~ x A ,./ D C / ` n E H x x x L 1.;.",
"k k u u k k k k 8 a t k q s k k t k k k 6 k q q s p p t t w X X X K / x G P x x x x { | >.>./ U x K J +.| x / #.E D U U L x t.L T ",
"k k k r r t k s a 4 k s s k k k k u u k s t k t k k k t t k X X X { x x x x L x x M M m x Q Q 3.x x m o.o.L x x / P x ..x C t.N H ",
"k e e r t k k k 8 8 k k k p k q - t k u s f k k k k k k k k X X X o.x x x x C x x M K K V J Q E v J x V V L x ) J x Q x x x x M x ",
"p w s e 7 s k k 8 = q k k p k k ; 4 k k k u k k k k t t k k X X X #.U V x V E / J x x o. .] *.v v x A A #.E U ..J x x V V { x x x ",
"< w s k k t d d k 4 q k t p d k k u k k k u u k k f k k k k X X X T G x o.o.U ) J x x +.D x x x x x x / +.x U U x x x V V { x #.L ",
"e p , 8 p t d d k u u w k k d u u u t k k u k k k u u k k k X X X x x x o.o.*.C x ) ..) m L *.) n x x N x o.P x D ..~ x x x x L *.",
"u k 4 8 p k k k k u u w k t t u u k t t k k k k u k k k k k X X X ;.-.x x Z Z A A x K x x V V x T ..U x L x x J x o.{ x c c x P x ",
"u k e k k t k k p k k k k t t p i k k k 8 k k k k k 6 t k k X X X ;.3.x V V x A K A M x x N o.x U / ..L x Z Z ] N ) A L / G x ` ) ",
"p k k k s 8 q k s 9 w k 9 k p p k k k k u k k k k q - t k k X X X x x x x x I x x U J D C ` T D x x L L x / ) m ,.*.#.Q G O.F E ) ",
"p k 4 p k q 4 a k 0 8 k 9 a k u k k k t k u k k k k k k u 6 X . X P t.x F x o.$.$.U y.~ *.1.x x U C x x x ] ) m ,.T U / ] ) E x x ",
"k k e e k k k a k s e u u k k k k k k k k 0 d k k k k k u u X   X L ~ x x x x x V J t.x ..w.4.D / D x x x x x x Z E D | E L E x G "
};
