/* XPM */
static char *result[] = {
/* columns rows colors chars-per-pixel */
"65 65 124 2 ",
"   c #202020",
".  c #202120",
"X  c gray13",
"o  c #212221",
"O  c #222222",
"+  c #222322",
"@  c #252625",
"#  c #262726",
"$  c #272827",
"%  c #282928",
"&  c #282A28",
"*  c #292A29",
"=  c #292B29",
"-  c #2A2B2A",
";  c #2A2C2A",
":  c #2B2C2B",
">  c #2B2D2B",
",  c #2C2D2C",
"<  c #2C2E2C",
"1  c #2C2F2C",
"2  c #2D2F2D",
"3  c #2D302D",
"4  c #2E302E",
"5  c #2E312E",
"6  c #2F312F",
"7  c #2F322F",
"8  c #303230",
"9  c #303330",
"0  c #313331",
"q  c #313431",
"w  c #323432",
"e  c #323532",
"r  c #323632",
"t  c #333633",
"y  c #333733",
"u  c #343734",
"i  c #343834",
"p  c #353835",
"a  c #353935",
"s  c #363936",
"d  c #363A36",
"f  c #383C38",
"g  c #383C39",
"h  c DimGray",
"j  c #6A6A6A",
"k  c gray42",
"l  c #6C6C6C",
"z  c #6D6D6D",
"x  c #6E6D6D",
"c  c gray43",
"v  c #6F6F6F",
"b  c gray44",
"n  c #717070",
"m  c #717171",
"M  c #727171",
"N  c #727272",
"B  c #737272",
"V  c gray45",
"C  c #747373",
"Z  c #747474",
"A  c gray46",
"S  c #767575",
"D  c #767676",
"F  c #777676",
"G  c #777777",
"H  c gray47",
"J  c #797878",
"K  c #797979",
"L  c #7A7979",
"P  c gray48",
"I  c #7B7A7A",
"U  c #7B7B7B",
"Y  c #7C7B7B",
"T  c #7C7C7C",
"R  c #7D7C7C",
"E  c gray49",
"W  c #7E7C7C",
"Q  c #7E7D7D",
"!  c #7E7E7E",
"~  c gray50",
"^  c #807F7F",
"/  c #808080",
"(  c #818080",
")  c #818181",
"_  c #828181",
"`  c gray51",
"'  c #838282",
"]  c #838383",
"[  c #848383",
"{  c #848484",
"}  c #858484",
"|  c gray52",
" . c #868686",
".. c #878686",
"X. c gray53",
"o. c #888787",
"O. c #888888",
"+. c #898888",
"@. c #898989",
"#. c gray54",
"$. c #8B8A8A",
"%. c #8B8B8B",
"&. c gray55",
"*. c #8D8D8D",
"=. c #8E8D8D",
"-. c #8E8E8E",
";. c #8F8E8E",
":. c gray56",
">. c #909090",
",. c gray57",
"<. c #929292",
"1. c #939393",
"2. c gray58",
"3. c #959595",
"4. c #969595",
"5. c gray59",
"6. c #979797",
"7. c #989898",
"8. c gray60",
"9. c #9A9A9A",
"0. c gray61",
"q. c #9D9D9D",
"w. c gray62",
"e. c #9F9F9F",
/* pixels */
"h V V h >.>.D | h h ;.h O.2.^ m b h A A h Z @.o.V Q z Z &.j H h X   X e e f f f f f i 6 f f f f f f f f e e 9 u f y f f f 9 9 f f ",
"O.! m h h h G ) D E :.T >.<.] R G h A %.v h N ! z h / / h T h h X . X 2 e f f f f f f e f q f f f e f y 5 f 4 6 f y < 7 f t < f t ",
"O.P h h h h P h D :.V T P h G O.N K A N O.h h ! ) V ] / P X.{ h X X X f f q % 7 f f f f e f f f f t t f 5 f 8 5 u f 7 4 u f f f t ",
"w.h h ] ] K A ) h K V T N V h K #.O.h h O.h l c c h h h P X.T h X X X f f q 2 f f f f f 4 f f f r t q q f f f f t f f q f f 9 f e ",
"h h m  .] %.A *. .H h H H V h h &.! h h ` h ~ b | h h h &.D { V X X X f f f f f e f f f f q q f e e q q f 8 e e f f f f t 4 < f e ",
"h h K K &.<.{ Z h h b b ~ / | h  .h h m 5.] ! Z X.G &.P G U | h X X X f f f e e f f f e f f q e e e i f f 8 e e f i i q t 4 - t 9 ",
"Z  . .K L ] { | K X.%.h ] | / h X.N h U { h Z ` ] { P q.D h h K X X X f f f f p f f e e f f f e f f i t q f 7 < f i i q f f u 8 ; ",
"7.7.] h D K v | h h U X./ ` Y h h P z U h D A @.X./ ) w.P b h  .X X X f f q q f f f f e f f f < & f f t f f 7 $ 4 f f u 3 9 u 8 t ",
"h h #.Z D D h *.1.h h h b / E h ~ z h h h / G D ) U ) %.h | A ^ X X X f f f f f f f f p u e f q % 7 f t f f f 4 4 f f f q 0 9 9 f ",
"h H ` ] >.h D H O.U U h G &.R 2.Y v v ! ` H z h ! ) h E K O.H ) X X X f q q f f f q f q u f e e f f f f u u f < y u f q 0 0 f f f ",
"h V >.8.] w.e.6.:.h h T ` 1.O.4.O.#.v ~ ` ^ :.X.~ h h h X.{ z ~ X X X 8 q q t t u 7 7 f 2 f f f q f f u 7 f q y 4 f f f f e e f f ",
"h ! D &.h w.e.{ E h h >.h E E h h E / h h ^  .%.U h V Y D / / b X X X 4 f u f f u p t f f i f f f f f < q q > 9 u q 4 u 9 9 f f q ",
"h >.-.X.m G G h m m m h h z h h K { O.h U h h h h b  .E T v h b X X X e e > e 7 f f f f 7 f f f f e 7 9 q q 8 f f e 4 u 2 2 f f a ",
"c | | N ]  .E m &.v D #.O.P ,.&.h h X.h h v v h h b / h H | ] G X X X 9 9 e 5 7 p p 6 f t f f f p f t q f f f f f f 9 f y 4 9 f f ",
"h h h N h V H ` %.K h ` [ | &.&.&.:.h N h v D h h h h h h ` V T X X X f f f u f f t t 4 t f f f p 3 9 f f f f f f f f f f f f f f ",
"h h h h P v h X.` h h V V ` h c -.3.~ h h h m b / h &.| h h h ! X X X 7 f e f a 6 1 * q f f f f f 9 q 4 9 u u f f f t w 4 f q 4 t ",
"h h h ` ,.1.N ` ! H h A A h h h h | ) h h h h h ~ V | h h D ] / X X X 6 f f q 6 5 f f a f f u u f f f u f 5 5 4 f f f f 8 u u u e ",
"h h H b b U ` ` h h h h h h :. .h A b b E E h l v h n ! | K / / X X X f 9 9 f f f t a 0 0 f q 4 f p f f q = 1 < 9 9 f f 4 u f q q ",
"h h U *.V h ] ) ` D h X.h b 7.U h h h h O.Z X.c >.>.~ ) H ) h m X X X s f f f f f q q f f f 2 2 f f u u e e f f t 9 9 f 4 f f f f ",
"h ! h h ) G { h ) O.N N v h 3.:.h h h E E <.h h *.*.~ O.h | ) | X X X s f f f f f q 2 f u e f f f f u u f e t f * 2 f e < f e f f ",
"P +.&.E G G h h V P N ! D / D X.v v z h #. .Q h l U %.~ h  .~ E X X X f f f t t f f 2 $ 8 e f 8 f f f f f f f f * 2 f e f f t t < ",
"/ ~ ] b h D ` h m G H O.D H 1.>.O.v U ;.1.-.! h h U U h h h h h X X X f f f 3 6 e f 9 > f f q 8 f , f q q f 2 2 f 9 f f i 6 t t f ",
"h ~ ~ h h h { -...m G K v D >.7.8.9.{ ,.*./ ! h h D h G h h h h X X X i f 7 f < 3 f 7 f f i i f d 8 f f e i f 8 8 f 9 f f t f q q ",
"h h h E | I _ ! h h h N V G h N 8.,.%.U h h h h h ] G D h m :.U X X X f f f f 8 8 u u u t t f f e f f f f f f f f 3 f f t p f f f ",
"D h h h 0.N h ) G *.O.N S S h / -.P w.0./ h | 2.6.&.D h h ] K K o X X f f f f f f f ; u p t t f f e f f e q f f f 3 q r t e q q f ",
"D / -.h h K K A A h h m S S h C C h h ` =.U &._ ! h h h ] { m h o X X f f 9 7 7 f 4 1 f f w 4 9 f e f u 7 > f f a f 0 6 6 q q f f ",
"G ~ h h h K K | | h h h &.X.h h h h K / $.O.U A N h h *.E ` U U + X X f f 7 7 > $ 2 f f 7 t f ; a f f u a 9 f f a f q w w q f f f ",
" .~ h P ) :.m ~ ~ ~ ~ h )  .] h b b z / T h v A h h h v h h ) U + X X f f 7 q 7 3 d f f > 4 f f f f t f q f 8 < 9 f < f f 9 f f f ",
"Z h h E | &.h O.E h m h h h U C b b U V P P v N h h h E  .G D ) O X X f e 4 f f f f 9 i f f f f f 7 f f q f > 9 9 f q f e 9 q < 0 ",
"V V h h V V b / H h m h h h h h A A N V P P O.N E h h ! ~ | x x + X X e e 4 > 9 f f t f q f f f e 9 u e < f f f f f 0 f e f f q q ",
"( h h D D / / E h h v h h U G h A A Z Z h k O.h E h h h h I N z + X X f f f * $ f q i f q f u f q q t s s f f f f f 0 0 f s s f f ",
"h h h D D / / Z Z h ` Z m c E X.h K h h G K h { h z `  .h h X.U + X X f 0 0 < < f 7 4 > > a 7 6 f 4 f e e p p 2 f u u 5 i f f f f ",
"N h ] h h h h h h P X.! h >.N O.K K h h P P h X.P h / / -.@.X.h   X X 7 7 f 9 9 < 2 4 > = e e t f f f f w f f 6 f 6 e < f g q f f ",
"h h h h h h h h h A { E ~ >.h G G D h h z m I ,.3.h ..h P h | h X X X f f f 8 8 5 y f f f f f 2 f 1 f f f 9 f 2 f * u f f f f f f ",
"-.N h h D { ! X.Z V K A h h N N h K k h z z h >.>.h h h U U h h X X X f q 4 $ e f f f f > f f u q 1 - t f > 2 < f 6 f f f f 9 4 a ",
":.Z P b A @.U ~ D _ ` A h h ! ! h T >.v H h m h h h V h h U U A + X X - 7 t t f f f f f f f 7 f u f & < 0 0 e f f ; e f q f t u t ",
"o.Z P { ,.X.! ) G ) ~ A A h T T v k k D m h P { -.-.! &.&.,.O.) + X X # , f t < f u f f f f 4 0 0 f 9 a f f 8 8 9 < q f q q f % f ",
"4.h P N #.#.U v v H ~ ! v l h h h H ` X.m h h h h R _ >.,.` T A + X X 7 w 0 f y y u f f f 9 > 4 * < r f f f t f f f f f f f f q f ",
"2.~ { ` P / h / h F A A ` | V h h z P h h h G G h h / ] ! h h D X X X f f > % 2 4 % q q i s s u 2 < f w y 0 0 f f f f f f f f f f ",
"h h E ) ^ ` Q T h F Z ) ` H P Z h c G h h l l h c  .| | h h h A X X X i q f f u 2 ; f f 7 > s f f f f t f p f f 9 f 6 q t t f f f ",
"#.*.>.K H h ` h D D h N h h h h ! / T K K ! h / h U / / h Z Z ) + X X i f f f f y 4 f f t < : 2 t f r t t f q * q f p e 4 = > > > ",
"Z :.<.| { { b { h h h N h E ~ O.O.b h K K h h #.,.2.| h h E Z D . X X f f f 4 4 f q f f f f f f , 9 4 r f 6 * < f f e e f f > 2 f ",
"*.<.<.{ h h Z Z h h ! h h @.E &.&.B Z h h :.v h h G  .E h h { X.  X X f 6 f 4 4 9 9 f f f p f , & 6 q 9 f 2 f f f f e e f f u e f ",
"/ T E %.h K h h h  .! l l Z | >.:.h D D h ` v h h G h h h h ] )   X X f t f f f 5 > u f f q 5 * & e 4 9 9 f f f 4 f f f f f f f q ",
"A A G O.H h h K / &.V X.w.h h h v h h >.h z h h h h h h h O.O.,.X X X f 0 0 f 3 6 q s y > > q q u e f f ; ; 9 f f f f f f q q q f ",
"h h h O.U H H E  .{ D ` E V D D ~ h h h h h h h h h N h h O.,.h X X X f f f f 8 8 f 4 < % > 4 q u e f f e 9 9 f f 4 q q < e q q 0 ",
"V @.h h / @.E Z h H ~ } h K D O.O.h h h h P U h h P ] h ~ A ,. .X X X q f f f f f t 6 7 < f f f s s f t t f f f f t f q q f f e < ",
"D w.h h E #.[ Z K ~ h K h K V X.X.m h h c Z ~ k { T P O.X.h *.%.X X X 3 f f i u f t u f 8 8 f 7 f f e e f f f 4 f f f q < f f f f ",
"D 0.h L *. . .X.~ V N h h h h ] V h h >.-.-.X.X.{ c h O.O.~ O.] X X X f f q f f f 3 8 9 f i q % e q p q f f f 4 f 2 e * q 9 q 4 e ",
"H h K { { V h A E ! A h h V V ] G h K k *.&.X.X.h H h P h >.O.] X X X f f e f t t 9 f 9 f f f e e y $ # f ; e f f 2 = , f 9 u f f ",
"E h *.h U U K ) ~ ! ! m { { P v v j E v k h h { { H ! h H ! ] <.X X X f f f e f f 2 f f f f q q q f e 2 f f e f 4 ; 9 8 f f u f f ",
":.h K K U U  .h Z Z | X.{ H h O.| K h m b v h h h E h / | P N %.X X X t f f f f e t f f u u f < < e f 2 3 f < q 7 7 e f e e f f f ",
") E #./ >.&.X.H G | *.>.*.h h v v v l X.G j h h h ! / ` #.O.h H X X X q q f q q 6 4 f f u 4 f 9 7 5 w $ 3 f f f f e > e f e f f f ",
"T h ( A / ` / T z D ..! H V D h v U h &.-.*.A  .) G h h h h h V X X X q > 8 1 : p 4 a 4 f f f f f f w w 9 9 f f f e f f f f f f 7 ",
"@.Z V h U ~ ,.m h w./ ! ` J h m v ! v h w.| m 5.P D D h h h V h X X X f 4 u u > f f a 4 p p f f f 9 f f 2 4 : f f 2 e 9 s f 7 f f ",
"Z X.O.D >.H m m h A A A v h h  .O.P v h | *.~ T h E D k h 5.1.A X X X f f f f i e e f f ; p f f 9 6 f f f f u t f t t s = > f f 9 ",
"! h ` h h U U h ] X.U h q.v h h h h h c h h h h h | V k h ! h Z X X X f f 0 f f f f ; < - p e e f f f 0 , f < t f 4 t f > @ f q f ",
"E h h h h h h h / h m D e.h h m h ) ) m V l h >.w.` H #.U h h %.X X X f f s 9 f f f t f f 2 e t f f f < q w u f f t f f f f f f f ",
"X.] >.' Y h h X.O./ h h h b h h h ) *.G V l h / | h M  .:.O.E h X X X f f f f f f ; y 2 f e q ; f f f q f f a a f 4 f 9 a 9 9 > e ",
"K ] >.,. .h N ~ V N N ] O.V H h ] ] E H h | U / | h D V @.Z K N X X X e f p y 8 f ; y 2 f f f e f e q f 9 9 f f q f f f a < 9 e e ",
"N h G ] T D { { E V h Z K b / D E E N h c h U V V ~ K ..&.h h h X X X f f f 3 y 3 f f f f u f f q e q f f f f 6 q f f f d e f e f ",
"T h h v <.| %.| ] %.N U / H P z &.` k ` v ,.W $.{ &.h h V H / / X X X f f f f 0 q f 2 t 9 f f f q f f f f f f 6 f q 8 q q < f e e ",
"#./ &.h ,.K #.Y [ G P Z E E m m / >.5.) v ,.c 0.w.{ { >.>.*.] ~ X X X f f f f f f f f f < 2 < a f f f q f q f f 9 f s > > f e f f ",
"h ) ) h h h ! ] ^ h Z ) | G 1.h h >.>.j ,.h h q.0.k #.{ w.! F ] X X X f 5 t f f e 2 f 0 0 % = f f f f q f q f f f f f f f f e f f ",
"~ h #.h v h *.*.~ D h h V ` >.v h h / j 2.h h v l h U A w.! h E X X X f t t f f 7 f f f q > t f f f f f f 9 9 f f f u u f f f f f "
};
