/* XPM */
static char *result[] = {
/* columns rows colors chars-per-pixel */
"65 65 50 1 ",
"  c gray13",
". c #222222",
"X c #222322",
"o c #252625",
"O c #262726",
"+ c #272827",
"@ c #282928",
"# c #282A28",
"$ c #292A29",
"% c #292B29",
"& c #2A2B2A",
"* c #2A2C2A",
"= c #2B2C2B",
"- c #2B2D2B",
"; c #2C2D2C",
": c #2C2E2C",
"> c #2C2F2C",
", c #2D2F2D",
"< c #2D302D",
"1 c #2E302E",
"2 c #2E312E",
"3 c #2F312F",
"4 c #2F322F",
"5 c #2F332F",
"6 c #303230",
"7 c #303330",
"8 c #313331",
"9 c #303430",
"0 c #313431",
"q c #313531",
"w c #323432",
"e c #323532",
"r c #323632",
"t c #333633",
"y c #333733",
"u c #343734",
"i c #343834",
"p c #343934",
"a c #353835",
"s c #353935",
"d c #363936",
"f c #363A36",
"g c #373A37",
"h c #373B37",
"j c #373C37",
"k c #383B38",
"l c #383C38",
"z c #383C39",
"x c #393D39",
"c c #3C3F3C",
/* pixels */
"      *tlll0sllte0ll:l0lllll80llllstllll-ll0l8:lellll4l7lleelelll",
"      667llllll1u0lltt0l0lll:0llll1u@0ll-,el00el1lllllll0l-eeelll",
"      uu7lell7l0ullettll00ll0ldl0l7tllll--ul00ll0uulll4lll77lleel",
"      l788e7,1lluulll3tae0077ldlzlll0llt%lll0ell77leell-ol7:e:lll",
"      l<08l7,yl1611:liltt3wleelilll00llt1llll:0:0llelld%-lssf0-ll",
"      0ul0luullwllleelllr3wlll82:llllll0eeell000$;6lel7dll7ll0-lu",
"      illll117ltll7lll7l080:088ueule0ll3aeell0lle%7e-lettllll6dlu",
"      illul0ellll77,,7l<<llllllu3$3*:llllllll1tl,,*4ee,t1t1ll0lll",
"      l11y1ulllll7t$$l6llss77lllllll7ll70ll1llllll14lllllll00l7ll",
"      :+1:y7llll1:lll,6llll:7ll,3,:l6lll$:lllll11ll0lllttlsl33lll",
"      44ll0-6llu2>ltl,lllll6-llall,e6t8l0$ll77lllee:ll=u:uslllll7",
"      lllul00llu2%eellil0-7llllal7-8ll8al3,l*7lll*lll71llwl7ll007",
"      0llu400ll7l0ell0ele4s00:dewll8llyltll7*etllll<<7,l;0l7lllll",
"      e440:l<,le::luulltelllltdellt:slwttr77llte0O,,+wll8:0lll00l",
"      7*1lell,el000llll,llellltlll&#7rllr101lllea+elwwlllll00llll",
"      %,lle*lO+yeelll7l7ttlell01l>>ll::ll73eeedl0yle2l73llleellll",
"      e,l1lll0a0e@0il76<lll0ll0lll0u8$,lt;##uudlee0:4ll7llll00lll",
"      lll1llleell4l66lutluill<l3t,ul81ul,l;$00l4@e0:7lllet*ellsll",
"      ltllllttlddlll:43tlllll0u4ell41-dd=ll201ll0l0lllllee0lll:%t",
"      01ll77elleu01-@:1l66lllllsellll7d-:la0--l6illu1laaa,elul,@-",
"      llll7**lleu00--yd03<l88l0-%l-llli4tlll-@:6llluula*&llll7:80",
"      ll1lll771e#$20llu-2llltll--lllll0llllly:4l77lll11l:l,,ltl8l",
"      ellll,l703#;lalll7711l3li11lllll0llllud13u6llllssl*tyyl,lll",
"      ell:$3lr17;llllll0l11lll04,ylluu@*107-0ltt<7,t11lell**lll,l",
"      al0$0lttrlt,=:tll1yllllill:2llly1,yl7236llltle3alellll<0le4",
"      3l7llaltlllld-4ll*,ull0i+:7kel:y,ul11l<6lultll0=-illl6y8lll",
"      llll88ywl:,uddi00@1,@-ll$:76+ttl@ll11llllillel0>ull7ly<llll",
"      lllltlllr:$1-7llluyyl8w4l8ll1tl8-lllll8lll0elll6ul8dlallltt",
"      0:766lls7l881llllul:tl;Ol84l04hwl0ll3t8lllllll0-1llllllll2t",
"      e*lle88:#lul4llllllltth&l=&ll&h4liilllll0<lllt00lllllelllll",
"      l3l:,-lt&>0ull-lllle+1ll4gg4llll$+l0il0lul00tddlllll88lddll",
"      u$l,l7lll>l,llllly2667llg4g=&l88::l41--s43l1leeaa,luu2illll",
"      e3l3llwlllltee%-1,:77l&4g4g4g44=77:,1-%eetllllwll3l3e:lz0ll",
"      uul,aaeel1l34s--14x::88l4g44gll=662ylllll,l>lll7l,l$ullllll",
"      8lllllddt00lul7li0l+$ll=ggg44l0h+ellll-llu0>&tl-,:l3llll71s",
"      8lllll:eu7el0lllsll7-1eelc2=ge==klllpllfdl35h788ell*el0ltut",
"      0l7l1l0ll4llll8t3llll1eld=26g0l77klkllllk7klk7ll667:0l00l@l",
"      ,j8lul0ltlllll8llf<404ll1ll8l1h447ll4llll7lelelltllllllll0l",
"      l7llu4sulls*llll1,+-39hh+67:$-l044lll<tlll0lu2y88llllllllll",
"      llli-=0llel7l6<l11le,y:le67:+7l4-4l6:3tlll3sl4lall7l30ttlll",
"      lllela3elelll6327ly,1ylll2:llll<+ll6<ellll23latl0$0lae1%---",
"      *llel11t,7<ttl0-701*@uully,40llf,1lulll00tl>tala$:lleell-,l",
"      yt*lssllll6u31dullll0lllll11it7ll>*u47,,0sl$t3ltlllleelluel",
"      ,l:l11lll77l4:ylllll0lllll--llillluul-+ll8s01lllll1lllllll0",
"      ll&*aluulll6:@-lllt4illl-l%-00l-4latll6ul8lltt4k7llllll000l",
"      e,aaal1ulli6l--0al:-d7lllleslll1twttileellllllli7ll100:e008",
"      0eelllll0l0ll102ll=dd-14lle4ullll1tli0ll,0ulllllllltl00lle:",
"      *telll7:0e@4l00$;l,lu18lu,t3llll*7lll66l,1ullllll1lll0:llll",
"      lll7ll4:0eelduu##;tl,$8u0lll0ellslleflllllllaalll1l,e$0701e",
"      lll37l2ely0ldeee37ll::ll>>l1074lleel6;lllal7<lekell,%;l7ull",
"      lllllwwle+aelll101rllr7#&llltultllllllluull07t4lel1*76llull",
"      0:8llw+,,O0etll77rttwls:tlledelluulll0luulu1l07>:044eleelll",
"      l0;l,7<<llllte*7lltlyll8llwed:00s4ele0lle0l7ll0qllle-elelll",
"      lwll17lll*lll7*l,3la8ll8-7lallll7-0lillee%2ull00lllellllll4",
"      su:u=ll:eelll77ll$0l8t6e,llall-6lllll,ltl>2ull6-=ll,e7dl4ll",
"      slttlll0ll11lllll:$lll6l:,3,ll7:llll6,lll:1llll9utlttd%-ll7",
"      lllllll41llllll1ll07ll7lllllll77ssll6l$$t7llllli:tl1tl-ol0l",
"      1t1t,ee4*,,lt1llllllll:*3$3ullllll<<l7,,77lllle0ulltlllllll",
"      llttel-e7%ell0lleea3ll0elueu880:080l7lll7lltl712ssl1l7s77-e",
"      7lld7lel6;$000lleee0llllll:28lllw3rllleelllwlluull0llls:7ee",
"      sl-%dllell0:0:llll1tll00lllileelw3ttlil:1161ly,9l30lllfelel",
"      7lo-lleel77lle0lll%tll0lllzldl7700eat3llluull1,9l3l0600:lee",
"      7lll4llluu0ll00lu--llllt7l0ldl0ll00llttellu0l7lkll7ld--lell",
"      -l0lllllll1le00le,-ll0@u1llll0:lll0l0ttll0u1lllkllllllllell",
"      ell7l4llllel:8l0ll-lllltsllll08lllll0l:ll0etlls07llluulllll"
};
