/* XPM */
static char *result[] = {
/* columns rows colors chars-per-pixel */
"65 65 126 2 ",
"   c #202020",
".  c #202120",
"X  c gray13",
"o  c #212221",
"O  c #222222",
"+  c #222322",
"@  c #232323",
"#  c #252625",
"$  c #262726",
"%  c #272827",
"&  c #282928",
"*  c #282A28",
"=  c #292A29",
"-  c #292B29",
";  c #2A2B2A",
":  c #2A2C2A",
">  c #2B2C2B",
",  c #2B2D2B",
"<  c #2C2D2C",
"1  c #2C2E2C",
"2  c #2C2F2C",
"3  c #2D2F2D",
"4  c #2D302D",
"5  c #2E302E",
"6  c #2E312E",
"7  c #2F312F",
"8  c #2F322F",
"9  c #303230",
"0  c #303330",
"q  c #313331",
"w  c #313431",
"e  c #323432",
"r  c #323532",
"t  c #323632",
"y  c #333633",
"u  c #333733",
"i  c #343734",
"p  c #343834",
"a  c #353835",
"s  c #353935",
"d  c #363936",
"f  c #363A36",
"g  c #383C38",
"h  c #383C39",
"j  c #676767",
"k  c DimGray",
"l  c #6A6A6A",
"z  c gray42",
"x  c #6C6C6C",
"c  c #6D6D6D",
"v  c #6E6D6D",
"b  c gray43",
"n  c #6F6F6F",
"m  c gray44",
"M  c #717070",
"N  c #717171",
"B  c #727272",
"V  c gray45",
"C  c #747373",
"Z  c #747474",
"A  c gray46",
"S  c #767575",
"D  c #767676",
"F  c #777676",
"G  c #777777",
"H  c gray47",
"J  c #797979",
"K  c #7A7979",
"L  c gray48",
"P  c #7B7A7A",
"I  c #7B7B7B",
"U  c #7C7B7B",
"Y  c #7C7C7C",
"T  c #7D7C7C",
"R  c gray49",
"E  c #7E7D7D",
"W  c #7E7E7E",
"Q  c #7F7E7E",
"!  c gray50",
"~  c #807F7F",
"^  c #808080",
"/  c #818080",
"(  c #818181",
")  c #828181",
"_  c gray51",
"`  c #838282",
"'  c #838383",
"]  c #848383",
"[  c #848484",
"{  c #858484",
"}  c gray52",
"|  c #868686",
" . c #878686",
".. c gray53",
"X. c #888787",
"o. c #888888",
"O. c #898888",
"+. c #898989",
"@. c gray54",
"#. c #8B8A8A",
"$. c #8B8B8B",
"%. c gray55",
"&. c #8D8D8D",
"*. c #8E8D8D",
"=. c #8E8E8E",
"-. c #8F8E8E",
";. c gray56",
":. c #909090",
">. c gray57",
",. c #929191",
"<. c #929292",
"1. c #939292",
"2. c #939393",
"3. c #949393",
"4. c gray58",
"5. c #959595",
"6. c #969595",
"7. c gray59",
"8. c #979797",
"9. c #989898",
"0. c gray60",
"q. c #9A9A9A",
"w. c gray61",
"e. c #9D9D9D",
"r. c gray62",
"t. c #9F9F9F",
/* pixels */
"k V V k :.:.D } k k -.k o.4.~ N m k A A k Z +.X.V E c Z %.l H k k :.m k w.k k G ( ! b b ....k L k ! ! b k L ..k k k k A +.J V L k ",
"o.W N k k k G ( D R ;.Y :.<.' T G k A $.n k B W c k ^ ^ k Y k k R $.m k k k k J @.G G k ..9.k k G [ ! ( ;.I J k G G k k _ [ N m m ",
"o.L k k k k L k D ;.V Y L k G o.B J A B o.k k W ( V ' ^ L ..[ k ..' V k D m ' J ~ 4.L n k ^ L L B k k 8.7.k e.k k k k k k W J m @.",
"r.k k ' ' J A ( k J V Y B V k J @.o.k k o.k x b b k k k L ..Y k k V V 5.k m k +.[ k n n k ^ ^ L B k k =._ k J k k W W k k J J k k ",
"k k N | ' $.A &.| H k H H V k k %.W k k _ k ! m } k k k %.D [ V A A k >.D m k +.[ k k k k k m H B k $.5.%.k k _ k I V m k k n L k ",
"k k J J %.<.[ Z k k m m ! ^ } k | k k N 7.' W Z ..G %.L G I } k .._ _ %.%.I o.$.H R R n k k =.H G k 5.) ! N k k G R k I k N | Y >.",
"Z | | J K ' [ } J ..$.k ' } ^ k ..B k I [ k Z _ ' [ L e.D k k J / 4.;.%.%.%.%.$.Z %.%.k k | 8.I ( R ~ } ;.O.k ..G R k G ..k ' R =.",
"9.9.' k D J n } k k I ..^ _ U k k L c I k D A +...^ ( r.L m k | [ :._ &.L k k k k V +.k :.k k I I I A D I F k ..x q.2.....&.5.k k ",
"k k @.Z D D k &.2.k k k m ^ R k ! c k k k ^ G D ( I ( $.k } A ~ ^ k W =.L c k k @.L k k k k k @.>.k J / N W k ;.6.! Y ....H ^ L k ",
"k H _ ' :.k D H o.I I k G %.T 4.U n n W _ H c k W ( k R J o.H ( &.%.V l H c D D @.L k +.L N k 3.<.k J ! Y W | k k n n @.@.k k L c ",
"k V :.0.' r.t.8.;.k k Y _ 2.o.6.o.@.n ! _ ~ ;...! k k k ..[ c ! k G L N k k k z k k k +.! V D ^ k k k k B k L L W k k k ( ( k k $.",
"k W D %.k r.t.[ R k k :.k R R k k R ^ k k ~ | $.I k V U D ^ ^ m :.k I I k k n z V k ^ ! B ;.W H k ^ k n 0.k r.w.8._ k =.4.<.+.k 0.",
"k :.=...N G G k N N N k k c k k J [ o.k I k k k k m | R Y n k m k k k k k k k G R k _ k | k k k k ^ k k Y l w.w.2.4.$.k k +.b o.W ",
"b } } B ' | R N %.n D @.o.L >.%.k k ..k k n n k k m ^ k H } ' G k k k R Z k k k Y } k k R R V V k $.k z ! ! k k %.%.R k 5.^ k %.N ",
"k k k B k V H _ $.J k _ ] } %.%.%.;.k B k n D k k k k k k _ V Y k W k R k W L I } =.k x } [ k o.+.8.k k k I I ! k k ! k 5.k k N N ",
"k k k k L n k .._ k k V V _ k b =.5.! k k k N m ^ k %.} k k k W k W k k k k k k I I k G o.[ n k k } k G G k n ! k ( | k k n k ^ k ",
"k k k _ >.2.B _ W H k A A k k k k } ( k k k k k ! V } k k D ' ^ k k k ^ J b ^ _ k k k k k k Z k | =.k Y Y k #.n k ( D k k n V e.! ",
"k k H m m I _ _ k k k k k k ;.| k A m m R R k x n k M W } J ^ ^ b k k ^ D Z G [ ,.n n k I I k k B k k | | k k k k k k k k ^ m | N ",
"k k I &.V k ' ( _ D k ..k m 9.I k k k k o.Z ..b :.:.! ( H ( k N b A A k k B J ..1.J G b [ ( ( k k k k I I k L k @._ L k +.k m B R ",
"k W k k ( G [ k ( o.B B n k 5.;.k k k R R <.k k &.&.! o.k } ( } ^ [ I B J } B Z ! ^ Y | k N ! k k k z I k A L k W L _ G [ k B B B ",
"L O.%.R G G k k V L B W D ^ D ..n n c k @.| E k x I $.! k | ! R ( A W k R } I k k B B r.w.m H k n ^ ( =.x G o.' .._ G 0.:.' o._ k ",
"^ ! ' m k D _ k N G H o.D H 2.:.o.n I -.2.=.W k k I I k k k k k } R [ R L I k D R L R k k k A ..n ^ Q G x x Q k k b W :.4.@.o.V k ",
"k ! ! k k k [ =. .N G J n D :.9.0.q.[ >.&.^ W k k D k G k k k k | _ k W W N k W R +.@.k V V z ] N k G G k k ..k k k Z k k k D B L ",
"k k k R } P ) W k k k B V G k B 0.>.$.I k k k k k ' G G k N ;.I R L A [ R L L k k [ ^ [ V V z W R k o.I I k I k I I <.+.o.@.H G 2.",
"D k k k w.B k ( G &.o.B S S k ^ =.L r.w.^ k } 4.8.%.D k k ' J J J o.} ` k k B k k +.%.G k k D D k k k I I k _ k { { $.:.0.8.n b H ",
"D ^ =.k k J J A A k k N S S k C C k k _ *.I %.) W k k k ' [ N k k k k k k I [ ..! ;.G G k k R V D l :.8.k k D ( ' G k N k $.k R ' ",
"G ! k k k J J } } k k k %...k k k k J ^ #.o.I A B k k &.R _ I I k I I k k Z ^ Y $.m k k k k Y k k H k k ! ^ Z L k k F T D k k L | ",
"| ! k L ( ;.N ! ! ! ! k ( | ' k m m c ^ Y k n A k k k n k k ( I _ +.I D k k k A &.j k [ V k J >.:.k k k m W I k k G k k D x B n k ",
"Z k k R } %.k o.R k N k k k I C m m I V L L n B k k k R | G D ( k P P ' ^ _ k k ' m m <.<.k k >.%.k k k k I k ^ Y @.Z k k k k k k ",
"V V k k V V m ^ H k N k k k k k A A B V L L o.B R k k W ! } v v L k k ^ $.:.k k ^ ^ k k k k k k k k k ....=.| k ;.Y } D z z k %.%.",
"/ k k D D ^ ^ R k k n k k I G k A A Z Z k z o.k R k k k k P B c [ +.k [ [ D D k ^ ' B D o.k k R R k k ....k k k Y z _ k | z k %.=.",
"k k k D D ^ ^ Z Z k _ Z N b R ..k J k k G J k [ k c _ | k k ..I +.&.H k k D D R N k ! _ %.' ..o.L G k | $._ N k W k V [ R R _ 4.:.",
"X X X X X X X X X X X X X X X X X X X X X     . + X X + + + X X   + + + O + + o o X X X X X X X X X X X X X X X X X X @ X X X X X ",
"X X X X X X X X X X X X X X X X X X X X X X X X X X X X X X X X X X X X X X X X X X X X X X X X X X X X X X X X X X X X X X X .   ",
"X X X X X X X X X X X X X X X X X X X X X X X X X X X X X X X X X X X X X X X X X X X X X X X X X X X X X X X X X X X X X X X X X ",
"X X X X X X X X X X X X X X X X X X X X X X X X X X X X X X X X X X X X X X X X X X X X X X X X X X X X X X X X X X X X X X X X O ",
"X X X X X X X X X X X X X X X X X X X X X X X X X X X X X X X X X X X X X X X X X X X X X X X X X X X X X X X X X X X X X X X X X ",
"X X X X X X X X X X X X X X X X X X X X X X X X X X X X X X X X X X X X X X X X X X X X X X X X X X X X X X X X X X X X X X X X X ",
"g g g g 4 u g 0 g g i 2 w g r g g p g g g g 5 5 g g & g y y % 9 0 1 = , g w 8 8 g g g 4 y g g g w g i 6 r g y g g w g r g 3 & g g ",
"g g g q u 9 g g g p , > w g g y g i g 9 4 g 5 5 g i 3 u 1 g r 9 0 1 % 0 g 8 , 8 g 9 1 7 y g g g 7 s g 8 8 g y g g g a r g g 8 g g ",
"8 r g w 4 g g g g r g a 7 r g y g g g 9 7 6 0 g u 3 5 u g g g 6 1 g g g g 4 % g g 9 4 r g g g g 6 7 g a g i i g g g g g r g g g g ",
"g 3 g g g : : g g r g 5 5 y 3 0 4 y y g w , 0 w 5 : & i i g g u 3 8 w g g f 3 5 g i g g g w w y g 2 y a g a 8 w g g g g g g g g g ",
"g g g 3 g u u y : g s s g g g g 9 i 7 5 d i g g g g w g g g g g 5 5 p y 0 g g 2 : i 8 0 3 3 w s g = y 7 g y 8 g g g r g g g g g p ",
"g q g y g 3 3 g 1 g 5 5 g g g 0 0 g 8 1 u g g g g g w g g g g g , , g g p g g g i i g , % g g q s w 5 g g g g w a r r r g g g r 7 ",
"w q 1 0 g g g g ; : a g i i g g g 9 1 & , g g g y 8 p g g g , g - , w w g , 8 g a y g g 9 i g q g g y y 8 g 3 i i g g g g 5 r g g ",
", & 3 g i g r 3 a a a g 5 i g g p 9 g , , w a g 1 , d 0 g g g g r s g g g 5 y e y y p g r r g g g g g g g p g g r g g g w g g w g ",
"y - 1 g g g w r r g g g g g w g w g g 5 w 6 g g > d d , 5 8 g g r 8 i g g g g 5 y g p w g g 3 w i g g g g g g r g g g w w g g g g ",
"g g s g g r : y r g g g 0 1 w r & 8 g w w = < g 3 g i 5 q g i 3 y 7 g g g g : 0 g g g 9 9 g 3 5 i g g g g g g r w 1 r r g g g g g ",
"g g g w w g g g g 0 g g 8 1 w r r g d i i * * < y g 3 = q i w g g g w r g g s g g r f g g g g g g g a a g g w g & * g r r t g g g ",
"g g g g r r g g g 7 0 g 6 r g u w g d r r r 7 0 g g 1 1 g g 2 2 g 5 w 0 8 g g r r g 9 < g g g a g 0 4 g r g g g 8 g g r r y y r g ",
"g g g g w w g g g g g e e g r % a r g g g 5 w 5 t g g t 0 * ; g g g y i g y g g g g g g g i i g g w 0 y 8 g g g g g p p w w y g g ",
"g w w g g g w 1 q g g e % 3 3 $ w r y g g 0 0 t y y e g s 1 y g g r d r g g i i g g g w g i i g i 5 g w 0 1 i g y y y g w w g u g ",
"g g g g g 0 g w < g 3 0 4 4 g g g g y r : 0 g g y g u g g q g g e r d 1 w w s 8 r g r w g g r w g 0 g g w w 8 i g g w g g g 6 6 r ",
"0 w w g g 0 g e g g 5 0 g g g : g g g 0 : g 3 7 g a q g g q , 0 g a g g g g 0 , w g p g g r r - 6 i g g w w g i g g g 9 9 g g g r ",
"0 g g g g g s i 1 i > g g 1 r r g g g 0 0 g g = w g q y 9 r 3 g g a g g , 9 g g g g g 3 g y g 2 6 i g g 9 , w g g 8 8 r r g 9 5 0 ",
"g g g 7 7 g s g y y g g g w g g 5 5 g g g g g 1 = g g g 9 g 1 3 7 3 g g 0 1 g g g g 9 3 g g g 1 5 g g g g 0 u 1 5 % 1 r r g 6 7 i ",
"g g 0 g w w g g g g g g g 8 5 g g g g g g 5 g g w 0 g g 0 g g g g g g g 0 0 s s g g 9 g = = y 0 g g g g g i 5 u 5 5 g g g y i g g ",
"g g g w g g 5 y 5 y 3 r r 8 : 3 3 g y 5 g g g g g g g g 1 : 7 = 7 i g g g g g g 4 4 g 0 3 3 0 0 g g g g r w g i g g p p g g g u u ",
"i g d 9 g g g g y y r g , r 0 - r g g w g g r r a 7 g g w r g i r i q q w 1 w q w g 0 g g g 0 g g y g 0 5 5 g g g g p p g g 8 1 g ",
"i g , w g g 0 g g d 0 g r g 9 < = w w w g g r r r w g g g g g g 1 6 q g g g e 7 t g g g r r g g g e g g i i g w g i w w g w 5 8 g ",
"g g , w f s s g , - d g g r g g w 1 w 1 g g g g 5 y g g w w g g g p g r r g e 7 y y g p g 1 5 5 9 5 g u 3 0 g q w 4 g y y g i g g ",
"g g g 1 r 1 0 g # , g g r r g 0 0 g g r w g g g - y g g w g g g h g d g 0 0 w w r a y 7 g g g i i g g 5 3 0 r q q 0 g 5 5 g g y 0 ",
"g r r g g 0 0 g g g 8 g g g i i w g g w w g i , , g g g g y 0 g w g d g w g g w w g g y y r g g i w g 0 g g r g 0 i i ; 1 0 g 1 0 ",
"g g g r r r , g w g g g g g g g 5 g r w w g r 3 , g g w & i 5 g g g g w 1 g g g w g w y y g g w i 5 g g g g g g 0 9 9 y g g g g g ",
"g g g r g r r g g 0 g 8 g g g g r g 1 q g w g g , g g g g y s g g g g w q g g g g g w g 1 g g w r y g g s w g g g y : 0 r r y y g "
};
