/* XPM */
static char *result[] = {
/* columns rows colors chars-per-pixel */
"65 65 242 2 ",
"   c black",
".  c #050400",
"X  c #070600",
"o  c #0B0900",
"O  c #0D0900",
"+  c #0D0A00",
"@  c #0E0A00",
"#  c #0E0B00",
"$  c #0F0C00",
"%  c #262000",
"&  c #AF6A06",
"*  c #AF6B06",
"=  c #AF6C06",
"-  c #B26A00",
";  c #B76D00",
":  c #B76E00",
">  c #B06B06",
",  c #B06C06",
"<  c #B16C06",
"1  c #B16D06",
"2  c #B26E06",
"3  c #B86E00",
"4  c #B96E00",
"5  c #BA6F00",
"6  c #BD6F00",
"7  c #BA7000",
"8  c #BB7100",
"9  c #BD7000",
"0  c #BC7100",
"q  c #BD7100",
"w  c #BF7200",
"e  c #BF7300",
"r  c #BF7400",
"t  c #C17500",
"y  c #C27600",
"u  c #C27700",
"i  c #C37700",
"p  c #C37800",
"a  c #C47800",
"s  c #C47900",
"d  c #C57900",
"f  c #C67900",
"g  c #C57A00",
"h  c #C57B00",
"j  c #C67B00",
"k  c #C77B00",
"l  c #C77C00",
"z  c #C87E00",
"x  c #C87F00",
"c  c #C97F00",
"v  c #C78000",
"b  c #C98100",
"n  c #D68E00",
"m  c #D78E00",
"M  c #D68F00",
"N  c #D78F00",
"B  c #DE8A00",
"V  c #DB8C00",
"C  c #DC8D00",
"Z  c #DF8C00",
"A  c #DD8E00",
"S  c #DF8E00",
"D  c #DF8F00",
"F  c #DA9000",
"G  c #DE9100",
"H  c #DD9200",
"J  c #E08D00",
"K  c #E08E00",
"L  c #E19000",
"P  c #E09100",
"I  c #E29100",
"U  c #E09200",
"Y  c #E19200",
"T  c #E29200",
"R  c #E39200",
"E  c #E29300",
"W  c #E39300",
"Q  c #E39400",
"!  c #E39500",
"~  c #E29700",
"^  c #E69400",
"/  c #E59700",
"(  c #E69B00",
")  c #E79F00",
"_  c #E7A200",
"`  c #EBA200",
"'  c #E8A400",
"]  c #EBA700",
"[  c #EEA700",
"{  c #EFA700",
"}  c #E7AD00",
"|  c #E7AE00",
" . c #E9A800",
".. c #EFAA00",
"X. c #EEAC00",
"o. c #F0AC00",
"O. c #F2AD00",
"+. c #E7B300",
"@. c #E7B003",
"#. c #E8B000",
"$. c #E8B200",
"%. c #F8B000",
"&. c #FAB100",
"*. c #FAB600",
"=. c #FCB500",
"-. c #F0BB00",
";. c #F3BB00",
":. c #FABA00",
">. c #FDB900",
",. c #FFB800",
"<. c #FCBB00",
"1. c #FFBB00",
"2. c #F9BF00",
"3. c #FBBF00",
"4. c #FDBC00",
"5. c #FDBD00",
"6. c #FFBC00",
"7. c #FFBD00",
"8. c #FFBE00",
"9. c #FFBF00",
"0. c #F3C000",
"q. c #F3C100",
"w. c #F5C200",
"e. c #F7C200",
"r. c #F7C300",
"t. c #F5C500",
"y. c #F7C400",
"u. c #F7C600",
"i. c #F9C000",
"p. c #F8C300",
"a. c #FAC200",
"s. c #FBC300",
"d. c #FCC100",
"f. c #FDC100",
"g. c #FFC100",
"h. c #FDC200",
"j. c #FFC200",
"k. c #FFC300",
"l. c #F9C400",
"z. c #FBC500",
"x. c #F8C700",
"c. c #FAC600",
"v. c #FAC700",
"b. c #FCC400",
"n. c #FFC400",
"m. c #FCC600",
"M. c #FDC600",
"N. c #FCC700",
"B. c #FFC600",
"V. c #FFC700",
"C. c #F8C900",
"Z. c #F9C900",
"A. c #FAC800",
"S. c #FBC800",
"D. c #FBC900",
"F. c #FDC800",
"G. c #FCC900",
"H. c #FDC900",
"J. c #FFC800",
"K. c #FFC900",
"L. c #FCCB00",
"P. c #FDCB00",
"I. c #FFCA00",
"U. c #FFCB00",
"Y. c #FBCC00",
"T. c #F9CE00",
"R. c #FDCD00",
"E. c #FFCC00",
"W. c #FFCD00",
"Q. c #FCCF00",
"!. c #FDCF00",
"~. c #FFCE00",
"^. c #FFCF00",
"/. c #FACC05",
"(. c #F9CF0D",
"). c #F4D100",
"_. c #F8D300",
"`. c #FAD300",
"'. c #FCD000",
"]. c #FCD100",
"[. c #FFD000",
"{. c #FFD100",
"}. c #FCD200",
"|. c #FDD200",
" X c #FDD300",
".X c #FFD200",
"XX c #FFD300",
"oX c #FCD400",
"OX c #FDD400",
"+X c #FDD500",
"@X c #FFD400",
"#X c #FFD500",
"$X c #FCD600",
"%X c #FDD600",
"&X c #FCD700",
"*X c #FFD600",
"=X c gold",
"-X c #FFD603",
";X c #FFD705",
":X c #FCD900",
">X c #FFD800",
",X c #FFD900",
"<X c #FDDA00",
"1X c #FCDB00",
"2X c #FFDA00",
"3X c #FFDB00",
"4X c #FFDC00",
"5X c #FFDD00",
"6X c #FDDF00",
"7X c #FFDE00",
"8X c #FFDF00",
"9X c #FFDB06",
"0X c #FFDA07",
"qX c #FDDE1A",
"wX c #FDE000",
"eX c #FFE000",
"rX c #FFE100",
"tX c #FCE200",
"yX c #FDE200",
"uX c #FBEB00",
"iX c #FFE50B",
"pX c #FFF007",
"aX c #FFEE1A",
"sX c #FFEE1C",
"dX c #FFF818",
"fX c #FFFA1A",
"gX c #FFF81E",
"hX c #FFFB1E",
"jX c #FFFD1D",
"kX c #FFFC1F",
"lX c #FFFF1E",
"zX c #FFFF1F",
"xX c #FFEC29",
"cX c #FFEF29",
"vX c #FFFD20",
"bX c #FFF82A",
"nX c #FFF82F",
"mX c #FFF944",
"MX c #FFFF64",
"NX c #FFFF75",
"BX c #FFFF7A",
"VX c None",
/* pixels */
"VXVXVXVXVXVXVXVXVXVXVXVXVXVXVXVXVXVXVXVXVXVXVXVXVXVXVXVXVXVXVXVXVXVXVXVXVXVXVXVXVXVXVXVXVXVXVXVXVXVXVXVXVXVXVXVXVXVXVXVXVXVXVXVXVX",
"VXVXVXVXVXVXVXVXVXVXVXVXVXVXVXVXVXVXVXVXVXVXVXVXVXVXVXVXVXVXVXVXVXVXVXVXVXVXVXVXVXVXVXVXVXVXVXVXVXVXVXVXVXVXVXVXVXVXVXVXVXVXVXVXVX",
"VXVXVXVXVXVXVXVXVXVXVXVXVXVXVXVXVXVXVXVXVXVXVXVXVXVXVXVXVXVXVXVXVXVXVXVXVXVXVXVXVXVXVXVXVXVXVXVXVXVXVXVXVXVXVXVXVXVXVXVXVXVXVXVXVX",
"VXVXVXVXVXVXVXVXVXVXVXVXVXVXVXVXVXVXVXVXVXVXVXVXVXVXVXVXVXVXVXVXVXVXVXVXVXVXVXVXVXVXVXVXVXVXVXVXVXVXVXVXVXVXVXVXVXVXVXVXVXVXVXVXVX",
"VXVXVXVXVXVXVXVXVXVXVXVXVXVXVXVXVXVXVXVXVXVXVXVXVXVXBXBXBXMXmXnXbXfXdXaXyX).W Q VXVXVXVXVXVXVXVXVXVXVXVXVXVXVXVXVXVXVXVXVXVXVXVXVX",
"VXVXVXVXVXVXVXVXVXVXVXVXVXVXVXVXVXVXVXVXVXVXVXVXVXBXBXBXBXMXmXnXbXfXdXaXyX).W W VXVXVXVXVXVXVXVXVXVXVXVXVXVXVXVXVXVXVXVXVXVXVXVXVX",
"VXVXVXVXVXVXVXVXVXVXVXVXVXVXVXVXVXVXVXVXVXVXVXVXBXBXzXtX6X>XXX=X*X=X2X=X@XP.W W A W E VXVXVXVXVXVXVXVXVXVXVXVXVXVXVXVXVXVXVXVXVXVX",
"VXVXVXVXVXVXVXVXVXVXVXVXVXVXVXVXVXVXVXVXVXVXVXVXBXBXpX'.'.>XXX=X*X=X2X=X@XP.I D A W W VXVXVXVXVXVXVXVXVXVXVXVXVXVXVXVXVXVXVXVXVXVX",
"VXVXVXVXVXVXVXVXVXVXVXVXVXVXVXVXVXVXVXVXVXVXVXBXNX0X'.'.'.'..X|.#X#X@X.X^.N.V P Y W W VXVXVXVXVXVXVXVXVXVXVXVXVXVXVXVXVXVXVXVXVXVX",
"VXVXVXVXVXVXVXVXVXVXVXVXVXVXVXVXVXVXVXVXVXVXVXNXzX0X'.'.'.@X.X|.#X#X@X.X^.N.V P Y W W VXVXVXVXVXVXVXVXVXVXVXVXVXVXVXVXVXVXVXVXVXVX",
"VXVXVXVXVXVXVXVXVXVXVXVXVXVXVXVXVXVXVXVXVXVXNXNXzX'.'.'.7.h i - ; 4 3 M R.{.,X8XeX3XW W T VXVXVXVXVXVXVXVXVXVXVXVXVXVXVXVXVXVXVXVX",
"VXVXVXVXVXVXVXVXVXVXVXVXVXVXVXVXVXVXVXVXVXVXzXzX'.'.Q.8.8.i i - ; 4 3 n R.{.,X8XeX3XW W T VXVXVXVXVXVXVXVXVXVXVXVXVXVXVXVXVXVXVXVX",
"VXVXVXVXVXVXVXVXVXVXVXVXVXVXVXVXVXVXVXVXBXBXNX9X'.'.s i y i 7.7.7.[.{.m L L N i.XX,X8X7XW W VXVXVXVXVXVXVXVXVXVXVXVXVXVXVXVXVXVXVX",
"VXVXVXVXVXVXVXVXVXVXVXVXVXVXVXVXVXVXVXVXBXzXlX'.'.6.i i u i 7.7.7.[.{.L L n n i.XX,X8X7XW W VXVXVXVXVXVXVXVXVXVXVXVXVXVXVXVXVXVXVX",
"VXVXVXVXVXVXVXVXVXVXVXVXVXVXVXVXVXVXVXBXBXvXgX'.'.1.i i i i 7.7.@XXX[.L L n n y.>X>X2X=XW W VXVXVXVXVXVXVXVXVXVXVXVXVXVXVXVXVXVXVX",
"VXVXVXVXVXVXVXVXVXVXVXVXVXVXVXVXVXVXVXNXzXhX'.'.9.1.i i u p 7.8.    p L L n n y.>X>X2X2XW W VXVXVXVXVXVXVXVXVXVXVXVXVXVXVXVXVXVXVX",
"VXVXVXVXVXVXVXVXVXVXVXVXVXVXVXVXVXVXBXNX/.'.'.*.a i d :.7.7.7.8.    i =X3X3X`.L m H >X2X8X+., * VXVXVXVXVXVXVXVXVXVXVXVXVXVXVXVXVX",
"VXVXVXVXVXVXVXVXVXVXVXVXVXVXVXVXVXVXBXzX'.'.'.*.i i i 7.7.j.7.7.    i =X3X3X`.L m H ;.2X2X+.* * VXVXVXVXVXVXVXVXVXVXVXVXVXVXVXVXVX",
"VXVXVXVXVXVXVXVXVXVXVXVXVXVXVXVXVXBXNXzX'.'.,.%.i i d 7.7.8.7.c.    j I.eXeXT.L n F -.2X2X$.* * VXVXVXVXVXVXVXVXVXVXVXVXVXVXVXVXVX",
"VXVXVXVXVXVXVXVXVXVXVXVXVXVXVXVXVXBXzXzX'.'.,.%.i i d 7.7.7.K.#       p eXeXT.L n F -.>X2X$.* * VXVXVXVXVXVXVXVXVXVXVXVXVXVXVXVXVX",
"VXVXVXVXVXVXVXVXVXVXVXVXVXVXVXVXVXBXzXzX'.'.=.i i 7.7.7.g.7.8.        i rXeX4X4X4X2XY G 2X2X* * VXVXVXVXVXVXVXVXVXVXVXVXVXVXVXVXVX",
"VXVXVXVXVXVXVXVXVXVXVXVXVXVXVXVXVXBXzXsX'.7.=.i i 7.7.8.g.7.J.    @ O l I.eXeXeX4X2XL L 2X2X* * VXVXVXVXVXVXVXVXVXVXVXVXVXVXVXVXVX",
"VXVXVXVXVXVXVXVXVXVXVXVXVXVXVXVXVXBXzX'.'.7.&.i i 7.7.8.J.F.#   p J.  # p I.W.eXeXwXL L 2X2X* * VXVXVXVXVXVXVXVXVXVXVXVXVXVXVXVXVX",
"VXVXVXVXVXVXVXVXVXVXVXVXVXVXVXVXVXzXcX'.'.7.&.i i 5.7.8.I.I.O   i 7.  + i I.W.eXeXeXL L 2X2X, * VXVXVXVXVXVXVXVXVXVXVXVXVXVXVXVXVX",
"VXVXVXVXVXVXVXVXVXVXVXVXVXVXVXVXBXNX5X'.'.7.7.i i 5.f.b.8.N.X   i K.    i I.K.R.eXeXL L { 2XK.z.* * VXVXVXVXVXVXVXVXVXVXVXVXVXVXVX",
"VXVXVXVXVXVXVXVXVXVXVXVXVXVXVXVXBXNX].'.'.7.7.i i 5.f.7.7.N.    i K.    i K.U.^.eXeXL L { 2XK.z.* * VXVXVXVXVXVXVXVXVXVXVXVXVXVXVX",
"VXVXVXVXVXVXVXVXVXVXVXVXVXVXVXVXBXzX'.'.'.7.7.i i <.7.7.8.l.    k 7.@   p I.U.[.8XeXL L ' 2X2XC.* * VXVXVXVXVXVXVXVXVXVXVXVXVXVXVX",
"VXVXVXVXVXVXVXVXVXVXVXVXVXVXVXVXBXzX'.'.Q.7.7.i d 7.7.7..                   p K.$XeXL L ' 2X2XC.* * VXVXVXVXVXVXVXVXVXVXVXVXVXVXVX",
"VXVXVXVXVXVXVXVXVXVXVXVXVXVXVXVXBXzX'.'.z i i i 8.7.7.4..                   p K.@XeXeX8XL 2X2Xx.* * VXVXVXVXVXVXVXVXVXVXVXVXVXVXVX",
"VXVXVXVXVXVXVXVXVXVXVXVXVXVXVXVXBXzX'.'.z i i i 7.7.7.9.l #   i p i k   + l I.^.@XeXeXeXL 2X2Xx.* * VXVXVXVXVXVXVXVXVXVXVXVXVXVXVX",
"VXVXVXVXVXVXVXVXVXVXVXVXVXVXVXVXBXzX'.'.x f i i 7.7..X~.K.    i 7.7.7.    J.E.OX&X>XeXeXL O.2XD.* * VXVXVXVXVXVXVXVXVXVXVXVXVXVXVX",
"VXVXVXVXVXVXVXVXVXVXVXVXVXVXVXVXBXzX'.'.x f i i 7.7..X~.K.    p I.I.8.    0.E.OX&X>XeXeXL O.2XD.* * VXVXVXVXVXVXVXVXVXVXVXVXVXVXVX",
"VXVXVXVXVXVXVXVXVXVXVXVXVXVXVXVXBXzX'.'.c i i i 7.7.^.$                     % p #X XeXeXL X.2XN.* * VXVXVXVXVXVXVXVXVXVXVXVXVXVXVX",
"VXVXVXVXVXVXVXVXVXVXVXVXVXVXVXVXBXzX'.'.c i i i 7.7.[.$                     % p #X XeXeXL X.2XN.* * VXVXVXVXVXVXVXVXVXVXVXVXVXVXVX",
"VXVXVXVXVXVXVXVXVXVXVXVXVXVXVXVXBXzX'.'.z i i i 7.7.{.l #   i i i i i p   + p .X#X#XeXeXL o.2X,X* * VXVXVXVXVXVXVXVXVXVXVXVXVXVXVX",
"VXVXVXVXVXVXVXVXVXVXVXVXVXVXVXVXBXzX'.'.z i i i 7.7.{..Xo   i 7.7.I.7.7.    i .X#X#XeXeXL L 2X2X* * VXVXVXVXVXVXVXVXVXVXVXVXVXVXVX",
"VXVXVXVXVXVXVXVXVXVXVXVXVXVXVXVXBXzX'.'.v i i i 7.7.[.w.    i 7.I.I.7.7.    i ~.[.[.eXeXL L 2X2X* * VXVXVXVXVXVXVXVXVXVXVXVXVXVXVX",
"VXVXVXVXVXVXVXVXVXVXVXVXVXVXVXVXNXzX'.'.v i i i 7.7.[.w.    i 8.I.I.I.7.    i ~.[.[.eXeXL L 2X2X* * VXVXVXVXVXVXVXVXVXVXVXVXVXVXVX",
"VXVXVXVXVXVXVXVXVXVXVXVXVXVXVXVXzXzX'.'.@X^.H.i 7.7.XXr.    i I.I.I.I.7.    i ~.W..XeXeXBX;X2X2X* * VXVXVXVXVXVXVXVXVXVXVXVXVXVXVX",
"VXVXVXVXVXVXVXVXVXVXVXVXVXVXVXVXzXzX#X#X@X^.H.i 7.7.^.K.  @ p I.I.I.K.8.    l ~.W..XBXBXBX;X2XS.* * VXVXVXVXVXVXVXVXVXVXVXVXVXVXVX",
"VXVXVXVXVXVXVXVXVXVXVXVXVXVXVXVXzXzX#X#X{.J.h.i } W.U.#   p 7.I.I.I.I.I.7.  # p {.+XBXzXzX-X2XG.* * VXVXVXVXVXVXVXVXVXVXVXVXVXVXVX",
"VXVXVXVXVXVXVXVXVXVXVXVXVXVXVXVXzXjX#X#X{.J.h.i i W.I.+   i 7.I.I.I.I.I.7.    p ~.+XBXzXkX-X2XG.< = VXVXVXVXVXVXVXVXVXVXVXVXVXVXVX",
"VXVXVXVXVXVXVXVXVXVXVXVXVXVXVXVXVXW ^ [ A.U.M.i i oXW.    i 8.I.I.I.K.s.7.@   p W.j.BXzXiX#.* * VXVXVXVXVXVXVXVXVXVXVXVXVXVXVXVXVX",
"VXVXVXVXVXVXVXVXVXVXVXVXVXVXVXVXVXW W [ A.U.M.i i ^.#     i 8.I.I.I.H.s.9.    + p j.BXzXiX#.* * VXVXVXVXVXVXVXVXVXVXVXVXVXVXVXVXVX",
"VXVXVXVXVXVXVXVXVXVXVXVXVXVXVXVXVXW W ` m.V.f.i i H.    @ p W.{..X[.~.J.g.@     p k.BXzXqX@.* * VXVXVXVXVXVXVXVXVXVXVXVXVXVXVXVXVX",
"VXVXVXVXVXVXVXVXVXVXVXVXVXVXVXVXVXW W ` m.V.f.i i [.=X4X4X4X,X#X.X[.~.J.g.8.4.8.9.k.BXzXqX@.* * VXVXVXVXVXVXVXVXVXVXVXVXVXVXVXVXVX",
"VXVXVXVXVXVXVXVXVXVXVXVXVXVXVXVXVXW W  .L.[.^.3.i i g 2X4X2X#X{.@X#X.X.X@X!.n.BXBXBXNXe.k.| * * VXVXVXVXVXVXVXVXVXVXVXVXVXVXVXVXVX",
"VXVXVXVXVXVXVXVXVXVXVXVXVXVXVXVXVXW W  .L.[.^.3.i i i 2X4X2X#X{.@X#X.X.X@X!.n.BXNXzXxXe.k.| , & VXVXVXVXVXVXVXVXVXVXVXVXVXVXVXVXVX",
"VXVXVXVXVXVXVXVXVXVXVXVXVXVXVXVXVXVXVXW W / ( t.4X>XL L C _ Y.,X2X>X>XBXBXBXBX(.e.s.a.2.2 = VXVXVXVXVXVXVXVXVXVXVXVXVXVXVXVXVXVXVX",
"VXVXVXVXVXVXVXVXVXVXVXVXVXVXVXVXVXVXVXW W / ( t.4X>XL L C _ Y.,X2X>X>XBXBXzXvX(.e.s.a.2.* * VXVXVXVXVXVXVXVXVXVXVXVXVXVXVXVXVXVXVX",
"VXVXVXVXVXVXVXVXVXVXVXVXVXVXVXVXVXVXVXW W U ~ q.3X#XL L K ) v.%X#X#X.XBXzXzXzX_.u.d.6.>.* * VXVXVXVXVXVXVXVXVXVXVXVXVXVXVXVXVXVXVX",
"VXVXVXVXVXVXVXVXVXVXVXVXVXVXVXVXVXVXVXR R U ~ q.3X#XL L K ) v.%X#X#X.XBXzXzXuX_.u.d.6.>.* * VXVXVXVXVXVXVXVXVXVXVXVXVXVXVXVXVXVXVX",
"VXVXVXVXVXVXVXVXVXVXVXVXVXVXVXVXVXVXVXVXVXVXVXW ! <X1X:XXXL L R K S I ..K.[..XV.j.g.* * * VXVXVXVXVXVXVXVXVXVXVXVXVXVXVXVXVXVXVXVX",
"VXVXVXVXVXVXVXVXVXVXVXVXVXVXVXVXVXVXVXVXVXVXVXW W <X1X:XXXL L R K S I ..K.[..XV.j.g.* * * VXVXVXVXVXVXVXVXVXVXVXVXVXVXVXVXVXVXVXVX",
"VXVXVXVXVXVXVXVXVXVXVXVXVXVXVXVXVXVXVXVXVXVXVXW W XX,XeXOXL L B J J Z ] U.}.!.K.B.a.* * * VXVXVXVXVXVXVXVXVXVXVXVXVXVXVXVXVXVXVXVX",
"VXVXVXVXVXVXVXVXVXVXVXVXVXVXVXVXVXVXVXVXVXVXVXW W XX,XeXOXL L B J J Z ] U.}.!.K.B.a.1 * * VXVXVXVXVXVXVXVXVXVXVXVXVXVXVXVXVXVXVXVX",
"VXVXVXVXVXVXVXVXVXVXVXVXVXVXVXVXVXVXVXVXVXVXVXVX* * y b *X2X2X2X2X>X>X2X>XZ.e t y , * VXVXVXVXVXVXVXVXVXVXVXVXVXVXVXVXVXVXVXVXVXVX",
"VXVXVXVXVXVXVXVXVXVXVXVXVXVXVXVXVXVXVXVXVXVXVXVX* * * b *X2X2X2X2X>X>X2X>XZ.e * * * * VXVXVXVXVXVXVXVXVXVXVXVXVXVXVXVXVXVXVXVXVXVX",
"VXVXVXVXVXVXVXVXVXVXVXVXVXVXVXVXVXVXVXVXVXVXVXVX* * * j @X.XXX X#X#X@X@X@Xp.: * * * * VXVXVXVXVXVXVXVXVXVXVXVXVXVXVXVXVXVXVXVXVXVX",
"VXVXVXVXVXVXVXVXVXVXVXVXVXVXVXVXVXVXVXVXVXVXVXVX* * > j @X.XXX X#X#X@X@X@Xp.: r * * * VXVXVXVXVXVXVXVXVXVXVXVXVXVXVXVXVXVXVXVXVXVX",
"VXVXVXVXVXVXVXVXVXVXVXVXVXVXVXVXVXVXVXVXVXVXVXVXVXVXVXVX> 6 9 0 8 7 5 q w 0 VXVXVXVXVXVXVXVXVXVXVXVXVXVXVXVXVXVXVXVXVXVXVXVXVXVXVX",
"VXVXVXVXVXVXVXVXVXVXVXVXVXVXVXVXVXVXVXVXVXVXVXVXVXVXVXVX> 6 9 0 8 7 5 q w 0 VXVXVXVXVXVXVXVXVXVXVXVXVXVXVXVXVXVXVXVXVXVXVXVXVXVXVX",
"VXVXVXVXVXVXVXVXVXVXVXVXVXVXVXVXVXVXVXVXVXVXVXVXVXVXVXVXVXVXVXVXVXVXVXVXVXVXVXVXVXVXVXVXVXVXVXVXVXVXVXVXVXVXVXVXVXVXVXVXVXVXVXVXVX",
"VXVXVXVXVXVXVXVXVXVXVXVXVXVXVXVXVXVXVXVXVXVXVXVXVXVXVXVXVXVXVXVXVXVXVXVXVXVXVXVXVXVXVXVXVXVXVXVXVXVXVXVXVXVXVXVXVXVXVXVXVXVXVXVXVX",
"VXVXVXVXVXVXVXVXVXVXVXVXVXVXVXVXVXVXVXVXVXVXVXVXVXVXVXVXVXVXVXVXVXVXVXVXVXVXVXVXVXVXVXVXVXVXVXVXVXVXVXVXVXVXVXVXVXVXVXVXVXVXVXVXVX"
};
