/* XPM */
static char *result[] = {
/* columns rows colors chars-per-pixel */
"64 64 214 2 ",
"   c black",
".  c #080602",
"X  c #2C1500",
"o  c #2D1500",
"O  c #2E1600",
"+  c #3A1C00",
"@  c #3B1C00",
"#  c #3C1C00",
"$  c #371A09",
"%  c #3E1D0A",
"&  c gray22",
"*  c #383839",
"=  c #3C3C3C",
"-  c #3F3F3F",
";  c #421F00",
":  c #422000",
">  c #432000",
",  c #432100",
"<  c #4C2500",
"1  c #4F2600",
"2  c #47220B",
"3  c #47220C",
"4  c #502600",
"5  c #502700",
"6  c #522700",
"7  c #542800",
"8  c #5C2B00",
"9  c #5A2C00",
"0  c #582C02",
"q  c #5D2C00",
"w  c #5E2C00",
"e  c #5F2C00",
"r  c #5F2D00",
"t  c #602C00",
"y  c #683200",
"u  c #284686",
"i  c #294686",
"p  c #284687",
"a  c #294787",
"s  c #294887",
"d  c #294788",
"f  c #2A4788",
"g  c #294888",
"h  c #2A4888",
"j  c #365596",
"k  c #375596",
"l  c #375597",
"z  c #375699",
"x  c #375799",
"c  c #39599C",
"v  c #607DC2",
"b  c #607DC4",
"n  c #617EC4",
"m  c #617EC5",
"M  c #627FC4",
"N  c #B0219E",
"B  c #B623A4",
"V  c #B624A5",
"C  c #B627A5",
"Z  c #B822A7",
"A  c #B922A7",
"S  c #B822A8",
"D  c #BE20AA",
"F  c #B927A9",
"G  c #BB27AB",
"H  c #B829A9",
"J  c #BB29AA",
"K  c #BC2AAC",
"L  c #BF2AAE",
"P  c #BA2CAC",
"I  c #BE2DAE",
"U  c #BF2DAE",
"Y  c #BF2DAF",
"T  c #BF2DB0",
"R  c #C329B1",
"E  c #C42AB2",
"W  c #C12DB1",
"Q  c #C32DB3",
"!  c #C52DB3",
"~  c #C42EB2",
"^  c #C42EB4",
"/  c #C52EB4",
"(  c #C52FB4",
")  c #C62FB5",
"_  c #CA2EB6",
"`  c #CA2EB7",
"'  c #D22EBD",
"]  c #D22EBE",
"[  c #C132B2",
"{  c #C132B3",
"}  c #C630B5",
"|  c #C730B6",
" . c #C731B6",
".. c #C832B7",
"X. c #C932B7",
"o. c #C833B7",
"O. c #C933B7",
"+. c #C934B7",
"@. c #C738B7",
"#. c #C933B8",
"$. c #CD31BA",
"%. c #C934B8",
"&. c #C934B9",
"*. c #CA34B9",
"=. c #CA35B9",
"-. c #CD37BC",
";. c #C938B9",
":. c #CC38BB",
">. c #CE3DBE",
",. c #CE3DBF",
"<. c #CF3EBF",
"1. c #D43EC2",
"2. c #D53FC3",
"3. c #D63FC4",
"4. c #DB3FC7",
"5. c #DB3FC8",
"6. c #DC3FC8",
"7. c #D340C3",
"8. c #D741C4",
"9. c #DA41C7",
"0. c #DB40C8",
"q. c #DE42CA",
"w. c #DA46C9",
"e. c #DF45CB",
"r. c #DF46CD",
"t. c #E149CE",
"y. c #E04BCE",
"u. c #EA47D2",
"i. c #E14BD0",
"p. c #EA48D3",
"a. c #EB48D3",
"s. c #EC4ED6",
"d. c #E551D4",
"f. c #EB54D8",
"g. c #EB55D8",
"h. c #EC55D8",
"j. c #EC55D9",
"k. c #ED55D9",
"l. c #ED56DA",
"z. c #ED57DA",
"x. c #ED57DB",
"c. c #EE56DA",
"v. c #EE57DB",
"b. c #EB5ED9",
"n. c #EA5CDB",
"m. c #EF5ADC",
"M. c #EF5EDE",
"N. c #EF5EDF",
"B. c #EF5FDF",
"V. c #F058DC",
"C. c #F35BDE",
"Z. c #F458DD",
"A. c #F558DE",
"S. c #F75ADF",
"D. c #F15CDE",
"F. c #F35CDF",
"G. c #F85BE0",
"H. c #F95AE1",
"J. c #F85BE1",
"K. c #F95BE1",
"L. c #F95CE1",
"P. c #F85FE1",
"I. c #F95FE2",
"U. c #F063E0",
"Y. c #F063E1",
"T. c #F461E1",
"R. c #F560E2",
"E. c #F461E2",
"W. c #F561E2",
"Q. c #F463E2",
"!. c #F563E2",
"~. c #F563E3",
"^. c #F365E3",
"/. c #F267E3",
"(. c #F960E2",
"). c #F964E3",
"_. c #F965E3",
"`. c #6281C6",
"'. c #6282C6",
"]. c #6382C6",
"[. c #6282C7",
"{. c #728DC7",
"}. c #738DC8",
"|. c #738EC9",
" X c #748EC8",
".X c #07DAE8",
"XX c gray57",
"oX c gray60",
"OX c #9A9A9A",
"+X c gray62",
"@X c #9F9E9E",
"#X c #A3A2A8",
"$X c #A3A2A9",
"%X c #A7A5AC",
"&X c #C2868A",
"*X c #C3878B",
"=X c #C3888C",
"-X c #C4888C",
";X c #C4888D",
":X c #DFB7BC",
">X c #DFB8BC",
",X c #DFB8BD",
"<X c #DFB9BD",
"1X c #E0BABE",
"2X c #D6D6D7",
"3X c #D9D9DA",
"4X c #DAD9DA",
"5X c #EBE9E9",
"6X c #ECEAEA",
"7X c #FFF4FD",
"8X c #FFF5FF",
"9X c #FFF7FF",
"0X c white",
"qX c None",
/* ALE */
"qXqXqXqXqXqXqXqXqXqXqXqXqXqXqXqXqXqXqXqXqXqXqXqXqXqXqXqXqXqXqXqXqXqXqXqXqXqXqXqXqXqXqXqXqXqXqXqXqXqXqXqXqXqXqXqXqXqXqXqXqXqXqXqX",
"qXqXqXqXqXqXqXqXqXqXqXqXqXqXqXqXqXqXqXqXqXqXqXqXqXqXqXqXqXqXqXqXqXqXqXqXqXqXqXqXqXqXqXqXqXqXqXqXqXqXqXqXqXqXqXqXqXqXqXqXqXqXqXqX",
"qXqXqXqXqXqXqXqXqXqXqXqXqXqXqXqXqXqXqXqXqXqXqXqXqXqXqXqXqXqXqXqXqXqXqXqXqXqXqXqXqXqXqXqXqXqXqXqXqXqXqXqXqXqXqXqXqXqXqXqXqXqXqXqX",
"qXqXqXqXqXqXqXqXqXqXqXqXqXqXqXqXqXqXqXqXqXqXqXqXqX0 7 6 7 7 6 9 7 7 # @ ; qXqXqXqXqXqXqXqXqXqXqXqXqXqXqXqXqXqXqXqXqXqXqXqXqXqXqX",
"qXqXqXqXqXqXqXqXqXqXqXqXqXqXqXqXqXqXqXqXqXqXqX5 4 1 4 4 6 4 6 4 4 6 : ; ; ; qXqX+ qXqXqXqXqXqXqXqXqXqXqXqXqXqXqXqXqXqXqXqXqXqXqX",
"qXqXqXqXqXqXqXqXqXqXqXqXqXqXqXqXqXqXqXqXqXqX0 5 4 1 4 4 6 4 6 5 4 6 4 5 0 # : ; @ @ qXqXqXqXqXqXqXqXqXqXqXqXqXqXqXqXqXqXqXqXqXqX",
"qXqXqXqXqXqXqXqXqXqXqXqXqXqXqXqXqXqXqXqXqXqXt y y y w y y y y # , 6 1 1 6 # @ @ ; qXqXqXqXqXqXqXqXqXqXqXqXqXqXqXqXqXqXqXqXqXqXqX",
"qXqXqXqXqXqXqXqXqXqXqXqXqXqXqXqXqXqXqXqXt y y y w w y y y y w > , 9 4 4 0 ; @ @ ; ; qXqXqXqXqXqXqXqXqXqXqXqXqXqXqXqXqXqXqXqXqXqX",
"qXqXqXqXqXqXqXqXqXqXqXqXqXqXqXqXqXqXqXqXw y y y e r y y w w w y y y > > # @ @ @ ; < qXqXqXqXqXqXqXqXqXqXqXqXqXqXqXqXqXqXqXqXqXqX",
"qXqXqXqXqXqXqXqXqXqXqXqXqXqXqXqXqXqXqXqXy y > *X&X&X-Xy y y w w y y > > ; @ @ @ # ; qXqXqXqXqXqXqXqXqXqXqXqXqXqXqXqXqXqXqXqXqXqX",
"qXqXqXqXqXqXqXqXqXqXqXqXqXqXqXqXqXqXqXqXy y > *X&X&X-Xy y y y y y y w t # @ ; ; ; ; qXqXqXqXqXqXqXqXqXqXqXqXqXqXqXqXqXqXqXqXqXqX",
"qXqXqXqXqXqXqXqXqXqXqXqXqXqXqXqXqXqXqXqXqX> # 6X5XX X -X&X-Xo X y w y y # # &X&X; ; qXqXqXqXqXqXqXqXqXqXqXqXqXqXqXqXqXqXqXqXqXqX",
"qXqXqXqXqXqXqXqXqXqXqXqXqXqXqXqXqXqXqXqXqX> # 6X5X$ $ &X&X&X@ @ y y w w ; ; &X&X; # qXqXqXqXqXqXqXqXqXqXqXqXqXqXqXqXqXqXqXqXqXqX",
"qXqXqXqXqXqXqXqXqXqXqXqXqXqXqXqXqXqXqXqXqXt > 0X0X% % 1X<X<X% % 0X0X&X&X&X&X=X&X; qXqXqXqXqXqXqXqXqXqXqXqXqXqXqXqXqXqXqXqXqXqXqX",
"qXqXqXqXqXqXqXqXqXqXqXqXqXqXqXqXqXqXqXqXqXqXqX0X0X2 3 <X<X1X2 3 0X0X&X&X&X&X  -X; qXqXqXqXqXqXqXqXqXqXqXqXqXqXqXqXqXqXqXqXqXqXqX",
"qXqXqXqXqXqXqXqXqXqXqXqXqXqXqXqXqXqXqXqXqXqXqX1X6 8 8 6 8 8 6 8 q 1X&X&X&X&X. ; qXqXqXqXqXqXqXqXqXqXqXqXqXqXqXqXqXqXqXqXqXqXqXqX",
"qXqXqXqXqXqXqXqXqXqXqXqXqXqXqXqXqXqXqXqXqXqXqXq 6 6 <X<X<X<X<Xw 6 6 &X&X&X&X.X; qXqXqXqXqXqXqXqXqXqXqXqXqXqXqXqXqXqXqXqXqXqXqXqX",
"qXqXqXqXqXqXqXqXqXqXqXqXqXqXqXqXqXqXqXqXqXqXqX6 6 w w 6 6 w 6 6 w 6 O &X&X-X# qXqXqXqXqXqXqXqXqXqXqXqXqXqXqXqXqXqXqXqXqXqXqXqXqX",
"qXqXqXqXqXqXqXqXqXqXqXqXqXqXqXqXqXqXqXqXqXqXqX6 6 w 6 w w w 6 6 6 8 O O &X;X: qXqXqXqXqXqXqXqXqXqXqXqXqXqXqXqXqXqXqXqXqXqXqXqXqX",
"qXqXqXqXqXqXqXqXqXqXqXqXqXqXqXqXqXqXqXqXqXqXqXqXqXqXA I o.H ;X-X-X=XJ ;._ ` E ' R qXqXqXqXqXqXqXqXqXqXqXqXqXqXqXqXqXqXqXqXqXqXqX",
"qXqXqXqXqXqXqXqXqXqXqXqXqXqXqXqXqXqXqXqXqXqXqXqXqXqX..{ <.C &X&X&X=XA ;.` ] K E E qXqXqXqXqXqXqXqXqXqXqXqXqXqXqXqXqXqXqXqXqXqXqX",
"qXqXqXqXqXqXqXqXqXqXqXqXqXqXqXqXqXqXqXqXqXqXqXqXZ ..R.v.M.I p.a.a.p.Z b.v.Q.x.E.K G qXqXqXqXqXqXqXqXqXqXqXqXqXqXqXqXqXqXqXqXqXqX",
"qXqXqXqXqXqXqXqXqXqXqXqXqXqXqXqXqXqXqXqXqXqXqXqX>./.^.N.Y.%.a.a.a.a.B v.v.v.z.D.9.! R qXqXqXqXqXqXqXqXqXqXqXqXqXqXqXqXqXqXqXqXqX",
"qXqXqXqXqXqXqXqXqXqXqXqXqXqXqXqXqXqXqXqXqXqXV &.v.U.v.x.^.T I.a.a.a.A c.~.v.v.x.8.` E R qXqXqXqXqXqXqXqXqXqXqXqXqXqXqXqXqXqXqXqX",
"qXqXqXqXqXqXqXqXqXqXqXqXqXqXqXqXqXqXqXqXqXqX*.M.N.z.p.J.G.S K.a.G.S.A P.I.v.~.v.V.m.~ L R qXqXqXqXqXqXqXqXqXqXqXqXqXqXqXqXqXqXqX",
"qXqXqXqXqXqXqXqXqXqXqXqXqXqXqXqXqXqXqXqXqXqX=.B.~.v.S.L._.0X0XG.a.9XA 0X0XP.K.a.F.v.m.F [ qXqXqXqXqXqXqXqXqXqXqXqXqXqXqXqXqXqXqX",
"qXqXqXqXqXqXqXqXqXqXqXqXqXqXqXqXqXqXqXqXqXqX=.B.~.+.).H.8XZ.0XI.I.K.N ).G.0X+.~.v.l.v.L K qXqXqXqXqXqXqXqXqXqXqXqXqXqXqXqXqXqXqX",
"qXqXqXqXqXqXqXqXqXqXqXqXqXqXqXqXqXqXqXqXqXqX=.B.j.o.K.8XK.A.0Xa.a.L.a.a.).0X6.4.v.z.v.1.E qXqXqXqXqXqXqXqXqXqXqXqXqXqXqXqXqXqXqX",
"qXqXqXqXqXqXqXqXqXqXqXqXqXqXqXqXqXqXqXqXqXqX=.B.h.o.8XL.K.K.0Xa.a.0X0X0X0X0XO.+.W.~.z.w.:.qXqXqXqXqXqXqXqXqXqXqXqXqXqXqXqXqXqXqX",
"qXqXqXqXqXqXqXqXqXqXqXqXqXqXqXqXqXqXqXqXqXqX=.B.k.6.0X0X0X0X0X8XK.0XK.K.K.L.6.] ~.~.s.1.5.qXqXqXqXqXqXqXqXqXqXqXqXqXqXqXqXqXqXqX",
"qXqXqXqXqXqXqXqXqXqXqXqXqXqXqXqXqXqXqXqXqXqX=.B.f.#.K.p.a.a.0XG.p.0XK.a.a.H.#.4.~.v.!.~.i.qXqXqXqXqXqXqXqXqXqXqXqXqXqXqXqXqXqXqX",
"qXqXqXqXqXqXqXqXqXqXqXqXqXqXqXqXqXqXqXqXqXqX=.B.j.0.).K.K.K.0XG.a.0X0X0X0X7X` ] ~.v.x.l.o.qXqXqXqXqXqXqXqXqXqXqXqXqXqXqXqXqXqXqX",
"qXqXqXqXqXqXqXqXqXqXqXqXqXqXqXqXqXqXqXqXqXqXq.B.j.%.K.I.(.a.a.I.a.a.a.a.a.a.%.%.~.v.C.3.%.qXqXqXqXqXqXqXqXqXqXqXqXqXqXqXqXqXqXqX",
"qXqXqXqXqXqXqXqXqXqXqXqXqXqXqXqXqXqXqXqXqXqX=.v.g.O.a.a.a.u.u.(.a.a.a.a.a.v.%.L R.v.v.7.! qXqXqXqXqXqXqXqXqXqXqXqXqXqXqXqXqXqXqX",
"qXqXqXqXqXqXqXqXqXqXqXqXqXqXqXqXqXqXqXqXqXqXq.B.j.#.c.a.a.I.a.a.a.I.I.a.u.~.U U v.v.v.v.L qXqXqXqXqXqXqXqXqXqXqXqXqXqXqXqXqXqXqX",
"qXqXqXqXqXqXqXqXqXqXqXqXqXqXqXqXqXqXqXqXqXqX#.n.d.,.R.T.K.a.a.(.a.(.I.a.u.W.Y Y 0.0.K U #.qXqXqXqXqXqXqXqXqXqXqXqXqXqXqXqXqXqXqX",
"qXqXqXqXqXqXqXqXqXqXqXqXqXqXqXqXqXqXqXqXqXqX..>.o.R ,.0.J.a.u.a.I.u.a.I.I.4.O.#.@...#.Y ..qXqXqXqXqXqXqXqXqXqXqXqXqXqXqXqXqXqXqX",
"qXqXqXqXqXqXqXqXqXqXqXqXqXqXqXqXqXqXqXqXqXqX;X&X&X=XY  .X.e.y.J.E.v.t.2.-.| D =X&X=X;X&X;XqXqXqXqXqXqXqXqXqXqXqXqXqXqXqXqXqXqXqX",
"qXqXqXqXqXqXqXqXqXqXqXqXqXqXqXqXqXqXqXqXqXqX;X&X&X;Xo.} Q / ) / } | / ^ ( W ..=X&X&X&X&X&XqXqXqXqXqXqXqXqXqXqXqXqXqXqXqXqXqXqXqX",
"qXqXqXqXqXqXqXqXqXqXqXqXqXqXqXqXqXqXqXqXqXqX,X<X<X>Xh x n r.( -.( } $.P o.x h >X<X:X>X&X&XqXqXqXqXqXqXqXqXqXqXqXqXqXqXqXqXqXqXqX",
"qXqXqXqXqXqXqXqXqXqXqXqXqXqXqXqXqXqXqXqXqXqX>X<X<X<Xc c `.`.].a c ].].].x x h >X<X<X<X&X&XqXqXqXqXqXqXqXqXqXqXqXqXqXqXqXqXqXqXqX",
"qXqXqXqXqXqXqXqXqXqXqXqXqXqXqXqXqXqXqXqXqXqXqXqX<X<Xc ].].].].a x ].].`.].x x <X<X<X<XqXqXqXqXqXqXqXqXqXqXqXqXqXqXqXqXqXqXqXqXqX",
"qXqXqXqXqXqXqXqXqXqXqXqXqXqXqXqXqXqXqXqXqXqXqXqX>X>X`.]. X].].a a x '.|.].].c >X<X<X>XqXqXqXqXqXqXqXqXqXqXqXqXqXqXqXqXqXqXqXqXqX",
"qXqXqXqXqXqXqXqXqXqXqXqXqXqXqXqXqXqXqXqXqXqXqXqXqXqX]. X].n l i qXqX]. X X`.x a 0XqXqXqXqXqXqXqXqXqXqXqXqXqXqXqXqXqXqXqXqXqXqXqX",
"qXqXqXqXqXqXqXqXqXqXqXqXqXqXqXqXqXqXqXqXqXqXqXqXqXqX]. X X].x x qXqXn ]. X].x a 0XqXqXqXqXqXqXqXqXqXqXqXqXqXqXqXqXqXqXqXqXqXqXqX",
"qXqXqXqXqXqXqXqXqXqXqXqXqXqXqXqXqXqXqXqXqXqXqXqXqXqX'. X X].x a qXqXn  X X].x a qXqXqXqXqXqXqXqXqXqXqXqXqXqXqXqXqXqXqXqXqXqXqXqX",
"qXqXqXqXqXqXqXqXqXqXqXqXqXqXqXqXqXqXqXqXqXqXqXqXqXqX`.].M n x x qXqX`. X].n a a qXqXqXqXqXqXqXqXqXqXqXqXqXqXqXqXqXqXqXqXqXqXqXqX",
"qXqXqXqXqXqXqXqXqXqXqXqXqXqXqXqXqXqXqXqXqXqXqXqXqXqXn }.b v p a qXqXn M M {.a d qXqXqXqXqXqXqXqXqXqXqXqXqXqXqXqXqXqXqXqXqXqXqXqX",
"qXqXqXqXqXqXqXqXqXqXqXqXqXqXqXqXqXqXqXqXqXqXqXqXqXqX[.g f s a a qXqXn g h a a s qXqXqXqXqXqXqXqXqXqXqXqXqXqXqXqXqXqXqXqXqXqXqXqX",
"qXqXqXqXqXqXqXqXqXqXqXqXqXqXqXqXqXqXqXqXqXqXqXqXqXqX].].n k a a qXqX].].j h a a qXqXqXqXqXqXqXqXqXqXqXqXqXqXqXqXqXqXqXqXqXqXqXqX",
"qXqXqXqXqXqXqXqXqXqXqXqXqXqXqXqXqXqXqXqXqXqXqXqXqXqX]. X'.n z a qXqX].].].'.a a qXqXqXqXqXqXqXqXqXqXqXqXqXqXqXqXqXqXqXqXqXqXqXqX",
"qXqXqXqXqXqXqXqXqXqXqXqXqXqXqXqXqXqXqXqXqXqXqXqXqXqX X X].].x a qXqXn  X X].x x qXqXqXqXqXqXqXqXqXqXqXqXqXqXqXqXqXqXqXqXqXqXqXqX",
"qXqXqXqXqXqXqXqXqXqXqXqXqXqXqXqXqXqXqXqXqXqXqXqXqXqX`.`. X].x a qXqX`. X X].x a qXqXqXqXqXqXqXqXqXqXqXqXqXqXqXqXqXqXqXqXqXqXqXqX",
"qXqXqXqXqXqXqXqXqXqXqXqXqXqXqXqXqXqXqXqXqXqXqXqXqXqX].]. X].a x qXqX'. X].].x a qXqXqXqXqXqXqXqXqXqXqXqXqXqXqXqXqXqXqXqXqXqXqXqX",
"qXqXqXqXqXqXqXqXqXqXqXqXqXqXqXqXqXqXqXqXqXqXqXqXqXqX]. X X].a a qXqX]. X].].x a qXqXqXqXqXqXqXqXqXqXqXqXqXqXqXqXqXqXqXqXqXqXqXqX",
"qXqXqXqXqXqXqXqXqXqXqXqXqXqXqXqXqXqXqXqXqXqXqXqXqXqX].].].].x a qXqX].]. X'.x a qXqXqXqXqXqXqXqXqXqXqXqXqXqXqXqXqXqXqXqXqXqXqXqX",
"qXqXqXqXqXqXqXqXqXqXqXqXqXqXqXqXqXqXqXqXqXqXqXqXqXqX].].]. Xx a qXqX].]. X].z a qXqXqXqXqXqXqXqXqXqXqXqXqXqXqXqXqXqXqXqXqXqXqXqX",
"qXqXqXqXqXqXqXqXqXqXqXqXqXqXqXqXqXqXqXqXqXqXqXqXqXqXn  X].m j i qXqXn `.].n j u qXqXqXqXqXqXqXqXqXqXqXqXqXqXqXqXqXqXqXqXqXqXqXqX",
"qXqXqXqXqXqXqXqXqXqXqXqXqXqXqXqXqXqXqXqXqXqXqXqXqXqXXXXXoXXX& = qXqXXXXXXX+X= = qXqXqXqXqXqXqXqXqXqXqXqXqXqXqXqXqXqXqXqXqXqXqXqX",
"qXqXqXqXqXqXqXqXqXqXqXqXqXqXqXqXqXqXqXqXqXqXqXqXqXqXoXXXXX+X& & qXqXOX@XXX+X= = qXqXqXqXqXqXqXqXqXqXqXqXqXqXqXqXqXqXqXqXqXqXqXqX",
"qXqXqXqXqXqXqXqXqXqXqXqXqXqXqXqXqXqXqXqXqXqXqXqX+XoXoXoX& = & OXOXOX+X* & & & = qXqXqXqXqXqXqXqXqXqXqXqXqXqXqXqXqXqXqXqXqXqXqXqX",
"qXqXqXqXqXqXqXqXqXqXqXqXqXqXqXqXqXqXqXqXqXqXqXqX+XoXoX+X= & & XX+XoX+X& = = = - qXqXqXqXqXqXqXqXqXqXqXqXqXqXqXqXqXqXqXqXqXqXqXqX",
"qXqXqXqXqXqXqXqXqXqXqXqXqXqXqXqXqXqXqXqXqXqXqXqX3X3X3X3X$X$X$X3X3X3X4X%X$X$X#X$XqXqXqXqXqXqXqXqXqXqXqXqXqXqXqXqXqXqXqXqXqXqXqXqX",
"qXqXqXqXqXqXqXqXqXqXqXqXqXqXqXqXqXqXqXqXqXqXqXqX3X3X3X3X$X%X$X2X3X3X3X%X$X$X$X$XqXqXqXqXqXqXqXqXqXqXqXqXqXqXqXqXqXqXqXqXqXqXqXqX"
};
