/* XPM */
static char *result[] = {
/* columns rows colors chars-per-pixel */
"64 64 134 2 ",
"   c black",
".  c #010101",
"X  c #010104",
"o  c #020104",
"O  c #020204",
"+  c #020205",
"@  c #030205",
"#  c #050507",
"$  c #070708",
"%  c gray8",
"&  c #161617",
"*  c #18181E",
"=  c #1E1E1E",
"-  c gray12",
";  c #2A1407",
":  c #2C190C",
">  c #2C190D",
",  c #2D190D",
"<  c #2E1A0D",
"1  c #301D11",
"2  c #361F10",
"3  c #371F10",
"4  c #372011",
"5  c #382010",
"6  c #382011",
"7  c #392011",
"8  c #3E2413",
"9  c #3F2414",
"0  c #3F2619",
"q  c #1F1F20",
"w  c #202020",
"e  c gray13",
"r  c #212122",
"t  c #252525",
"y  c #262525",
"u  c #262526",
"i  c gray15",
"p  c #2D2D2D",
"a  c gray22",
"s  c #383839",
"d  c #393939",
"f  c #3C3C3C",
"g  c #3F3F3F",
"h  c #4C2B17",
"j  c #4C2C18",
"k  c #56311B",
"l  c #56321B",
"z  c #56341E",
"x  c #284686",
"c  c #294686",
"v  c #294786",
"b  c #284687",
"n  c #294787",
"m  c #294887",
"M  c #294788",
"N  c #2A4788",
"B  c #294888",
"V  c #2A4888",
"C  c #2B4889",
"Z  c #2B4989",
"A  c #2C4A8A",
"S  c #2E4D8E",
"D  c #365596",
"F  c #375596",
"G  c #375597",
"H  c #375699",
"J  c #375799",
"K  c #385798",
"L  c #39599C",
"P  c #607DC2",
"I  c #607DC4",
"U  c #617EC4",
"Y  c #617EC5",
"T  c #627FC4",
"R  c #6180C4",
"E  c #6281C6",
"W  c #6282C6",
"Q  c #6382C6",
"!  c #6282C7",
"~  c #6382C7",
"^  c #728DC7",
"/  c #738DC8",
"(  c #738EC9",
")  c #748EC8",
"_  c #758EC8",
"`  c #909090",
"'  c gray57",
"]  c #929292",
"[  c gray60",
"{  c #9A9A9A",
"}  c #9D9D9D",
"|  c gray62",
" . c #9F9E9E",
".. c #A3A2A8",
"X. c #A3A2A9",
"o. c #A7A5AC",
"O. c #C2868A",
"+. c #C4878C",
"@. c #C3888C",
"#. c #C4888C",
"$. c #C69496",
"%. c #C69497",
"&. c #C89699",
"*. c #C99699",
"=. c #CD989D",
"-. c #CC999D",
";. c #CD999D",
":. c #CD9A9D",
">. c #CD999E",
",. c #CD9A9E",
"<. c #CF9B9F",
"1. c #D8B2B5",
"2. c #DEB7BB",
"3. c #DFB7BD",
"4. c #DFB8BC",
"5. c #DFB8BD",
"6. c #DFB9BD",
"7. c #DFB9BE",
"8. c #DFBABE",
"9. c #E0B9BD",
"0. c #E0BABE",
"q. c #D6D6D7",
"w. c #D9D9DA",
"e. c #DAD9DA",
"r. c #DADADB",
"t. c gray95",
"y. c #F3F3F3",
"u. c #F5F4F4",
"i. c #F7F5F5",
"p. c #FBF9F8",
"a. c gray98",
"s. c #FDFDFC",
"d. c white",
"f. c None",
/* FILIPPO */
"f.f.f.f.f.f.f.f.f.f.f.f.f.f.f.f.f.f.f.f.f.f.f.f.f.f.f.f.f.f.f.f.f.f.f.f.f.f.f.f.f.f.f.f.f.f.f.f.f.f.f.f.f.f.f.f.f.f.f.f.f.f.f.f.",
"f.f.f.f.f.f.f.f.f.f.f.f.f.f.f.f.f.f.f.f.f.f.f.f.f.f.f.f.f.f.f.f.f.f.f.f.f.f.f.f.f.f.f.f.f.f.f.f.f.f.f.f.f.f.f.f.f.f.f.f.f.f.f.f.",
"f.f.f.f.f.f.f.f.f.f.f.f.f.f.f.f.f.f.f.f.f.f.f.f.f.f.f.f.f.f.f.f.f.f.f.f.f.f.f.f.f.f.f.f.f.f.f.f.f.f.f.f.f.f.f.f.f.f.f.f.f.f.f.f.",
"f.f.f.f.f.f.f.f.f.f.f.f.f.f.f.f.f.f.f.f.f.f.f.f.f.f.f.f.f.f.f.f.f.f.f.f.f.f.f.f.f.f.f.f.f.f.f.f.f.f.f.f.f.f.f.f.f.f.f.f.f.f.f.f.",
"f.f.f.f.f.f.f.f.f.f.f.f.f.f.f.f.f.f.f.f.f.f.f.f.j k j f.k j < > f.f.f.f.f.f.f.f.f.f.f.f.f.f.f.f.f.f.f.f.f.f.f.f.f.f.f.f.f.f.f.f.",
"f.f.f.f.f.f.f.f.f.f.f.f.f.f.f.f.f.f.f.f.f.f.f.j k l j k k z j 3 > > 3 9 f.f.f.f.f.f.f.f.f.f.f.f.f.f.f.f.f.f.f.f.f.f.f.f.f.f.f.f.",
"f.f.f.f.f.f.f.f.f.f.f.f.f.f.f.f.f.f.f.f.f.f.9 k k k k k j k j > > > > > , 9 f.f.f.f.f.f.f.f.f.f.f.f.f.f.f.f.f.f.f.f.f.f.f.f.f.f.",
"f.f.f.f.f.f.f.f.f.f.f.f.f.f.f.f.f.f.f.f.f.f.z l k 7 k l 7 k j j > 8 > > > > 2 f.f.f.f.f.f.f.f.f.f.f.f.f.f.f.f.f.f.f.f.f.f.f.f.f.",
"f.f.f.f.f.f.f.f.f.f.f.f.f.f.f.f.f.f.f.f.f.f.k k 6 7 7 7 7 5 k k j > > > > : 2 3 f.f.f.f.f.f.f.f.f.f.f.f.f.f.f.f.f.f.f.f.f.f.f.f.",
"f.f.f.f.f.f.f.f.f.f.f.f.f.f.f.f.f.f.f.f.f.f.z 2.6.6.6.6.6.6.6.6.6.2 2 : > > > > f.f.f.f.f.f.f.f.f.f.f.f.f.f.f.f.f.f.f.f.f.f.f.f.",
"f.f.f.f.f.f.f.f.f.f.f.f.f.f.f.f.f.f.f.f.f.f.2.2.6.6.6.6.6.6.6.6.6., > > > 2 8 3 f.f.f.f.f.f.f.f.f.f.f.f.f.f.f.f.f.f.f.f.f.f.f.f.",
"f.f.f.f.f.f.f.f.f.f.f.f.f.f.f.f.f.f.f.f.f.f.i.u.1 1 0.0.2.1 1 s.p.;.0 , > &.,., f.f.f.f.f.f.f.f.f.f.f.f.f.f.f.f.f.f.f.f.f.f.f.f.",
"f.f.f.f.f.f.f.f.f.f.f.f.f.f.f.f.f.f.f.f.f.f.a.u.; ; 0.0.0.1 ; s.d.:.:., , &.,.3 f.f.f.f.f.f.f.f.f.f.f.f.f.f.f.f.f.f.f.f.f.f.f.f.",
"f.f.f.f.f.f.f.f.f.f.f.f.f.f.f.f.f.f.f.f.f.f.d.d.h h 0.6.0.j j d.d.<.,.,.0 ,.,.> f.f.f.f.f.f.f.f.f.f.f.f.f.f.f.f.f.f.f.f.f.f.f.f.",
"f.f.f.f.f.f.f.f.f.f.f.f.f.f.f.f.f.f.f.f.f.f.d.d.h h 6.6.0.j j d.d.>.,.,.,.,.*.> f.f.f.f.f.f.f.f.f.f.f.f.f.f.f.f.f.f.f.f.f.f.f.f.",
"f.f.f.f.f.f.f.f.f.f.f.f.f.f.f.f.f.f.f.f.f.f.0.1.0.0.8.8.7.6.8.1.0.=.,.,.,.> > 9 f.f.f.f.f.f.f.f.f.f.f.f.f.f.f.f.f.f.f.f.f.f.f.f.",
"f.f.f.f.f.f.f.f.f.f.f.f.f.f.f.f.f.f.f.f.f.f.1.0.0.0.0.0.0.0.0.0.0.-.,.,.,.> 2 f.f.f.f.f.f.f.f.f.f.f.f.f.f.f.f.f.f.f.f.f.f.f.f.f.",
"f.f.f.f.f.f.f.f.f.f.f.f.f.f.f.f.f.f.f.f.f.f.1.0.7.0.0.0.0.0.0.0.0.$.,.,.,.4 f.f.f.f.f.f.f.f.f.f.f.f.f.f.f.f.f.f.f.f.f.f.f.f.f.f.",
"f.f.f.f.f.f.f.f.f.f.f.f.f.f.f.f.f.f.f.f.f.f.1.9.1.0.0.0.0.1.1.0.1.%.%.,.&.f.f.f.f.f.f.f.f.f.f.f.f.f.f.f.f.f.f.f.f.f.f.f.f.f.f.f.",
"f.f.f.f.f.f.f.f.f.f.f.f.f.f.f.f.f.f.f.f.f.f.f.f.f.%     X +.#.#.@.O           @ f.f.f.f.f.f.f.f.f.f.f.f.f.f.f.f.f.f.f.f.f.f.f.f.",
"f.f.f.f.f.f.f.f.f.f.f.f.f.f.f.f.f.f.f.f.f.f.f.f.f.O     O O.O.O.@.              f.f.f.f.f.f.f.f.f.f.f.f.f.f.f.f.f.f.f.f.f.f.f.f.",
"f.f.f.f.f.f.f.f.f.f.f.f.f.f.f.f.f.f.f.f.f.f.f.    r e r O r r r r   r t r r r     f.f.f.f.f.f.f.f.f.f.f.f.f.f.f.f.f.f.f.f.f.f.f.",
"f.f.f.f.f.f.f.f.f.f.f.f.f.f.f.f.f.f.f.f.f.f.f.  w w t t   t t t w   w t t e y       f.f.f.f.f.f.f.f.f.f.f.f.f.f.f.f.f.f.f.f.f.f.",
"f.f.f.f.f.f.f.f.f.f.f.f.f.f.f.f.f.f.f.f.f.. . w t t t t   e w t w   w w i w y %     @ f.f.f.f.f.f.f.f.f.f.f.f.f.f.f.f.f.f.f.f.f.",
"f.f.f.f.f.f.f.f.f.f.f.f.f.f.f.f.f.f.f.f.f.. w w y y w e   r e w w + w w e r w w r       f.f.f.f.f.f.f.f.f.f.f.f.f.f.f.f.f.f.f.f.",
"f.f.f.f.f.f.f.f.f.f.f.f.f.f.f.f.f.f.f.f.f.. t w X r p p d.d.w w y.# d.d.w X w t w %     f.f.f.f.f.f.f.f.f.f.f.f.f.f.f.f.f.f.f.f.",
"f.f.f.f.f.f.f.f.f.f.f.f.f.f.f.f.f.f.f.f.f.. w r   e w t.q d.w t w $ p r d.% e w w %     f.f.f.f.f.f.f.f.f.f.f.f.f.f.f.f.f.f.f.f.",
"f.f.f.f.f.f.f.f.f.f.f.f.f.f.f.f.f.f.f.f.f.. w =   w t.w r d.t t w e w w d.    w t t r X f.f.f.f.f.f.f.f.f.f.f.f.f.f.f.f.f.f.f.f.",
"f.f.f.f.f.f.f.f.f.f.f.f.f.f.f.f.f.f.f.f.f.. w =   t.w w w d.r r d.d.d.d.d.  % w w w w   f.f.f.f.f.f.f.f.f.f.f.f.f.f.f.f.f.f.f.f.",
"f.f.f.f.f.f.f.f.f.f.f.f.f.f.f.f.f.f.f.f.f.. w =   d.d.d.d.d.t.e d.e e e p     w t t w X f.f.f.f.f.f.f.f.f.f.f.f.f.f.f.f.f.f.f.f.",
"f.f.f.f.f.f.f.f.f.f.f.f.f.f.f.f.f.f.f.f.f.. e -   r w w w d.r e d.r w w e     w w t r X f.f.f.f.f.f.f.f.f.f.f.f.f.f.f.f.f.f.f.f.",
"f.f.f.f.f.f.f.f.f.f.f.f.f.f.f.f.f.f.f.f.f.. w =   p w w w d.w e d.d.d.d.t.    t t w     f.f.f.f.f.f.f.f.f.f.f.f.f.f.f.f.f.f.f.f.",
"f.f.f.f.f.f.f.f.f.f.f.f.f.f.f.f.f.f.f.f.f.. w -   w w w w w w e e w t w w     w w w     f.f.f.f.f.f.f.f.f.f.f.f.f.f.f.f.f.f.f.f.",
"f.f.f.f.f.f.f.f.f.f.f.f.f.f.f.f.f.f.f.f.f.. w -   w w w w w t w w w w w w   % w t t t & f.f.f.f.f.f.f.f.f.f.f.f.f.f.f.f.f.f.f.f.",
"f.f.f.f.f.f.f.f.f.f.f.f.f.f.f.f.f.f.f.f.f.. u     w e w t t w w t w w t w     w w w u * f.f.f.f.f.f.f.f.f.f.f.f.f.f.f.f.f.f.f.f.",
"f.f.f.f.f.f.f.f.f.f.f.f.f.f.f.f.f.f.f.f.f.% % %     r w w w w w w w w w r     X % X %   f.f.f.f.f.f.f.f.f.f.f.f.f.f.f.f.f.f.f.f.",
"f.f.f.f.f.f.f.f.f.f.f.f.f.f.f.f.f.f.f.f.f.    o       r w w t t t t w w %     X % X o   f.f.f.f.f.f.f.f.f.f.f.f.f.f.f.f.f.f.f.f.",
"f.f.f.f.f.f.f.f.f.f.f.f.f.f.f.f.f.f.f.f.f.+.O.O.@.%   r e e e e w e e r     @.O.@.+.O.+.f.f.f.f.f.f.f.f.f.f.f.f.f.f.f.f.f.f.f.f.",
"f.f.f.f.f.f.f.f.f.f.f.f.f.f.f.f.f.f.f.f.f.+.O.O.+.@   X X %   % %     X X % @.O.O.O.O.O.f.f.f.f.f.f.f.f.f.f.f.f.f.f.f.f.f.f.f.f.",
"f.f.f.f.f.f.f.f.f.f.f.f.f.f.f.f.f.f.f.f.f.5.6.6.4.V J U X             o J V 4.6.3.5.O.O.f.f.f.f.f.f.f.f.f.f.f.f.f.f.f.f.f.f.f.f.",
"f.f.f.f.f.f.f.f.f.f.f.f.f.f.f.f.f.f.f.f.f.4.6.6.6.L L E E Q n L Q Q Q J J V 4.6.6.6.O.O.f.f.f.f.f.f.f.f.f.f.f.f.f.f.f.f.f.f.f.f.",
"f.f.f.f.f.f.f.f.f.f.f.f.f.f.f.f.f.f.f.f.f.f.f.6.6.L Q Q Q Q n J Q Q E Q J J 6.6.6.6.f.f.f.f.f.f.f.f.f.f.f.f.f.f.f.f.f.f.f.f.f.f.",
"f.f.f.f.f.f.f.f.f.f.f.f.f.f.f.f.f.f.f.f.f.f.f.4.4.E Q ) Q Q n n J W ( Q Q L 4.6.6.4.f.f.f.f.f.f.f.f.f.f.f.f.f.f.f.f.f.f.f.f.f.f.",
"f.f.f.f.f.f.f.f.f.f.f.f.f.f.f.f.f.f.f.f.f.f.f.f.f.Q ) Q U G c f.f.Q ) ) E J n f.f.f.f.f.f.f.f.f.f.f.f.f.f.f.f.f.f.f.f.f.f.f.f.f.",
"f.f.f.f.f.f.f.f.f.f.f.f.f.f.f.f.f.f.f.f.f.f.f.f.f.Q ) ) Q J J f.f.U Q ) Q J n f.f.f.f.f.f.f.f.f.f.f.f.f.f.f.f.f.f.f.f.f.f.f.f.f.",
"f.f.f.f.f.f.f.f.f.f.f.f.f.f.f.f.f.f.f.f.f.f.f.f.f.W ) ) Q J n f.f.U ) ) Q J v f.f.f.f.f.f.f.f.f.f.f.f.f.f.f.f.f.f.f.f.f.f.f.f.f.",
"f.f.f.f.f.f.f.f.f.f.f.f.f.f.f.f.f.f.f.f.f.f.f.f.f.E Q T U J J f.f.E ) Q U n n f.f.f.f.f.f.f.f.f.f.f.f.f.f.f.f.f.f.f.f.f.f.f.f.f.",
"f.f.f.f.f.f.f.f.f.f.f.f.f.f.f.f.f.f.f.f.f.f.f.f.f.U / I P b n f.f.U T T ^ n M f.f.f.f.f.f.f.f.f.f.f.f.f.f.f.f.f.f.f.f.f.f.f.f.f.",
"f.f.f.f.f.f.f.f.f.f.f.f.f.f.f.f.f.f.f.f.f.f.f.f.f.! B N m n n f.f.R S Z C n m f.f.f.f.f.f.f.f.f.f.f.f.f.f.f.f.f.f.f.f.f.f.f.f.f.",
"f.f.f.f.f.f.f.f.f.f.f.f.f.f.f.f.f.f.f.f.f.f.f.f.f.Q Q U F n n f.f.~ Q K A n n f.f.f.f.f.f.f.f.f.f.f.f.f.f.f.f.f.f.f.f.f.f.f.f.f.",
"f.f.f.f.f.f.f.f.f.f.f.f.f.f.f.f.f.f.f.f.f.f.f.f.f.Q ) W U H n f.f.Q Q Q W n n f.f.f.f.f.f.f.f.f.f.f.f.f.f.f.f.f.f.f.f.f.f.f.f.f.",
"f.f.f.f.f.f.f.f.f.f.f.f.f.f.f.f.f.f.f.f.f.f.f.f.f.) ) Q Q J n f.f.U ) ) Q J J f.f.f.f.f.f.f.f.f.f.f.f.f.f.f.f.f.f.f.f.f.f.f.f.f.",
"f.f.f.f.f.f.f.f.f.f.f.f.f.f.f.f.f.f.f.f.f.f.f.f.f.E E ) Q J n f.f.E ) ) Q J n f.f.f.f.f.f.f.f.f.f.f.f.f.f.f.f.f.f.f.f.f.f.f.f.f.",
"f.f.f.f.f.f.f.f.f.f.f.f.f.f.f.f.f.f.f.f.f.f.f.f.f.Q Q ) Q n J f.f.W ) Q Q J n f.f.f.f.f.f.f.f.f.f.f.f.f.f.f.f.f.f.f.f.f.f.f.f.f.",
"f.f.f.f.f.f.f.f.f.f.f.f.f.f.f.f.f.f.f.f.f.f.f.f.f.Q ) ) Q n n f.f.Q ) Q Q J n f.f.f.f.f.f.f.f.f.f.f.f.f.f.f.f.f.f.f.f.f.f.f.f.f.",
"f.f.f.f.f.f.f.f.f.f.f.f.f.f.f.f.f.f.f.f.f.f.f.f.f.Q Q Q Q J n f.f.Q Q _ ! J n f.f.f.f.f.f.f.f.f.f.f.f.f.f.f.f.f.f.f.f.f.f.f.f.f.",
"f.f.f.f.f.f.f.f.f.f.f.f.f.f.f.f.f.f.f.f.f.f.f.f.f.Q Q Q ) J n f.f.Q Q ) Q H n f.f.f.f.f.f.f.f.f.f.f.f.f.f.f.f.f.f.f.f.f.f.f.f.f.",
"f.f.f.f.f.f.f.f.f.f.f.f.f.f.f.f.f.f.f.f.f.f.f.f.f.U ) Q Y D c f.f.U E Q U D x f.f.f.f.f.f.f.f.f.f.f.f.f.f.f.f.f.f.f.f.f.f.f.f.f.",
"f.f.f.f.f.f.f.f.f.f.f.f.f.f.f.f.f.f.f.f.f.f.f.f.f.] ' [ ' a f f.f.' ` ' | f f f.f.f.f.f.f.f.f.f.f.f.f.f.f.f.f.f.f.f.f.f.f.f.f.f.",
"f.f.f.f.f.f.f.f.f.f.f.f.f.f.f.f.f.f.f.f.f.f.f.f.f.[ ' ` } a d f.f.{  .' | f f f.f.f.f.f.f.f.f.f.f.f.f.f.f.f.f.f.f.f.f.f.f.f.f.f.",
"f.f.f.f.f.f.f.f.f.f.f.f.f.f.f.f.f.f.f.f.f.f.f.| [ [ [ a f a { { { | s a a a f f.f.f.f.f.f.f.f.f.f.f.f.f.f.f.f.f.f.f.f.f.f.f.f.f.",
"f.f.f.f.f.f.f.f.f.f.f.f.f.f.f.f.f.f.f.f.f.f.f.| [ [ | f a a ' | [ | a f f f g f.f.f.f.f.f.f.f.f.f.f.f.f.f.f.f.f.f.f.f.f.f.f.f.f.",
"f.f.f.f.f.f.f.f.f.f.f.f.f.f.f.f.f.f.f.f.f.f.f.w.w.w.w.X.X.X.w.w.r.e.o.X.X...X.f.f.f.f.f.f.f.f.f.f.f.f.f.f.f.f.f.f.f.f.f.f.f.f.f.",
"f.f.f.f.f.f.f.f.f.f.f.f.f.f.f.f.f.f.f.f.f.f.f.w.w.w.w.X.o.X.q.w.w.w.o.X.X.X.X.f.f.f.f.f.f.f.f.f.f.f.f.f.f.f.f.f.f.f.f.f.f.f.f.f."
};
