/* XPM */
static char *result[] = {
/* columns rows colors chars-per-pixel */
"64 64 161 2 ",
"   c black",
".  c #010101",
"X  c #010104",
"o  c #020104",
"O  c #020204",
"+  c #020205",
"@  c #030205",
"#  c #070708",
"$  c gray8",
"%  c #161617",
"&  c #18181E",
"*  c #1E1E1E",
"=  c gray12",
"-  c #1F1F20",
";  c #202020",
":  c gray13",
">  c #212122",
",  c #252525",
"<  c #262525",
"1  c #262526",
"2  c gray15",
"3  c gray22",
"4  c #383839",
"5  c #393939",
"6  c #3C3C3C",
"7  c #3F3F3F",
"8  c #795938",
"9  c #7A5938",
"0  c #7A5A38",
"q  c #7B5A39",
"w  c #7C5A39",
"e  c #7F5D3A",
"r  c #7F5E3B",
"t  c #30576C",
"y  c #2E5870",
"u  c #805E3B",
"i  c #825F3C",
"p  c #8B6744",
"a  c #8C6744",
"s  c #8C6844",
"d  c #926C46",
"f  c #926C47",
"g  c #996F47",
"h  c #987047",
"j  c #997047",
"k  c #9A7048",
"l  c #9A7148",
"z  c #9C7249",
"x  c #9E734A",
"c  c #405E9D",
"v  c #405F9E",
"b  c #425F9E",
"n  c #41609E",
"m  c #42609E",
"M  c #42609F",
"N  c #43619F",
"B  c #4260A0",
"V  c #4261A0",
"C  c #4361A0",
"Z  c #4262A0",
"A  c #4462A1",
"S  c #4665A3",
"D  c #4B69AB",
"F  c #4C69AB",
"G  c #4C6BAC",
"H  c #4C6AAD",
"J  c #4C6BAD",
"K  c #4C6BAE",
"L  c #4D6CAF",
"P  c #5471B1",
"I  c #5B77B9",
"U  c #5B79BA",
"Y  c #5C79BA",
"T  c #617EC4",
"R  c #49809E",
"E  c #4A809E",
"W  c #4481A4",
"Q  c #4581A4",
"!  c #6581C2",
"~  c #6180C4",
"^  c #6281C6",
"/  c #6282C6",
"(  c #6382C6",
")  c #6986CA",
"_  c #6986CB",
"`  c #6A86CA",
"'  c #6A87CA",
"]  c #6A89CB",
"[  c #6B89CB",
"{  c #6A88CC",
"}  c #6A89CC",
"|  c #6B89CC",
" . c #728DC7",
".. c #708CCE",
"X. c #7691CD",
"o. c #7791CD",
"O. c #7792CD",
"+. c #708DD0",
"@. c #708ED0",
"#. c #718ED0",
"$. c #718FD2",
"%. c #7290D3",
"&. c #7490D1",
"*. c #7491D3",
"=. c #7591D3",
"-. c #7592D3",
";. c #7694D6",
":. c #7794D6",
">. c #7A96D3",
",. c #7B97D4",
"<. c #7996D7",
"1. c #7C98D7",
"2. c #7D98D7",
"3. c #7996D8",
"4. c #7997D8",
"5. c #7A96D8",
"6. c #7A97D8",
"7. c #7D9AD8",
"8. c #7E9AD8",
"9. c #7F9BDB",
"0. c #7E9BDD",
"q. c #7F9CDC",
"w. c #909090",
"e. c gray57",
"r. c #929292",
"t. c gray60",
"y. c #9A9A9A",
"u. c #9D9D9D",
"i. c gray62",
"p. c #9F9E9E",
"a. c #A3A2A8",
"s. c #A3A2A9",
"d. c #A7A5AC",
"f. c #C2868A",
"g. c #C4878C",
"h. c #C3888C",
"j. c #C4888C",
"k. c #C08E91",
"l. c #C28F91",
"z. c #C08E92",
"x. c #C79499",
"c. c #C8959A",
"v. c #DFB7BD",
"b. c #DFB8BC",
"n. c #DFB9BC",
"m. c #DFB8BD",
"M. c #DFB9BD",
"N. c #E0BABE",
"B. c #809DDD",
"V. c #829FDF",
"C. c #D6D6D7",
"Z. c #D9D9DA",
"A. c #DAD9DA",
"S. c #DADADB",
"D. c #EBE9E9",
"F. c #ECEAEA",
"G. c #F9F3EF",
"H. c gray95",
"J. c #FFFDFB",
"K. c white",
"L. c None",
/* MARIO */
"L.L.L.L.L.L.L.L.L.L.L.L.L.L.L.L.L.L.L.L.L.L.L.L.L.L.L.L.L.L.L.L.L.L.L.L.L.L.L.L.L.L.L.L.L.L.L.L.L.L.L.L.L.L.L.L.L.L.L.L.L.L.L.L.",
"L.L.L.L.L.L.L.L.L.L.L.L.L.L.L.L.L.L.L.L.L.L.L.L.L.L.L.L.L.L.L.L.L.L.L.L.L.L.L.L.L.L.L.L.L.L.L.L.L.L.L.L.L.L.L.L.L.L.L.L.L.L.L.L.",
"L.L.L.L.L.L.L.L.L.L.L.L.L.L.L.L.L.L.L.L.L.L.L.L.L.L.L.L.L.L.L.L.L.L.L.L.L.L.L.L.L.L.L.L.L.L.L.L.L.L.L.L.L.L.L.L.L.L.L.L.L.L.L.L.",
"L.L.L.L.L.L.L.L.L.L.L.L.L.L.L.L.L.L.L.L.L.L.L.L.L.s s s f f f s f d e 0 u L.L.L.L.L.L.L.L.L.L.L.L.L.L.L.L.L.L.L.L.L.L.L.L.L.L.L.",
"L.L.L.L.L.L.L.L.L.L.L.L.L.L.L.L.L.L.L.L.L.L.L.q q s f s 9 9 s s a f e 0 9 9 L.L.e L.L.L.L.L.L.L.L.L.L.L.L.L.L.L.L.L.L.L.L.L.L.L.",
"L.L.L.L.L.L.L.L.L.L.L.L.L.L.L.L.L.L.L.L.L.L.f p s s q q q q q a a p a s d 9 9 9 u e L.L.L.L.L.L.L.L.L.L.L.L.L.L.L.L.L.L.L.L.L.L.",
"L.L.L.L.L.L.L.L.L.L.L.L.L.L.L.L.L.L.L.L.L.L.d z z x x j h 9 u a q s q 9 f 9 9 9 r L.L.L.L.L.L.L.L.L.L.L.L.L.L.L.L.L.L.L.L.L.L.L.",
"L.L.L.L.L.L.L.L.L.L.L.L.L.L.L.L.L.L.L.L.l k z z w w z z x i 9 d f q 9 9 q u 9 9 9 e L.L.L.L.L.L.L.L.L.L.L.L.L.L.L.L.L.L.L.L.L.L.",
"L.L.L.L.L.L.L.L.L.L.L.L.L.L.L.L.L.L.L.L.z z z w w w w x j z x h j l u 9 9 9 9 9 u 9 L.L.L.L.L.L.L.L.L.L.L.L.L.L.L.L.L.L.L.L.L.L.",
"L.L.L.L.L.L.L.L.L.L.L.L.L.L.L.L.L.L.L.L.z l s x.c.x.x.k k h x w w l e 9 9 9 9 u 9 e L.L.L.L.L.L.L.L.L.L.L.L.L.L.L.L.L.L.L.L.L.L.",
"L.L.L.L.L.L.L.L.L.L.L.L.L.L.L.L.L.L.L.L.z l 9 x.c.c.c.l w w w w w h x h 9 9 9 e 9 u L.L.L.L.L.L.L.L.L.L.L.L.L.L.L.L.L.L.L.L.L.L.",
"L.L.L.L.L.L.L.L.L.L.L.L.L.L.L.L.L.L.L.L.L.s 9 F.D.t y x.c.x.t t h h w x j e k.x.9 9 L.L.L.L.L.L.L.L.L.L.L.L.L.L.L.L.L.L.L.L.L.L.",
"L.L.L.L.L.L.L.L.L.L.L.L.L.L.L.L.L.L.L.L.L.L.0 F.D.t y x.c.x.t t J.G.w j g e x.c.9 9 L.L.L.L.L.L.L.L.L.L.L.L.L.L.L.L.L.L.L.L.L.L.",
"L.L.L.L.L.L.L.L.L.L.L.L.L.L.L.L.L.L.L.L.L.L.L.K.K.R W N.M.M.E Q K.K.c.c.l.k.z.x.e L.L.L.L.L.L.L.L.L.L.L.L.L.L.L.L.L.L.L.L.L.L.L.",
"L.L.L.L.L.L.L.L.L.L.L.L.L.L.L.L.L.L.L.L.L.L.L.K.K.R R M.M.N.R W K.K.c.c.c.k.x.z.9 L.L.L.L.L.L.L.L.L.L.L.L.L.L.L.L.L.L.L.L.L.L.L.",
"L.L.L.L.L.L.L.L.L.L.L.L.L.L.L.L.L.L.L.L.L.L.L.N.N.M.M.M.M.M.M.M.N.N.c.c.c.x.8 9 L.L.L.L.L.L.L.L.L.L.L.L.L.L.L.L.L.L.L.L.L.L.L.L.",
"L.L.L.L.L.L.L.L.L.L.L.L.L.L.L.L.L.L.L.L.L.L.L.M.M.M.M.M.M.M.M.M.M.N.c.c.c.c.e L.L.L.L.L.L.L.L.L.L.L.L.L.L.L.L.L.L.L.L.L.L.L.L.L.",
"L.L.L.L.L.L.L.L.L.L.L.L.L.L.L.L.L.L.L.L.L.L.L.b.M.M.M.M.M.M.M.M.M.M.x.c.c.c.L.L.L.L.L.L.L.L.L.L.L.L.L.L.L.L.L.L.L.L.L.L.L.L.L.L.",
"L.L.L.L.L.L.L.L.L.L.L.L.L.L.L.L.L.L.L.L.L.L.L.b.M.n.M.M.M.M.M.M.M.M.k.c.c.x.L.L.L.L.L.L.L.L.L.L.L.L.L.L.L.L.L.L.L.L.L.L.L.L.L.L.",
"L.L.L.L.L.L.L.L.L.L.L.L.L.L.L.L.L.L.L.L.L.L.L.L.L.L.$     X g.j.j.h.O           @ L.L.L.L.L.L.L.L.L.L.L.L.L.L.L.L.L.L.L.L.L.L.L.",
"L.L.L.L.L.L.L.L.L.L.L.L.L.L.L.L.L.L.L.L.L.L.L.L.L.L.O     O f.f.f.h.              L.L.L.L.L.L.L.L.L.L.L.L.L.L.L.L.L.L.L.L.L.L.L.",
"L.L.L.L.L.L.L.L.L.L.L.L.L.L.L.L.L.L.L.L.L.L.L.L.    > : > O > > > >   > , > > >     L.L.L.L.L.L.L.L.L.L.L.L.L.L.L.L.L.L.L.L.L.L.",
"L.L.L.L.L.L.L.L.L.L.L.L.L.L.L.L.L.L.L.L.L.L.L.L.  ; ; , ,   , , , ;   ; , , : <       L.L.L.L.L.L.L.L.L.L.L.L.L.L.L.L.L.L.L.L.L.",
"L.L.L.L.L.L.L.L.L.L.L.L.L.L.L.L.L.L.L.L.L.L.. . ; , , , ,   : ; , ;   ; ; 2 ; < $     @ L.L.L.L.L.L.L.L.L.L.L.L.L.L.L.L.L.L.L.L.",
"L.L.L.L.L.L.L.L.L.L.L.L.L.L.L.L.L.L.L.L.L.L.. ; ; < < ; :   > : ; ; + ; ; : > ; ; >       L.L.L.L.L.L.L.L.L.L.L.L.L.L.L.L.L.L.L.",
"L.L.L.L.L.L.L.L.L.L.L.L.L.L.L.L.L.L.L.L.L.L.. , ; X > 2 2 K.K., ; H.. K.K.; X ; , ; $     L.L.L.L.L.L.L.L.L.L.L.L.L.L.L.L.L.L.L.",
"L.L.L.L.L.L.L.L.L.L.L.L.L.L.L.L.L.L.L.L.L.L.. ; >   , , H.- K., , , # , , K.$ : ; ; $     L.L.L.L.L.L.L.L.L.L.L.L.L.L.L.L.L.L.L.",
"L.L.L.L.L.L.L.L.L.L.L.L.L.L.L.L.L.L.L.L.L.L.. ; *   , H.; > K., , , , , , K.    ; , , > X L.L.L.L.L.L.L.L.L.L.L.L.L.L.L.L.L.L.L.",
"L.L.L.L.L.L.L.L.L.L.L.L.L.L.L.L.L.L.L.L.L.L.. ; *   H., , , K.> , K.K.K.K.K.  $ ; ; ; ;   L.L.L.L.L.L.L.L.L.L.L.L.L.L.L.L.L.L.L.",
"L.L.L.L.L.L.L.L.L.L.L.L.L.L.L.L.L.L.L.L.L.L.. ; *   K.K.K.K.K.H., K., , , 2     ; , , ; X L.L.L.L.L.L.L.L.L.L.L.L.L.L.L.L.L.L.L.",
"L.L.L.L.L.L.L.L.L.L.L.L.L.L.L.L.L.L.L.L.L.L.. : =   > ; , , K.> : K.> ; , :     ; ; , > X L.L.L.L.L.L.L.L.L.L.L.L.L.L.L.L.L.L.L.",
"L.L.L.L.L.L.L.L.L.L.L.L.L.L.L.L.L.L.L.L.L.L.. ; *   , , , , K.> : K.K.K.K.H.    , , ;     L.L.L.L.L.L.L.L.L.L.L.L.L.L.L.L.L.L.L.",
"L.L.L.L.L.L.L.L.L.L.L.L.L.L.L.L.L.L.L.L.L.L.. ; =   ; ; ; , , ; : , ; , ; ;     ; ; ;     L.L.L.L.L.L.L.L.L.L.L.L.L.L.L.L.L.L.L.",
"L.L.L.L.L.L.L.L.L.L.L.L.L.L.L.L.L.L.L.L.L.L.. ; =   ; ; ; ; ; , ; ; ; ; ; ;   $ ; , , , % L.L.L.L.L.L.L.L.L.L.L.L.L.L.L.L.L.L.L.",
"L.L.L.L.L.L.L.L.L.L.L.L.L.L.L.L.L.L.L.L.L.L.. 1     ; : ; , , ; ; , ; ; , ;     ; ; ; 1 & L.L.L.L.L.L.L.L.L.L.L.L.L.L.L.L.L.L.L.",
"L.L.L.L.L.L.L.L.L.L.L.L.L.L.L.L.L.L.L.L.L.L.$ $ $     > ; ; ; ; ; ; ; ; ; >     X $ X $   L.L.L.L.L.L.L.L.L.L.L.L.L.L.L.L.L.L.L.",
"L.L.L.L.L.L.L.L.L.L.L.L.L.L.L.L.L.L.L.L.L.L.    o       > ; ; , , , , ; ; $     X $ X o   L.L.L.L.L.L.L.L.L.L.L.L.L.L.L.L.L.L.L.",
"L.L.L.L.L.L.L.L.L.L.L.L.L.L.L.L.L.L.L.L.L.L.x.c.c.c.$   > : : : : ; : : >     c.c.c.c.c.x.L.L.L.L.L.L.L.L.L.L.L.L.L.L.L.L.L.L.L.",
"L.L.L.L.L.L.L.L.L.L.L.L.L.L.L.L.L.L.L.L.L.L.x.c.c.c.@   X X $   $ $     X X $ x.c.c.x.c.c.L.L.L.L.L.L.L.L.L.L.L.L.L.L.L.L.L.L.L.",
"L.L.L.L.L.L.L.L.L.L.L.L.L.L.L.L.L.L.L.L.L.L.m.M.M.b.n J ) X             o J C b.M.v.m.c.c.L.L.L.L.L.L.L.L.L.L.L.L.L.L.L.L.L.L.L.",
"L.L.L.L.L.L.L.L.L.L.L.L.L.L.L.L.L.L.L.L.L.L.b.M.M.M.L L +.+.| M K ( ( [ J J C b.M.M.M.x.x.L.L.L.L.L.L.L.L.L.L.L.L.L.L.L.L.L.L.L.",
"L.L.L.L.L.L.L.L.L.L.L.L.L.L.L.L.L.L.L.L.L.L.L.L.M.M.K | :.:.| M J | #.+.| J J M.M.M.M.L.L.L.L.L.L.L.L.L.L.L.L.L.L.L.L.L.L.L.L.L.",
"L.L.L.L.L.L.L.L.L.L.L.L.L.L.L.L.L.L.L.L.L.L.L.L.b.b.^ %.2.:.| M M J ] >.#.| L b.M.M.b.L.L.L.L.L.L.L.L.L.L.L.L.L.L.L.L.L.L.L.L.L.",
"L.L.L.L.L.L.L.L.L.L.L.L.L.L.L.L.L.L.L.L.L.L.L.L.L.L.( ,.6.&.I c L.L.( 8.9.+.J v L.L.L.L.L.L.L.L.L.L.L.L.L.L.L.L.L.L.L.L.L.L.L.L.",
"L.L.L.L.L.L.L.L.L.L.L.L.L.L.L.L.L.L.L.L.L.L.L.L.L.L.( 8.8.#.Y J L.L.T 0.V.6.J M L.L.L.L.L.L.L.L.L.L.L.L.L.L.L.L.L.L.L.L.L.L.L.L.",
"L.L.L.L.L.L.L.L.L.L.L.L.L.L.L.L.L.L.L.L.L.L.L.L.L.L.} 8.2.| U M L.L.T q.B.:.J m L.L.L.L.L.L.L.L.L.L.L.L.L.L.L.L.L.L.L.L.L.L.L.L.",
"L.L.L.L.L.L.L.L.L.L.L.L.L.L.L.L.L.L.L.L.L.L.L.L.L.L.{ ;.<...J J L.L.^ ,.;.` M M L.L.L.L.L.L.L.L.L.L.L.L.L.L.L.L.L.L.L.L.L.L.L.L.",
"L.L.L.L.L.L.L.L.L.L.L.L.L.L.L.L.L.L.L.L.L.L.L.L.L.L.` X._ ) B V L.L.T ' '  .V B L.L.L.L.L.L.L.L.L.L.L.L.L.L.L.L.L.L.L.L.L.L.L.L.",
"L.L.L.L.L.L.L.L.L.L.L.L.L.L.L.L.L.L.L.L.L.L.L.L.L.L.{ N C Z V V L.L.~ S A V V M L.L.L.L.L.L.L.L.L.L.L.L.L.L.L.L.L.L.L.L.L.L.L.L.",
"L.L.L.L.L.L.L.L.L.L.L.L.L.L.L.L.L.L.L.L.L.L.L.L.L.L.| %.` F M M L.L.} | G A M M L.L.L.L.L.L.L.L.L.L.L.L.L.L.L.L.L.L.L.L.L.L.L.L.",
"L.L.L.L.L.L.L.L.L.L.L.L.L.L.L.L.L.L.L.L.L.L.L.L.L.L.| 8.4.` H M L.L.( | | } M v L.L.L.L.L.L.L.L.L.L.L.L.L.L.L.L.L.L.L.L.L.L.L.L.",
"L.L.L.L.L.L.L.L.L.L.L.L.L.L.L.L.L.L.L.L.L.L.L.L.L.L.o.8.6.#.U M L.L.T 2.7.*.J J L.L.L.L.L.L.L.L.L.L.L.L.L.L.L.L.L.L.L.L.L.L.L.L.",
"L.L.L.L.L.L.L.L.L.L.L.L.L.L.L.L.L.L.L.L.L.L.L.L.L.L.{ 3.8.#.U M L.L.^ ,.7.-.J M L.L.L.L.L.L.L.L.L.L.L.L.L.L.L.L.L.L.L.L.L.L.L.L.",
"L.L.L.L.L.L.L.L.L.L.L.L.L.L.L.L.L.L.L.L.L.L.L.L.L.L.| 6.8.:.P J L.L./ ,.:.=.! M L.L.L.L.L.L.L.L.L.L.L.L.L.L.L.L.L.L.L.L.L.L.L.L.",
"L.L.L.L.L.L.L.L.L.L.L.L.L.L.L.L.L.L.L.L.L.L.L.L.L.L.] 8.8.:.P M L.L.( 2.:.#.U M L.L.L.L.L.L.L.L.L.L.L.L.L.L.L.L.L.L.L.L.L.L.L.L.",
"L.L.L.L.L.L.L.L.L.L.L.L.L.L.L.L.L.L.L.L.L.L.L.L.L.L.| 5.5.%.J M L.L.| :.2.@.J M L.L.L.L.L.L.L.L.L.L.L.L.L.L.L.L.L.L.L.L.L.L.L.L.",
"L.L.L.L.L.L.L.L.L.L.L.L.L.L.L.L.L.L.L.L.L.L.L.L.L.L.| @.:.,.J M L.L.| :.1.( H M L.L.L.L.L.L.L.L.L.L.L.L.L.L.L.L.L.L.L.L.L.L.L.L.",
"L.L.L.L.L.L.L.L.L.L.L.L.L.L.L.L.L.L.L.L.L.L.L.L.L.L.) O.%.$.D b L.L.` { | ` D c L.L.L.L.L.L.L.L.L.L.L.L.L.L.L.L.L.L.L.L.L.L.L.L.",
"L.L.L.L.L.L.L.L.L.L.L.L.L.L.L.L.L.L.L.L.L.L.L.L.L.L.r.e.t.e.3 6 L.L.e.w.e.i.6 6 L.L.L.L.L.L.L.L.L.L.L.L.L.L.L.L.L.L.L.L.L.L.L.L.",
"L.L.L.L.L.L.L.L.L.L.L.L.L.L.L.L.L.L.L.L.L.L.L.L.L.L.t.e.w.u.3 5 L.L.y.p.e.i.6 6 L.L.L.L.L.L.L.L.L.L.L.L.L.L.L.L.L.L.L.L.L.L.L.L.",
"L.L.L.L.L.L.L.L.L.L.L.L.L.L.L.L.L.L.L.L.L.L.L.L.i.t.t.t.3 6 3 y.y.y.i.4 3 3 3 6 L.L.L.L.L.L.L.L.L.L.L.L.L.L.L.L.L.L.L.L.L.L.L.L.",
"L.L.L.L.L.L.L.L.L.L.L.L.L.L.L.L.L.L.L.L.L.L.L.L.i.t.t.i.6 3 3 e.i.t.i.3 6 6 6 7 L.L.L.L.L.L.L.L.L.L.L.L.L.L.L.L.L.L.L.L.L.L.L.L.",
"L.L.L.L.L.L.L.L.L.L.L.L.L.L.L.L.L.L.L.L.L.L.L.L.Z.Z.Z.Z.s.s.s.Z.Z.S.A.d.s.s.a.s.L.L.L.L.L.L.L.L.L.L.L.L.L.L.L.L.L.L.L.L.L.L.L.L.",
"L.L.L.L.L.L.L.L.L.L.L.L.L.L.L.L.L.L.L.L.L.L.L.L.Z.Z.Z.Z.s.d.s.C.Z.Z.Z.d.s.s.s.s.L.L.L.L.L.L.L.L.L.L.L.L.L.L.L.L.L.L.L.L.L.L.L.L."
};
