/* XPM */
static char *result[] = {
/* columns rows colors chars-per-pixel */
"64 64 186 2 ",
"   c black",
".  c #010101",
"X  c #010104",
"o  c #020104",
"O  c #020204",
"+  c #020205",
"@  c #030205",
"#  c #070708",
"$  c gray8",
"%  c #161617",
"&  c #18181E",
"*  c #1E1E1E",
"=  c gray12",
"-  c #1F1F20",
";  c #202020",
":  c gray13",
">  c #212122",
",  c #252525",
"<  c #262525",
"1  c #262526",
"2  c gray15",
"3  c #323232",
"4  c gray22",
"5  c #383839",
"6  c #393939",
"7  c #3C3C3C",
"8  c #3F3F3F",
"9  c #C9A16A",
"0  c #D1A469",
"q  c #D0A56D",
"w  c #D3AA71",
"e  c #D3AB71",
"r  c #D4AB73",
"t  c #D6AD74",
"y  c #D6AD75",
"u  c #D6AE77",
"i  c #D8AF77",
"p  c #D9B076",
"a  c #DAB076",
"s  c #D8B078",
"d  c #DAB178",
"f  c #DBB178",
"g  c #DDB47A",
"h  c #DDB57B",
"j  c #DEB57A",
"k  c #DEB57B",
"l  c #DFB67B",
"z  c #DEB57C",
"x  c #DFB77D",
"c  c #E2B579",
"v  c #E1B77C",
"b  c #E0B87B",
"n  c #E1B87C",
"m  c #E1B87D",
"M  c #E0B87E",
"N  c #E2BA7F",
"B  c #E5BA7D",
"V  c #E4BB7E",
"C  c #E5BB7F",
"Z  c #E9BD7F",
"A  c #284686",
"S  c #294686",
"D  c #294786",
"F  c #284687",
"G  c #294787",
"H  c #294887",
"J  c #294788",
"K  c #2A4788",
"L  c #294888",
"P  c #2A4888",
"I  c #2B4889",
"U  c #2B4989",
"Y  c #2C4A8A",
"T  c #2E4D8E",
"R  c #365596",
"E  c #375596",
"W  c #375597",
"Q  c #375699",
"!  c #375799",
"~  c #385798",
"^  c #39599C",
"/  c #607DC2",
"(  c #607DC4",
")  c #617EC4",
"_  c #617EC5",
"`  c #627FC4",
"'  c #6180C4",
"]  c #6281C6",
"[  c #6282C6",
"{  c #6382C6",
"}  c #6282C7",
"|  c #6382C7",
" . c #728DC7",
".. c #738DC8",
"X. c #738EC9",
"o. c #748EC8",
"O. c #758EC8",
"+. c #909090",
"@. c gray57",
"#. c #929292",
"$. c gray60",
"%. c #9A9A9A",
"&. c #9D9D9D",
"*. c gray62",
"=. c #9F9E9E",
"-. c #A3A2A8",
";. c #A3A2A9",
":. c #A7A5AC",
">. c #C2868A",
",. c #C4878C",
"<. c #C3888C",
"1. c #C4888C",
"2. c #C89699",
"3. c #C99699",
"4. c #CD989C",
"5. c #CD989D",
"6. c #CC999D",
"7. c #CD999D",
"8. c #CD9A9D",
"9. c #CD999E",
"0. c #CD9A9E",
"q. c #CD9B9E",
"w. c #CE9A9F",
"e. c #CE9B9F",
"r. c #CF9B9F",
"t. c #E5BB80",
"y. c #E5BB81",
"u. c #E6BD83",
"i. c #E7BE84",
"p. c #E9BF82",
"a. c #E9BF84",
"s. c #DEB7BB",
"d. c #DFB7BD",
"f. c #DFB8BC",
"g. c #DFB8BD",
"h. c #DFB9BD",
"j. c #DFBABD",
"k. c #E0BABD",
"l. c #E0BABE",
"z. c #E9C082",
"x. c #E9C083",
"c. c #E8C084",
"v. c #E9C188",
"b. c #EBC288",
"n. c #EDC488",
"m. c #F0C485",
"M. c #F0C586",
"N. c #F0C68A",
"B. c #F3C889",
"V. c #F7CB8B",
"C. c #F1C88C",
"Z. c #F2C88C",
"A. c #F3C88C",
"S. c #F3C98D",
"D. c #F3CA8D",
"F. c #F4CB8E",
"G. c #F9CC8C",
"H. c #F7CE92",
"J. c #F7CE96",
"K. c #F8CE91",
"L. c #FAD092",
"P. c #FCD090",
"I. c #FDD293",
"U. c #FCD194",
"Y. c #FFD396",
"T. c #FBD399",
"R. c #FFD398",
"E. c #90B6CC",
"W. c #91B6CC",
"Q. c #91B7CC",
"!. c #9EC3D7",
"~. c #9EC3D8",
"^. c #A1CBE3",
"/. c #A2CCE4",
"(. c #D6D6D7",
"). c #D9D9DA",
"_. c #DAD9DA",
"`. c #DADADB",
"'. c gray95",
"]. c #F5F4F4",
"[. c #F7F5F5",
"{. c #FBF9F8",
"}. c gray98",
"|. c #FDFDFC",
" X c white",
".X c None",
/* GIOVA */
".X.X.X.X.X.X.X.X.X.X.X.X.X.X.X.X.X.X.X.X.X.X.X.X.X.X.X.X.X.X.X.X.X.X.X.X.X.X.X.X.X.X.X.X.X.X.X.X.X.X.X.X.X.X.X.X.X.X.X.X.X.X.X.X",
".X.X.X.X.X.X.X.X.X.X.X.X.X.X.X.X.X.X.X.X.X.X.X.X.X.X.X.X.X.X.X.X.X.X.X.X.X.X.X.X.X.X.X.X.X.X.X.X.X.X.X.X.X.X.X.X.X.X.X.X.X.X.X.X",
".X.X.X.X.X.X.X.X.X.X.X.X.X.X.X.X.X.X.X.X.X.X.X.X.X.X.X.X.X.X.X.X.X.X.X.X.X.X.X.X.X.X.X.X.X.X.X.X.X.X.X.X.X.X.X.X.X.X.X.X.X.X.X.X",
".X.X.X.X.X.X.X.X.X.X.X.X.X.X.X.X.X.X.X.X.X.X.X.X.X.X.X.X.X.X.X.X.X.X.X.X.X.X.X.X.X.X.X.X.X.X.X.X.X.X.X.X.X.X.X.X.X.X.X.X.X.X.X.X",
".X.X.X.X.X.X.X.X.X.X.X.X.X.X.X.X.X.X.X.X.X.X.X.X.X.X.X.X.X.X.X.X.X.X.X.X.X.X.X.X.X.X.X.X.X.X.X.X.X.X.X.X.X.X.X.X.X.X.X.X.X.X.X.X",
".X.X.X.X.X.X.X.X.X.X.X.X.X.X.X.X.X.X.X.X.X.X.X.XM i.m v C.u.f p l w a q .X.X.X.X.X.X.X.X.X.X.X.X.X.X.X.X.X.X.X.X.X.X.X.X.X.X.X.X",
".X.X.X.X.X.X.X.X.X.X.X.X.X.X.X.X.X.X.X.X.X.X.Xp.G.P.M.I.I.A.V.z.g z l x d .X.X.X.X.X.X.X.X.X.X.X.X.X.X.X.X.X.X.X.X.X.X.X.X.X.X.X",
".X.X.X.X.X.X.X.X.X.X.X.X.X.X.X.X.X.X.X.X.X.XB D.T.R.Y.L.U.S.K.b.B.N.d f y.r .X.X.X.X.X.X.X.X.X.X.X.X.X.X.X.X.X.X.X.X.X.X.X.X.X.X",
".X.X.X.X.X.X.X.X.X.X.X.X.X.X.X.X.X.X.X.X.X.Xm.D.J.H.F.a.n.x.Z.t.C B.V j h c.9 .X.X.X.X.X.X.X.X.X.X.X.X.X.X.X.X.X.X.X.X.X.X.X.X.X",
".X.X.X.X.X.X.X.X.X.X.X.X.X.X.X.X.X.X.X.X.X.Xc s.h.h.h.h.h.h.h.h.h.Z M.k s N u .X.X.X.X.X.X.X.X.X.X.X.X.X.X.X.X.X.X.X.X.X.X.X.X.X",
".X.X.X.X.X.X.X.X.X.X.X.X.X.X.X.X.X.X.X.X.X.Xs.s.h.h.h.h.h.h.h.h.h.8.4.b t i y .X.X.X.X.X.X.X.X.X.X.X.X.X.X.X.X.X.X.X.X.X.X.X.X.X",
".X.X.X.X.X.X.X.X.X.X.X.X.X.X.X.X.X.X.X.X.X.X[.].E.E.l.l.s.W.W.|.{.7.0.q.v.2.0..X.X.X.X.X.X.X.X.X.X.X.X.X.X.X.X.X.X.X.X.X.X.X.X.X",
".X.X.X.X.X.X.X.X.X.X.X.X.X.X.X.X.X.X.X.X.X.X}.].E.E.l.l.l.Q.Q.|. X8.8.0.e.2.0..X.X.X.X.X.X.X.X.X.X.X.X.X.X.X.X.X.X.X.X.X.X.X.X.X",
".X.X.X.X.X.X.X.X.X.X.X.X.X.X.X.X.X.X.X.X.X.X X X!.~.l.h.l.^.^. X Xr.0.0.w.0.0..X.X.X.X.X.X.X.X.X.X.X.X.X.X.X.X.X.X.X.X.X.X.X.X.X",
".X.X.X.X.X.X.X.X.X.X.X.X.X.X.X.X.X.X.X.X.X.X X X!.~.h.h.l./.^. X X9.0.0.0.0.3..X.X.X.X.X.X.X.X.X.X.X.X.X.X.X.X.X.X.X.X.X.X.X.X.X",
".X.X.X.X.X.X.X.X.X.X.X.X.X.X.X.X.X.X.X.X.X.Xl.l.l.l.h.l.l.h.h.l.l.5.0.0.0.n e .X.X.X.X.X.X.X.X.X.X.X.X.X.X.X.X.X.X.X.X.X.X.X.X.X",
".X.X.X.X.X.X.X.X.X.X.X.X.X.X.X.X.X.X.X.X.X.Xk.l.l.l.l.l.l.l.l.l.l.6.0.0.0.0 .X.X.X.X.X.X.X.X.X.X.X.X.X.X.X.X.X.X.X.X.X.X.X.X.X.X",
".X.X.X.X.X.X.X.X.X.X.X.X.X.X.X.X.X.X.X.X.X.Xl.l.l.l.l.l.l.l.l.l.l.0.0.0.0..X.X.X.X.X.X.X.X.X.X.X.X.X.X.X.X.X.X.X.X.X.X.X.X.X.X.X",
".X.X.X.X.X.X.X.X.X.X.X.X.X.X.X.X.X.X.X.X.X.Xk.l.l.j.j.h.h.h.j.l.k.0.0.0.2..X.X.X.X.X.X.X.X.X.X.X.X.X.X.X.X.X.X.X.X.X.X.X.X.X.X.X",
".X.X.X.X.X.X.X.X.X.X.X.X.X.X.X.X.X.X.X.X.X.X.X.X.X$     X ,.1.1.<.O           @ .X.X.X.X.X.X.X.X.X.X.X.X.X.X.X.X.X.X.X.X.X.X.X.X",
".X.X.X.X.X.X.X.X.X.X.X.X.X.X.X.X.X.X.X.X.X.X.X.X.XO     O >.>.>.<.              .X.X.X.X.X.X.X.X.X.X.X.X.X.X.X.X.X.X.X.X.X.X.X.X",
".X.X.X.X.X.X.X.X.X.X.X.X.X.X.X.X.X.X.X.X.X.X.X    > : > O > > > >   > , > > >     .X.X.X.X.X.X.X.X.X.X.X.X.X.X.X.X.X.X.X.X.X.X.X",
".X.X.X.X.X.X.X.X.X.X.X.X.X.X.X.X.X.X.X.X.X.X.X  ; ; , ,   , , , ;   ; , , : <       .X.X.X.X.X.X.X.X.X.X.X.X.X.X.X.X.X.X.X.X.X.X",
".X.X.X.X.X.X.X.X.X.X.X.X.X.X.X.X.X.X.X.X.X. . ; , , , ,   : ; , ;   ; ; 2 ; < $     @ .X.X.X.X.X.X.X.X.X.X.X.X.X.X.X.X.X.X.X.X.X",
".X.X.X.X.X.X.X.X.X.X.X.X.X.X.X.X.X.X.X.X.X. ; ; < < ; :   > : ; ; + ; ; : > ; ; >       .X.X.X.X.X.X.X.X.X.X.X.X.X.X.X.X.X.X.X.X",
".X.X.X.X.X.X.X.X.X.X.X.X.X.X.X.X.X.X.X.X.X. , ; X > 2 3  X X; ; '..  X X; X ; , ; $     .X.X.X.X.X.X.X.X.X.X.X.X.X.X.X.X.X.X.X.X",
".X.X.X.X.X.X.X.X.X.X.X.X.X.X.X.X.X.X.X.X.X. ; >   2 ; '.-  X; , , # , ,  X$ : ; ; $     .X.X.X.X.X.X.X.X.X.X.X.X.X.X.X.X.X.X.X.X",
".X.X.X.X.X.X.X.X.X.X.X.X.X.X.X.X.X.X.X.X.X. ; *   , '., ,  X, , , : , ,  X    ; , , > X .X.X.X.X.X.X.X.X.X.X.X.X.X.X.X.X.X.X.X.X",
".X.X.X.X.X.X.X.X.X.X.X.X.X.X.X.X.X.X.X.X.X. ; *   '., , ,  X, >  X X X X X  $ ; ; ; ;   .X.X.X.X.X.X.X.X.X.X.X.X.X.X.X.X.X.X.X.X",
".X.X.X.X.X.X.X.X.X.X.X.X.X.X.X.X.X.X.X.X.X. ; *    X X X X X'.2  X, , , 2     ; , , ; X .X.X.X.X.X.X.X.X.X.X.X.X.X.X.X.X.X.X.X.X",
".X.X.X.X.X.X.X.X.X.X.X.X.X.X.X.X.X.X.X.X.X. : =   > ; ; >  X> ,  X> ; ; :     ; ; , > X .X.X.X.X.X.X.X.X.X.X.X.X.X.X.X.X.X.X.X.X",
".X.X.X.X.X.X.X.X.X.X.X.X.X.X.X.X.X.X.X.X.X. ; *   , , 2 2  X> :  X X X X'.    , , ;     .X.X.X.X.X.X.X.X.X.X.X.X.X.X.X.X.X.X.X.X",
".X.X.X.X.X.X.X.X.X.X.X.X.X.X.X.X.X.X.X.X.X. ; =   , , ; ; ; ; : : ; , ; ;     ; ; ;     .X.X.X.X.X.X.X.X.X.X.X.X.X.X.X.X.X.X.X.X",
".X.X.X.X.X.X.X.X.X.X.X.X.X.X.X.X.X.X.X.X.X. ; =   ; ; ; ; ; , ; ; ; ; ; ;   $ ; , , , % .X.X.X.X.X.X.X.X.X.X.X.X.X.X.X.X.X.X.X.X",
".X.X.X.X.X.X.X.X.X.X.X.X.X.X.X.X.X.X.X.X.X. 1     ; : ; , , ; ; , ; ; , ;     ; ; ; 1 & .X.X.X.X.X.X.X.X.X.X.X.X.X.X.X.X.X.X.X.X",
".X.X.X.X.X.X.X.X.X.X.X.X.X.X.X.X.X.X.X.X.X$ $ $     > ; ; ; ; ; ; ; ; ; >     X $ X $   .X.X.X.X.X.X.X.X.X.X.X.X.X.X.X.X.X.X.X.X",
".X.X.X.X.X.X.X.X.X.X.X.X.X.X.X.X.X.X.X.X.X    o       > ; ; , , , , ; ; $     X $ X o   .X.X.X.X.X.X.X.X.X.X.X.X.X.X.X.X.X.X.X.X",
".X.X.X.X.X.X.X.X.X.X.X.X.X.X.X.X.X.X.X.X.X,.>.>.<.$   > : : : : ; : : >     <.>.<.,.>.,..X.X.X.X.X.X.X.X.X.X.X.X.X.X.X.X.X.X.X.X",
".X.X.X.X.X.X.X.X.X.X.X.X.X.X.X.X.X.X.X.X.X,.>.>.,.@   X X $   $ $     X X $ <.>.>.>.>.>..X.X.X.X.X.X.X.X.X.X.X.X.X.X.X.X.X.X.X.X",
".X.X.X.X.X.X.X.X.X.X.X.X.X.X.X.X.X.X.X.X.Xg.h.h.f.P ! ) X             o ! P f.h.d.g.>.>..X.X.X.X.X.X.X.X.X.X.X.X.X.X.X.X.X.X.X.X",
".X.X.X.X.X.X.X.X.X.X.X.X.X.X.X.X.X.X.X.X.Xf.h.h.h.^ ^ ] ] { G ^ { { { ! ! P f.h.h.h.>.>..X.X.X.X.X.X.X.X.X.X.X.X.X.X.X.X.X.X.X.X",
".X.X.X.X.X.X.X.X.X.X.X.X.X.X.X.X.X.X.X.X.X.X.Xh.h.^ { { { { G ! { { ] { ! ! h.h.h.h..X.X.X.X.X.X.X.X.X.X.X.X.X.X.X.X.X.X.X.X.X.X",
".X.X.X.X.X.X.X.X.X.X.X.X.X.X.X.X.X.X.X.X.X.X.Xf.f.] { o.{ { G G ! [ X.{ { ^ f.h.h.f..X.X.X.X.X.X.X.X.X.X.X.X.X.X.X.X.X.X.X.X.X.X",
".X.X.X.X.X.X.X.X.X.X.X.X.X.X.X.X.X.X.X.X.X.X.X.X.X{ o.{ ) W S .X.X{ o.o.] ! G .X.X.X.X.X.X.X.X.X.X.X.X.X.X.X.X.X.X.X.X.X.X.X.X.X",
".X.X.X.X.X.X.X.X.X.X.X.X.X.X.X.X.X.X.X.X.X.X.X.X.X{ o.o.{ ! ! .X.X) { o.{ ! G .X.X.X.X.X.X.X.X.X.X.X.X.X.X.X.X.X.X.X.X.X.X.X.X.X",
".X.X.X.X.X.X.X.X.X.X.X.X.X.X.X.X.X.X.X.X.X.X.X.X.X[ o.o.{ ! G .X.X) o.o.{ ! D .X.X.X.X.X.X.X.X.X.X.X.X.X.X.X.X.X.X.X.X.X.X.X.X.X",
".X.X.X.X.X.X.X.X.X.X.X.X.X.X.X.X.X.X.X.X.X.X.X.X.X] { ` ) ! ! .X.X] o.{ ) G G .X.X.X.X.X.X.X.X.X.X.X.X.X.X.X.X.X.X.X.X.X.X.X.X.X",
".X.X.X.X.X.X.X.X.X.X.X.X.X.X.X.X.X.X.X.X.X.X.X.X.X) ..( / F G .X.X) ` `  .G J .X.X.X.X.X.X.X.X.X.X.X.X.X.X.X.X.X.X.X.X.X.X.X.X.X",
".X.X.X.X.X.X.X.X.X.X.X.X.X.X.X.X.X.X.X.X.X.X.X.X.X} L K H G G .X.X' T U I G H .X.X.X.X.X.X.X.X.X.X.X.X.X.X.X.X.X.X.X.X.X.X.X.X.X",
".X.X.X.X.X.X.X.X.X.X.X.X.X.X.X.X.X.X.X.X.X.X.X.X.X{ { ) E G G .X.X| { ~ Y G G .X.X.X.X.X.X.X.X.X.X.X.X.X.X.X.X.X.X.X.X.X.X.X.X.X",
".X.X.X.X.X.X.X.X.X.X.X.X.X.X.X.X.X.X.X.X.X.X.X.X.X{ o.[ ) Q G .X.X{ { { [ G G .X.X.X.X.X.X.X.X.X.X.X.X.X.X.X.X.X.X.X.X.X.X.X.X.X",
".X.X.X.X.X.X.X.X.X.X.X.X.X.X.X.X.X.X.X.X.X.X.X.X.Xo.o.{ { ! G .X.X) o.o.{ ! ! .X.X.X.X.X.X.X.X.X.X.X.X.X.X.X.X.X.X.X.X.X.X.X.X.X",
".X.X.X.X.X.X.X.X.X.X.X.X.X.X.X.X.X.X.X.X.X.X.X.X.X] ] o.{ ! G .X.X] o.o.{ ! G .X.X.X.X.X.X.X.X.X.X.X.X.X.X.X.X.X.X.X.X.X.X.X.X.X",
".X.X.X.X.X.X.X.X.X.X.X.X.X.X.X.X.X.X.X.X.X.X.X.X.X{ { o.{ G ! .X.X[ o.{ { ! G .X.X.X.X.X.X.X.X.X.X.X.X.X.X.X.X.X.X.X.X.X.X.X.X.X",
".X.X.X.X.X.X.X.X.X.X.X.X.X.X.X.X.X.X.X.X.X.X.X.X.X{ o.o.{ G G .X.X{ o.{ { ! G .X.X.X.X.X.X.X.X.X.X.X.X.X.X.X.X.X.X.X.X.X.X.X.X.X",
".X.X.X.X.X.X.X.X.X.X.X.X.X.X.X.X.X.X.X.X.X.X.X.X.X{ { { { ! G .X.X{ { O.} ! G .X.X.X.X.X.X.X.X.X.X.X.X.X.X.X.X.X.X.X.X.X.X.X.X.X",
".X.X.X.X.X.X.X.X.X.X.X.X.X.X.X.X.X.X.X.X.X.X.X.X.X{ { { o.! G .X.X{ { o.{ Q G .X.X.X.X.X.X.X.X.X.X.X.X.X.X.X.X.X.X.X.X.X.X.X.X.X",
".X.X.X.X.X.X.X.X.X.X.X.X.X.X.X.X.X.X.X.X.X.X.X.X.X) o.{ _ R S .X.X) ] { ) R A .X.X.X.X.X.X.X.X.X.X.X.X.X.X.X.X.X.X.X.X.X.X.X.X.X",
".X.X.X.X.X.X.X.X.X.X.X.X.X.X.X.X.X.X.X.X.X.X.X.X.X#.@.$.@.4 7 .X.X@.+.@.*.7 7 .X.X.X.X.X.X.X.X.X.X.X.X.X.X.X.X.X.X.X.X.X.X.X.X.X",
".X.X.X.X.X.X.X.X.X.X.X.X.X.X.X.X.X.X.X.X.X.X.X.X.X$.@.+.&.4 6 .X.X%.=.@.*.7 7 .X.X.X.X.X.X.X.X.X.X.X.X.X.X.X.X.X.X.X.X.X.X.X.X.X",
".X.X.X.X.X.X.X.X.X.X.X.X.X.X.X.X.X.X.X.X.X.X.X*.$.$.$.4 7 4 %.%.%.*.5 4 4 4 7 .X.X.X.X.X.X.X.X.X.X.X.X.X.X.X.X.X.X.X.X.X.X.X.X.X",
".X.X.X.X.X.X.X.X.X.X.X.X.X.X.X.X.X.X.X.X.X.X.X*.$.$.*.7 4 4 @.*.$.*.4 7 7 7 8 .X.X.X.X.X.X.X.X.X.X.X.X.X.X.X.X.X.X.X.X.X.X.X.X.X",
".X.X.X.X.X.X.X.X.X.X.X.X.X.X.X.X.X.X.X.X.X.X.X).).).).;.;.;.).).`._.:.;.;.-.;..X.X.X.X.X.X.X.X.X.X.X.X.X.X.X.X.X.X.X.X.X.X.X.X.X",
".X.X.X.X.X.X.X.X.X.X.X.X.X.X.X.X.X.X.X.X.X.X.X).).).).;.:.;.(.).).).:.;.;.;.;..X.X.X.X.X.X.X.X.X.X.X.X.X.X.X.X.X.X.X.X.X.X.X.X.X"
};
