/* XPM */
static char *result[] = {
/* columns rows colors chars-per-pixel */
"64 64 192 2 ",
"   c black",
".  c #010101",
"X  c #010104",
"o  c #020104",
"O  c #020204",
"+  c #020205",
"@  c #030205",
"#  c #040407",
"$  c #020808",
"%  c #0C0C0C",
"&  c #061110",
"*  c #061111",
"=  c #101415",
"-  c gray8",
";  c #161617",
":  c #18181E",
">  c #1E1E1E",
",  c gray12",
"<  c #1F1F20",
"1  c #202020",
"2  c gray13",
"3  c #212122",
"4  c #252525",
"5  c #262525",
"6  c #262526",
"7  c gray15",
"8  c gray22",
"9  c #383839",
"0  c #393939",
"q  c #3C3C3C",
"w  c #3F3F3F",
"e  c #405E9D",
"r  c #425F9D",
"t  c #405F9E",
"y  c #41609D",
"u  c #42609E",
"i  c #42609F",
"p  c #43619F",
"a  c #4260A0",
"s  c #4261A0",
"d  c #4361A0",
"f  c #4262A0",
"g  c #4462A1",
"h  c #4665A3",
"j  c #4B69AB",
"k  c #4C69AB",
"l  c #4C6BAC",
"z  c #4C6AAD",
"x  c #4C6BAD",
"c  c #4C6BAE",
"v  c #4D6CAF",
"b  c #5471B1",
"n  c #5B77B9",
"m  c #5B79BA",
"M  c #5C79BA",
"N  c #617EC4",
"B  c #468C94",
"V  c #468C95",
"C  c #468D95",
"Z  c #4A939B",
"A  c #4A939C",
"S  c #4A949C",
"D  c #4D99A2",
"F  c #4E9AA3",
"G  c #4D9BA4",
"H  c #4E9BA4",
"J  c #4D9CA4",
"K  c #4AA2A1",
"L  c #4BA2A1",
"P  c #4CA4A3",
"I  c #4DA4A3",
"U  c #4BA4A4",
"Y  c #52A3AD",
"T  c #52A3AE",
"R  c #54A3AE",
"E  c #58ADB7",
"W  c #59ADB7",
"Q  c #58AEB8",
"!  c #62B8BF",
"~  c #6581C2",
"^  c #6180C4",
"/  c #6281C6",
"(  c #6282C6",
")  c #6382C6",
"_  c #6985C9",
"`  c #6A85C9",
"'  c #6985CA",
"]  c #6A85CA",
"[  c #6986CA",
"{  c #6986CB",
"}  c #6A86CA",
"|  c #6A87CA",
" . c #6A89CB",
".. c #6B89CB",
"X. c #6A88CC",
"o. c #6A89CC",
"O. c #6B89CC",
"+. c #728DC7",
"@. c #748EC8",
"#. c #708CCE",
"$. c #7691CD",
"%. c #7791CD",
"&. c #7792CD",
"*. c #708DD0",
"=. c #708ED0",
"-. c #718ED0",
";. c #718FD2",
":. c #7290D3",
">. c #7490D1",
",. c #7491D3",
"<. c #7591D3",
"1. c #7592D3",
"2. c #7694D6",
"3. c #7794D6",
"4. c #7A96D3",
"5. c #7B97D4",
"6. c #7996D7",
"7. c #7C98D7",
"8. c #7D98D7",
"9. c #7996D8",
"0. c #7997D8",
"q. c #7A96D8",
"w. c #7A97D8",
"e. c #7D9AD8",
"r. c #7E9AD8",
"t. c #7F9BDB",
"y. c #7E9BDD",
"u. c #7F9CDC",
"i. c #5EB9C4",
"p. c #5EBAC5",
"a. c #5FBCC7",
"s. c #5FBDC7",
"d. c #65BBC1",
"f. c #66BCC2",
"g. c #65BAC4",
"h. c #60BCC6",
"j. c #60BDC6",
"k. c #60BDC7",
"l. c #66BCC6",
"z. c #5FC7C3",
"x. c #5FC7C4",
"c. c #66C5C2",
"v. c #66C6C3",
"b. c #68C0CA",
"n. c #63C5D0",
"m. c #64C5D0",
"M. c #909090",
"N. c gray57",
"B. c #929292",
"V. c gray60",
"C. c #9A9A9A",
"Z. c #9D9D9D",
"A. c gray62",
"S. c #9F9E9E",
"D. c #A2A1A9",
"F. c #A3A2A8",
"G. c #A3A2A9",
"H. c #A7A5AC",
"J. c #C2868A",
"K. c #C4878C",
"L. c #C3888C",
"P. c #C4888C",
"I. c #C89699",
"U. c #CD999E",
"Y. c #CD9A9E",
"T. c #CF9B9F",
"R. c #DEA1A9",
"E. c #DEA2A9",
"W. c #DFA2AA",
"Q. c #DFA3AB",
"!. c #DEB7BB",
"~. c #DFB7BD",
"^. c #DFB8BC",
"/. c #DFB8BD",
"(. c #DFB9BD",
"). c #DFBABD",
"_. c #E0BABD",
"`. c #E0BABE",
"'. c #809DDD",
"]. c #829FDF",
"[. c #D6D6D7",
"{. c #D9D9DA",
"}. c #DAD9DA",
"|. c #DADADB",
" X c gray95",
".X c #F5F4F4",
"XX c #F7F4F4",
"oX c #F7F5F5",
"OX c gray98",
"+X c #FFFBFB",
"@X c white",
"#X c None",
/* MARTA */
"#X#X#X#X#X#X#X#X#X#X#X#X#X#X#X#X#X#X#X#X#X#X#X#X#X#X#X#X#X#X#X#X#X#X#X#X#X#X#X#X#X#X#X#X#X#X#X#X#X#X#X#X#X#X#X#X#X#X#X#X#X#X#X#X",
"#X#X#X#X#X#X#X#X#X#X#X#X#X#X#X#X#X#X#X#X#X#X#X#X#X#X#X#X#X#X#X#X#X#X#X#X#X#X#X#X#X#X#X#X#X#X#X#X#X#X#X#X#X#X#X#X#X#X#X#X#X#X#X#X",
"#X#X#X#X#X#X#X#X#X#X#X#X#X#X#X#X#X#X#X#X#X#X#X#X#X#X#X#X#X#X#X#X#X#X#X#X#X#X#X#X#X#X#X#X#X#X#X#X#X#X#X#X#X#X#X#X#X#X#X#X#X#X#X#X",
"#X#X#X#X#X#X#X#X#X#X#X#X#X#X#X#X#X#X#X#X#X#X#X#X#X#X#X#X#XW R E R R R R R R T E Q #X#X#X#X#X#X#X#X#X#X#X#X#X#X#X#X#X#X#X#X#X#X#X",
"#X#X#X#X#X#X#X#X#X#X#X#X#X#X#X#X#X#X#X#X#X#X#X#X#X#X#XR R R R R R Y R R R E R R E W #X#XB #X#X#X#X#X#X#X#X#X#X#X#X#X#X#X#X#X#X#X",
"#X#X#X#X#X#X#X#X#X#X#X#X#X#X#X#X#X#X#X#X#X#X#X#X#X#XR R R R E R R T E E R R Y R R Q B F Z F #X#X#X#X#X#X#X#X#X#X#X#X#X#X#X#X#X#X",
"#X#X#X#X#X#X#X#X#X#X#X#X#X#X#X#X#X#X#X#X#X#X#X#X#X#Xh.n.n.j.a.n.n.a.s.B H E R E R Q D Z Z #X#X#X#X#X#X#X#X#X#X#X#X#X#X#X#X#X#X#X",
"#X#X#X#X#X#X#X#X#X#X#X#X#X#X#X#X#X#X#X#X#X#X#X#X! j.n.n.n.B p.n.a.n.a.B B Q R Q B Z Z A A Z #X#X#X#X#X#X#X#X#X#X#X#X#X#X#X#X#X#X",
"#X#X#X#X#X#X#X#X#X#X#X#X#X#X#X#X#X#X#X#X#X#X#X#Xn.n.n.m.H D D n.a.n.a.a.a.n.j.B B A A Z Z B #X#X#X#X#X#X#X#X#X#X#X#X#X#X#X#X#X#X",
"#X#X#X#X#X#X#X#X#X#X#X#X#X#X#X#X#X#X#X#X#X#X#X#Xn.n.n.f.!.(.(.a.n.n.n.n.k.n.j.B B B Z Z Z B #X#X#X#X#X#X#X#X#X#X#X#X#X#X#X#X#X#X",
"#X#X#X#X#X#X#X#X#X#X#X#X#X#X#X#X#X#X#X#X#X#X#X#X! a.n.!.!.(.(.l.k.l.n.a.n.n.n.k.V B Z A Z B H #X#X#X#X#X#X#X#X#X#X#X#X#X#X#X#X#X",
"#X#X#X#X#X#X#X#X#X#X#X#X#X#X#X#X#X#X#X#X#X#X#X#X#Xh.B % % $ $ `.`.!.* & k.a.n.n.B B Z A Z Z B #X#X#X#X#X#X#X#X#X#X#X#X#X#X#X#X#X",
"#X#X#X#X#X#X#X#X#X#X#X#X#X#X#X#X#X#X#X#X#X#X#X#X#XJ = OX.XL U `.`.`.K L b.n.m.m.i.C B Z H B B #X#X#X#X#X#X#X#X#X#X4 #X#X#X#X#X#X",
"#X#X#X#X#X#X#X#X#X#X#X#X#X#X#X#X#X#X#X#X#X#X#X#X#XZ Z oXXXI P `.(.`.I P @XoXT.Y.Y.g.B A B Z D #X#X#X#X#X#X#X#X#X#X4 4 #X#X#X#X#X",
"#X#X#X#X#X#X#X#X#X#X#X#X#X#X#X#X#X#X#X#X#X#X#X#X#XZ Z @X@Xz.x.(.(.`.z.z.@X@XU.Y.Y.g.B B Z B H #X#X#X#X#X#X#X#X#X#X#X#X#X#X#X#X#X",
"#X#X#X#X#X#X#X#X#X#X#X#X#X#X#X#X#X#X#X#X#X#X#X#X#XG Z +X+Xc.v.(.`.`.v.c.+X+XE.Y.Y.Y.f.C Z Z #X#X#X#X#X#X#X#X#X#X#X#X#X#X#X#X#X#X",
"#X#X#X#X#X#X#X#X#X#X#X#X#X#X#X#X#X#X#X#X#X#X#X#X#X#XZ Q.W.Q.`.`.`.`.`.Q.W.Q.R.Y.Y.Y.d.H Z S #X#X#X#X#X#X#X#X#X#X#X#X#X#X#X#X#X#X",
"#X#X#X#X#X#X#X#X#X#X#X#X#X#X#X#X#X#X#X#X#X#X#X#X#X#X#X`.`.`.`.`.`.`.`.`.`.`.Y.Y.Y.Y.s.a.H B B #X#X#X#X#X#X#X#X#X#X#X#X#X#X#X#X#X",
"#X#X#X#X#X#X#X#X#X#X#X#X#X#X#X#X#X#X#X#X#X#X#X#X#X#X#X_.`.`.).).(.(.(.).`._.Y.Y.Y.I.s.a.a.Z Z #X#X#X#X#X#X#X#X#X#X#X#X#X#X#X#X#X",
"#X#X#X#X#X#X#X#X#X#X#X#X#X#X#X#X#X#X#X#X#X#X#X#X#X#X#X#XC Z -     X K.P.P.L.O           @ B H #X#X#X#X#X#X#X#X#X#X#X#X#X#X#X#X#X",
"#X#X#X#X#X#X#X#X#X#X#X#X#X#X#X#X#X#X#X#X#X#X#X#X#X#X#X#X#XC O     O J.J.J.L.              D C #X#X#X#X#X#X#X#X#X#X#X#X#X#X#X#X#X",
"#X#X#X#X#X#X#X#X#X#X#X#X#X#X#X#X#X#X#X#X#X#X#X#X#X#X#X#X    3 2 3 O 3 3 3 3   3 4 3 3 3     C #X#X#X#X#X#X#X#X#X#X#X#X#X#X#X#X#X",
"#X#X#X#X#X#X#X#X#X#X#X#X#X#X#X#X#X#X#X#X#X#X#X#X#X#X#X#X  1 1 4 4   4 4 4 1   1 4 4 2 5       #X#X#X#X#X#X#X#X#X#X#X#X#X#X#X#X#X",
"#X#X#X#X#X#X#X#X#X#X#X#X#X#X#X#X#X#X#X#X#X#X#X#X#X#X. . 1 4 4 4 4   2 1 4 1   1 1 7 1 5 -     @ #X#X#X#X#X#X#X#X#X#X#X#X#X#X#X#X",
"#X#X#X#X#X#X#X#X#X#X#X#X#X#X#X#X#X#X#X#X#X#X#X#X#X#X. 1 1 5 5 1 2   3 2 1 1 + 1 1 2 3 1 1 3       #X#X#X#X#X#X#X#X#X#X#X#X#X#X#X",
"#X#X#X#X#X#X#X#X#X#X#X#X#X#X#X#X#X#X#X#X#X#X#X#X#X#X. 4 1 X 4 4 7 @X@X1 1  X# @X@X1 X 1 4 1 -     #X#X#X#X#X#X#X#X#X#X#X#X#X#X#X",
"#X#X#X#X#X#X#X#X#X#X#X#X#X#X#X#X#X#X#X#X#X#X#X#X#X#X. 1 3   4 4  X< @X1 4 4 + 4 3 @X- 2 1 1 -     #X#X#X#X#X#X#X#X#X#X#X#X#X#X#X",
"#X#X#X#X#X#X#X#X#X#X#X#X#X#X#X#X#X#X#X#X#X#X#X#X#X#X. 1 >   4  X1 3 @X4 4 4 2 4 4 @X    1 4 4 3 X #X#X#X#X#X#X#X#X#X#X#X#X#X#X#X",
"#X#X#X#X#X#X#X#X#X#X#X#X#X#X#X#X#X#X#X#X#X#X#X#X#X#X. 1 >    X4 4 4 @X3 3 @X@X@X@X@X  - 1 1 1 1   #X#X#X#X#X#X#X#X#X#X#X#X#X#X#X",
"#X#X#X#X#X#X#X#X#X#X#X#X#X#X#X#X#X#X#X#X#X#X#X#X#X#X. 1 >   @X@X@X@X@X X4 @X4 4 4 7     1 4 4 1 X #X#X#X#X#X#X#X#X#X#X#X#X#X#X#X",
"#X#X#X#X#X#X#X#X#X#X#X#X#X#X#X#X#X#X#X#X#X#X#X#X#X#X. 2 ,   3 1 4 3 @X3 4 @X3 1 1 2     1 1 4 3 X #X#X#X#X#X#X#X#X#X#X#X#X#X#X#X",
"#X#X#X#X#X#X#X#X#X#X#X#X#X#X#X#X#X#X#X#X#X#X#X#X#X#X. 1 >   7 4 4 4 @X3 2 @X@X@X@X X    4 4 1     #X#X#X#X#X#X#X#X#X#X#X#X#X#X#X",
"#X#X#X#X#X#X#X#X#X#X#X#X#X#X#X#X#X#X#X#X#X#X#X#X#X#X. 1 ,   1 1 1 1 1 1 2 2 1 4 1 1     1 1 1     #X#X#X#X#X#X#X#X#X#X#X#X#X#X#X",
"#X#X#X#X#X#X#X#X#X#X#X#X#X#X#X#X#X#X#X#X#X#X#X#X#X#X. 1 ,   1 1 1 1 1 4 1 1 1 1 1 1   - 1 4 4 4 ; #X#X#X#X#X#X#X#X#X#X#X#X#X#X#X",
"#X#X#X#X#X#X#X#X#X#X#X#X#X#X#X#X#X#X#X#X#X#X#X#X#X#X. 6     1 2 1 4 4 1 1 4 1 1 4 1     1 1 1 6 : #X#X#X#X#X#X#X#X#X#X#X#X#X#X#X",
"#X#X#X#X#X#X#X#X#X#X#X#X#X#X#X#X#X#X#X#X#X#X#X#X#X#X- - -     3 1 1 1 1 1 1 1 1 1 3     X - X -   #X#X#X#X#X#X#X#X#X#X#X#X#X#X#X",
"#X#X#X#X#X#X#X#X#X#X#X#X#X#X#X#X#X#X#X#X#X#X#X#X#X#X    o       3 1 1 4 4 4 4 1 1 -     X - X o   #X#X#X#X#X#X#X#X#X#X#X#X#X#X#X",
"#X#X#X#X#X#X#X#X#X#X#X#X#X#X#X#X#X#X#X#X#X#X#X#X#X#XK.J.J.L.-   3 2 2 2 2 1 2 2 3     L.J.L.K.J.K.#X#X#X#X#X#X#X#X#X#X#X#X#X#X#X",
"#X#X#X#X#X#X#X#X#X#X#X#X#X#X#X#X#X#X#X#X#X#X#X#X#X#XK.J.J.K.@   X X -   - -     X X - L.J.J.J.J.J.#X#X#X#X#X#X#X#X#X#X#X#X#X#X#X",
"#X#X#X#X#X#X#X#X#X#X#X#X#X#X#X#X#X#X#X#X#X#X#X#X#X#X/.(.(.^.y x _ X             o x p ^.(.~./.J.J.#X#X#X#X#X#X#X#X#X#X#X#X#X#X#X",
"#X#X#X#X#X#X#X#X#X#X#X#X#X#X#X#X#X#X#X#X#X#X#X#X#X#X^.(.(.(.v v *.*.O.i c ) ) ..x x d ^.(.(.(.J.J.#X#X#X#X#X#X#X#X#X#X#X#X#X#X#X",
"#X#X#X#X#X#X#X#X#X#X#X#X#X#X#X#X#X#X#X#X#X#X#X#X#X#X#X#X(.(.c O.3.3.O.i x O.-.*.O.x x (.(.(.(.#X#X#X#X#X#X#X#X#X#X#X#X#X#X#X#X#X",
"#X#X#X#X#X#X#X#X#X#X#X#X#X#X#X#X#X#X#X#X#X#X#X#X#X#X#X#X^.^./ :.8.3.O.i i x  .4.-.O.v ^.(.(.^.#X#X#X#X#X#X#X#X#X#X#X#X#X#X#X#X#X",
"#X#X#X#X#X#X#X#X#X#X#X#X#X#X#X#X#X#X#X#X#X#X#X#X#X#X#X#X#X#X) 5.w.>.n e #X#X) r.t.*.x t #X#X#X#X#X#X#X#X#X#X#X#X#X#X#X#X#X#X#X#X",
"#X#X#X#X#X#X#X#X#X#X#X#X#X#X#X#X#X#X#X#X#X#X#X#X#X#X#X#X#X#X) r.r.-.M x #X#XN y.].w.x i #X#X#X#X#X#X#X#X#X#X#X#X#X#X#X#X#X#X#X#X",
"#X#X#X#X#X#X#X#X#X#X#X#X#X#X#X#X#X#X#X#X#X#X#X#X#X#X#X#X#X#Xo.r.8.O.m i #X#XN u.'.3.x u #X#X#X#X#X#X#X#X#X#X#X#X#X#X#X#X#X#X#X#X",
"#X#X#X#X#X#X#X#X#X#X#X#X#X#X#X#X#X#X#X#X#X#X#X#X#X#X#X#X#X#XX.2.6.#.x x #X#X/ 5.2.} i i #X#X#X#X#X#X#X#X#X#X#X#X#X#X#X#X#X#X#X#X",
"#X#X#X#X#X#X#X#X#X#X#X#X#X#X#X#X#X#X#X#X#X#X#X#X#X#X#X#X#X#X] $.{ [ a s #X#XN | | +.s a #X#X#X#X#X#X#X#X#X#X#X#X#X#X#X#X#X#X#X#X",
"#X#X#X#X#X#X#X#X#X#X#X#X#X#X#X#X#X#X#X#X#X#X#X#X#X#X#X#X#X#XX.p d f s s #X#X^ h g s s i #X#X#X#X#X#X#X#X#X#X#X#X#X#X#X#X#X#X#X#X",
"#X#X#X#X#X#X#X#X#X#X#X#X#X#X#X#X#X#X#X#X#X#X#X#X#X#X#X#X#X#XO.:.} k i i #X#Xo.O.l g i i #X#X#X#X#X#X#X#X#X#X#X#X#X#X#X#X#X#X#X#X",
"#X#X#X#X#X#X#X#X#X#X#X#X#X#X#X#X#X#X#X#X#X#X#X#X#X#X#X#X#X#XO.r.0.} z i #X#X) O.O.o.i t #X#X#X#X#X#X#X#X#X#X#X#X#X#X#X#X#X#X#X#X",
"#X#X#X#X#X#X#X#X#X#X#X#X#X#X#X#X#X#X#X#X#X#X#X#X#X#X#X#X#X#X%.r.w.-.m i #X#XN 8.e.,.x x #X#X#X#X#X#X#X#X#X#X#X#X#X#X#X#X#X#X#X#X",
"#X#X#X#X#X#X#X#X#X#X#X#X#X#X#X#X#X#X#X#X#X#X#X#X#X#X#X#X#X#XX.9.r.-.m i #X#X/ 5.e.1.x i #X#X#X#X#X#X#X#X#X#X#X#X#X#X#X#X#X#X#X#X",
"#X#X#X#X#X#X#X#X#X#X#X#X#X#X#X#X#X#X#X#X#X#X#X#X#X#X#X#X#X#XO.w.r.3.b x #X#X( 5.3.<.~ i #X#X#X#X#X#X#X#X#X#X#X#X#X#X#X#X#X#X#X#X",
"#X#X#X#X#X#X#X#X#X#X#X#X#X#X#X#X#X#X#X#X#X#X#X#X#X#X#X#X#X#X .r.r.3.b i #X#X) @.3.-.m i #X#X#X#X#X#X#X#X#X#X#X#X#X#X#X#X#X#X#X#X",
"#X#X#X#X#X#X#X#X#X#X#X#X#X#X#X#X#X#X#X#X#X#X#X#X#X#X#X#X#X#XO.q.q.:.x i #X#XO.3.8.=.x i #X#X#X#X#X#X#X#X#X#X#X#X#X#X#X#X#X#X#X#X",
"#X#X#X#X#X#X#X#X#X#X#X#X#X#X#X#X#X#X#X#X#X#X#X#X#X#X#X#X#X#XO.=.3.5.x i #X#XO.3.7.) z i #X#X#X#X#X#X#X#X#X#X#X#X#X#X#X#X#X#X#X#X",
"#X#X#X#X#X#X#X#X#X#X#X#X#X#X#X#X#X#X#X#X#X#X#X#X#X#X#X#X#X#X' &.:.;.j r #X#XN / ) ` j e #X#X#X#X#X#X#X#X#X#X#X#X#X#X#X#X#X#X#X#X",
"#X#X#X#X#X#X#X#X#X#X#X#X#X#X#X#X#X#X#X#X#X#X#X#X#X#X#X#X#X#XB.N.V.N.8 q #X#XN.M.N.A.q q #X#X#X#X#X#X#X#X#X#X#X#X#X#X#X#X#X#X#X#X",
"#X#X#X#X#X#X#X#X#X#X#X#X#X#X#X#X#X#X#X#X#X#X#X#X#X#X#X#X#X#XV.N.M.Z.8 0 #X#XC.S.N.A.q q #X#X#X#X#X#X#X#X#X#X#X#X#X#X#X#X#X#X#X#X",
"#X#X#X#X#X#X#X#X#X#X#X#X#X#X#X#X#X#X#X#X#X#X#X#X#X#X#X#XA.V.V.V.8 q 8 C.C.C.A.9 8 8 8 q #X#X#X#X#X#X#X#X#X#X#X#X#X#X#X#X#X#X#X#X",
"#X#X#X#X#X#X#X#X#X#X#X#X#X#X#X#X#X#X#X#X#X#X#X#X#X#X#X#XA.V.V.A.q 8 8 N.A.V.A.8 q q q w #X#X#X#X#X#X#X#X#X#X#X#X#X#X#X#X#X#X#X#X",
"#X#X#X#X#X#X#X#X#X#X#X#X#X#X#X#X#X#X#X#X#X#X#X#X#X#X#X#X{.{.{.{.G.G.G.{.{.|.}.H.G.G.F.G.#X#X#X#X#X#X#X#X#X#X#X#X#X#X#X#X#X#X#X#X",
"#X#X#X#X#X#X#X#X#X#X#X#X#X#X#X#X#X#X#X#X#X#X#X#X#X#X#X#X{.{.{.{.G.H.G.[.{.{.{.H.G.D.G.G.#X#X#X#X#X#X#X#X#X#X#X#X#X#X#X#X#X#X#X#X"
};
