/* XPM */
static char *result[] = {
/* columns rows colors chars-per-pixel */
"64 64 126 2 ",
"   c black",
".  c #010101",
"X  c #010104",
"o  c #020104",
"O  c #020204",
"+  c #020205",
"@  c #030205",
"#  c gray8",
"$  c #161617",
"%  c #18181E",
"&  c #1E1E1E",
"*  c gray12",
"=  c #3A1C00",
"-  c #3B1C00",
";  c #3C1C00",
":  c #3C1D00",
">  c #3E1E00",
",  c #371A09",
"<  c #1F1F20",
"1  c #202020",
"2  c gray13",
"3  c #212122",
"4  c #252525",
"5  c #262525",
"6  c #262526",
"7  c gray15",
"8  c gray22",
"9  c #383839",
"0  c #393939",
"q  c #3C3C3C",
"w  c #3F3F3F",
"e  c #421F00",
"r  c #422000",
"t  c #432000",
"y  c #432100",
"u  c #442100",
"i  c #4C2500",
"p  c #4F2600",
"a  c #492507",
"s  c #4C290A",
"d  c #502600",
"f  c #502700",
"g  c #522700",
"h  c #542800",
"j  c #5C2B00",
"k  c #5D2B00",
"l  c #5A2C00",
"z  c #582C02",
"x  c #5E2C00",
"c  c #5F2C00",
"v  c #5F2D00",
"b  c #602C00",
"n  c #612E0C",
"m  c #663100",
"M  c #633106",
"N  c #683200",
"B  c #284686",
"V  c #294686",
"C  c #294786",
"Z  c #284687",
"A  c #294787",
"S  c #294887",
"D  c #294788",
"F  c #2A4788",
"G  c #294888",
"H  c #2A4888",
"J  c #2B4889",
"K  c #2B4989",
"L  c #2C4A8A",
"P  c #2E4D8E",
"I  c #365596",
"U  c #375596",
"Y  c #375597",
"T  c #375699",
"R  c #375799",
"E  c #385798",
"W  c #39599C",
"Q  c #607DC2",
"!  c #607DC4",
"~  c #617EC4",
"^  c #617EC5",
"/  c #627FC4",
"(  c #6180C4",
")  c #6281C6",
"_  c #6282C6",
"`  c #6382C6",
"'  c #6282C7",
"]  c #6382C7",
"[  c #728DC7",
"{  c #738DC8",
"}  c #738EC9",
"|  c #748EC8",
" . c #758EC8",
".. c #909090",
"X. c gray57",
"o. c #929292",
"O. c gray60",
"+. c #9A9A9A",
"@. c #9D9D9D",
"#. c gray62",
"$. c #9F9E9E",
"%. c #A3A2A8",
"&. c #A3A2A9",
"*. c #A7A5AC",
"=. c #C28589",
"-. c #C2868A",
";. c #C3878B",
":. c #C4878C",
">. c #C3888C",
",. c #C4888C",
"<. c #D7B1B3",
"1. c #D8B2B4",
"2. c #DFB7BD",
"3. c #DFB8BC",
"4. c #DFB8BD",
"5. c #DFB9BD",
"6. c #E0BABE",
"7. c #D6D6D7",
"8. c #D9D9DA",
"9. c #DAD9DA",
"0. c #DADADB",
"q. c #EBE9E9",
"w. c #ECEAEA",
"e. c gray95",
"r. c white",
"t. c None",
/* PASQUALE */
"t.t.t.t.t.t.t.t.t.t.t.t.t.t.t.t.t.t.t.t.t.t.t.t.t.t.t.t.t.t.t.t.t.t.t.t.t.t.t.t.t.t.t.t.t.t.t.t.t.t.t.t.t.t.t.t.t.t.t.t.t.t.t.t.",
"t.t.t.t.t.t.t.t.t.t.t.t.t.t.t.t.t.t.t.t.t.t.t.t.t.t.t.t.t.t.t.t.t.t.t.t.t.t.t.t.t.t.t.t.t.t.t.t.t.t.t.t.t.t.t.t.t.t.t.t.t.t.t.t.",
"t.t.t.t.t.t.t.t.t.t.t.t.t.t.t.t.t.t.t.t.t.t.t.t.t.t.t.t.t.t.t.t.t.t.t.t.t.t.t.t.t.t.t.t.t.t.t.t.t.t.t.t.t.t.t.t.t.t.t.t.t.t.t.t.",
"t.t.t.t.t.t.t.t.t.t.t.t.t.t.t.t.t.t.t.t.t.t.t.t.t.z h g h h g l h h ; - e t.t.t.t.t.t.t.t.t.t.t.t.t.t.t.t.t.t.t.t.t.t.t.t.t.t.t.",
"t.t.t.t.t.t.t.t.t.t.t.t.t.t.t.t.t.t.t.t.t.t.t.f d p d d g d g d d g r e e e t.t.= t.t.t.t.t.t.t.t.t.t.t.t.t.t.t.t.t.t.t.t.t.t.t.",
"t.t.t.t.t.t.t.t.t.t.t.t.t.t.t.t.t.t.t.t.t.t.z f d p d d g d g f d g d f z ; r e - - t.t.t.t.t.t.t.t.t.t.t.t.t.t.t.t.t.t.t.t.t.t.",
"t.t.t.t.t.t.t.t.t.t.t.t.t.t.t.t.t.t.t.t.t.t.b N N N x N N N N ; y g p p g ; - - e t.t.t.t.t.t.t.t.t.t.t.t.t.t.t.t.t.t.t.t.t.t.t.",
"t.t.t.t.t.t.t.t.t.t.t.t.t.t.t.t.t.t.t.t.b N N N x x N N N N x t y l d d z e - - e e t.t.t.t.t.t.t.t.t.t.t.t.t.t.t.t.t.t.t.t.t.t.",
"t.t.t.t.t.t.t.t.t.t.t.t.t.t.t.t.t.t.t.t.x N N N c v N N x x x N N N t t ; - - - e i t.t.t.t.t.t.t.t.t.t.t.t.t.t.t.t.t.t.t.t.t.t.",
"t.t.t.t.t.t.t.t.t.t.t.t.t.t.t.t.t.t.t.t.N N t ;.-.-.,.N N N x x N N t t e - - - ; e t.t.t.t.t.t.t.t.t.t.t.t.t.t.t.t.t.t.t.t.t.t.",
"t.t.t.t.t.t.t.t.t.t.t.t.t.t.t.t.t.t.t.t.N N t ;.-.-.,.N N N N N N N x b ; - e e e e e t.t.t.t.t.t.t.t.t.t.t.t.t.t.t.t.t.t.t.t.t.",
"t.t.t.t.t.t.t.t.t.t.t.t.t.t.t.t.t.t.t.t.t.t ; w.q., , ,.-.,.- , N x N N ; - > -.e e e t.t.t.t.t.t.t.t.t.t.t.t.t.t.t.t.t.t.t.t.t.",
"t.t.t.t.t.t.t.t.t.t.t.t.t.t.t.t.t.t.t.t.t.t ; w.q., , -.-.-.- - N N x x e - > -.e e e t.t.t.t.t.t.t.t.t.t.t.t.t.t.t.t.t.t.t.t.t.",
"t.t.t.t.t.t.t.t.t.t.t.t.t.t.t.t.t.t.t.t.t.b t r.r.m n 6.5.5.m n r.r.-.x x e a -.e e e t.t.t.t.t.t.t.t.t.t.t.t.t.t.t.t.t.t.t.t.t.",
"t.t.t.t.t.t.t.t.t.t.t.t.t.t.t.t.t.t.t.t.t.x = r.r.m n 5.5.6.m n r.r.-.M x e e a e e e t.t.t.t.t.t.t.t.t.t.t.t.t.t.t.t.t.t.t.t.t.",
"t.t.t.t.t.t.t.t.t.t.t.t.t.t.t.t.t.t.t.t.t.x j 6.6.5.t t t u s 5.6.6.-.=.: x e e e e t.t.t.t.t.t.t.t.t.t.t.t.t.t.t.t.t.t.t.t.t.t.",
"t.t.t.t.t.t.t.t.t.t.t.t.t.t.t.t.t.t.t.t.t.t.x 1.5.t s 5.5.5.s u 5.6.-.: - : k e e e t.t.t.t.t.t.t.t.t.t.t.t.t.t.t.t.t.t.t.t.t.t.",
"t.t.t.t.t.t.t.t.t.t.t.t.t.t.t.t.t.t.t.t.t.t.t.<.t s s s s s s s t 1.: : - : x t e e e t.t.t.t.t.t.t.t.t.t.t.t.t.t.t.t.t.t.t.t.t.",
"t.t.t.t.t.t.t.t.t.t.t.t.t.t.t.t.t.t.t.t.t.t.t.s s s t t t t t s s s - : : : k x j e e t.t.t.t.t.t.t.t.t.t.t.t.t.t.t.t.t.t.t.t.t.",
"t.t.t.t.t.t.t.t.t.t.t.t.t.t.t.t.t.t.t.t.t.t.t.t.t.t.#     X :.,.,.>.O           @ e e t.t.t.t.t.t.t.t.t.t.t.t.t.t.t.t.t.t.t.t.t.",
"t.t.t.t.t.t.t.t.t.t.t.t.t.t.t.t.t.t.t.t.t.t.t.t.t.t.O     O -.-.-.>.              t.t.t.t.t.t.t.t.t.t.t.t.t.t.t.t.t.t.t.t.t.t.t.",
"t.t.t.t.t.t.t.t.t.t.t.t.t.t.t.t.t.t.t.t.t.t.t.t.    3 2 3 O 3 3 3 3   3 4 3 3 3     t.t.t.t.t.t.t.t.t.t.t.t.t.t.t.t.t.t.t.t.t.t.",
"t.t.t.t.t.t.t.t.t.t.t.t.t.t.t.t.t.t.t.t.t.t.t.t.  1 1 4 4   4 4 4 1   1 4 4 2 5       t.t.t.t.t.t.t.t.t.t.t.t.t.t.t.t.t.t.t.t.t.",
"t.t.t.t.t.t.t.t.t.t.t.t.t.t.t.t.t.t.t.t.t.t.. . 1 4 4 4 4   2 1 4 1   1 1 7 1 5 #     @ t.t.t.t.t.t.t.t.t.t.t.t.t.t.t.t.t.t.t.t.",
"t.t.t.t.t.t.t.t.t.t.t.t.t.t.t.t.t.t.t.t.t.t.. 1 1 5 5 1 2   3 2 1 1 + 1 1 2 3 1 1 3       t.t.t.t.t.t.t.t.t.t.t.t.t.t.t.t.t.t.t.",
"t.t.t.t.t.t.t.t.t.t.t.t.t.t.t.t.t.t.t.t.t.t.. 4 1 X 3 4 4 r.r.1 1 e.. r.r.1 X 1 4 1 #     t.t.t.t.t.t.t.t.t.t.t.t.t.t.t.t.t.t.t.",
"t.t.t.t.t.t.t.t.t.t.t.t.t.t.t.t.t.t.t.t.t.t.. 1 3   7 4 e.< r.1 4 7   4 3 r.# 2 1 1 #     t.t.t.t.t.t.t.t.t.t.t.t.t.t.t.t.t.t.t.",
"t.t.t.t.t.t.t.t.t.t.t.t.t.t.t.t.t.t.t.t.t.t.. 1 &   4 e.1 3 r.4 4 4 2 4 7 r.    1 4 4 3 X t.t.t.t.t.t.t.t.t.t.t.t.t.t.t.t.t.t.t.",
"t.t.t.t.t.t.t.t.t.t.t.t.t.t.t.t.t.t.t.t.t.t.. 1 &   e.4 4 4 r.3 3 r.r.r.r.r.  # 1 1 1 1   t.t.t.t.t.t.t.t.t.t.t.t.t.t.t.t.t.t.t.",
"t.t.t.t.t.t.t.t.t.t.t.t.t.t.t.t.t.t.t.t.t.t.. 1 &   r.r.r.r.r.e.4 r.4 4 4 7     1 4 4 1 X t.t.t.t.t.t.t.t.t.t.t.t.t.t.t.t.t.t.t.",
"t.t.t.t.t.t.t.t.t.t.t.t.t.t.t.t.t.t.t.t.t.t.. 2 *   3 4 4 4 r.3 4 r.3 1 1 2     1 1 4 3 X t.t.t.t.t.t.t.t.t.t.t.t.t.t.t.t.t.t.t.",
"t.t.t.t.t.t.t.t.t.t.t.t.t.t.t.t.t.t.t.t.t.t.. 1 &   4 4 4 4 r.3 2 r.r.r.r.e.    4 4 1     t.t.t.t.t.t.t.t.t.t.t.t.t.t.t.t.t.t.t.",
"t.t.t.t.t.t.t.t.t.t.t.t.t.t.t.t.t.t.t.t.t.t.. 1 *   1 1 1 1 1 1 2 4 1 4 1 1     1 1 1     t.t.t.t.t.t.t.t.t.t.t.t.t.t.t.t.t.t.t.",
"t.t.t.t.t.t.t.t.t.t.t.t.t.t.t.t.t.t.t.t.t.t.. 1 *   1 1 1 1 1 4 1 1 1 1 1 1   # 1 4 4 4 $ t.t.t.t.t.t.t.t.t.t.t.t.t.t.t.t.t.t.t.",
"t.t.t.t.t.t.t.t.t.t.t.t.t.t.t.t.t.t.t.t.t.t.. 6     1 2 1 4 4 1 1 4 1 1 4 1     1 1 1 6 % t.t.t.t.t.t.t.t.t.t.t.t.t.t.t.t.t.t.t.",
"t.t.t.t.t.t.t.t.t.t.t.t.t.t.t.t.t.t.t.t.t.t.# # #     3 1 1 1 1 1 1 1 1 1 3     X # X #   t.t.t.t.t.t.t.t.t.t.t.t.t.t.t.t.t.t.t.",
"t.t.t.t.t.t.t.t.t.t.t.t.t.t.t.t.t.t.t.t.t.t.    o       3 1 1 4 4 4 4 1 1 #     X # X o   t.t.t.t.t.t.t.t.t.t.t.t.t.t.t.t.t.t.t.",
"t.t.t.t.t.t.t.t.t.t.t.t.t.t.t.t.t.t.t.t.t.t.:.-.-.>.#   3 2 2 2 2 1 2 2 3     >.-.>.:.-.:.t.t.t.t.t.t.t.t.t.t.t.t.t.t.t.t.t.t.t.",
"t.t.t.t.t.t.t.t.t.t.t.t.t.t.t.t.t.t.t.t.t.t.:.-.-.:.@   X X #   # #     X X # >.-.-.-.-.-.t.t.t.t.t.t.t.t.t.t.t.t.t.t.t.t.t.t.t.",
"t.t.t.t.t.t.t.t.t.t.t.t.t.t.t.t.t.t.t.t.t.t.4.5.5.3.H R ~ X             o R H 3.5.2.4.-.-.t.t.t.t.t.t.t.t.t.t.t.t.t.t.t.t.t.t.t.",
"t.t.t.t.t.t.t.t.t.t.t.t.t.t.t.t.t.t.t.t.t.t.3.5.5.5.W W ) ) ` A W ` ` ` R R H 3.5.5.5.-.-.t.t.t.t.t.t.t.t.t.t.t.t.t.t.t.t.t.t.t.",
"t.t.t.t.t.t.t.t.t.t.t.t.t.t.t.t.t.t.t.t.t.t.t.t.5.5.W ` ` ` ` A R ` ` ) ` R R 5.5.5.5.t.t.t.t.t.t.t.t.t.t.t.t.t.t.t.t.t.t.t.t.t.",
"t.t.t.t.t.t.t.t.t.t.t.t.t.t.t.t.t.t.t.t.t.t.t.t.3.3.) ` | ` ` A A R _ } ` ` W 3.5.5.3.t.t.t.t.t.t.t.t.t.t.t.t.t.t.t.t.t.t.t.t.t.",
"t.t.t.t.t.t.t.t.t.t.t.t.t.t.t.t.t.t.t.t.t.t.t.t.t.t.` | ` ~ Y V t.t.` | | ) R A t.t.t.t.t.t.t.t.t.t.t.t.t.t.t.t.t.t.t.t.t.t.t.t.",
"t.t.t.t.t.t.t.t.t.t.t.t.t.t.t.t.t.t.t.t.t.t.t.t.t.t.` | | ` R R t.t.~ ` | ` R A t.t.t.t.t.t.t.t.t.t.t.t.t.t.t.t.t.t.t.t.t.t.t.t.",
"t.t.t.t.t.t.t.t.t.t.t.t.t.t.t.t.t.t.t.t.t.t.t.t.t.t._ | | ` R A t.t.~ | | ` R C t.t.t.t.t.t.t.t.t.t.t.t.t.t.t.t.t.t.t.t.t.t.t.t.",
"t.t.t.t.t.t.t.t.t.t.t.t.t.t.t.t.t.t.t.t.t.t.t.t.t.t.) ` / ~ R R t.t.) | ` ~ A A t.t.t.t.t.t.t.t.t.t.t.t.t.t.t.t.t.t.t.t.t.t.t.t.",
"t.t.t.t.t.t.t.t.t.t.t.t.t.t.t.t.t.t.t.t.t.t.t.t.t.t.~ { ! Q Z A t.t.~ / / [ A D t.t.t.t.t.t.t.t.t.t.t.t.t.t.t.t.t.t.t.t.t.t.t.t.",
"t.t.t.t.t.t.t.t.t.t.t.t.t.t.t.t.t.t.t.t.t.t.t.t.t.t.' G F S A A t.t.( P K J A S t.t.t.t.t.t.t.t.t.t.t.t.t.t.t.t.t.t.t.t.t.t.t.t.",
"t.t.t.t.t.t.t.t.t.t.t.t.t.t.t.t.t.t.t.t.t.t.t.t.t.t.` ` ~ U A A t.t.] ` E L A A t.t.t.t.t.t.t.t.t.t.t.t.t.t.t.t.t.t.t.t.t.t.t.t.",
"t.t.t.t.t.t.t.t.t.t.t.t.t.t.t.t.t.t.t.t.t.t.t.t.t.t.` | _ ~ T A t.t.` ` ` _ A A t.t.t.t.t.t.t.t.t.t.t.t.t.t.t.t.t.t.t.t.t.t.t.t.",
"t.t.t.t.t.t.t.t.t.t.t.t.t.t.t.t.t.t.t.t.t.t.t.t.t.t.| | ` ` R A t.t.~ | | ` R R t.t.t.t.t.t.t.t.t.t.t.t.t.t.t.t.t.t.t.t.t.t.t.t.",
"t.t.t.t.t.t.t.t.t.t.t.t.t.t.t.t.t.t.t.t.t.t.t.t.t.t.) ) | ` R A t.t.) | | ` R A t.t.t.t.t.t.t.t.t.t.t.t.t.t.t.t.t.t.t.t.t.t.t.t.",
"t.t.t.t.t.t.t.t.t.t.t.t.t.t.t.t.t.t.t.t.t.t.t.t.t.t.` ` | ` A R t.t._ | ` ` R A t.t.t.t.t.t.t.t.t.t.t.t.t.t.t.t.t.t.t.t.t.t.t.t.",
"t.t.t.t.t.t.t.t.t.t.t.t.t.t.t.t.t.t.t.t.t.t.t.t.t.t.` | | ` A A t.t.` | ` ` R A t.t.t.t.t.t.t.t.t.t.t.t.t.t.t.t.t.t.t.t.t.t.t.t.",
"t.t.t.t.t.t.t.t.t.t.t.t.t.t.t.t.t.t.t.t.t.t.t.t.t.t.` ` ` ` R A t.t.` `  .' R A t.t.t.t.t.t.t.t.t.t.t.t.t.t.t.t.t.t.t.t.t.t.t.t.",
"t.t.t.t.t.t.t.t.t.t.t.t.t.t.t.t.t.t.t.t.t.t.t.t.t.t.` ` ` | R A t.t.` ` | ` T A t.t.t.t.t.t.t.t.t.t.t.t.t.t.t.t.t.t.t.t.t.t.t.t.",
"t.t.t.t.t.t.t.t.t.t.t.t.t.t.t.t.t.t.t.t.t.t.t.t.t.t.~ | ` ^ I V t.t.~ ) ` ~ I B t.t.t.t.t.t.t.t.t.t.t.t.t.t.t.t.t.t.t.t.t.t.t.t.",
"t.t.t.t.t.t.t.t.t.t.t.t.t.t.t.t.t.t.t.t.t.t.t.t.t.t.o.X.O.X.8 q t.t.X...X.#.q q t.t.t.t.t.t.t.t.t.t.t.t.t.t.t.t.t.t.t.t.t.t.t.t.",
"t.t.t.t.t.t.t.t.t.t.t.t.t.t.t.t.t.t.t.t.t.t.t.t.t.t.O.X...@.8 0 t.t.+.$.X.#.q q t.t.t.t.t.t.t.t.t.t.t.t.t.t.t.t.t.t.t.t.t.t.t.t.",
"t.t.t.t.t.t.t.t.t.t.t.t.t.t.t.t.t.t.t.t.t.t.t.t.#.O.O.O.8 q 8 +.+.+.#.9 8 8 8 q t.t.t.t.t.t.t.t.t.t.t.t.t.t.t.t.t.t.t.t.t.t.t.t.",
"t.t.t.t.t.t.t.t.t.t.t.t.t.t.t.t.t.t.t.t.t.t.t.t.#.O.O.#.q 8 8 X.#.O.#.8 q q q w t.t.t.t.t.t.t.t.t.t.t.t.t.t.t.t.t.t.t.t.t.t.t.t.",
"t.t.t.t.t.t.t.t.t.t.t.t.t.t.t.t.t.t.t.t.t.t.t.t.8.8.8.8.&.&.&.8.8.0.9.*.&.&.%.&.t.t.t.t.t.t.t.t.t.t.t.t.t.t.t.t.t.t.t.t.t.t.t.t.",
"t.t.t.t.t.t.t.t.t.t.t.t.t.t.t.t.t.t.t.t.t.t.t.t.8.8.8.8.&.*.&.7.8.8.8.*.&.&.&.&.t.t.t.t.t.t.t.t.t.t.t.t.t.t.t.t.t.t.t.t.t.t.t.t."
};
