/* XPM */
static char *result[] = {
/* columns rows colors chars-per-pixel */
"64 64 232 2 ",
"   c #221201",
".  c #271400",
"X  c #281400",
"o  c #291501",
"O  c #2D1600",
"+  c #24170B",
"@  c #25180B",
"#  c #301801",
"$  c #311801",
"%  c #321801",
"&  c #331901",
"*  c #311802",
"=  c #371B00",
"-  c #361A01",
";  c #361B01",
":  c #3B1D01",
">  c #3C1E01",
",  c #3D1E01",
"<  c #3C1E02",
"1  c #33210E",
"2  c #492401",
"3  c #4A2501",
"4  c #492502",
"5  c #41270F",
"6  c #522801",
"7  c #522901",
"8  c #532901",
"9  c #592C01",
"0  c #5A2C01",
"q  c #5D2E01",
"w  c #5E2E01",
"e  c #5F2E01",
"r  c #613001",
"t  c #623001",
"y  c #633101",
"u  c #643101",
"i  c #653201",
"p  c #78186D",
"a  c #79186D",
"s  c #79186E",
"d  c #79196E",
"f  c #7B186E",
"g  c #7B196E",
"h  c #7D1970",
"j  c #7E1972",
"k  c #494848",
"l  c #494949",
"z  c #4B4B4B",
"x  c gray30",
"c  c #4E4E4E",
"v  c gray31",
"b  c #801973",
"n  c #801974",
"m  c #821A76",
"M  c #841A77",
"N  c #841A78",
"B  c #851A78",
"V  c #861B78",
"C  c #881B7A",
"Z  c #8D1C7F",
"A  c #2A4784",
"S  c #2B4886",
"D  c #2A4887",
"F  c #2B4987",
"G  c #2B4988",
"H  c #2E4C8B",
"J  c #2E4C8C",
"K  c #304C89",
"L  c #304E8D",
"P  c #314E8D",
"I  c #314F90",
"U  c #345292",
"Y  c #375594",
"T  c #375595",
"R  c #385597",
"E  c #385697",
"W  c #3B5895",
"Q  c #395897",
"!  c #3B5896",
"~  c #395698",
"^  c #3A5799",
"/  c #395898",
"(  c #39589A",
")  c #3B589A",
"_  c #3F5D9E",
"`  c #3F5E9E",
"'  c #405EA0",
"]  c #415FA1",
"[  c #425FA2",
"{  c #4662A2",
"}  c #4F6CAE",
"|  c #506FB1",
" . c #516FB1",
".. c #5170B2",
"X. c #5472B5",
"o. c #5574B7",
"O. c #5674B7",
"+. c #5774B7",
"@. c #5775B7",
"#. c #5775B8",
"$. c #5776B8",
"%. c #5776B9",
"&. c #5877BA",
"*. c #5A79BD",
"=. c #5B7ABD",
"-. c #5F7BBE",
";. c #5D7CC0",
":. c #5E7CC0",
">. c #5E7DC1",
",. c #627FC4",
"<. c #8E1C80",
"1. c #8F1C81",
"2. c #901C82",
"3. c #901D82",
"4. c #951D87",
"5. c #961D87",
"6. c #981E89",
"7. c #991E8A",
"8. c #9C1E8D",
"9. c #9D1F8E",
"0. c #A02091",
"q. c #A42094",
"w. c #A52095",
"e. c #AE229E",
"r. c #AF229E",
"t. c #AF239E",
"y. c #B824A6",
"u. c #B924A7",
"i. c #B72CA7",
"p. c #B72DA7",
"a. c #B82DA8",
"s. c #B92CA9",
"d. c #BA2DA9",
"f. c #BA2DAA",
"g. c #BD2DAD",
"h. c #BE2EAD",
"j. c #BF2FAE",
"k. c #C72BB3",
"l. c #C12EB0",
"z. c #C22EB1",
"x. c #C22FB1",
"c. c #C32FB1",
"v. c #C72EB4",
"b. c #C72FB4",
"n. c #C72FB5",
"m. c #C82FB5",
"M. c #C92FB6",
"N. c #CB2FB7",
"B. c #CB2FB8",
"V. c #C433B3",
"C. c #C433B4",
"Z. c #C633B5",
"A. c #CB30B8",
"S. c #CB31B8",
"D. c #CC31B9",
"F. c #CD30BA",
"G. c #CD31BA",
"H. c #CF30BB",
"J. c #CD32BA",
"K. c #D031BC",
"L. c #D345C2",
"P. c #D446C3",
"I. c #D744C5",
"U. c #D746C6",
"Y. c #D940C5",
"T. c #D846C6",
"R. c #D847C7",
"E. c #D947C7",
"W. c #E348CE",
"Q. c #E054CE",
"!. c #E154CF",
"~. c #E155CF",
"^. c #E64ED1",
"/. c #E74FD1",
"(. c #E94FD3",
"). c #EA4DD4",
"_. c #EB4DD4",
"`. c #E94FD4",
"'. c #EA4FD5",
"]. c #E656D5",
"[. c #E657D5",
"{. c #E757D6",
"}. c #EA50D5",
"|. c #EB50D5",
" X c #EC50D6",
".X c #EC53D7",
"XX c #E857D6",
"oX c #E956D7",
"OX c #E858D6",
"+X c #E958D7",
"@X c #EE53D8",
"#X c #E958D8",
"$X c #EA58D8",
"%X c #EC58D9",
"&X c #ED58DA",
"*X c #EC5DDA",
"=X c #ED5EDB",
"-X c #F15FDF",
";X c #F25FDF",
":X c #F660E0",
">X c #F760E1",
",X c #F761E1",
"<X c #F761E2",
"1X c #F861E2",
"2X c #6280C4",
"3X c #6380C4",
"4X c #6382C6",
"5X c #6383C6",
"6X c #6383C7",
"7X c #6582C4",
"8X c #6483C6",
"9X c #6C87C2",
"0X c #748EC8",
"qX c #758FC8",
"wX c #748FC9",
"eX c #768FC8",
"rX c #09DAE8",
"tX c #BC8285",
"yX c #BF8588",
"uX c #C2878B",
"iX c #C78E93",
"pX c #C78F93",
"aX c #DDB6BA",
"sX c #DEB7BB",
"dX c #DFB7BD",
"fX c #DFB8BC",
"gX c #DFB9BD",
"hX c #D8D8D9",
"jX c #D9D9DA",
"kX c #DADADC",
"lX c #DBDBDC",
"zX c None",
/* ALE */
"zXzXzXzXzXzXzXzXzXzXzXzXzXzXzXzXzXzXzXzXzXzXzXzXzXzXzXzXzXzXzXzXzXzXzXzXzXzXzXzXzXzXzXzXzXzXzXzXzXzXzXzXzXzXzXzXzXzXzXzXzXzXzXzX",
"zXzXzXzXzXzXzXzXzXzXzXzXzXzXzXzXzXzXzXzXzXzXzXzXzXzXzXzXzXzXzXzXzXzXzXzXzXzXzXzXzXzXzXzXzXzXzXzXzXzXzXzXzXzXzXzXzXzXzXzXzXzXzXzX",
"zXzXzXzXzXzXzXzXzXzXzXzXzXzXzXzXzXzXzXzXzXzXzXzXzXzXzXzXzXzXzXzXzXzXzXzXzXzXzXzXzXzXzXzXzXzXzXzXzXzXzXzXzXzXzXzXzXzXzXzXzXzXzXzX",
"zXzXzXzXzXzXzXzXzXzXzXzXzXzXzXzXzXzXzXzXzXzXzXzXzXzXzXzXzXw e e e u y e e zXzXzXzXzXzXzXzXzXzXzXzXzXzXzXzXzXzXzXzXzXzXzXzXzXzXzX",
"zXzXzXzXzXzXzXzXzXzXzXzXzXzXzXzXzXzXzXzXzXzXzXzXzXzXzX0 r t t y i u y t t e q zX4 zXzXzXzXzXzXzXzXzXzXzXzXzXzXzXzXzXzXzXzXzXzXzX",
"zXzXzXzXzXzXzXzXzXzXzXzXzXzXzXzXzXzXzXzXzXzXzXzXzXr 9 r y t t e e e 0 e e 0 0 7 8 4 zXzXzXzXzXzXzXzXzXzXzXzXzXzXzXzXzXzXzXzXzXzX",
"zXzXzXzXzXzXzXzXzXzXzXzXzXzXzXzXzXzXzXzXzXzXzXzXzX6 r e r w e 0 0 0 0 0 0 0 0 9 2 zXzXzXzXzXzXzXzXzXzXzXzXzXzXzXzXzXzXzXzXzXzXzX",
"zXzXzXzXzXzXzXzXzXzXzXzXzXzXzXzXzXzXzXzXzXzXzXzX2 6 8 6 2 3 8 8 8 8 8 8 8 9 9 8 8 , zXzXzXzXzXzXzXzXzXzXzXzXzXzXzXzXzXzXzXzXzXzX",
"zXzXzXzXzXzXzXzXzXzXzXzXzXzXzXzXzXzXzXzXzXzXzXzX3 2 2 , , 2 3 2 2 8 2 2 3 3 2 , 3 3 zXzXzXzXzXzXzXzXzXzXzXzXzXzXzXzXzXzXzXzXzXzX",
"zXzXzXzXzXzXzXzXzXzXzXzXzXzXzXzXzXzXzXzXzXzXzXzX3 , , , 2 2 , , 2 3 3 3 , , 2 2 2 3 zXzXzXzXzXzXzXzXzXzXzXzXzXzXzXzXzXzXzXzXzXzX",
"zXzXzXzXzXzXzXzXzXzXzXzXzXzXzXzXzXzXzXzXzXzXzXzX, > ; ; , , ; , , , 3 3 2 , - ; > > zXzXzXzXzXzXzXzXzXzXzXzXzXzXzXzXzXzXzXzXzXzX",
"zXzXzXzXzXzXzXzXzXzXzXzXzXzXzXzXzXzXzXzXzXzXzXzX; yX- - ; , ; ; ; - , , , - & , yX, zXzXzXzXzXzXzXzXzXzXzXzXzXzXzXzXzXzXzXzXzXzX",
"zXzXzXzXzXzXzXzXzXzXzXzXzXzXzXzXzXzXzXzXzXzXzXzX- uX- & - - - - , - & - - - - ; yX- zXzXzXzXzXzXzXzXzXzXzXzXzXzXzXzXzXzXzXzXzXzX",
"zXzXzXzXzXzXzXzXzXzXzXzXzXzXzXzXzXzXzXzXzXzXzXzX< uX; & & & & - & & & & & - - : yX; zXzXzXzXzXzXzXzXzXzXzXzXzXzXzXzXzXzXzXzXzXzX",
"zXzXzXzXzXzXzXzXzXzXzXzXzXzXzXzXzXzXzXzXzXzXzXzX1 uX- - - - - & & - - $ $ % $ # tX5 zXzXzXzXzXzXzXzXzXzXzXzXzXzXzXzXzXzXzXzXzXzX",
"zXzXzXzXzXzXzXzXzXzXzXzXzXzXzXzXzXzXzXzXzXzXzXzXzX  O # $ $ $ $ % $ $ $ $ $ $ $ @ zXzXzXzXzXzXzXzXzXzXzXzXzXzXzXzXzXzXzXzXzXzXzX",
"zXzXzXzXzXzXzXzXzXzXzXzXzXzXzXzXzXzXzXzXzXzXzXzXzX  . X $ $ # # $ $ $ $ # $ $ $ + zXzXzXzXzXzXzXzXzXzXzXzXzXzXzXzXzXzXzXzXzXzXzX",
"zXzXzXzXzXzXzXzXzXzXzXzXzXzXzXzXzXzXzXzXzXzXzXzXzXzXiXo # $ $ $ $ $ $ $ $ $ * pXrXzXzXzXzXzXzXzXzXzXzXzXzXzXzXzXzXzXzXzXzXzXzXzX",
"zXzXzXzXzXzXzXzXzXzXzXzXzXzXzXzXzXzXzXzXzXzXzXzXzXzXiXpX= # # # $ $ # . # $ pXiXzXzXzXzXzXzXzXzXzXzXzXzXzXzXzXzXzXzXzXzXzXzXzXzX",
"zXzXzXzXzXzXzXzXzXzXzXzXzXzXzXzXzXzXzXzXzXzXzXzXzXA.l.y.u.u.w.q.q.8.0.r.u.u.w.M.N.zXzXzXzXzXzXzXzXzXzXzXzXzXzXzXzXzXzXzXzXzXzXzX",
"zXzXzXzXzXzXzXzXzXzXzXzXzXzXzXzXzXzXzXzXzXzXzXzXzXM.x.9.8.7.8.7.8.8.q.w.w.q.8.F.k.zXzXzXzXzXzXzXzXzXzXzXzXzXzXzXzXzXzXzXzXzXzXzX",
"zXzXzXzXzXzXzXzXzXzXzXzXzXzXzXzXzXzXzXzXzXzXzXs.M.~.x.q.2.6.7.<.7.7.<.Z 7.4.w.f.%XA.n.zXzXzXzXzXzXzXzXzXzXzXzXzXzXzXzXzXzXzXzXzX",
"zXzXzXzXzXzXzXzXzXzXzXzXzXzXzXzXzXzXzXzXzXzXf.v.=X1Xx.u.B Z Z V V V V V V N 5.b.-X*Xb.A.zXzXzXzXzXzXzXzXzXzXzXzXzXzXzXzXzXzXzXzX",
"zXzXzXzXzXzXzXzXzXzXzXzXzXzXzXzXzXzXzXzXzXzXf.I.;X1Xc.&X3.b f n h b f p j 1.!.j.,X,XY.A.zXzXzXzXzXzXzXzXzXzXzXzXzXzXzXzXzXzXzXzX",
"zXzXzXzXzXzXzXzXzXzXzXzXzXzXzXzXzXzXzXzXzXzXA.oX}.E.A.1X>Xm g d s f g s M XX*Xn.|.}.:XA.zXzXzXzXzXzXzXzXzXzXzXzXzXzXzXzXzXzXzXzX",
"zXzXzXzXzXzXzXzXzXzXzXzXzXzXzXzXzXzXzXzXzXzXx.>X>X&Xb.1X,XL.b a b b b C ].>X&Xb.=X}.:Xn.zXzXzXzXzXzXzXzXzXzXzXzXzXzXzXzXzXzXzXzX",
"zXzXzXzXzXzXzXzXzXzXzXzXzXzXzXzXzXzXzXzXzXzXf.1X,X&Xf.%X}.+XOXR.].}.+X-X>X=XQ.f.,X,X&XA.zXzXzXzXzXzXzXzXzXzXzXzXzXzXzXzXzXzXzXzX",
"zXzXzXzXzXzXzXzXzXzXzXzXzXzXzXzXzXzXzXzXzXzXx.+X}.&XA.D.D.$X>X(.(.>X>X>X;XS.D.G.+X|.%Xd.zXzXzXzXzXzXzXzXzXzXzXzXzXzXzXzXzXzXzXzX",
"zXzXzXzXzXzXzXzXzXzXzXzXzXzXzXzXzXzXzXzXzXzXA.:X_. Xx.%XG.*X;X}.).>XW..X*XS.%Xf.|.>X~.f.zXzXzXzXzXzXzXzXzXzXzXzXzXzXzXzXzXzXzXzX",
"zXzXzXzXzXzXzXzXzXzXzXzXzXzXzXzXzXzXzXzXzXzXx.<X}.}.x.&XG.C.Q.>X}.'.^.S.S.G.%Xx.|.>X&Xx.zXzXzXzXzXzXzXzXzXzXzXzXzXzXzXzXzXzXzXzX",
"zXzXzXzXzXzXzXzXzXzXzXzXzXzXzXzXzXzXzXzXzXzXx.&X+XT.A.-X<XV.G.Z.S.S.G.Z./.|.@Xx.>X_.%Xd.zXzXzXzXzXzXzXzXzXzXzXzXzXzXzXzXzXzXzXzX",
"zXzXzXzXzXzXzXzXzXzXzXzXzXzXzXzXzXzXzXzXzXzXn.;X>X&XA.}.}.&X&X-X-X&X&X&X}.>XOXf.+X1X1Xf.zXzXzXzXzXzXzXzXzXzXzXzXzXzXzXzXzXzXzXzX",
"zXzXzXzXzXzXzXzXzXzXzXzXzXzXzXzXzXzXzXzXzXzXd.@X}.&Xx.|.}.=X{.>X@X+X>X>X}.|.OXx.>X1X>Xf.zXzXzXzXzXzXzXzXzXzXzXzXzXzXzXzXzXzXzXzX",
"zXzXzXzXzXzXzXzXzXzXzXzXzXzXzXzXzXzXzXzXzXzXx.+X>X<Xx.+X>X+X+X>X$X+X>X1X>X>X1Xx.>X>X%Xd.zXzXzXzXzXzXzXzXzXzXzXzXzXzXzXzXzXzXzXzX",
"zXzXzXzXzXzXzXzXzXzXzXzXzXzXzXzXzXzXzXzXzXzXn.E.>X&XA.+X}.+X}.}..X+X}.@X`.(.-Xx.@X>X>Xx.zXzXzXzXzXzXzXzXzXzXzXzXzXzXzXzXzXzXzXzX",
"zXzXzXzXzXzXzXzXzXzXzXzXzXzXzXzXzXzXzXzXzXzXb.%X1X~.x.+X}.+X}.}.>X}.}.}.}./.~.x.!.>X>Xx.zXzXzXzXzXzXzXzXzXzXzXzXzXzXzXzXzXzXzXzX",
"zXzXzXzXzXzXzXzXzXzXzXzXzXzXzXzXzXzXzXzXzXzXA.A.b.p.f.P.T.>X+X}.1X}.1X>X[.l.d.J.b.d.H.A.zXzXzXzXzXzXzXzXzXzXzXzXzXzXzXzXzXzXzXzX",
"zXzXzXzXzXzXzXzXzXzXzXzXzXzXzXzXzXzXzXzXzXzXA.B.x.n.S.b.x.h.~.U.L.#X-X~.h.b.b.K.a.d.A.t.zXzXzXzXzXzXzXzXzXzXzXzXzXzXzXzXzXzXzXzX",
"zXzXzXzXzXzXzXzXzXzXzXzXzXzXzXzXzXzXzXzXzXzXuXuXuXuXN.A.z.x.b.m.d.d.i.d.M.f.A.M.uXuXuXuXzXzXzXzXzXzXzXzXzXzXzXzXzXzXzXzXzXzXzXzX",
"zXzXzXzXzXzXzXzXzXzXzXzXzXzXzXzXzXzXzXzXzXzXaXgXdXaXK ' ] e.u.x.x.n.b.d.g._ U L aXgXgXgXzXzXzXzXzXzXzXzXzXzXzXzXzXzXzXzXzXzXzXzX",
"zXzXzXzXzXzXzXzXzXzXzXzXzXzXzXzXzXzXzXzXzXzXaXgXgXaXG H ) T 8X8X8X=.%.8XQ ` U R aXgXgXsXzXzXzXzXzXzXzXzXzXzXzXzXzXzXzXzXzXzXzXzX",
"zXzXzXzXzXzXzXzXzXzXzXzXzXzXzXzXzXzXzXzXzXzXzXgXgXaXG H ) Y 4X4X>.*.%.8XL [ H ^ aXgXgXzXzXzXzXzXzXzXzXzXzXzXzXzXzXzXzXzXzXzXzXzX",
"zXzXzXzXzXzXzXzXzXzXzXzXzXzXzXzXzXzXzXzXzXzXzXfXgXaXG H ^ L wX;.*.%.%.8XL { L F aXgXgXzXzXzXzXzXzXzXzXzXzXzXzXzXzXzXzXzXzXzXzXzX",
"zXzXzXzXzXzXzXzXzXzXzXzXzXzXzXzXzXzXzXzXzXzXzXzXzXzXG H L P ! zXzXzXzX~ L L P F zXzXzXzXzXzXzXzXzXzXzXzXzXzXzXzXzXzXzXzXzXzXzXzX",
"zXzXzXzXzXzXzXzXzXzXzXzXzXzXzXzXzXzXzXzXzXzXzXzXzXzXG o.8XqXT zXzXzXzX( 8XqXqXF zXzXzXzXzXzXzXzXzXzXzXzXzXzXzXzXzXzXzXzXzXzXzXzX",
"zXzXzXzXzXzXzXzXzXzXzXzXzXzXzXzXzXzXzXzXzXzXzXzXzXzXF o.8XqXW zXzXzXzX( 8XqXqXF zXzXzXzXzXzXzXzXzXzXzXzXzXzXzXzXzXzXzXzXzXzXzXzX",
"zXzXzXzXzXzXzXzXzXzXzXzXzXzXzXzXzXzXzXzXzXzXzXzXzXzXG  .2X8XW zXzXzXzX( ,.3X8XF zXzXzXzXzXzXzXzXzXzXzXzXzXzXzXzXzXzXzXzXzXzXzXzX",
"zXzXzXzXzXzXzXzXzXzXzXzXzXzXzXzXzXzXzXzXzXzXzXzXzXzXG } 9X3XT zXzXzXzXA -.-.0XF zXzXzXzXzXzXzXzXzXzXzXzXzXzXzXzXzXzXzXzXzXzXzXzX",
"zXzXzXzXzXzXzXzXzXzXzXzXzXzXzXzXzXzXzXzXzXzXzXzXzXzXF O.+.@.U zXzXzXzXS O.O.X.F zXzXzXzXzXzXzXzXzXzXzXzXzXzXzXzXzXzXzXzXzXzXzXzX",
"zXzXzXzXzXzXzXzXzXzXzXzXzXzXzXzXzXzXzXzXzXzXzXzXzXzXG O.:.7XU zXzXzXzXG ..2X#.F zXzXzXzXzXzXzXzXzXzXzXzXzXzXzXzXzXzXzXzXzXzXzXzX",
"zXzXzXzXzXzXzXzXzXzXzXzXzXzXzXzXzXzXzXzXzXzXzXzXzXzXG | 5X8XT zXzXzXzXI ,.5XqXF zXzXzXzXzXzXzXzXzXzXzXzXzXzXzXzXzXzXzXzXzXzXzXzX",
"zXzXzXzXzXzXzXzXzXzXzXzXzXzXzXzXzXzXzXzXzXzXzXzXzXzXJ &.8XqXW zXzXzXzXI 8X8XqXF zXzXzXzXzXzXzXzXzXzXzXzXzXzXzXzXzXzXzXzXzXzXzXzX",
"zXzXzXzXzXzXzXzXzXzXzXzXzXzXzXzXzXzXzXzXzXzXzXzXzXzXG &.8XqXW zXzXzXzXI 8XqX4XF zXzXzXzXzXzXzXzXzXzXzXzXzXzXzXzXzXzXzXzXzXzXzXzX",
"zXzXzXzXzXzXzXzXzXzXzXzXzXzXzXzXzXzXzXzXzXzXzXzXzXzXG &.8X8XW zXzXzXzXG 8XqX8XF zXzXzXzXzXzXzXzXzXzXzXzXzXzXzXzXzXzXzXzXzXzXzXzX",
"zXzXzXzXzXzXzXzXzXzXzXzXzXzXzXzXzXzXzXzXzXzXzXzXzXzXG &.8X8XW zXzXzXzXG 8XqXqXF zXzXzXzXzXzXzXzXzXzXzXzXzXzXzXzXzXzXzXzXzXzXzXzX",
"zXzXzXzXzXzXzXzXzXzXzXzXzXzXzXzXzXzXzXzXzXzXzXzXzXzXG &.6XeXT zXzXzXzX( 8X8X8XF zXzXzXzXzXzXzXzXzXzXzXzXzXzXzXzXzXzXzXzXzXzXzXzX",
"zXzXzXzXzXzXzXzXzXzXzXzXzXzXzXzXzXzXzXzXzXzXzXzXzXzXG &.8XqXT zXzXzXzX( qX8X8XF zXzXzXzXzXzXzXzXzXzXzXzXzXzXzXzXzXzXzXzXzXzXzXzX",
"zXzXzXzXzXzXzXzXzXzXzXzXzXzXzXzXzXzXzXzXzXzXzXzXzXzXD $.2X8X/ zXzXzXzXE ,.8XqXH zXzXzXzXzXzXzXzXzXzXzXzXzXzXzXzXzXzXzXzXzXzXzXzX",
"zXzXzXzXzXzXzXzXzXzXzXzXzXzXzXzXzXzXzXzXzXzXzXzXzXzXc z c l l zXzXzXzXc x k k x zXzXzXzXzXzXzXzXzXzXzXzXzXzXzXzXzXzXzXzXzXzXzXzX",
"zXzXzXzXzXzXzXzXzXzXzXzXzXzXzXzXzXzXzXzXzXzXzXzXzXzXc c c x c zXzXzXzXc c k k k zXzXzXzXzXzXzXzXzXzXzXzXzXzXzXzXzXzXzXzXzXzXzXzX",
"zXzXzXzXzXzXzXzXzXzXzXzXzXzXzXzXzXzXzXzXzXzXzXzXzXzXc c c c v zXzXzXzXv c c c v zXzXzXzXzXzXzXzXzXzXzXzXzXzXzXzXzXzXzXzXzXzXzXzX",
"zXzXzXzXzXzXzXzXzXzXzXzXzXzXzXzXzXzXzXzXzXzXzXzXzXzXc c c c v zXzXzXzXc c c c v zXzXzXzXzXzXzXzXzXzXzXzXzXzXzXzXzXzXzXzXzXzXzXzX",
"zXzXzXzXzXzXzXzXzXzXzXzXzXzXzXzXzXzXzXzXzXzXzXzXzXzXhXlXhXkXhXzXzXzXzXjXjXjXjXjXzXzXzXzXzXzXzXzXzXzXzXzXzXzXzXzXzXzXzXzXzXzXzXzX",
"zXzXzXzXzXzXzXzXzXzXzXzXzXzXzXzXzXzXzXzXzXzXzXzXzXzXhXlXlXkXlXzXzXzXzXjXjXjXjXjXzXzXzXzXzXzXzXzXzXzXzXzXzXzXzXzXzXzXzXzXzXzXzXzX"
};
