/* XPM */
static char *result[] = {
/* columns rows colors chars-per-pixel */
"64 64 185 2 ",
"   c black",
".  c #010101",
"X  c #020202",
"o  c gray1",
"O  c #030204",
"+  c #030306",
"@  c #040306",
"#  c #020406",
"$  c #020407",
"%  c #030507",
"&  c #040406",
"*  c #050406",
"=  c #040407",
"-  c #050407",
";  c #050508",
":  c #040609",
">  c #0A080A",
",  c #0B0B0B",
"<  c #0C0909",
"1  c #0E0B0D",
"2  c #0E0B0E",
"3  c #0C0C0C",
"4  c gray5",
"5  c #0F0C0E",
"6  c gray6",
"7  c #101010",
"8  c gray7",
"9  c #131313",
"0  c #131215",
"q  c #151517",
"w  c #161616",
"e  c #181818",
"r  c #191919",
"t  c gray10",
"y  c #1B1B1B",
"u  c gray11",
"i  c #1D1D1D",
"p  c #1E1E1E",
"a  c gray12",
"s  c #271400",
"d  c #281400",
"f  c #281500",
"g  c #281501",
"h  c #291501",
"j  c #2F1700",
"k  c #351A00",
"l  c #341B00",
"z  c #351B00",
"x  c #371B00",
"c  c #361C01",
"v  c #3E1F00",
"b  c #391F06",
"n  c #321D0B",
"m  c #321E0B",
"M  c #33210E",
"N  c #33210F",
"B  c #34220F",
"V  c #3D210A",
"C  c #3D220A",
"Z  c #3F240D",
"A  c #3F240E",
"S  c #3C2210",
"D  c #202020",
"F  c #222222",
"G  c #232323",
"H  c #232324",
"J  c gray14",
"K  c #252525",
"L  c #272727",
"P  c #40240E",
"I  c #41270F",
"U  c #402410",
"Y  c #412511",
"T  c #412610",
"R  c #412611",
"E  c #422611",
"W  c #432712",
"Q  c #432713",
"!  c #432714",
"~  c #432716",
"^  c #442714",
"/  c #442814",
"(  c #442815",
")  c #452915",
"_  c #442817",
"`  c #452917",
"'  c #462917",
"]  c #482A18",
"[  c #482B18",
"{  c #482B19",
"}  c #492B19",
"|  c #4D2E1A",
" . c #4E2E1A",
".. c #4F2F1B",
"X. c #52301C",
"o. c #56321C",
"O. c #56331C",
"+. c #56331D",
"@. c #58341E",
"#. c #494848",
"$. c #494949",
"%. c #4B4B4B",
"&. c gray30",
"*. c #4E4E4E",
"=. c gray31",
"-. c #B37C7D",
";. c #2A4784",
":. c #2B4886",
">. c #2A4887",
",. c #2B4987",
"<. c #2B4988",
"1. c #2E4C8B",
"2. c #2E4C8C",
"3. c #304C89",
"4. c #304E8D",
"5. c #314E8D",
"6. c #314F90",
"7. c #345292",
"8. c #375594",
"9. c #375595",
"0. c #385597",
"q. c #385697",
"w. c #3B5895",
"e. c #395897",
"r. c #3B5896",
"t. c #395698",
"y. c #3A5799",
"u. c #395898",
"i. c #39589A",
"p. c #3B589A",
"a. c #3F5D9E",
"s. c #3F5E9E",
"d. c #405EA0",
"f. c #415FA1",
"g. c #425FA2",
"h. c #4662A2",
"j. c #4F6CAE",
"k. c #506FB1",
"l. c #516FB1",
"z. c #5170B2",
"x. c #5472B5",
"c. c #5574B7",
"v. c #5674B7",
"b. c #5774B7",
"n. c #5775B7",
"m. c #5775B8",
"M. c #5776B8",
"N. c #5776B9",
"B. c #5877BA",
"V. c #5A79BD",
"C. c #5B7ABD",
"Z. c #5F7BBE",
"A. c #5D7CC0",
"S. c #5E7CC0",
"D. c #5E7DC1",
"F. c #627FC4",
"G. c #6280C4",
"H. c #6380C4",
"J. c #6382C6",
"K. c #6383C6",
"L. c #6383C7",
"P. c #6582C4",
"I. c #6483C6",
"U. c #6C87C2",
"Y. c #748EC8",
"T. c #758FC8",
"R. c #748FC9",
"E. c #768FC8",
"W. c #BB8283",
"Q. c #BB8284",
"!. c #C2878B",
"~. c #C2888C",
"^. c #C3888C",
"/. c #DFB1B6",
"(. c #DFB2B7",
"). c #DDB6BA",
"_. c #DEB7BB",
"`. c #DFB7BD",
"'. c #DFB8BC",
"]. c #DFB9BD",
"[. c #D8D8D9",
"{. c #D9D9DA",
"}. c #DADADC",
"|. c #DBDBDC",
" X c None",
/* FIL */
" X X X X X X X X X X X X X X X X X X X X X X X X X X X X X X X X X X X X X X X X X X X X X X X X X X X X X X X X X X X X X X X X",
" X X X X X X X X X X X X X X X X X X X X X X X X X X X X X X X X X X X X X X X X X X X X X X X X X X X X X X X X X X X X X X X X",
" X X X X X X X X X X X X X X X X X X X X X X X X X X X X X X X X X X X X X X X X X X X X X X X X X X X X X X X X X X X X X X X X",
" X X X X X X X X X X X X X X X X X X X X X X X X X X X X X X X X X X X X X X X X X X X X X X X X X X X X X X X X X X X X X X X X",
" X X X X X X X X X X X X X X X X X X X X X X X X X X Xo.O.o.@.@. X X@.@.@.o.o. X X X X X X X X X X X X X X X X X X X X X X X X X",
" X X X X X X X X X X X X X X X X X X X X X X X X Xo.o.@.@.@.@.@.@.@.@.@.@.@.@.o.@. X X X X X X X X X X X X X X X X X X X X X X X",
" X X X X X X X X X X X X X X X X X X X X X X X X Xo.o.@.@.@.@.@.@.@.@.o.@.@.@.@.@. X X X X X X X X X X X X X X X X X X X X X X X",
" X X X X X X X X X X X X X X X X X X X X X X X Xo. .X.@.} } } [ } } } } } } @.@.@.+. X X X X X X X X X X X X X X X X X X X X X X",
" X X X X X X X X X X X X X X X X X X X X X X X Xo.....} } } } } } } } } } } } ] |  . X X X X X X X X X X X X X X X X X X X X X X",
" X X X X X X X X X X X X X X X X X X X X X X X XU ) ' ' ` _ ~ { { _ ` _ _ ' ' ( ^ `  X X X X X X X X X X X X X X X X X X X X X X",
" X X X X X X X X X X X X X X X X X X X X X X X XS ) / R ! Y ' ' ' ' ' ' ' ' Q E P ~  X X X X X X X X X X X X X X X X X X X X X X",
" X X X X X X X X X X X X X X X X X X X X X X X Xv W.c W Q E Z ^ ^ ' ' ' ! E P C W.k  X X X X X X X X X X X X X X X X X X X X X X",
" X X X X X X X X X X X X X X X X X X X X X X X Xv !.z C C E E T E E E P P A z z Q.k  X X X X X X X X X X X X X X X X X X X X X X",
" X X X X X X X X X X X X X X X X X X X X X X X XM ^.z z b b z C C b b C V b z l Q.k  X X X X X X X X X X X X X X X X X X X X X X",
" X X X X X X X X X X X X X X X X X X X X X X X XM ~.s z z z z z z z z z z z s d -.I  X X X X X X X X X X X X X X X X X X X X X X",
" X X X X X X X X X X X X X X X X X X X X X X X X XM d d d d s s s j j s s s s g B  X X X X X X X X X X X X X X X X X X X X X X X",
" X X X X X X X X X X X X X X X X X X X X X X X X XM s d x d s s d d s s s s s s N  X X X X X X X X X X X X X X X X X X X X X X X",
" X X X X X X X X X X X X X X X X X X X X X X X X X X/.h s s s s s s s s s s n (. X X X X X X X X X X X X X X X X X X X X X X X X",
" X X X X X X X X X X X X X X X X X X X X X X X X X X/./.x s s s s s s s f m /./. X X X X X X X X X X X X X X X X X X X X X X X X",
" X X X X X X X X X X X X X X X X X X X X X X X X X- .     . . 1 * * 1 X + .   X 7  X X X X X X X X X X X X X X X X X X X X X X X",
" X X X X X X X X X X X X X X X X X X X X X X X X X. + +   . . 5 * * * < & .   + =  X X X X X X X X X X X X X X X X X X X X X X X",
" X X X X X X X X X X X X X X X X X X X X X X X. . K                     X   X   p X 6  X X X X X X X X X X X X X X X X X X X X X",
" X X X X X X X X X X X X X X X X X X X X X X. . K K   +                     3 4 F D X 6  X X X X X X X X X X X X X X X X X X X X",
" X X X X X X X X X X X X X X X X X X X X X X. K K L   +                     y L J F D X  X X X X X X X X X X X X X X X X X X X X",
" X X X X X X X X X X X X X X X X X X X X X X. K L L 3 y q ;               i t 4 u F L .  X X X X X X X X X X X X X X X X X X X X",
" X X X X X X X X X X X X X X X X X X X X X X. L L L 3 9 t a +           D t 9   u u L .  X X X X X X X X X X X X X X X X X X X X",
" X X X X X X X X X X X X X X X X X X X X X X. L F F X 9 t t D D D D D D t r 4 7 e r L .  X X X X X X X X X X X X X X X X X X X X",
" X X X X X X X X X X X X X X X X X X X X X X. L L F     9 r y D D D p t r 9   , e e L o  X X X X X X X X X X X X X X X X X X X X",
" X X X X X X X X X X X X X X X X X X X X X X. F F F w F 3 9 r r u u t r 4   L 6 e r L .  X X X X X X X X X X X X X X X X X X X X",
" X X X X X X X X X X X X X X X X X X X X X X. L L F   F . 3 4 r t t r 8   X L 6 e G F .  X X X X X X X X X X X X X X X X X X X X",
" X X X X X X X X X X X X X X X X X X X X X X. L F F   F G X             F F L 6 e G G .  X X X X X X X X X X X X X X X X X X X X",
" X X X X X X X X X X X X X X X X X X X X X X. F L L . F L F F F F F F F F L L 6 e e F .  X X X X X X X X X X X X X X X X X X X X",
" X X X X X X X X X X X X X X X X X X X X X X. F F F   F F F F F F F F F F L F 6 y e F .  X X X X X X X X X X X X X X X X X X X X",
" X X X X X X X X X X X X X X X X X X X X X X. L L F w F F F F F F F F F L L F 6 y e L .  X X X X X X X X X X X X X X X X X X X X",
" X X X X X X X X X X X X X X X X X X X X X X. F F F . F F L F F L F F L L L G 6 t t u .  X X X X X X X X X X X X X X X X X X X X",
" X X X X X X X X X X X X X X X X X X X X X X. F F F   F H F F F F F F F F F H 6 y t y .  X X X X X X X X X X X X X X X X X X X X",
" X X X X X X X X X X X X X X X X X X X X X X. + = +   D w F F L L L L F F : $ . O O   X  X X X X X X X X X X X X X X X X X X X X",
" X X X X X X X X X X X X X X X X X X X X X X2 2 = 2 % #   : G G F G G G : $ . w > > > 0  X X X X X X X X X X X X X X X X X X X X",
" X X X X X X X X X X X X X X X X X X X X X X!.!.!.!.# w + +     w w   w $ $   - !.!.!.!. X X X X X X X X X X X X X X X X X X X X",
" X X X X X X X X X X X X X X X X X X X X X X).].`.).3.d.f.@     . .   . + a.7.4.).].].]. X X X X X X X X X X X X X X X X X X X X",
" X X X X X X X X X X X X X X X X X X X X X X).].].).<.1.p.9.I.I.I.C.N.I.e.s.7.0.).].]._. X X X X X X X X X X X X X X X X X X X X",
" X X X X X X X X X X X X X X X X X X X X X X X].].).<.1.p.8.J.J.D.V.N.I.4.g.1.y.).].]. X X X X X X X X X X X X X X X X X X X X X",
" X X X X X X X X X X X X X X X X X X X X X X X'.].).<.1.y.4.R.A.V.N.N.I.4.h.4.,.).].]. X X X X X X X X X X X X X X X X X X X X X",
" X X X X X X X X X X X X X X X X X X X X X X X X X X<.1.4.5.r. X X X Xt.4.4.5.,. X X X X X X X X X X X X X X X X X X X X X X X X",
" X X X X X X X X X X X X X X X X X X X X X X X X X X<.c.I.T.9. X X X Xi.I.T.T.,. X X X X X X X X X X X X X X X X X X X X X X X X",
" X X X X X X X X X X X X X X X X X X X X X X X X X X,.c.I.T.w. X X X Xi.I.T.T.,. X X X X X X X X X X X X X X X X X X X X X X X X",
" X X X X X X X X X X X X X X X X X X X X X X X X X X<.l.G.I.w. X X X Xi.F.H.I.,. X X X X X X X X X X X X X X X X X X X X X X X X",
" X X X X X X X X X X X X X X X X X X X X X X X X X X<.j.U.H.9. X X X X;.Z.Z.Y.,. X X X X X X X X X X X X X X X X X X X X X X X X",
" X X X X X X X X X X X X X X X X X X X X X X X X X X,.v.b.n.7. X X X X:.v.v.x.,. X X X X X X X X X X X X X X X X X X X X X X X X",
" X X X X X X X X X X X X X X X X X X X X X X X X X X<.v.S.P.7. X X X X<.z.G.m.,. X X X X X X X X X X X X X X X X X X X X X X X X",
" X X X X X X X X X X X X X X X X X X X X X X X X X X<.k.K.I.9. X X X X6.F.K.T.,. X X X X X X X X X X X X X X X X X X X X X X X X",
" X X X X X X X X X X X X X X X X X X X X X X X X X X2.B.I.T.w. X X X X6.I.I.T.,. X X X X X X X X X X X X X X X X X X X X X X X X",
" X X X X X X X X X X X X X X X X X X X X X X X X X X<.B.I.T.w. X X X X6.I.T.J.,. X X X X X X X X X X X X X X X X X X X X X X X X",
" X X X X X X X X X X X X X X X X X X X X X X X X X X<.B.I.I.w. X X X X<.I.T.I.,. X X X X X X X X X X X X X X X X X X X X X X X X",
" X X X X X X X X X X X X X X X X X X X X X X X X X X<.B.I.I.w. X X X X<.I.T.T.,. X X X X X X X X X X X X X X X X X X X X X X X X",
" X X X X X X X X X X X X X X X X X X X X X X X X X X<.B.L.E.9. X X X Xi.I.I.I.,. X X X X X X X X X X X X X X X X X X X X X X X X",
" X X X X X X X X X X X X X X X X X X X X X X X X X X<.B.I.T.9. X X X Xi.T.I.I.,. X X X X X X X X X X X X X X X X X X X X X X X X",
" X X X X X X X X X X X X X X X X X X X X X X X X X X>.M.G.I.u. X X X Xq.F.I.T.1. X X X X X X X X X X X X X X X X X X X X X X X X",
" X X X X X X X X X X X X X X X X X X X X X X X X X X*.%.*.$.$. X X X X*.&.#.#.&. X X X X X X X X X X X X X X X X X X X X X X X X",
" X X X X X X X X X X X X X X X X X X X X X X X X X X*.*.*.&.*. X X X X*.*.#.#.#. X X X X X X X X X X X X X X X X X X X X X X X X",
" X X X X X X X X X X X X X X X X X X X X X X X X X X*.*.*.*.*. X X X X*.*.*.*.*. X X X X X X X X X X X X X X X X X X X X X X X X",
" X X X X X X X X X X X X X X X X X X X X X X X X X X*.*.*.=.*. X X X X=.*.*.*.=. X X X X X X X X X X X X X X X X X X X X X X X X",
" X X X X X X X X X X X X X X X X X X X X X X X X X X[.|.[.}.[. X X X X{.{.{.{.{. X X X X X X X X X X X X X X X X X X X X X X X X",
" X X X X X X X X X X X X X X X X X X X X X X X X X X[.|.|.}.|. X X X X{.{.{.{.{. X X X X X X X X X X X X X X X X X X X X X X X X"
};
