/* XPM */
static char *result[] = {
/* columns rows colors chars-per-pixel */
"64 64 143 2 ",
"   c black",
".  c #010101",
"X  c #020202",
"o  c gray1",
"O  c #030204",
"+  c #030306",
"@  c #040306",
"#  c #020406",
"$  c #020407",
"%  c #030507",
"&  c #040406",
"*  c #050406",
"=  c #040407",
"-  c #050407",
";  c #050508",
":  c #040609",
">  c #0A080A",
",  c #0B0B0B",
"<  c #0C0909",
"1  c #0E0B0D",
"2  c #0E0B0E",
"3  c #0C0C0C",
"4  c gray5",
"5  c #0F0C0E",
"6  c gray6",
"7  c #101010",
"8  c gray7",
"9  c #131313",
"0  c #131215",
"q  c #151517",
"w  c #161616",
"e  c #181818",
"r  c #191919",
"t  c gray10",
"y  c #1B1B1B",
"u  c gray11",
"i  c #1D1D1D",
"p  c #1E1E1E",
"a  c gray12",
"s  c #202020",
"d  c #222222",
"f  c #232323",
"g  c #232324",
"h  c gray14",
"j  c #252525",
"k  c #272727",
"l  c #494848",
"z  c #494949",
"x  c #4B4B4B",
"c  c gray30",
"v  c #4E4E4E",
"b  c gray31",
"n  c #B37C7D",
"m  c #DEB57D",
"M  c #DEB67E",
"N  c #DFB67E",
"B  c #2A4784",
"V  c #2B4886",
"C  c #2A4887",
"Z  c #2B4987",
"A  c #2B4988",
"S  c #2E4C8B",
"D  c #2E4C8C",
"F  c #304C89",
"G  c #304E8D",
"H  c #314E8D",
"J  c #314F90",
"K  c #345292",
"L  c #375594",
"P  c #375595",
"I  c #385597",
"U  c #385697",
"Y  c #3B5895",
"T  c #395897",
"R  c #3B5896",
"E  c #395698",
"W  c #3A5799",
"Q  c #395898",
"!  c #39589A",
"~  c #3B589A",
"^  c #3F5D9E",
"/  c #3F5E9E",
"(  c #405EA0",
")  c #415FA1",
"_  c #425FA2",
"`  c #4662A2",
"'  c #4F6CAE",
"]  c #506FB1",
"[  c #516FB1",
"{  c #5170B2",
"}  c #5472B5",
"|  c #5574B7",
" . c #5674B7",
".. c #5774B7",
"X. c #5775B7",
"o. c #5775B8",
"O. c #5776B8",
"+. c #5776B9",
"@. c #5877BA",
"#. c #5A79BD",
"$. c #5B7ABD",
"%. c #5F7BBE",
"&. c #5D7CC0",
"*. c #5E7CC0",
"=. c #5E7DC1",
"-. c #627FC4",
";. c #6280C4",
":. c #6380C4",
">. c #6382C6",
",. c #6383C6",
"<. c #6383C7",
"1. c #6582C4",
"2. c #6483C6",
"3. c #6C87C2",
"4. c #748EC8",
"5. c #758FC8",
"6. c #748FC9",
"7. c #768FC8",
"8. c #BB8283",
"9. c #BB8284",
"0. c #C2878B",
"q. c #C2888C",
"w. c #C3888C",
"e. c #E6BC82",
"r. c #E7BC82",
"t. c #E7BD83",
"y. c #E3BE88",
"u. c #E3BE89",
"i. c #DFB1B6",
"p. c #DFB2B7",
"a. c #DDB6BA",
"s. c #DEB7BB",
"d. c #DFB7BD",
"f. c #DFB8BC",
"g. c #DFB9BD",
"h. c #EDC790",
"j. c #EDC791",
"k. c #EEC891",
"l. c #D8D8D9",
"z. c #D9D9DA",
"x. c #DADADC",
"c. c #DBDBDC",
"v. c None",
/* GIOVA */
"v.v.v.v.v.v.v.v.v.v.v.v.v.v.v.v.v.v.v.v.v.v.v.v.v.v.v.v.v.v.v.v.v.v.v.v.v.v.v.v.v.v.v.v.v.v.v.v.v.v.v.v.v.v.v.v.v.v.v.v.v.v.v.v.",
"v.v.v.v.v.v.v.v.v.v.v.v.v.v.v.v.v.v.v.v.v.v.v.v.v.v.v.v.v.v.v.v.v.v.v.v.v.v.v.v.v.v.v.v.v.v.v.v.v.v.v.v.v.v.v.v.v.v.v.v.v.v.v.v.",
"v.v.v.v.v.v.v.v.v.v.v.v.v.v.v.v.v.v.v.v.v.v.v.v.v.v.v.v.v.v.v.v.v.v.v.v.v.v.v.v.v.v.v.v.v.v.v.v.v.v.v.v.v.v.v.v.v.v.v.v.v.v.v.v.",
"v.v.v.v.v.v.v.v.v.v.v.v.v.v.v.v.v.v.v.v.v.v.v.v.v.v.v.v.v.v.v.v.v.v.v.v.v.v.v.v.v.v.v.v.v.v.v.v.v.v.v.v.v.v.v.v.v.v.v.v.v.v.v.v.",
"v.v.v.v.v.v.v.v.v.v.v.v.v.v.v.v.v.v.v.v.v.v.v.v.v.v.v.v.v.v.v.v.v.v.v.v.v.v.v.v.v.v.v.v.v.v.v.v.v.v.v.v.v.v.v.v.v.v.v.v.v.v.v.v.",
"v.v.v.v.v.v.v.v.v.v.v.v.v.v.v.v.v.v.v.v.v.v.v.v.v.v.v.v.v.y.j.h.k.k.k.h.j.v.v.v.v.v.v.v.v.v.v.v.v.v.v.v.v.v.v.v.v.v.v.v.v.v.v.v.",
"v.v.v.v.v.v.v.v.v.v.v.v.v.v.v.v.v.v.v.v.v.v.v.v.v.v.v.k.k.k.k.k.k.k.k.k.k.k.h.v.v.v.v.v.v.v.v.v.v.v.v.v.v.v.v.v.v.v.v.v.v.v.v.v.",
"v.v.v.v.v.v.v.v.v.v.v.v.v.v.v.v.v.v.v.v.v.v.v.v.v.v.k.k.k.k.k.k.k.k.k.k.k.k.y.k.v.v.v.v.v.v.v.v.v.v.v.v.v.v.v.v.v.v.v.v.v.v.v.v.",
"v.v.v.v.v.v.v.v.v.v.v.v.v.v.v.v.v.v.v.v.v.v.v.v.v.k.k.k.k.k.k.k.k.k.k.k.k.k.k.k.k.v.v.v.v.v.v.v.v.v.v.v.v.v.v.v.v.v.v.v.v.v.v.v.",
"v.v.v.v.v.v.v.v.v.v.v.v.v.v.v.v.v.v.v.v.v.v.v.v.v.t.r.k.k.k.k.k.k.k.k.k.k.k.k.k.t.v.v.v.v.v.v.v.v.v.v.v.v.v.v.v.v.v.v.v.v.v.v.v.",
"v.v.v.v.v.v.v.v.v.v.v.v.v.v.v.v.v.v.v.v.v.v.v.v.v.r.r.r.t.k.k.k.k.k.k.k.k.r.r.r.r.v.v.v.v.v.v.v.v.v.v.v.v.v.v.v.v.v.v.v.v.v.v.v.",
"v.v.v.v.v.v.v.v.v.v.v.v.v.v.v.v.v.v.v.v.v.v.v.v.v.8.t.r.r.r.k.r.r.r.k.r.r.r.r.r.8.v.v.v.v.v.v.v.v.v.v.v.v.v.v.v.v.v.v.v.v.v.v.v.",
"v.v.v.v.v.v.v.v.v.v.v.v.v.v.v.v.v.v.v.v.v.v.v.v.v.0.N r.r.r.r.r.r.r.r.r.r.r.r.r.9.v.v.v.v.v.v.v.v.v.v.v.v.v.v.v.v.v.v.v.v.v.v.v.",
"v.v.v.v.v.v.v.v.v.v.v.v.v.v.v.v.v.v.v.v.v.v.v.v.v.w.m m r.r.r.r.r.r.r.r.r.r.r.r.9.v.v.v.v.v.v.v.v.v.v.v.v.v.v.v.v.v.v.v.v.v.v.v.",
"v.v.v.v.v.v.v.v.v.v.v.v.v.v.v.v.v.v.v.v.v.v.v.v.v.q.m m r.r.r.r.r.r.r.r.r.e.e.e.n v.v.v.v.v.v.v.v.v.v.v.v.v.v.v.v.v.v.v.v.v.v.v.",
"v.v.v.v.v.v.v.v.v.v.v.v.v.v.v.v.v.v.v.v.v.v.v.v.v.N m m m m m e.r.e.e.e.m m m m M v.v.v.v.v.v.v.v.v.v.v.v.v.v.v.v.v.v.v.v.v.v.v.",
"v.v.v.v.v.v.v.v.v.v.v.v.v.v.v.v.v.v.v.v.v.v.v.v.v.N m m m m m m m m m m m m m m M v.v.v.v.v.v.v.v.v.v.v.v.v.v.v.v.v.v.v.v.v.v.v.",
"v.v.v.v.v.v.v.v.v.v.v.v.v.v.v.v.v.v.v.v.v.v.v.v.v.v.i.m m m m m m m m m m m m p.v.v.v.v.v.v.v.v.v.v.v.v.v.v.v.v.v.v.v.v.v.v.v.v.",
"v.v.v.v.v.v.v.v.v.v.v.v.v.v.v.v.v.v.v.v.v.v.v.v.v.v.i.i.u.m m m N m m m m N s.s.v.v.v.v.v.v.v.v.v.v.v.v.v.v.v.v.v.v.v.v.v.v.v.v.",
"v.v.v.v.v.v.v.v.v.v.v.v.v.v.v.v.v.v.v.v.v.v.v.v.v.- .     . . 1 * * 1 X + .   X 7 v.v.v.v.v.v.v.v.v.v.v.v.v.v.v.v.v.v.v.v.v.v.v.",
"v.v.v.v.v.v.v.v.v.v.v.v.v.v.v.v.v.v.v.v.v.v.v.v.v.. + +   . . 5 * * * < & .   + = v.v.v.v.v.v.v.v.v.v.v.v.v.v.v.v.v.v.v.v.v.v.v.",
"v.v.v.v.v.v.v.v.v.v.v.v.v.v.v.v.v.v.v.v.v.v.v.. . j                     X   X   p X 6 v.v.v.v.v.v.v.v.v.v.v.v.v.v.v.v.v.v.v.v.v.",
"v.v.v.v.v.v.v.v.v.v.v.v.v.v.v.v.v.v.v.v.v.v.. . j j   +                     3 4 d s X 6 v.v.v.v.v.v.v.v.v.v.v.v.v.v.v.v.v.v.v.v.",
"v.v.v.v.v.v.v.v.v.v.v.v.v.v.v.v.v.v.v.v.v.v.. j j k   +                     y k h d s X v.v.v.v.v.v.v.v.v.v.v.v.v.v.v.v.v.v.v.v.",
"v.v.v.v.v.v.v.v.v.v.v.v.v.v.v.v.v.v.v.v.v.v.. j k k 3 y q ;               i t 4 u d k . v.v.v.v.v.v.v.v.v.v.v.v.v.v.v.v.v.v.v.v.",
"v.v.v.v.v.v.v.v.v.v.v.v.v.v.v.v.v.v.v.v.v.v.. k k k 3 9 t a +           s t 9   u u k . v.v.v.v.v.v.v.v.v.v.v.v.v.v.v.v.v.v.v.v.",
"v.v.v.v.v.v.v.v.v.v.v.v.v.v.v.v.v.v.v.v.v.v.. k d d X 9 t t s s s s s s t r 4 7 e r k . v.v.v.v.v.v.v.v.v.v.v.v.v.v.v.v.v.v.v.v.",
"v.v.v.v.v.v.v.v.v.v.v.v.v.v.v.v.v.v.v.v.v.v.. k k d     9 r y s s s p t r 9   , e e k o v.v.v.v.v.v.v.v.v.v.v.v.v.v.v.v.v.v.v.v.",
"v.v.v.v.v.v.v.v.v.v.v.v.v.v.v.v.v.v.v.v.v.v.. d d d w d 3 9 r r u u t r 4   k 6 e r k . v.v.v.v.v.v.v.v.v.v.v.v.v.v.v.v.v.v.v.v.",
"v.v.v.v.v.v.v.v.v.v.v.v.v.v.v.v.v.v.v.v.v.v.. k k d   d . 3 4 r t t r 8   X k 6 e f d . v.v.v.v.v.v.v.v.v.v.v.v.v.v.v.v.v.v.v.v.",
"v.v.v.v.v.v.v.v.v.v.v.v.v.v.v.v.v.v.v.v.v.v.. k d d   d f X             d d k 6 e f f . v.v.v.v.v.v.v.v.v.v.v.v.v.v.v.v.v.v.v.v.",
"v.v.v.v.v.v.v.v.v.v.v.v.v.v.v.v.v.v.v.v.v.v.. d k k . d k d d d d d d d d k k 6 e e d . v.v.v.v.v.v.v.v.v.v.v.v.v.v.v.v.v.v.v.v.",
"v.v.v.v.v.v.v.v.v.v.v.v.v.v.v.v.v.v.v.v.v.v.. d d d   d d d d d d d d d d k d 6 y e d . v.v.v.v.v.v.v.v.v.v.v.v.v.v.v.v.v.v.v.v.",
"v.v.v.v.v.v.v.v.v.v.v.v.v.v.v.v.v.v.v.v.v.v.. k k d w d d d d d d d d d k k d 6 y e k . v.v.v.v.v.v.v.v.v.v.v.v.v.v.v.v.v.v.v.v.",
"v.v.v.v.v.v.v.v.v.v.v.v.v.v.v.v.v.v.v.v.v.v.. d d d . d d k d d k d d k k k f 6 t t u . v.v.v.v.v.v.v.v.v.v.v.v.v.v.v.v.v.v.v.v.",
"v.v.v.v.v.v.v.v.v.v.v.v.v.v.v.v.v.v.v.v.v.v.. d d d   d g d d d d d d d d d g 6 y t y . v.v.v.v.v.v.v.v.v.v.v.v.v.v.v.v.v.v.v.v.",
"v.v.v.v.v.v.v.v.v.v.v.v.v.v.v.v.v.v.v.v.v.v.. + = +   s w d d k k k k d d : $ . O O   X v.v.v.v.v.v.v.v.v.v.v.v.v.v.v.v.v.v.v.v.",
"v.v.v.v.v.v.v.v.v.v.v.v.v.v.v.v.v.v.v.v.v.v.2 2 = 2 % #   : f f d f f f : $ . w > > > 0 v.v.v.v.v.v.v.v.v.v.v.v.v.v.v.v.v.v.v.v.",
"v.v.v.v.v.v.v.v.v.v.v.v.v.v.v.v.v.v.v.v.v.v.0.0.0.0.# w + +     w w   w $ $   - 0.0.0.0.v.v.v.v.v.v.v.v.v.v.v.v.v.v.v.v.v.v.v.v.",
"v.v.v.v.v.v.v.v.v.v.v.v.v.v.v.v.v.v.v.v.v.v.a.g.d.a.F ( ) @     . .   . + ^ K G a.g.g.g.v.v.v.v.v.v.v.v.v.v.v.v.v.v.v.v.v.v.v.v.",
"v.v.v.v.v.v.v.v.v.v.v.v.v.v.v.v.v.v.v.v.v.v.a.g.g.a.A S ~ P 2.2.2.$.+.2.T / K I a.g.g.s.v.v.v.v.v.v.v.v.v.v.v.v.v.v.v.v.v.v.v.v.",
"v.v.v.v.v.v.v.v.v.v.v.v.v.v.v.v.v.v.v.v.v.v.v.g.g.a.A S ~ L >.>.=.#.+.2.G _ S W a.g.g.v.v.v.v.v.v.v.v.v.v.v.v.v.v.v.v.v.v.v.v.v.",
"v.v.v.v.v.v.v.v.v.v.v.v.v.v.v.v.v.v.v.v.v.v.v.f.g.a.A S W G 6.&.#.+.+.2.G ` G Z a.g.g.v.v.v.v.v.v.v.v.v.v.v.v.v.v.v.v.v.v.v.v.v.",
"v.v.v.v.v.v.v.v.v.v.v.v.v.v.v.v.v.v.v.v.v.v.v.v.v.v.A S G H R v.v.v.v.E G G H Z v.v.v.v.v.v.v.v.v.v.v.v.v.v.v.v.v.v.v.v.v.v.v.v.",
"v.v.v.v.v.v.v.v.v.v.v.v.v.v.v.v.v.v.v.v.v.v.v.v.v.v.A | 2.5.P v.v.v.v.! 2.5.5.Z v.v.v.v.v.v.v.v.v.v.v.v.v.v.v.v.v.v.v.v.v.v.v.v.",
"v.v.v.v.v.v.v.v.v.v.v.v.v.v.v.v.v.v.v.v.v.v.v.v.v.v.Z | 2.5.Y v.v.v.v.! 2.5.5.Z v.v.v.v.v.v.v.v.v.v.v.v.v.v.v.v.v.v.v.v.v.v.v.v.",
"v.v.v.v.v.v.v.v.v.v.v.v.v.v.v.v.v.v.v.v.v.v.v.v.v.v.A [ ;.2.Y v.v.v.v.! -.:.2.Z v.v.v.v.v.v.v.v.v.v.v.v.v.v.v.v.v.v.v.v.v.v.v.v.",
"v.v.v.v.v.v.v.v.v.v.v.v.v.v.v.v.v.v.v.v.v.v.v.v.v.v.A ' 3.:.P v.v.v.v.B %.%.4.Z v.v.v.v.v.v.v.v.v.v.v.v.v.v.v.v.v.v.v.v.v.v.v.v.",
"v.v.v.v.v.v.v.v.v.v.v.v.v.v.v.v.v.v.v.v.v.v.v.v.v.v.Z  ...X.K v.v.v.v.V  . .} Z v.v.v.v.v.v.v.v.v.v.v.v.v.v.v.v.v.v.v.v.v.v.v.v.",
"v.v.v.v.v.v.v.v.v.v.v.v.v.v.v.v.v.v.v.v.v.v.v.v.v.v.A  .*.1.K v.v.v.v.A { ;.o.Z v.v.v.v.v.v.v.v.v.v.v.v.v.v.v.v.v.v.v.v.v.v.v.v.",
"v.v.v.v.v.v.v.v.v.v.v.v.v.v.v.v.v.v.v.v.v.v.v.v.v.v.A ] ,.2.P v.v.v.v.J -.,.5.Z v.v.v.v.v.v.v.v.v.v.v.v.v.v.v.v.v.v.v.v.v.v.v.v.",
"v.v.v.v.v.v.v.v.v.v.v.v.v.v.v.v.v.v.v.v.v.v.v.v.v.v.D @.2.5.Y v.v.v.v.J 2.2.5.Z v.v.v.v.v.v.v.v.v.v.v.v.v.v.v.v.v.v.v.v.v.v.v.v.",
"v.v.v.v.v.v.v.v.v.v.v.v.v.v.v.v.v.v.v.v.v.v.v.v.v.v.A @.2.5.Y v.v.v.v.J 2.5.>.Z v.v.v.v.v.v.v.v.v.v.v.v.v.v.v.v.v.v.v.v.v.v.v.v.",
"v.v.v.v.v.v.v.v.v.v.v.v.v.v.v.v.v.v.v.v.v.v.v.v.v.v.A @.2.2.Y v.v.v.v.A 2.5.2.Z v.v.v.v.v.v.v.v.v.v.v.v.v.v.v.v.v.v.v.v.v.v.v.v.",
"v.v.v.v.v.v.v.v.v.v.v.v.v.v.v.v.v.v.v.v.v.v.v.v.v.v.A @.2.2.Y v.v.v.v.A 2.5.5.Z v.v.v.v.v.v.v.v.v.v.v.v.v.v.v.v.v.v.v.v.v.v.v.v.",
"v.v.v.v.v.v.v.v.v.v.v.v.v.v.v.v.v.v.v.v.v.v.v.v.v.v.A @.<.7.P v.v.v.v.! 2.2.2.Z v.v.v.v.v.v.v.v.v.v.v.v.v.v.v.v.v.v.v.v.v.v.v.v.",
"v.v.v.v.v.v.v.v.v.v.v.v.v.v.v.v.v.v.v.v.v.v.v.v.v.v.A @.2.5.P v.v.v.v.! 5.2.2.Z v.v.v.v.v.v.v.v.v.v.v.v.v.v.v.v.v.v.v.v.v.v.v.v.",
"v.v.v.v.v.v.v.v.v.v.v.v.v.v.v.v.v.v.v.v.v.v.v.v.v.v.C O.;.2.Q v.v.v.v.U -.2.5.S v.v.v.v.v.v.v.v.v.v.v.v.v.v.v.v.v.v.v.v.v.v.v.v.",
"v.v.v.v.v.v.v.v.v.v.v.v.v.v.v.v.v.v.v.v.v.v.v.v.v.v.v x v z z v.v.v.v.v c l l c v.v.v.v.v.v.v.v.v.v.v.v.v.v.v.v.v.v.v.v.v.v.v.v.",
"v.v.v.v.v.v.v.v.v.v.v.v.v.v.v.v.v.v.v.v.v.v.v.v.v.v.v v v c v v.v.v.v.v v l l l v.v.v.v.v.v.v.v.v.v.v.v.v.v.v.v.v.v.v.v.v.v.v.v.",
"v.v.v.v.v.v.v.v.v.v.v.v.v.v.v.v.v.v.v.v.v.v.v.v.v.v.v v v v b v.v.v.v.v v v v b v.v.v.v.v.v.v.v.v.v.v.v.v.v.v.v.v.v.v.v.v.v.v.v.",
"v.v.v.v.v.v.v.v.v.v.v.v.v.v.v.v.v.v.v.v.v.v.v.v.v.v.v v v v b v.v.v.v.v v v v b v.v.v.v.v.v.v.v.v.v.v.v.v.v.v.v.v.v.v.v.v.v.v.v.",
"v.v.v.v.v.v.v.v.v.v.v.v.v.v.v.v.v.v.v.v.v.v.v.v.v.v.l.c.l.x.l.v.v.v.v.z.z.z.z.z.v.v.v.v.v.v.v.v.v.v.v.v.v.v.v.v.v.v.v.v.v.v.v.v.",
"v.v.v.v.v.v.v.v.v.v.v.v.v.v.v.v.v.v.v.v.v.v.v.v.v.v.l.c.c.x.c.v.v.v.v.z.z.z.z.z.v.v.v.v.v.v.v.v.v.v.v.v.v.v.v.v.v.v.v.v.v.v.v.v."
};
