/* XPM */
static char *result[] = {
/* columns rows colors chars-per-pixel */
"64 64 146 2 ",
"   c black",
".  c #010101",
"X  c #020202",
"o  c gray1",
"O  c #030204",
"+  c #030306",
"@  c #040306",
"#  c #020406",
"$  c #020407",
"%  c #030507",
"&  c #040407",
"*  c #050407",
"=  c #050508",
"-  c #040609",
";  c #040808",
":  c #0A080A",
">  c #0B0B0B",
",  c #0E0B0E",
"<  c #0C0C0C",
"1  c gray5",
"2  c gray6",
"3  c #101010",
"4  c gray7",
"5  c #131313",
"6  c #131215",
"7  c #151517",
"8  c #161616",
"9  c #181818",
"0  c #191919",
"q  c gray10",
"w  c #1B1B1B",
"e  c gray11",
"r  c #1D1D1D",
"t  c #1E1E1E",
"y  c gray12",
"u  c #202020",
"i  c #222222",
"p  c #232323",
"a  c #232324",
"s  c gray14",
"d  c #252525",
"f  c #272727",
"g  c #494848",
"h  c #494949",
"j  c #4B4B4B",
"k  c gray30",
"l  c #4E4E4E",
"z  c gray31",
"x  c #3C5A9A",
"c  c #3D5B9B",
"v  c #415F9F",
"b  c #4361A1",
"n  c #4361A2",
"m  c #4461A3",
"M  c #4463A2",
"N  c #4462A3",
"B  c #4563A3",
"V  c #4663A2",
"C  c #4564A3",
"Z  c #4764A3",
"A  c #4563A4",
"S  c #4563A5",
"D  c #4663A5",
"F  c #4664A4",
"G  c #4664A5",
"H  c #4765A5",
"J  c #4765A6",
"K  c #4866A6",
"L  c #4966A6",
"P  c #4967A6",
"I  c #4967A8",
"U  c #4967A9",
"Y  c #4968A9",
"T  c #4B69A9",
"R  c #4A68AA",
"E  c #4C69AC",
"W  c #4C6AAC",
"Q  c #4D6BAC",
"!  c #4D6BAD",
"~  c #4E6BAC",
"^  c #4E6CAC",
"/  c #4F6CAC",
"(  c #4F6DAC",
")  c #4E6CAD",
"_  c #4E6CAE",
"`  c #4F6CAE",
"'  c #4E6DAE",
"]  c #506FB1",
"[  c #516FB1",
"{  c #5170B2",
"}  c #5572B3",
"|  c #5574B7",
" . c #5674B7",
".. c #5774B7",
"X. c #5775B8",
"o. c #5776B8",
"O. c #5776B9",
"+. c #5877BA",
"@. c #5977BA",
"#. c #5A79BD",
"$. c #5B7ABD",
"%. c #5F7BBE",
"&. c #5D7CC0",
"*. c #5E7CC0",
"=. c #5E7DC1",
"-. c #607EC0",
";. c #627FC4",
":. c #4C8D93",
">. c #4C8D94",
",. c #4C939A",
"<. c #4C939C",
"1. c #4C949C",
"2. c #509BA4",
"3. c #509CA5",
"4. c #54A4AD",
"5. c #54A4AE",
"6. c #54A5AE",
"7. c #55A5AF",
"8. c #58ACB6",
"9. c #59AEB8",
"0. c #6280C4",
"q. c #6380C4",
"w. c #6382C6",
"e. c #6383C6",
"r. c #6383C7",
"t. c #6483C6",
"y. c #6784C6",
"u. c #6784C7",
"i. c #6685C7",
"p. c #6C87C2",
"a. c #728DC9",
"s. c #738EC9",
"d. c #758FC8",
"f. c #748EC9",
"g. c #748FC9",
"h. c #C2878B",
"j. c #DDB6BA",
"k. c #DEB7BB",
"l. c #DFB7BD",
"z. c #DFB8BC",
"x. c #DFB9BD",
"c. c #D8D8D9",
"v. c #D9D9DA",
"b. c #DADADC",
"n. c #DBDBDC",
"m. c None",
/* MARTA */
"m.m.m.m.m.m.m.m.m.m.m.m.m.m.m.m.m.m.m.m.m.m.m.m.m.m.m.m.m.m.m.m.m.m.m.m.m.m.m.m.m.m.m.m.m.m.m.m.m.m.m.m.m.m.m.m.m.m.m.m.m.m.m.m.",
"m.m.m.m.m.m.m.m.m.m.m.m.m.m.m.m.m.m.m.m.m.m.m.m.m.m.m.m.m.m.m.m.m.m.m.m.m.m.m.m.m.m.m.m.m.m.m.m.m.m.m.m.m.m.m.m.m.m.m.m.m.m.m.m.",
"m.m.m.m.m.m.m.m.m.m.m.m.m.m.m.m.m.m.m.m.m.m.m.m.m.m.m.m.m.m.m.m.m.m.m.m.m.m.m.m.m.m.m.m.m.m.m.m.m.m.m.m.m.m.m.m.m.m.m.m.m.m.m.m.",
"m.m.m.m.m.m.m.m.m.m.m.m.m.m.m.m.m.m.m.m.m.m.m.m.m.m.m.m.m.8.9.9.9.9.9.9.8.m.m.m.m.m.m.m.m.m.m.m.m.m.m.m.m.m.m.m.m.m.m.m.m.m.m.m.",
"m.m.m.m.m.m.m.m.m.m.m.m.m.m.m.m.m.m.m.m.m.m.m.m.m.m.m.8.9.9.9.9.9.9.9.9.9.9.8.m.8.m.m.m.m.m.m.m.m.m.m.m.m.m.m.m.m.m.m.m.m.m.m.m.",
"m.m.m.m.m.m.m.m.m.m.m.m.m.m.m.m.m.m.m.m.m.m.m.m.m.8.9.9.9.9.9.9.9.9.9.9.9.9.9.8.9.8.m.m.m.m.m.m.m.m.m.m.m.m.m.m.m.m.m.m.m.m.m.m.",
"m.m.m.m.m.m.m.m.m.m.m.m.m.m.m.m.m.m.m.m.m.m.m.m.m.9.9.9.8.9.9.9.9.9.9.9.8.8.9.9.9.m.m.m.m.m.m.m.m.m.m.m.m.m.m.m.m.m.m.m.m.m.m.m.",
"m.m.m.m.m.m.m.m.m.m.m.m.m.m.m.m.m.m.m.m.m.m.m.m.8.9.9.9.9.9.9.9.9.9.9.9.9.9.9.9.9.8.m.m.m.m.m.m.m.m.m.m.m.m.m.m.m.m.m.m.m.m.m.m.",
"m.m.m.m.m.m.m.m.m.m.m.m.m.m.m.m.m.m.m.m.m.m.m.m.9.9.9.9.9.9.9.9.9.9.9.9.9.9.9.9.9.9.m.m.m.m.m.m.m.m.m.m.m.m.m.m.m.m.m.m.m.m.m.m.",
"m.m.m.m.m.m.m.m.m.m.m.m.m.m.m.m.m.m.m.m.m.m.m.m.6.6.6.6.6.6.6.6.6.6.6.6.6.6.6.7.6.7.m.m.m.m.m.m.m.m.m.m.m.m.m.m.m.m.m.m.m.m.m.m.",
"m.m.m.m.m.m.m.m.m.m.m.m.m.m.m.m.m.m.m.m.m.m.m.m.6.6.6.3.5.6.6.6.6.6.6.6.6.6.6.6.6.6.m.m.m.m.m.m.m.m.m.m.m.m.m.m.m.m.m.m.m.m.m.m.",
"m.m.m.m.m.m.m.m.m.m.m.m.m.m.m.m.m.m.m.m.m.m.m.m.6.6.6.6.6.6.6.6.6.6.6.6.6.6.6.6.6.6.m.m.m.m.m.m.m.m.m.m.m.m.m.m.m.m.m.m.m.m.m.m.",
"m.m.m.m.m.m.m.m.m.m.m.m.m.m.m.m.m.m.m.m.m.m.m.m.7.6.6.6.6.6.6.6.6.6.6.6.6.6.6.6.6.1.m.m.m.m.m.m.m.m.m.m.m.m.m.m.m.m.m.m.m.m.m.m.",
"m.m.m.m.m.m.m.m.m.m.m.m.m.m.m.m.m.m.m.m.m.m.m.m.5.6.6.5.5.4.6.5.5.6.6.6.6.6.6.6.2.:.m.m.m.m.m.m.m.m.m.m.m.m.m.m.m.m.m.m.m.m.m.m.",
"m.m.m.m.m.m.m.m.m.m.m.m.m.m.m.m.m.m.m.m.m.m.m.m.m.6.6.6.6.6.6.6.6.6.6.6.6.6.6.6.3.m.m.m.m.m.m.m.m.m.m.m.m.m.m.m.m.m.m.m.m.m.m.m.",
"m.m.m.m.m.m.m.m.m.m.m.m.m.m.m.m.m.m.m.m.m.m.m.m.m.5.6.6.6.6.6.6.6.6.6.6.6.6.6.6.3.m.m.m.m.m.m.m.m.m.m.m.m.m.m.m.m.m.m.m.m.m.m.m.",
"m.m.m.m.m.m.m.m.m.m.m.m.m.m.m.m.m.m.m.m.m.m.m.m.m.3.3.3.3.5.5.6.6.6.6.6.6.6.5.3.3.m.m.m.m.m.m.m.m.m.m.m.m.m.m.m.m.m.m.m.m.m.m.m.",
"m.m.m.m.m.m.m.m.m.m.m.m.m.m.m.m.m.m.m.m.m.m.m.m.2.3.3.3.3.3.3.3.3.3.3.3.5.5.3.3.3.1.m.m.m.m.m.m.m.m.m.m.m.m.m.m.m.m.m.m.m.m.m.m.",
"m.m.m.m.m.m.m.m.m.m.m.m.m.m.m.m.m.m.m.m.m.m.m.m.1.3.3.3.3.3.3.3.3.3.3.3.3.3.3.3.>.>.m.m.m.m.m.m.m.m.m.m.m.m.m.m.m.m.m.m.m.m.m.m.",
"m.m.m.m.m.m.m.m.m.m.m.m.m.m.m.m.m.m.m.m.m.m.m.m.:.>.1.3.3.3.3.3.3.3.3.3.3.3.1.1.:.:.m.m.m.m.m.m.m.m.m.m.m.m.m.m.m.m.m.m.m.m.m.m.",
"m.m.m.m.m.m.m.m.m.m.m.m.m.m.m.m.m.m.m.m.m.m.m.m.:.:.:.>.1.1.1.1.1.1.1.1.1.1.1.>.:.<.m.m.m.m.m.m.m.m.m.m.m.m.m.m.m.m.m.m.m.m.m.m.",
"m.m.m.m.m.m.m.m.m.m.m.m.m.m.m.m.m.m.m.m.m.m.m.. . :.:.>.,.:.:.:.>.1.1.1.1.1.1.:.:.X 2 m.m.m.m.m.m.m.m.m.m.m.m.m.m.m.m.m.m.m.m.m.",
"m.m.m.m.m.m.m.m.m.m.m.m.m.m.m.m.m.m.m.m.m.m.. . d d :.:.:.:.:.:.:.:.:.:.:.:.:.:.i u X 2 m.m.m.m.m.m.m.m.m.m.m.m.m.m.m.m.m.m.m.m.",
"m.m.m.m.m.m.m.m.m.m.m.m.m.m.m.m.m.m.m.m.m.m.. d d f   +           ;         w f s i u X m.m.m.m.m.m.m.m.m.m.m.m.m.m.m.m.m.m.m.m.",
"m.m.m.m.m.m.m.m.m.m.m.m.m.m.m.m.m.m.m.m.m.m.. d f f < w 7 =               r q 1 e i f . m.m.m.m.m.m.m.m.m.m.m.m.m.m.m.m.m.m.m.m.",
"m.m.m.m.m.m.m.m.m.m.m.m.m.m.m.m.m.m.m.m.m.m.. f f f < 5 q y +           u q 5   e e f . m.m.m.m.m.m.m.m.m.m.m.m.m.m.m.m.m.m.m.m.",
"m.m.m.m.m.m.m.m.m.m.m.m.m.m.m.m.m.m.m.m.m.m.. f i i X 5 q q u u u u u u q 0 1 3 9 0 f . m.m.m.m.m.m.m.m.m.m.m.m.m.m.m.m.m.m.m.m.",
"m.m.m.m.m.m.m.m.m.m.m.m.m.m.m.m.m.m.m.m.m.m.. f f i     5 0 w u u u t q 0 5   > 9 9 f o m.m.m.m.m.m.m.m.m.m.m.m.m.m.m.m.m.m.m.m.",
"m.m.m.m.m.m.m.m.m.m.m.m.m.m.m.m.m.m.m.m.m.m.. i i i 8 i < 5 0 0 e e q 0 1   f 2 9 0 f . m.m.m.m.m.m.m.m.m.m.m.m.m.m.m.m.m.m.m.m.",
"m.m.m.m.m.m.m.m.m.m.m.m.m.m.m.m.m.m.m.m.m.m.. f f i   i . < 1 0 q q 0 4   X f 2 9 p i . m.m.m.m.m.m.m.m.m.m.m.m.m.m.m.m.m.m.m.m.",
"m.m.m.m.m.m.m.m.m.m.m.m.m.m.m.m.m.m.m.m.m.m.. f i i   i p X             i i f 2 9 p p . m.m.m.m.m.m.m.m.m.m.m.m.m.m.m.m.m.m.m.m.",
"m.m.m.m.m.m.m.m.m.m.m.m.m.m.m.m.m.m.m.m.m.m.. i f f . i f i i i i i i i i f f 2 9 9 i . m.m.m.m.m.m.m.m.m.m.m.m.m.m.m.m.m.m.m.m.",
"m.m.m.m.m.m.m.m.m.m.m.m.m.m.m.m.m.m.m.m.m.m.. i i i   i i i i i i i i i i f i 2 w 9 i . m.m.m.m.m.m.m.m.m.m.m.m.m.m.m.m.m.m.m.m.",
"m.m.m.m.m.m.m.m.m.m.m.m.m.m.m.m.m.m.m.m.m.m.. f f i 8 i i i i i i i i i f f i 2 w 9 f . m.m.m.m.m.m.m.m.m.m.m.m.m.m.m.m.m.m.m.m.",
"m.m.m.m.m.m.m.m.m.m.m.m.m.m.m.m.m.m.m.m.m.m.. i i i . i i f i i f i i f f f p 2 q q e . m.m.m.m.m.m.m.m.m.m.m.m.m.m.m.m.m.m.m.m.",
"m.m.m.m.m.m.m.m.m.m.m.m.m.m.m.m.m.m.m.m.m.m.. i i i   i a i i i i i i i i i a 2 w q w . m.m.m.m.m.m.m.m.m.m.m.m.m.m.m.m.m.m.m.m.",
"m.m.m.m.m.m.m.m.m.m.m.m.m.m.m.m.m.m.m.m.m.m.. + & +   u 8 i i f f f f i i - $ . O O   X m.m.m.m.m.m.m.m.m.m.m.m.m.m.m.m.m.m.m.m.",
"m.m.m.m.m.m.m.m.m.m.m.m.m.m.m.m.m.m.m.m.m.m., , & , % #   - p p i p p p - $ . 8 : : : 6 m.m.m.m.m.m.m.m.m.m.m.m.m.m.m.m.m.m.m.m.",
"m.m.m.m.m.m.m.m.m.m.m.m.m.m.m.m.m.m.m.m.m.m.h.h.h.h.# 8 + +     8 8   8 $ $   * h.h.h.h.m.m.m.m.m.m.m.m.m.m.m.m.m.m.m.m.m.m.m.m.",
"m.m.m.m.m.m.m.m.m.m.m.m.m.m.m.m.m.m.m.m.m.m.j.x.l.j.Z [ R @     . .   . + I v c j.x.x.x.m.m.m.m.m.m.m.m.m.m.m.m.m.m.m.m.m.m.m.m.",
"m.m.m.m.m.m.m.m.m.m.m.m.m.m.m.m.m.m.m.m.m.m.j.x.x.j.) ) D n t.t.t.$.O.t.M Y v m j.x.x.k.m.m.m.m.m.m.m.m.m.m.m.m.m.m.m.m.m.m.m.m.",
"m.m.m.m.m.m.m.m.m.m.m.m.m.m.m.m.m.m.m.m.m.m.m.x.x.j.) H D b w.w.=.#.O.t.P E x S j.x.x.m.m.m.m.m.m.m.m.m.m.m.m.m.m.m.m.m.m.m.m.m.",
"m.m.m.m.m.m.m.m.m.m.m.m.m.m.m.m.m.m.m.m.m.m.m.z.x.j.) H ! K g.&.#.O.O.t.P } P B j.x.x.m.m.m.m.m.m.m.m.m.m.m.m.m.m.m.m.m.m.m.m.m.",
"m.m.m.m.m.m.m.m.m.m.m.m.m.m.m.m.m.m.m.m.m.m.m.m.m.m.B F P L V m.m.m.m.! P P P B m.m.m.m.m.m.m.m.m.m.m.m.m.m.m.m.m.m.m.m.m.m.m.m.",
"m.m.m.m.m.m.m.m.m.m.m.m.m.m.m.m.m.m.m.m.m.m.m.m.m.m.) | t.s.W m.m.m.m.' t.d.s.^ m.m.m.m.m.m.m.m.m.m.m.m.m.m.m.m.m.m.m.m.m.m.m.m.",
"m.m.m.m.m.m.m.m.m.m.m.m.m.m.m.m.m.m.m.m.m.m.m.m.m.m.( | t.s./ m.m.m.m.' t.d.s.B m.m.m.m.m.m.m.m.m.m.m.m.m.m.m.m.m.m.m.m.m.m.m.m.",
"m.m.m.m.m.m.m.m.m.m.m.m.m.m.m.m.m.m.m.m.m.m.m.m.m.m.^ [ 0.i./ m.m.m.m._ ;.q.i.B m.m.m.m.m.m.m.m.m.m.m.m.m.m.m.m.m.m.m.m.m.m.m.m.",
"m.m.m.m.m.m.m.m.m.m.m.m.m.m.m.m.m.m.m.m.m.m.m.m.m.m.A ` p.u.W m.m.m.m.~ %.%.a.B m.m.m.m.m.m.m.m.m.m.m.m.m.m.m.m.m.m.m.m.m.m.m.m.",
"m.m.m.m.m.m.m.m.m.m.m.m.m.m.m.m.m.m.m.m.m.m.m.m.m.m.C  ...-.T m.m.m.m.^  . .@.B m.m.m.m.m.m.m.m.m.m.m.m.m.m.m.m.m.m.m.m.m.m.m.m.",
"m.m.m.m.m.m.m.m.m.m.m.m.m.m.m.m.m.m.m.m.m.m.m.m.m.m.A  .*.y.T m.m.m.m.) { 0.X.B m.m.m.m.m.m.m.m.m.m.m.m.m.m.m.m.m.m.m.m.m.m.m.m.",
"m.m.m.m.m.m.m.m.m.m.m.m.m.m.m.m.m.m.m.m.m.m.m.m.m.m.A ] e.i.W m.m.m.m.U ;.e.d.B m.m.m.m.m.m.m.m.m.m.m.m.m.m.m.m.m.m.m.m.m.m.m.m.",
"m.m.m.m.m.m.m.m.m.m.m.m.m.m.m.m.m.m.m.m.m.m.m.m.m.m.J +.t.s.( m.m.m.m.U t.t.d.B m.m.m.m.m.m.m.m.m.m.m.m.m.m.m.m.m.m.m.m.m.m.m.m.",
"m.m.m.m.m.m.m.m.m.m.m.m.m.m.m.m.m.m.m.m.m.m.m.m.m.m.A +.t.s.( m.m.m.m.U t.d.w.B m.m.m.m.m.m.m.m.m.m.m.m.m.m.m.m.m.m.m.m.m.m.m.m.",
"m.m.m.m.m.m.m.m.m.m.m.m.m.m.m.m.m.m.m.m.m.m.m.m.m.m.A +.t.t.( m.m.m.m.A t.d.t.B m.m.m.m.m.m.m.m.m.m.m.m.m.m.m.m.m.m.m.m.m.m.m.m.",
"m.m.m.m.m.m.m.m.m.m.m.m.m.m.m.m.m.m.m.m.m.m.m.m.m.m.A +.t.t./ m.m.m.m.A t.d.d.B m.m.m.m.m.m.m.m.m.m.m.m.m.m.m.m.m.m.m.m.m.m.m.m.",
"m.m.m.m.m.m.m.m.m.m.m.m.m.m.m.m.m.m.m.m.m.m.m.m.m.m.A +.r.f.W m.m.m.m._ t.t.t.B m.m.m.m.m.m.m.m.m.m.m.m.m.m.m.m.m.m.m.m.m.m.m.m.",
"m.m.m.m.m.m.m.m.m.m.m.m.m.m.m.m.m.m.m.m.m.m.m.m.m.m.A +.t.s.W m.m.m.m.! d.t.t.B m.m.m.m.m.m.m.m.m.m.m.m.m.m.m.m.m.m.m.m.m.m.m.m.",
"m.m.m.m.m.m.m.m.m.m.m.m.m.m.m.m.m.m.m.m.m.m.m.m.m.m.B o.0.t.Q m.m.m.m.N ;.t.d.G m.m.m.m.m.m.m.m.m.m.m.m.m.m.m.m.m.m.m.m.m.m.m.m.",
"m.m.m.m.m.m.m.m.m.m.m.m.m.m.m.m.m.m.m.m.m.m.m.m.m.m.l j l h h m.m.m.m.l k g g k m.m.m.m.m.m.m.m.m.m.m.m.m.m.m.m.m.m.m.m.m.m.m.m.",
"m.m.m.m.m.m.m.m.m.m.m.m.m.m.m.m.m.m.m.m.m.m.m.m.m.m.l l l k l m.m.m.m.l l g g g m.m.m.m.m.m.m.m.m.m.m.m.m.m.m.m.m.m.m.m.m.m.m.m.",
"m.m.m.m.m.m.m.m.m.m.m.m.m.m.m.m.m.m.m.m.m.m.m.m.m.m.z l l l l m.m.m.m.l l l l l m.m.m.m.m.m.m.m.m.m.m.m.m.m.m.m.m.m.m.m.m.m.m.m.",
"m.m.m.m.m.m.m.m.m.m.m.m.m.m.m.m.m.m.m.m.m.m.m.m.m.m.l l l l z m.m.m.m.l l l l l m.m.m.m.m.m.m.m.m.m.m.m.m.m.m.m.m.m.m.m.m.m.m.m.",
"m.m.m.m.m.m.m.m.m.m.m.m.m.m.m.m.m.m.m.m.m.m.m.m.m.m.c.n.c.b.c.m.m.m.m.v.v.v.v.v.m.m.m.m.m.m.m.m.m.m.m.m.m.m.m.m.m.m.m.m.m.m.m.m.",
"m.m.m.m.m.m.m.m.m.m.m.m.m.m.m.m.m.m.m.m.m.m.m.m.m.m.c.n.n.b.n.m.m.m.m.v.v.v.v.v.m.m.m.m.m.m.m.m.m.m.m.m.m.m.m.m.m.m.m.m.m.m.m.m."
};
