/* XPM */
static char *result[] = {
/* columns rows colors chars-per-pixel */
"64 64 136 2 ",
"   c black",
".  c #010101",
"X  c #020202",
"o  c gray1",
"O  c #030204",
"+  c #030306",
"@  c #040306",
"#  c #020406",
"$  c #020407",
"%  c #030507",
"&  c #040406",
"*  c #050406",
"=  c #040407",
"-  c #050407",
";  c #050508",
":  c #040609",
">  c #0A080A",
",  c #0B0B0B",
"<  c #0C0909",
"1  c #0E0B0D",
"2  c #0E0B0E",
"3  c #0C0C0C",
"4  c gray5",
"5  c #0F0C0E",
"6  c gray6",
"7  c #101010",
"8  c gray7",
"9  c #131313",
"0  c #131215",
"q  c #151517",
"w  c #161616",
"e  c #181818",
"r  c #191919",
"t  c gray10",
"y  c #1B1B1B",
"u  c gray11",
"i  c #1D1D1D",
"p  c #1E1E1E",
"a  c gray12",
"s  c #391C01",
"d  c #3A1C01",
"f  c #202020",
"g  c #222222",
"h  c #232323",
"j  c #232324",
"k  c gray14",
"l  c #252525",
"z  c #272727",
"x  c #422001",
"c  c #442101",
"v  c #452101",
"b  c #452201",
"n  c #4B2709",
"m  c #502701",
"M  c #512801",
"N  c #522801",
"B  c #512802",
"V  c #494848",
"C  c #494949",
"Z  c #4B4B4B",
"A  c gray30",
"S  c #4E4E4E",
"D  c gray31",
"F  c #2A4784",
"G  c #2B4886",
"H  c #2A4887",
"J  c #2B4987",
"K  c #2B4988",
"L  c #2E4C8B",
"P  c #2E4C8C",
"I  c #304C89",
"U  c #304E8D",
"Y  c #314E8D",
"T  c #314F90",
"R  c #345292",
"E  c #375594",
"W  c #375595",
"Q  c #385597",
"!  c #385697",
"~  c #3B5895",
"^  c #395897",
"/  c #3B5896",
"(  c #395698",
")  c #3A5799",
"_  c #395898",
"`  c #39589A",
"'  c #3B589A",
"]  c #3F5D9E",
"[  c #3F5E9E",
"{  c #405EA0",
"}  c #415FA1",
"|  c #425FA2",
" . c #4662A2",
".. c #4F6CAE",
"X. c #506FB1",
"o. c #516FB1",
"O. c #5170B2",
"+. c #5472B5",
"@. c #5574B7",
"#. c #5674B7",
"$. c #5774B7",
"%. c #5775B7",
"&. c #5775B8",
"*. c #5776B8",
"=. c #5776B9",
"-. c #5877BA",
";. c #5A79BD",
":. c #5B7ABD",
">. c #5F7BBE",
",. c #5D7CC0",
"<. c #5E7CC0",
"1. c #5E7DC1",
"2. c #627FC4",
"3. c #6280C4",
"4. c #6380C4",
"5. c #6382C6",
"6. c #6383C6",
"7. c #6383C7",
"8. c #6582C4",
"9. c #6483C6",
"0. c #6C87C2",
"q. c #748EC8",
"w. c #758FC8",
"e. c #748FC9",
"r. c #768FC8",
"t. c #C2878B",
"y. c #DDB6BA",
"u. c #DEB7BB",
"i. c #DFB7BD",
"p. c #DFB8BC",
"a. c #DFB9BD",
"s. c #D8D8D9",
"d. c #D9D9DA",
"f. c #DADADC",
"g. c #DBDBDC",
"h. c None",
/* PASQUA */
"h.h.h.h.h.h.h.h.h.h.h.h.h.h.h.h.h.h.h.h.h.h.h.h.h.h.h.h.h.h.h.h.h.h.h.h.h.h.h.h.h.h.h.h.h.h.h.h.h.h.h.h.h.h.h.h.h.h.h.h.h.h.h.h.",
"h.h.h.h.h.h.h.h.h.h.h.h.h.h.h.h.h.h.h.h.h.h.h.h.h.h.h.h.h.h.h.h.h.h.h.h.h.h.h.h.h.h.h.h.h.h.h.h.h.h.h.h.h.h.h.h.h.h.h.h.h.h.h.h.",
"h.h.h.h.h.h.h.h.h.h.h.h.h.h.h.h.h.h.h.h.h.h.h.h.h.h.h.h.h.h.h.h.h.h.h.h.h.h.h.h.h.h.h.h.h.h.h.h.h.h.h.h.h.h.h.h.h.h.h.h.h.h.h.h.",
"h.h.h.h.h.h.h.h.h.h.h.h.h.h.h.h.h.h.h.h.h.h.h.h.h.h.h.h.h.N N N N N N N m h.h.h.h.h.h.h.h.h.h.h.h.h.h.h.h.h.h.h.h.h.h.h.h.h.h.h.",
"h.h.h.h.h.h.h.h.h.h.h.h.h.h.h.h.h.h.h.h.h.h.h.h.h.h.h.m N N N N N N N N N N m h.B h.h.h.h.h.h.h.h.h.h.h.h.h.h.h.h.h.h.h.h.h.h.h.",
"h.h.h.h.h.h.h.h.h.h.h.h.h.h.h.h.h.h.h.h.h.h.h.h.h.N N N N N N N N N N N N N N N N B h.h.h.h.h.h.h.h.h.h.h.h.h.h.h.h.h.h.h.h.h.h.",
"h.h.h.h.h.h.h.h.h.h.h.h.h.h.h.h.h.h.h.h.h.h.h.h.h.N N N N N N N N N N N N N N N m h.h.h.h.h.h.h.h.h.h.h.h.h.h.h.h.h.h.h.h.h.h.h.",
"h.h.h.h.h.h.h.h.h.h.h.h.h.h.h.h.h.h.h.h.h.h.h.h.N N N N N N N N N N N N N N N N N M h.h.h.h.h.h.h.h.h.h.h.h.h.h.h.h.h.h.h.h.h.h.",
"h.h.h.h.h.h.h.h.h.h.h.h.h.h.h.h.h.h.h.h.h.h.h.h.N N N N N N N N N N N N N N N N N N h.h.h.h.h.h.h.h.h.h.h.h.h.h.h.h.h.h.h.h.h.h.",
"h.h.h.h.h.h.h.h.h.h.h.h.h.h.h.h.h.h.h.h.h.h.h.h.N N N N N N N N N N N N N N N N N N h.h.h.h.h.h.h.h.h.h.h.h.h.h.h.h.h.h.h.h.h.h.",
"h.h.h.h.h.h.h.h.h.h.h.h.h.h.h.h.h.h.h.h.h.h.h.h.N N N N N N N N N N N N N N N N m m h.h.h.h.h.h.h.h.h.h.h.h.h.h.h.h.h.h.h.h.h.h.",
"h.h.h.h.h.h.h.h.h.h.h.h.h.h.h.h.h.h.h.h.h.h.h.h.N n c b N N N N N N N N N N b c c c h.h.h.h.h.h.h.h.h.h.h.h.h.h.h.h.h.h.h.h.h.h.",
"h.h.h.h.h.h.h.h.h.h.h.h.h.h.h.h.h.h.h.h.h.h.h.h.N c c c b c c N N N M N N v c c c c h.h.h.h.h.h.h.h.h.h.h.h.h.h.h.h.h.h.h.h.h.h.",
"h.h.h.h.h.h.h.h.h.h.h.h.h.h.h.h.h.h.h.h.h.h.h.h.N c c c c c b c c c c c c c c c c c h.h.h.h.h.h.h.h.h.h.h.h.h.h.h.h.h.h.h.h.h.h.",
"h.h.h.h.h.h.h.h.h.h.h.h.h.h.h.h.h.h.h.h.h.h.h.h.h.n c c c c c c c c c c c x c c c h.h.h.h.h.h.h.h.h.h.h.h.h.h.h.h.h.h.h.h.h.h.h.",
"h.h.h.h.h.h.h.h.h.h.h.h.h.h.h.h.h.h.h.h.h.h.h.h.h.s s c c c c c c c c c c c c s d h.h.h.h.h.h.h.h.h.h.h.h.h.h.h.h.h.h.h.h.h.h.h.",
"h.h.h.h.h.h.h.h.h.h.h.h.h.h.h.h.h.h.h.h.h.h.h.h.h.s s d s s d c c c c c s s s s s h.h.h.h.h.h.h.h.h.h.h.h.h.h.h.h.h.h.h.h.h.h.h.",
"h.h.h.h.h.h.h.h.h.h.h.h.h.h.h.h.h.h.h.h.h.h.h.h.s s s s s s s s s s s s s s s s s s h.h.h.h.h.h.h.h.h.h.h.h.h.h.h.h.h.h.h.h.h.h.",
"h.h.h.h.h.h.h.h.h.h.h.h.h.h.h.h.h.h.h.h.h.h.h.h.s s s s s s s s s s s s s s s s s s h.h.h.h.h.h.h.h.h.h.h.h.h.h.h.h.h.h.h.h.h.h.",
"h.h.h.h.h.h.h.h.h.h.h.h.h.h.h.h.h.h.h.h.h.h.h.h.s s .     . . 1 * * 1 X + .   X 7 s h.h.h.h.h.h.h.h.h.h.h.h.h.h.h.h.h.h.h.h.h.h.",
"h.h.h.h.h.h.h.h.h.h.h.h.h.h.h.h.h.h.h.h.h.h.h.h.h.. + +   . . 5 * * * < & .   + = h.h.h.h.h.h.h.h.h.h.h.h.h.h.h.h.h.h.h.h.h.h.h.",
"h.h.h.h.h.h.h.h.h.h.h.h.h.h.h.h.h.h.h.h.h.h.h.. . l                     X   X   p X 6 h.h.h.h.h.h.h.h.h.h.h.h.h.h.h.h.h.h.h.h.h.",
"h.h.h.h.h.h.h.h.h.h.h.h.h.h.h.h.h.h.h.h.h.h.. . l l   +                     3 4 g f X 6 h.h.h.h.h.h.h.h.h.h.h.h.h.h.h.h.h.h.h.h.",
"h.h.h.h.h.h.h.h.h.h.h.h.h.h.h.h.h.h.h.h.h.h.. l l z   +                     y z k g f X h.h.h.h.h.h.h.h.h.h.h.h.h.h.h.h.h.h.h.h.",
"h.h.h.h.h.h.h.h.h.h.h.h.h.h.h.h.h.h.h.h.h.h.. l z z 3 y q ;               i t 4 u g z . h.h.h.h.h.h.h.h.h.h.h.h.h.h.h.h.h.h.h.h.",
"h.h.h.h.h.h.h.h.h.h.h.h.h.h.h.h.h.h.h.h.h.h.. z z z 3 9 t a +           f t 9   u u z . h.h.h.h.h.h.h.h.h.h.h.h.h.h.h.h.h.h.h.h.",
"h.h.h.h.h.h.h.h.h.h.h.h.h.h.h.h.h.h.h.h.h.h.. z g g X 9 t t f f f f f f t r 4 7 e r z . h.h.h.h.h.h.h.h.h.h.h.h.h.h.h.h.h.h.h.h.",
"h.h.h.h.h.h.h.h.h.h.h.h.h.h.h.h.h.h.h.h.h.h.. z z g     9 r y f f f p t r 9   , e e z o h.h.h.h.h.h.h.h.h.h.h.h.h.h.h.h.h.h.h.h.",
"h.h.h.h.h.h.h.h.h.h.h.h.h.h.h.h.h.h.h.h.h.h.. g g g w g 3 9 r r u u t r 4   z 6 e r z . h.h.h.h.h.h.h.h.h.h.h.h.h.h.h.h.h.h.h.h.",
"h.h.h.h.h.h.h.h.h.h.h.h.h.h.h.h.h.h.h.h.h.h.. z z g   g . 3 4 r t t r 8   X z 6 e h g . h.h.h.h.h.h.h.h.h.h.h.h.h.h.h.h.h.h.h.h.",
"h.h.h.h.h.h.h.h.h.h.h.h.h.h.h.h.h.h.h.h.h.h.. z g g   g h X             g g z 6 e h h . h.h.h.h.h.h.h.h.h.h.h.h.h.h.h.h.h.h.h.h.",
"h.h.h.h.h.h.h.h.h.h.h.h.h.h.h.h.h.h.h.h.h.h.. g z z . g z g g g g g g g g z z 6 e e g . h.h.h.h.h.h.h.h.h.h.h.h.h.h.h.h.h.h.h.h.",
"h.h.h.h.h.h.h.h.h.h.h.h.h.h.h.h.h.h.h.h.h.h.. g g g   g g g g g g g g g g z g 6 y e g . h.h.h.h.h.h.h.h.h.h.h.h.h.h.h.h.h.h.h.h.",
"h.h.h.h.h.h.h.h.h.h.h.h.h.h.h.h.h.h.h.h.h.h.. z z g w g g g g g g g g g z z g 6 y e z . h.h.h.h.h.h.h.h.h.h.h.h.h.h.h.h.h.h.h.h.",
"h.h.h.h.h.h.h.h.h.h.h.h.h.h.h.h.h.h.h.h.h.h.. g g g . g g z g g z g g z z z h 6 t t u . h.h.h.h.h.h.h.h.h.h.h.h.h.h.h.h.h.h.h.h.",
"h.h.h.h.h.h.h.h.h.h.h.h.h.h.h.h.h.h.h.h.h.h.. g g g   g j g g g g g g g g g j 6 y t y . h.h.h.h.h.h.h.h.h.h.h.h.h.h.h.h.h.h.h.h.",
"h.h.h.h.h.h.h.h.h.h.h.h.h.h.h.h.h.h.h.h.h.h.. + = +   f w g g z z z z g g : $ . O O   X h.h.h.h.h.h.h.h.h.h.h.h.h.h.h.h.h.h.h.h.",
"h.h.h.h.h.h.h.h.h.h.h.h.h.h.h.h.h.h.h.h.h.h.2 2 = 2 % #   : h h g h h h : $ . w > > > 0 h.h.h.h.h.h.h.h.h.h.h.h.h.h.h.h.h.h.h.h.",
"h.h.h.h.h.h.h.h.h.h.h.h.h.h.h.h.h.h.h.h.h.h.t.t.t.t.# w + +     w w   w $ $   - t.t.t.t.h.h.h.h.h.h.h.h.h.h.h.h.h.h.h.h.h.h.h.h.",
"h.h.h.h.h.h.h.h.h.h.h.h.h.h.h.h.h.h.h.h.h.h.y.a.i.y.I { } @     . .   . + ] R U y.a.a.a.h.h.h.h.h.h.h.h.h.h.h.h.h.h.h.h.h.h.h.h.",
"h.h.h.h.h.h.h.h.h.h.h.h.h.h.h.h.h.h.h.h.h.h.y.a.a.y.K L ' W 9.9.9.:.=.9.^ [ R Q y.a.a.u.h.h.h.h.h.h.h.h.h.h.h.h.h.h.h.h.h.h.h.h.",
"h.h.h.h.h.h.h.h.h.h.h.h.h.h.h.h.h.h.h.h.h.h.h.a.a.y.K L ' E 5.5.1.;.=.9.U | L ) y.a.a.h.h.h.h.h.h.h.h.h.h.h.h.h.h.h.h.h.h.h.h.h.",
"h.h.h.h.h.h.h.h.h.h.h.h.h.h.h.h.h.h.h.h.h.h.h.p.a.y.K L ) U e.,.;.=.=.9.U  .U J y.a.a.h.h.h.h.h.h.h.h.h.h.h.h.h.h.h.h.h.h.h.h.h.",
"h.h.h.h.h.h.h.h.h.h.h.h.h.h.h.h.h.h.h.h.h.h.h.h.h.h.K L U Y / h.h.h.h.( U U Y J h.h.h.h.h.h.h.h.h.h.h.h.h.h.h.h.h.h.h.h.h.h.h.h.",
"h.h.h.h.h.h.h.h.h.h.h.h.h.h.h.h.h.h.h.h.h.h.h.h.h.h.K @.9.w.W h.h.h.h.` 9.w.w.J h.h.h.h.h.h.h.h.h.h.h.h.h.h.h.h.h.h.h.h.h.h.h.h.",
"h.h.h.h.h.h.h.h.h.h.h.h.h.h.h.h.h.h.h.h.h.h.h.h.h.h.J @.9.w.~ h.h.h.h.` 9.w.w.J h.h.h.h.h.h.h.h.h.h.h.h.h.h.h.h.h.h.h.h.h.h.h.h.",
"h.h.h.h.h.h.h.h.h.h.h.h.h.h.h.h.h.h.h.h.h.h.h.h.h.h.K o.3.9.~ h.h.h.h.` 2.4.9.J h.h.h.h.h.h.h.h.h.h.h.h.h.h.h.h.h.h.h.h.h.h.h.h.",
"h.h.h.h.h.h.h.h.h.h.h.h.h.h.h.h.h.h.h.h.h.h.h.h.h.h.K ..0.4.W h.h.h.h.F >.>.q.J h.h.h.h.h.h.h.h.h.h.h.h.h.h.h.h.h.h.h.h.h.h.h.h.",
"h.h.h.h.h.h.h.h.h.h.h.h.h.h.h.h.h.h.h.h.h.h.h.h.h.h.J #.$.%.R h.h.h.h.G #.#.+.J h.h.h.h.h.h.h.h.h.h.h.h.h.h.h.h.h.h.h.h.h.h.h.h.",
"h.h.h.h.h.h.h.h.h.h.h.h.h.h.h.h.h.h.h.h.h.h.h.h.h.h.K #.<.8.R h.h.h.h.K O.3.&.J h.h.h.h.h.h.h.h.h.h.h.h.h.h.h.h.h.h.h.h.h.h.h.h.",
"h.h.h.h.h.h.h.h.h.h.h.h.h.h.h.h.h.h.h.h.h.h.h.h.h.h.K X.6.9.W h.h.h.h.T 2.6.w.J h.h.h.h.h.h.h.h.h.h.h.h.h.h.h.h.h.h.h.h.h.h.h.h.",
"h.h.h.h.h.h.h.h.h.h.h.h.h.h.h.h.h.h.h.h.h.h.h.h.h.h.P -.9.w.~ h.h.h.h.T 9.9.w.J h.h.h.h.h.h.h.h.h.h.h.h.h.h.h.h.h.h.h.h.h.h.h.h.",
"h.h.h.h.h.h.h.h.h.h.h.h.h.h.h.h.h.h.h.h.h.h.h.h.h.h.K -.9.w.~ h.h.h.h.T 9.w.5.J h.h.h.h.h.h.h.h.h.h.h.h.h.h.h.h.h.h.h.h.h.h.h.h.",
"h.h.h.h.h.h.h.h.h.h.h.h.h.h.h.h.h.h.h.h.h.h.h.h.h.h.K -.9.9.~ h.h.h.h.K 9.w.9.J h.h.h.h.h.h.h.h.h.h.h.h.h.h.h.h.h.h.h.h.h.h.h.h.",
"h.h.h.h.h.h.h.h.h.h.h.h.h.h.h.h.h.h.h.h.h.h.h.h.h.h.K -.9.9.~ h.h.h.h.K 9.w.w.J h.h.h.h.h.h.h.h.h.h.h.h.h.h.h.h.h.h.h.h.h.h.h.h.",
"h.h.h.h.h.h.h.h.h.h.h.h.h.h.h.h.h.h.h.h.h.h.h.h.h.h.K -.7.r.W h.h.h.h.` 9.9.9.J h.h.h.h.h.h.h.h.h.h.h.h.h.h.h.h.h.h.h.h.h.h.h.h.",
"h.h.h.h.h.h.h.h.h.h.h.h.h.h.h.h.h.h.h.h.h.h.h.h.h.h.K -.9.w.W h.h.h.h.` w.9.9.J h.h.h.h.h.h.h.h.h.h.h.h.h.h.h.h.h.h.h.h.h.h.h.h.",
"h.h.h.h.h.h.h.h.h.h.h.h.h.h.h.h.h.h.h.h.h.h.h.h.h.h.H *.3.9._ h.h.h.h.! 2.9.w.L h.h.h.h.h.h.h.h.h.h.h.h.h.h.h.h.h.h.h.h.h.h.h.h.",
"h.h.h.h.h.h.h.h.h.h.h.h.h.h.h.h.h.h.h.h.h.h.h.h.h.h.S Z S C C h.h.h.h.S A V V A h.h.h.h.h.h.h.h.h.h.h.h.h.h.h.h.h.h.h.h.h.h.h.h.",
"h.h.h.h.h.h.h.h.h.h.h.h.h.h.h.h.h.h.h.h.h.h.h.h.h.h.S S S A S h.h.h.h.S S V V V h.h.h.h.h.h.h.h.h.h.h.h.h.h.h.h.h.h.h.h.h.h.h.h.",
"h.h.h.h.h.h.h.h.h.h.h.h.h.h.h.h.h.h.h.h.h.h.h.h.h.h.D S S S S h.h.h.h.S S S S S h.h.h.h.h.h.h.h.h.h.h.h.h.h.h.h.h.h.h.h.h.h.h.h.",
"h.h.h.h.h.h.h.h.h.h.h.h.h.h.h.h.h.h.h.h.h.h.h.h.h.h.S S S S D h.h.h.h.S S S S S h.h.h.h.h.h.h.h.h.h.h.h.h.h.h.h.h.h.h.h.h.h.h.h.",
"h.h.h.h.h.h.h.h.h.h.h.h.h.h.h.h.h.h.h.h.h.h.h.h.h.h.s.g.s.f.s.h.h.h.h.d.d.d.d.d.h.h.h.h.h.h.h.h.h.h.h.h.h.h.h.h.h.h.h.h.h.h.h.h.",
"h.h.h.h.h.h.h.h.h.h.h.h.h.h.h.h.h.h.h.h.h.h.h.h.h.h.s.g.g.f.g.h.h.h.h.d.d.d.d.d.h.h.h.h.h.h.h.h.h.h.h.h.h.h.h.h.h.h.h.h.h.h.h.h."
};
