/* XPM */
static char *result[] = {
/* columns rows colors chars-per-pixel */
"64 64 209 2 ",
"   c black",
".  c #0A0804",
"X  c #2F1700",
"o  c #2E1701",
"O  c #301802",
"+  c #3D1E00",
"@  c #3D1E01",
"#  c #3E1E01",
"$  c #391C0B",
"%  c #3A3A3A",
"&  c #3A3A3B",
"*  c #3E3E3E",
"=  c #401F0C",
"-  c #442101",
";  c #452201",
":  c #452301",
">  c #442202",
",  c #4E2701",
"<  c #49240D",
"1  c #49240E",
"2  c #512801",
"3  c #522801",
"4  c #522901",
"5  c #542900",
"6  c #552A00",
"7  c #5B2E00",
"8  c #5D2D00",
"9  c #5F2E00",
"0  c #5E2E01",
"q  c #592E04",
"w  c #602E00",
"e  c #612E00",
"r  c #602F00",
"t  c #693402",
"y  c gray26",
"u  c #2A4887",
"i  c #2B4887",
"p  c #2B4988",
"a  c #2B4989",
"s  c #2B4A88",
"d  c #2C4989",
"f  c #2C4A89",
"g  c #385697",
"h  c #395697",
"j  c #395698",
"k  c #39579A",
"l  c #39589A",
"z  c #3B5A9D",
"x  c #617EC2",
"c  c #617EC4",
"v  c #627FC4",
"b  c #B625A5",
"n  c #B626A6",
"m  c #B824A7",
"M  c #B924A7",
"N  c #B529A6",
"B  c #B629A6",
"V  c #BE22AA",
"C  c #B824A8",
"Z  c #B929A9",
"A  c #B82BA9",
"S  c #BB29AB",
"D  c #BB2BAA",
"F  c #BA2EAC",
"G  c #BC2CAC",
"H  c #BF2CAE",
"J  c #BE2FAE",
"K  c #BF2FAE",
"L  c #BF2FAF",
"P  c #BF2FB0",
"I  c #C32BB1",
"U  c #C12FB1",
"Y  c #C32FB3",
"T  c #C42CB2",
"R  c #C52FB3",
"E  c #C430B2",
"W  c #C134B2",
"Q  c #C134B3",
"!  c #C430B4",
"~  c #C530B4",
"^  c #C531B4",
"/  c #C631B5",
"(  c #C632B5",
")  c #C732B6",
"_  c #C733B6",
"`  c #CA30B6",
"'  c #CA30B7",
"]  c #C834B6",
"[  c #C834B7",
"{  c #C934B7",
"}  c #C835B7",
"|  c #C935B7",
" . c #C936B7",
".. c #C73AB7",
"X. c #CD33BA",
"o. c #C935B8",
"O. c #C936B8",
"+. c #C936B9",
"@. c #CA36B9",
"#. c #CA37B9",
"$. c #C93AB9",
"%. c #CC3ABB",
"&. c #CD39BC",
"*. c #CE3FBE",
"=. c #CE3FBF",
"-. c #D230BD",
";. c #D230BE",
":. c #CF40BF",
">. c #D342C3",
",. c #D440C2",
"<. c #D541C3",
"1. c #D641C4",
"2. c #D743C4",
"3. c #DB41C7",
"4. c #DA43C7",
"5. c #DB41C8",
"6. c #DB42C8",
"7. c #DC41C8",
"8. c #DE44CA",
"9. c #DF47CB",
"0. c #DA48C9",
"q. c #DF48CD",
"w. c #E14BCE",
"e. c #E04DCE",
"r. c #E14DD0",
"t. c #EA49D2",
"y. c #EA4AD3",
"u. c #EB4AD3",
"i. c #E553D4",
"p. c #EC50D6",
"a. c #EB55D8",
"s. c #EB56D8",
"d. c #EC56D8",
"f. c #EC56D9",
"g. c #ED56D9",
"h. c #ED57DA",
"j. c #EE57DA",
"k. c #ED58DA",
"l. c #ED58DB",
"z. c #EE58DB",
"x. c #EB5FD9",
"c. c #EA5DDB",
"v. c #EF5BDC",
"b. c #EF5FDE",
"n. c #EF5FDF",
"m. c #F059DC",
"M. c #F65BDF",
"N. c #F15DDE",
"B. c #F35CDE",
"V. c #F35DDF",
"C. c #EF60DF",
"Z. c #F75CE0",
"A. c #F75CE1",
"S. c #F85BE1",
"D. c #F85CE1",
"F. c #F760E1",
"G. c #F462E1",
"H. c #F561E2",
"J. c #F462E2",
"K. c #F562E2",
"L. c #F064E0",
"P. c #F064E1",
"I. c #F366E3",
"U. c #F464E2",
"Y. c #F564E2",
"T. c #F564E3",
"R. c #F860E2",
"E. c #F861E2",
"W. c #F268E3",
"Q. c #6280C4",
"!. c #6380C4",
"~. c #6280C5",
"^. c #6382C6",
"/. c #6383C6",
"(. c #6383C7",
"). c #6483C6",
"_. c #748EC7",
"`. c #748EC8",
"'. c #758FC8",
"]. c #748FC9",
"[. c #929292",
"{. c #9A9A9A",
"}. c #9B9B9B",
"|. c #9F9F9F",
" X c #A09F9F",
".X c #A4A3A8",
"XX c #A4A3A9",
"oX c #A7A6AC",
"OX c #C2878B",
"+X c #C3888C",
"@X c #C3898D",
"#X c #C4898D",
"$X c #C4898E",
"%X c #DFB7BC",
"&X c #DFB8BC",
"*X c #DFB8BD",
"=X c #DFB9BD",
"-X c #E0BABE",
";X c #D6D6D7",
":X c #D9D9DA",
">X c #DAD9DA",
",X c #EBE9E9",
"<X c #ECEAEA",
"1X c #FEFDFE",
"2X c #FEFEFE",
"3X c #FFFEFE",
"4X c #FEFEFF",
"5X c white",
"6X c None",
/* ALESSANDRO */
"6X6X6X6X6X6X6X6X6X6X6X6X6X6X6X6X6X6X6X6X6X6X6X6X6X6X6X6X6X6X6X6X6X6X6X6X6X6X6X6X6X6X6X6X6X6X6X6X6X6X6X6X6X6X6X6X6X6X6X6X6X6X6X6X",
"6X6X6X6X6X6X6X6X6X6X6X6X6X6X6X6X6X6X6X6X6X6X6X6X6X6X6X6X6X6X6X6X6X6X6X6X6X6X6X6X6X6X6X6X6X6X6X6X6X6X6X6X6X6X6X6X6X6X6X6X6X6X6X6X",
"6X6X6X6X6X6X6X6X6X6X6X6X6X6X6X6X6X6X6X6X6X6X6X6X6X6X6X6X6X6X6X6X6X6X6X6X6X6X6X6X6X6X6X6X6X6X6X6X6X6X6X6X6X6X6X6X6X6X6X6X6X6X6X6X",
"6X6X6X6X6X6X6X6X6X6X6X6X6X6X6X6X6X6X6X6X6X6X6X6X6X6X6X6X6X- @ # 6 6 7 5 6 6 5 6 q 6X6X6X6X6X6X6X6X6X6X6X6X6X6X6X6X6X6X6X6X6X6X6X",
"6X6X6X6X6X6X6X6X6X6X6X6X6X6X6X6X6X6X6X6X6X6X6X6X6X@ 6X6X- - - > 5 3 3 5 3 5 3 3 2 3 4 6X6X6X6X6X6X6X6X6X6X6X6X6X6X6X6X6X6X6X6X6X",
"6X6X6X6X6X6X6X6X6X6X6X6X6X6X6X6X6X6X6X6X6X6X6X6X@ @ - > # q 4 3 5 3 4 5 3 5 3 3 2 3 4 q 6X6X6X6X6X6X6X6X6X6X6X6X6X6X6X6X6X6X6X6X",
"6X6X6X6X6X6X6X6X6X6X6X6X6X6X6X6X6X6X6X6X6X6X6X6X6X- @ @ # 5 2 2 5 : # t t t t 9 t t t e 6X6X6X6X6X6X6X6X6X6X6X6X6X6X6X6X6X6X6X6X",
"6X6X6X6X6X6X6X6X6X6X6X6X6X6X6X6X6X6X6X6X6X6X6X6X- - @ @ - q 3 3 7 : ; 9 t t t t 9 9 t t t e 6X6X6X6X6X6X6X6X6X6X6X6X6X6X6X6X6X6X",
"6X6X6X6X6X6X6X6X6X6X6X6X6X6X6X6X6X6X6X6X6X6X6X6X, - @ @ @ # ; ; t t t 9 9 9 t t r w t t t 9 6X6X6X6X6X6X6X6X6X6X6X6X6X6X6X6X6X6X",
"6X6X6X6X6X6X6X6X6X6X6X6X6X6X6X6X6X6X6X6X6X6X6X6X- # @ @ @ - ; ; t t 9 9 t t t #XOXOX+X; t t 6X6X6X6X6X6X6X6X6X6X6X6X6X6X6X6X6X6X",
"6X6X6X6X6X6X6X6X6X6X6X6X6X6X6X6X6X6X6X6X6X6X6X6X- - - - @ # e 9 t t t t t t t #XOXOX+X; t t 6X6X6X6X6X6X6X6X6X6X6X6X6X6X6X6X6X6X",
"6X6X6X6X6X6X6X6X6X6X6X6X6X6X6X6X6X6X6X6X6X6X6X6X- - OXOX# # t t 9 t o X #XOX#Xo o ,X<X# ; 6X6X6X6X6X6X6X6X6X6X6X6X6X6X6X6X6X6X6X",
"6X6X6X6X6X6X6X6X6X6X6X6X6X6X6X6X6X6X6X6X6X6X6X6X# - OXOX- - 9 9 t t @ + OXOXOX$ $ ,X<X# ; 6X6X6X6X6X6X6X6X6X6X6X6X6X6X6X6X6X6X6X",
"6X6X6X6X6X6X6X6X6X6X6X6X6X6X6X6X6X6X6X6X6X6X6X6X6X- OX@XOXOXOXOX5X5X= = =X=X-X= = 5X5X; e 6X6X6X6X6X6X6X6X6X6X6X6X6X6X6X6X6X6X6X",
"6X6X6X6X6X6X6X6X6X6X6X6X6X6X6X6X6X6X6X6X6X6X6X6X6X- #X  OXOXOXOX2X2X1 < -X=X=X1 < 5X2X6X6X6X6X6X6X6X6X6X6X6X6X6X6X6X6X6X6X6X6X6X",
"6X6X6X6X6X6X6X6X6X6X6X6X6X6X6X6X6X6X6X6X6X6X6X6X6X6X- . OXOXOXOX-X0 8 5 8 8 5 8 8 5 -X6X6X6X6X6X6X6X6X6X6X6X6X6X6X6X6X6X6X6X6X6X",
"6X6X6X6X6X6X6X6X6X6X6X6X6X6X6X6X6X6X6X6X6X6X6X6X6X6X- # OXOXOXOX5 5 9 =X=X=X=X=X5 5 0 6X6X6X6X6X6X6X6X6X6X6X6X6X6X6X6X6X6X6X6X6X",
"6X6X6X6X6X6X6X6X6X6X6X6X6X6X6X6X6X6X6X6X6X6X6X6X6X6X6X# #XOXOXO 5 9 5 5 9 5 5 9 9 5 5 6X6X6X6X6X6X6X6X6X6X6X6X6X6X6X6X6X6X6X6X6X",
"6X6X6X6X6X6X6X6X6X6X6X6X6X6X6X6X6X6X6X6X6X6X6X6X6X6X6X> $XOXO O 8 5 5 5 9 9 9 5 9 5 5 6X6X6X6X6X6X6X6X6X6X6X6X6X6X6X6X6X6X6X6X6X",
"6X6X6X6X6X6X6X6X6X6X6X6X6X6X6X6X6X6X6X6X6X6X6X6X6XI -.T ' ` $.D @X#X#X$XA } J M 6X6X6X6X6X6X6X6X6X6X6X6X6X6X6X6X6X6X6X6X6X6X6X6X",
"6X6X6X6X6X6X6X6X6X6X6X6X6X6X6X6X6X6X6X6X6X6X6X6X6XT T G ;.' $.M @XOXOXOXB :.Q [ 6X6X6X6X6X6X6X6X6X6X6X6X6X6X6X6X6X6X6X6X6X6X6X6X",
"6X6X6X6X6X6X6X6X6X6X6X6X6X6X6X6X6X6X6X6X6X6X6X6XS G J.l.U.z.x.m y.u.u.y.J b.z.H.[ m 6X6X6X6X6X6X6X6X6X6X6X6X6X6X6X6X6X6X6X6X6X6X",
"6X6X6X6X6X6X6X6X6X6X6X6X6X6X6X6X6X6X6X6X6X6X6XI R 4.N.k.z.z.z.b u.u.u.u.O.P.n.I.W.*.6X6X6X6X6X6X6X6X6X6X6X6X6X6X6X6X6X6X6X6X6X6X",
"6X6X6X6X6X6X6X6X6X6X6X6X6X6X6X6X6X6X6X6X6X6XI T ' 2.l.z.z.T.j.M u.u.u.R.P I.l.z.L.z.+.n 6X6X6X6X6X6X6X6X6X6X6X6X6X6X6X6X6X6X6X6X",
"6X6X6X6X6X6X6X6X6X6X6X6X6X6X6X6X6X6X6X6X6XI H E v.m.z.T.z.R.F.M M.Z.u.D.C Z.A.y.k.n.b.@.6X6X6X6X6X6X6X6X6X6X6X6X6X6X6X6X6X6X6X6X",
"6X6X6X6X6X6X6X6X6X6X6X6X6X6X6X6X6X6X6X6X6XW Z v.z.V.u.D.F.y.D.5X5Xu.Z.1XN 5X4XM.z.T.C.#.6X6X6X6X6X6X6X6X6X6X6X6X6X6X6X6X6X6X6X6X",
"6X6X6X6X6X6X6X6X6X6X6X6X6X6X6X6X6X6X6X6X6XG H z.h.z.T. .Z.Z.5XS.5XR.R.K.] D.S.4X .T.C.#.6X6X6X6X6X6X6X6X6X6X6X6X6X6X6X6X6X6X6X6X",
"6X6X6X6X6X6X6X6X6X6X6X6X6X6X6X6X6X6X6X6X6XT ,.z.k.z.3.7.D.5Xu.u.5Xu.u.H.K D.S.4X} f.C.#.6X6X6X6X6X6X6X6X6X6X6X6X6X6X6X6X6X6X6X6X",
"6X6X6X6X6X6X6X6X6X6X6X6X6X6X6X6X6X6X6X6X6X%.0.k.T.K. .| 5XD.R.D.5Xu.u.3X4X1X4X4X} d.C.#.6X6X6X6X6X6X6X6X6X6X6X6X6X6X6X6X6X6X6X6X",
"6X6X6X6X6X6X6X6X6X6X6X6X6X6X6X6X6X6X6X6X6X5.,.p.T.T.;.7.5X5X5X5X5X5XD.4Xu.u.u.S.7.g.C.#.6X6X6X6X6X6X6X6X6X6X6X6X6X6X6X6X6X6X6X6X",
"6X6X6X6X6X6X6X6X6X6X6X6X6X6X6X6X6X6X6X6X6Xr.T.Y.z.T.3.o.S.u.u.D.5Xy.Z.4Xu.u.y.D.o.a.C.#.6X6X6X6X6X6X6X6X6X6X6X6X6X6X6X6X6X6X6X6X",
"6X6X6X6X6X6X6X6X6X6X6X6X6X6X6X6X6X6X6X6X6X} h.l.z.T.;.' t.t.u.R.5Xu.Z.4X1X3X5X1X6.f.C.#.6X6X6X6X6X6X6X6X6X6X6X6X6X6X6X6X6X6X6X6X",
"6X6X6X6X6X6X6X6X6X6X6X6X6X6X6X6X6X6X6X6X6XO.1.B.z.T.O.O.u.u.u.u.u.u.R.u.u.E.R.D.O.f.C.8.6X6X6X6X6X6X6X6X6X6X6X6X6X6X6X6X6X6X6X6X",
"6X6X6X6X6X6X6X6X6X6X6X6X6X6X6X6X6X6X6X6X6XR >.z.z.H.H O.z.u.u.u.u.u.E.t.t.u.u.u.| s.z.#.6X6X6X6X6X6X6X6X6X6X6X6X6X6X6X6X6X6X6X6X",
"6X6X6X6X6X6X6X6X6X6X6X6X6X6X6X6X6X6X6X6X6XH z.z.z.z.K K T.t.u.R.R.u.u.u.R.u.u.j.o.f.C.8.6X6X6X6X6X6X6X6X6X6X6X6X6X6X6X6X6X6X6X6X",
"6X6X6X6X6X6X6X6X6X6X6X6X6X6X6X6X6X6X6X6X6Xo.K G 6.6.L L K.t.u.R.E.u.E.u.u.D.G.H.=.i.c.o.6X6X6X6X6X6X6X6X6X6X6X6X6X6X6X6X6X6X6X6X",
"6X6X6X6X6X6X6X6X6X6X6X6X6X6X6X6X6X6X6X6X6X[ L o.[ ..o.| 3.R.R.u.t.R.u.t.u.A.6.=.I } *.[ 6X6X6X6X6X6X6X6X6X6X6X6X6X6X6X6X6X6X6X6X",
"6X6X6X6X6X6X6X6X6X6X6X6X6X6X6X6X6X6X6X6X6X$XOX$X@XOX@XV ) &.<.w.z.J.A.e.9.{ _ L @XOXOX$X6X6X6X6X6X6X6X6X6X6X6X6X6X6X6X6X6X6X6X6X",
"6X6X6X6X6X6X6X6X6X6X6X6X6X6X6X6X6X6X6X6X6XOXOXOXOXOX@X[ U ^ ! ~ ) ( ~ / ~ Y ( } $XOXOX$X6X6X6X6X6X6X6X6X6X6X6X6X6X6X6X6X6X6X6X6X",
"6X6X6X6X6X6X6X6X6X6X6X6X6X6X6X6X6X6X6X6X6XOXOX&X%X=X&Xf l } F X.( ^ &.^ q.v l f &X=X=X*X6X6X6X6X6X6X6X6X6X6X6X6X6X6X6X6X6X6X6X6X",
"6X6X6X6X6X6X6X6X6X6X6X6X6X6X6X6X6X6X6X6X6XOXOX=X=X=X&Xf l l ).).).z p ).^.^.z z =X=X=X&X6X6X6X6X6X6X6X6X6X6X6X6X6X6X6X6X6X6X6X6X",
"6X6X6X6X6X6X6X6X6X6X6X6X6X6X6X6X6X6X6X6X6X6X6X=X=X=X=Xl l ).^.).).l p ).).).).z =X=X6X6X6X6X6X6X6X6X6X6X6X6X6X6X6X6X6X6X6X6X6X6X",
"6X6X6X6X6X6X6X6X6X6X6X6X6X6X6X6X6X6X6X6X6X6X6X&X=X=X&Xz ).).]./.l p p ).).'.).^.&X&X6X6X6X6X6X6X6X6X6X6X6X6X6X6X6X6X6X6X6X6X6X6X",
"6X6X6X6X6X6X6X6X6X6X6X6X6X6X6X6X6X6X6X6X6X6X6X6X6X6Xp l ^.'.'.).6X6Xi j v ).'.).6X6X6X6X6X6X6X6X6X6X6X6X6X6X6X6X6X6X6X6X6X6X6X6X",
"6X6X6X6X6X6X6X6X6X6X6X6X6X6X6X6X6X6X6X6X6X6X6X6X6X6Xp l ).'.).v 6X6Xl l ).'.'.).6X6X6X6X6X6X6X6X6X6X6X6X6X6X6X6X6X6X6X6X6X6X6X6X",
"6X6X6X6X6X6X6X6X6X6X6X6X6X6X6X6X6X6X6X6X6X6X6X6X6X6Xp l ).'.'.v 6X6Xp l ).'.'./.6X6X6X6X6X6X6X6X6X6X6X6X6X6X6X6X6X6X6X6X6X6X6X6X",
"6X6X6X6X6X6X6X6X6X6X6X6X6X6X6X6X6X6X6X6X6X6X6X6X6X6Xp p v ).'.^.6X6Xl l v !.).^.6X6X6X6X6X6X6X6X6X6X6X6X6X6X6X6X6X6X6X6X6X6X6X6X",
"6X6X6X6X6X6X6X6X6X6X6X6X6X6X6X6X6X6X6X6X6X6X6X6X6X6Xa p _.!.!.v 6X6Xp p x c `.v 6X6X6X6X6X6X6X6X6X6X6X6X6X6X6X6X6X6X6X6X6X6X6X6X",
"6X6X6X6X6X6X6X6X6X6X6X6X6X6X6X6X6X6X6X6X6X6X6X6X6X6Xs p p f f Q.6X6Xp p s d f (.6X6X6X6X6X6X6X6X6X6X6X6X6X6X6X6X6X6X6X6X6X6X6X6X",
"6X6X6X6X6X6X6X6X6X6X6X6X6X6X6X6X6X6X6X6X6X6X6X6X6X6Xp p f g ).).6X6Xp p h v ).).6X6X6X6X6X6X6X6X6X6X6X6X6X6X6X6X6X6X6X6X6X6X6X6X",
"6X6X6X6X6X6X6X6X6X6X6X6X6X6X6X6X6X6X6X6X6X6X6X6X6X6Xp p /.).).).6X6Xp k v /.'.).6X6X6X6X6X6X6X6X6X6X6X6X6X6X6X6X6X6X6X6X6X6X6X6X",
"6X6X6X6X6X6X6X6X6X6X6X6X6X6X6X6X6X6X6X6X6X6X6X6X6X6Xl l ).'.'.v 6X6Xp l ).).'.'.6X6X6X6X6X6X6X6X6X6X6X6X6X6X6X6X6X6X6X6X6X6X6X6X",
"6X6X6X6X6X6X6X6X6X6X6X6X6X6X6X6X6X6X6X6X6X6X6X6X6X6Xp l ).'.'.^.6X6Xp l ).'.^.^.6X6X6X6X6X6X6X6X6X6X6X6X6X6X6X6X6X6X6X6X6X6X6X6X",
"6X6X6X6X6X6X6X6X6X6X6X6X6X6X6X6X6X6X6X6X6X6X6X6X6X6Xp l ).).'./.6X6Xl p ).'.).).6X6X6X6X6X6X6X6X6X6X6X6X6X6X6X6X6X6X6X6X6X6X6X6X",
"6X6X6X6X6X6X6X6X6X6X6X6X6X6X6X6X6X6X6X6X6X6X6X6X6X6Xp l ).).'.).6X6Xp p ).'.'.).6X6X6X6X6X6X6X6X6X6X6X6X6X6X6X6X6X6X6X6X6X6X6X6X",
"6X6X6X6X6X6X6X6X6X6X6X6X6X6X6X6X6X6X6X6X6X6X6X6X6X6Xp l /.'.).).6X6Xp l ).).).).6X6X6X6X6X6X6X6X6X6X6X6X6X6X6X6X6X6X6X6X6X6X6X6X",
"6X6X6X6X6X6X6X6X6X6X6X6X6X6X6X6X6X6X6X6X6X6X6X6X6X6Xp k ).'.).).6X6Xp l '.).).).6X6X6X6X6X6X6X6X6X6X6X6X6X6X6X6X6X6X6X6X6X6X6X6X",
"6X6X6X6X6X6X6X6X6X6X6X6X6X6X6X6X6X6X6X6X6X6X6X6X6X6Xu g v ).^.v 6X6Xi g ~.).'.v 6X6X6X6X6X6X6X6X6X6X6X6X6X6X6X6X6X6X6X6X6X6X6X6X",
"6X6X6X6X6X6X6X6X6X6X6X6X6X6X6X6X6X6X6X6X6X6X6X6X6X6X* * |.[.[.[.6X6X* % [.{.[.[.6X6X6X6X6X6X6X6X6X6X6X6X6X6X6X6X6X6X6X6X6X6X6X6X",
"6X6X6X6X6X6X6X6X6X6X6X6X6X6X6X6X6X6X6X6X6X6X6X6X6X6X* * |.[. X}.6X6X% % |.[.[.{.6X6X6X6X6X6X6X6X6X6X6X6X6X6X6X6X6X6X6X6X6X6X6X6X",
"6X6X6X6X6X6X6X6X6X6X6X6X6X6X6X6X6X6X6X6X6X6X6X6X6X6X* % % % & |.}.}.}.% * % {.{.{.|.6X6X6X6X6X6X6X6X6X6X6X6X6X6X6X6X6X6X6X6X6X6X",
"6X6X6X6X6X6X6X6X6X6X6X6X6X6X6X6X6X6X6X6X6X6X6X6X6X6Xy * * * % |.{.|.[.% % * |.{.{.|.6X6X6X6X6X6X6X6X6X6X6X6X6X6X6X6X6X6X6X6X6X6X",
"6X6X6X6X6X6X6X6X6X6X6X6X6X6X6X6X6X6X6X6X6X6X6X6X6X6XXX.XXXXXoX>X:X:X:XXXXXXX:X:X:X:X6X6X6X6X6X6X6X6X6X6X6X6X6X6X6X6X6X6X6X6X6X6X",
"6X6X6X6X6X6X6X6X6X6X6X6X6X6X6X6X6X6X6X6X6X6X6X6X6X6XXXXXXXXXoX:X:X:X;XXXoXXX:X:X:X:X6X6X6X6X6X6X6X6X6X6X6X6X6X6X6X6X6X6X6X6X6X6X"
};
