/* XPM */
static char *result[] = {
/* columns rows colors chars-per-pixel */
"64 64 132 2 ",
"   c black",
".  c #010101",
"X  c #020202",
"o  c gray1",
"O  c #030306",
"+  c #040306",
"@  c #040406",
"#  c #040407",
"$  c #050407",
"%  c #161616",
"&  c #181819",
"*  c #2C1609",
"=  c #2E1B0E",
"-  c #2E1B0F",
";  c #2F1B0F",
":  c #301C0F",
">  c #321F13",
",  c #382112",
"<  c #392112",
"1  c #392213",
"2  c #3A2212",
"3  c #3A2213",
"4  c #3B2213",
"5  c #1A1A20",
"6  c #202020",
"7  c gray13",
"8  c #222222",
"9  c #232323",
"0  c #232324",
"q  c #272727",
"w  c #282727",
"e  c #282728",
"r  c #282828",
"t  c #3A3A3A",
"y  c #3A3A3B",
"u  c gray23",
"i  c #3E3E3E",
"p  c #402615",
"a  c #412616",
"s  c #41281B",
"d  c #4E2D19",
"f  c #4E2E1A",
"g  c #57331D",
"h  c #57341D",
"j  c #573620",
"k  c gray26",
"l  c #2A4887",
"z  c #2B4887",
"x  c #2B4987",
"c  c #2B4988",
"v  c #2B4989",
"b  c #2B4A88",
"n  c #2C4989",
"m  c #2C4A89",
"M  c #2D4A8A",
"N  c #2D4B8A",
"B  c #2E4C8B",
"V  c #304F8F",
"C  c #385697",
"Z  c #395697",
"A  c #395698",
"S  c #39579A",
"D  c #3A5899",
"F  c #39589A",
"G  c #3B5A9D",
"H  c #617EC2",
"J  c #617EC4",
"K  c #627FC4",
"L  c #6380C4",
"P  c #6281C4",
"I  c #6280C5",
"U  c #6382C6",
"Y  c #6383C6",
"T  c #6383C7",
"R  c #6483C6",
"E  c #6483C7",
"W  c #748EC7",
"Q  c #748EC8",
"!  c #758FC8",
"~  c #748FC9",
"^  c #768FC8",
"/  c gray57",
"(  c #929292",
")  c #939393",
"_  c #9A9A9A",
"`  c #9B9B9B",
"'  c gray62",
"]  c #9F9F9F",
"[  c #A09F9F",
"{  c #A4A3A8",
"}  c #A4A3A9",
"|  c #A7A6AC",
" . c #C2878B",
".. c #C3898D",
"X. c #C4888D",
"o. c #C4898D",
"O. c #C69597",
"+. c #C69598",
"@. c #C8979A",
"#. c #C9979A",
"$. c #CD999E",
"%. c #CC9A9E",
"&. c #CD9A9E",
"*. c #CD9B9E",
"=. c #CD9A9F",
"-. c #CD9B9F",
";. c #CF9CA0",
":. c #D8B2B5",
">. c #DEB7BB",
",. c #DFB7BD",
"<. c #DFB8BC",
"1. c #DFB8BD",
"2. c #DFB9BD",
"3. c #DFB9BE",
"4. c #DFBABE",
"5. c #E0B9BD",
"6. c #E0BABE",
"7. c #D6D6D7",
"8. c #D9D9DA",
"9. c #DAD9DA",
"0. c #DADADB",
"q. c #F5F4F4",
"w. c #F6F5F5",
"e. c #FAF8F7",
"r. c #F9F9F9",
"t. c #FCFCFB",
"y. c #FEFDFE",
"u. c #FEFEFE",
"i. c #FFFEFE",
"p. c #FEFEFF",
"a. c white",
"s. c None",
/* FILIPPO */
"s.s.s.s.s.s.s.s.s.s.s.s.s.s.s.s.s.s.s.s.s.s.s.s.s.s.s.s.s.s.s.s.s.s.s.s.s.s.s.s.s.s.s.s.s.s.s.s.s.s.s.s.s.s.s.s.s.s.s.s.s.s.s.s.",
"s.s.s.s.s.s.s.s.s.s.s.s.s.s.s.s.s.s.s.s.s.s.s.s.s.s.s.s.s.s.s.s.s.s.s.s.s.s.s.s.s.s.s.s.s.s.s.s.s.s.s.s.s.s.s.s.s.s.s.s.s.s.s.s.",
"s.s.s.s.s.s.s.s.s.s.s.s.s.s.s.s.s.s.s.s.s.s.s.s.s.s.s.s.s.s.s.s.s.s.s.s.s.s.s.s.s.s.s.s.s.s.s.s.s.s.s.s.s.s.s.s.s.s.s.s.s.s.s.s.",
"s.s.s.s.s.s.s.s.s.s.s.s.s.s.s.s.s.s.s.s.s.s.s.s.s.s.s.s.s.s.s.s.s.s.s.s.s.s.s.s.s.s.s.s.s.s.s.s.s.s.s.s.s.s.s.s.s.s.s.s.s.s.s.s.",
"s.s.s.s.s.s.s.s.s.s.s.s.s.s.s.s.s.s.s.s.s.s.s.s.s.s.s.s.s.s.s.s.s.- : f g s.f g f s.s.s.s.s.s.s.s.s.s.s.s.s.s.s.s.s.s.s.s.s.s.s.",
"s.s.s.s.s.s.s.s.s.s.s.s.s.s.s.s.s.s.s.s.s.s.s.s.s.s.s.s.s.a < - - < f j g g f h g f s.s.s.s.s.s.s.s.s.s.s.s.s.s.s.s.s.s.s.s.s.s.",
"s.s.s.s.s.s.s.s.s.s.s.s.s.s.s.s.s.s.s.s.s.s.s.s.s.s.s.a ; - - - - - f g f g g g g g a s.s.s.s.s.s.s.s.s.s.s.s.s.s.s.s.s.s.s.s.s.",
"s.s.s.s.s.s.s.s.s.s.s.s.s.s.s.s.s.s.s.s.s.s.s.s.s.s., - - - - p - f f g 4 h g 4 g h j s.s.s.s.s.s.s.s.s.s.s.s.s.s.s.s.s.s.s.s.s.",
"s.s.s.s.s.s.s.s.s.s.s.s.s.s.s.s.s.s.s.s.s.s.s.s.s.< , = - - - - f g g 2 4 4 4 4 3 g g s.s.s.s.s.s.s.s.s.s.s.s.s.s.s.s.s.s.s.s.s.",
"s.s.s.s.s.s.s.s.s.s.s.s.s.s.s.s.s.s.s.s.s.s.s.s.s.- - - - = , , 2.2.2.2.2.2.2.2.2.>.j s.s.s.s.s.s.s.s.s.s.s.s.s.s.s.s.s.s.s.s.s.",
"s.s.s.s.s.s.s.s.s.s.s.s.s.s.s.s.s.s.s.s.s.s.s.s.s.< p , - - - ; 2.2.2.2.2.2.2.2.2.>.>.s.s.s.s.s.s.s.s.s.s.s.s.s.s.s.s.s.s.s.s.s.",
"s.s.s.s.s.s.s.s.s.s.s.s.s.s.s.s.s.s.s.s.s.s.s.s.s.; -.@.- ; s &.e.t.> > >.6.6.> > q.w.s.s.s.s.s.s.s.s.s.s.s.s.s.s.s.s.s.s.s.s.s.",
"s.s.s.s.s.s.s.s.s.s.s.s.s.s.s.s.s.s.s.s.s.s.s.s.s.< -.@.; ; *.*.a.t.* > 6.6.6.* * q.r.s.s.s.s.s.s.s.s.s.s.s.s.s.s.s.s.s.s.s.s.s.",
"s.s.s.s.s.s.s.s.s.s.s.s.s.s.s.s.s.s.s.s.s.s.s.s.s.- -.-.s -.-.;.a.a.f f 6.2.6.d d a.a.s.s.s.s.s.s.s.s.s.s.s.s.s.s.s.s.s.s.s.s.s.",
"s.s.s.s.s.s.s.s.s.s.s.s.s.s.s.s.s.s.s.s.s.s.s.s.s.- #.-.-.-.-.=.u.u.f f 6.2.2.d d a.u.s.s.s.s.s.s.s.s.s.s.s.s.s.s.s.s.s.s.s.s.s.",
"s.s.s.s.s.s.s.s.s.s.s.s.s.s.s.s.s.s.s.s.s.s.s.s.s.a - - -.-.-.$.6.:.4.2.3.4.4.6.6.:.6.s.s.s.s.s.s.s.s.s.s.s.s.s.s.s.s.s.s.s.s.s.",
"s.s.s.s.s.s.s.s.s.s.s.s.s.s.s.s.s.s.s.s.s.s.s.s.s.s., - -.-.-.%.6.6.6.6.6.6.6.6.6.6.:.s.s.s.s.s.s.s.s.s.s.s.s.s.s.s.s.s.s.s.s.s.",
"s.s.s.s.s.s.s.s.s.s.s.s.s.s.s.s.s.s.s.s.s.s.s.s.s.s.s.1 -.-.-.O.6.6.6.6.6.6.6.6.3.6.:.s.s.s.s.s.s.s.s.s.s.s.s.s.s.s.s.s.s.s.s.s.",
"s.s.s.s.s.s.s.s.s.s.s.s.s.s.s.s.s.s.s.s.s.s.s.s.s.s.s.s.@.-.+.+.:.6.:.:.6.6.6.6.:.5.:.s.s.s.s.s.s.s.s.s.s.s.s.s.s.s.s.s.s.s.s.s.",
"s.s.s.s.s.s.s.s.s.s.s.s.s.s.s.s.s.s.s.s.s.s.s.s.s.$ .     . . @ ..o.o.X.O .   % s.s.s.s.s.s.s.s.s.s.s.s.s.s.s.s.s.s.s.s.s.s.s.s.",
"s.s.s.s.s.s.s.s.s.s.s.s.s.s.s.s.s.s.s.s.s.s.s.s.s.  .     . .   .. . . .@ .   @ s.s.s.s.s.s.s.s.s.s.s.s.s.s.s.s.s.s.s.s.s.s.s.s.",
"s.s.s.s.s.s.s.s.s.s.s.s.s.s.s.s.s.s.s.s.s.s.s.s.  . 0 0 0 q 0   0 0 0 0 @ 0 9 0 X X s.s.s.s.s.s.s.s.s.s.s.s.s.s.s.s.s.s.s.s.s.s.",
"s.s.s.s.s.s.s.s.s.s.s.s.s.s.s.s.s.s.s.s.s.s.s.    . w 9 q q 8   8 q q q . q q 8 8 X s.s.s.s.s.s.s.s.s.s.s.s.s.s.s.s.s.s.s.s.s.s.",
"s.s.s.s.s.s.s.s.s.s.s.s.s.s.s.s.s.s.s.s.s.s.$ . . % w 8 r 8 8 . 8 q 8 9 . q q q q 8 o o s.s.s.s.s.s.s.s.s.s.s.s.s.s.s.s.s.s.s.s.",
"s.s.s.s.s.s.s.s.s.s.s.s.s.s.s.s.s.s.s.s.s..     0 8 8 0 9 8 8 # 8 8 9 0 . 9 8 w w 8 8 o s.s.s.s.s.s.s.s.s.s.s.s.s.s.s.s.s.s.s.s.",
"s.s.s.s.s.s.s.s.s.s.s.s.s.s.s.s.s.s.s.s.s.. . % 8 q 8 O 8 8 0 a.a.8 8 y.@ a.p.0 O 8 q o s.s.s.s.s.s.s.s.s.s.s.s.s.s.s.s.s.s.s.s.",
"s.s.s.s.s.s.s.s.s.s.s.s.s.s.s.s.s.s.s.s.s.    % 8 8 9 % 8 0 a.0 a.q 8 8 @ 8 8 p.  0 8 o s.s.s.s.s.s.s.s.s.s.s.s.s.s.s.s.s.s.s.s.",
"s.s.s.s.s.s.s.s.s.s.s.s.s.s.s.s.s.s.s.s.s.O 0 q q 8     0 a.9 9 a.q q q 0 8 0 p.. 6 8 o s.s.s.s.s.s.s.s.s.s.s.s.s.s.s.s.s.s.s.s.",
"s.s.s.s.s.s.s.s.s.s.s.s.s.s.s.s.s.s.s.s.s.  8 8 8 8 % . a.0 9 0 a.0 0 i.p.y.p.p.  6 8 o s.s.s.s.s.s.s.s.s.s.s.s.s.s.s.s.s.s.s.s.",
"s.s.s.s.s.s.s.s.s.s.s.s.s.s.s.s.s.s.s.s.s.O 8 q q 8     a.a.a.a.a.a.0 p.0 9 8 0   6 8 o s.s.s.s.s.s.s.s.s.s.s.s.s.s.s.s.s.s.s.s.",
"s.s.s.s.s.s.s.s.s.s.s.s.s.s.s.s.s.s.s.s.s.O 0 q 8 8     9 8 8 0 a.9 0 p.0 8 8 0 . 7 9 o s.s.s.s.s.s.s.s.s.s.s.s.s.s.s.s.s.s.s.s.",
"s.s.s.s.s.s.s.s.s.s.s.s.s.s.s.s.s.s.s.s.s.. . 8 q q .   q q q 0 a.9 0 p.y.i.a.y.  6 8 o s.s.s.s.s.s.s.s.s.s.s.s.s.s.s.s.s.s.s.s.",
"s.s.s.s.s.s.s.s.s.s.s.s.s.s.s.s.s.s.s.s.s.. . 8 8 8     8 8 q 8 9 9 8 8 8 8 8 8 . 7 8 o s.s.s.s.s.s.s.s.s.s.s.s.s.s.s.s.s.s.s.s.",
"s.s.s.s.s.s.s.s.s.s.s.s.s.s.s.s.s.s.s.s.s.& q q q 8 % . 8 8 8 8 8 8 q 8 8 8 8 8 X 7 8 o s.s.s.s.s.s.s.s.s.s.s.s.s.s.s.s.s.s.s.s.",
"s.s.s.s.s.s.s.s.s.s.s.s.s.s.s.s.s.s.s.s.s.5 e 8 8 8 .   8 q 8 8 q 8 8 q q 8 9 8     e o s.s.s.s.s.s.s.s.s.s.s.s.s.s.s.s.s.s.s.s.",
"s.s.s.s.s.s.s.s.s.s.s.s.s.s.s.s.s.s.s.s.s.  % O % O     0 8 8 8 8 8 8 8 8 8 0   . % % % s.s.s.s.s.s.s.s.s.s.s.s.s.s.s.s.s.s.s.s.",
"s.s.s.s.s.s.s.s.s.s.s.s.s.s.s.s.s.s.s.s.s.. + O % O     % 8 8 q q q q 8 8 0 . .   +   . s.s.s.s.s.s.s.s.s.s.s.s.s.s.s.s.s.s.s.s.",
"s.s.s.s.s.s.s.s.s.s.s.s.s.s.s.s.s.s.s.s.s.X. .X... ...    0 9 9 8 9 9 9 9 0 . % .. . .X.s.s.s.s.s.s.s.s.s.s.s.s.s.s.s.s.s.s.s.s.",
"s.s.s.s.s.s.s.s.s.s.s.s.s.s.s.s.s.s.s.s.s. . . . . ...% O O     % %   % O O   $ X. . .X.s.s.s.s.s.s.s.s.s.s.s.s.s.s.s.s.s.s.s.s.",
"s.s.s.s.s.s.s.s.s.s.s.s.s.s.s.s.s.s.s.s.s. . .1.,.2.<.m F +     . .   . O K F m <.2.2.1.s.s.s.s.s.s.s.s.s.s.s.s.s.s.s.s.s.s.s.s.",
"s.s.s.s.s.s.s.s.s.s.s.s.s.s.s.s.s.s.s.s.s. . .2.2.2.<.m F F R R R G c R U U G G 2.2.2.<.s.s.s.s.s.s.s.s.s.s.s.s.s.s.s.s.s.s.s.s.",
"s.s.s.s.s.s.s.s.s.s.s.s.s.s.s.s.s.s.s.s.s.s.s.2.2.2.2.F F R U R R F c R R R R G 2.2.s.s.s.s.s.s.s.s.s.s.s.s.s.s.s.s.s.s.s.s.s.s.",
"s.s.s.s.s.s.s.s.s.s.s.s.s.s.s.s.s.s.s.s.s.s.s.<.2.2.<.G R R ~ Y F c c R R ! R U <.<.s.s.s.s.s.s.s.s.s.s.s.s.s.s.s.s.s.s.s.s.s.s.",
"s.s.s.s.s.s.s.s.s.s.s.s.s.s.s.s.s.s.s.s.s.s.s.s.s.s.c F U ! ! R s.s.z A K R ! R s.s.s.s.s.s.s.s.s.s.s.s.s.s.s.s.s.s.s.s.s.s.s.s.",
"s.s.s.s.s.s.s.s.s.s.s.s.s.s.s.s.s.s.s.s.s.s.s.s.s.s.c F R ! R K s.s.F F R ! ! R s.s.s.s.s.s.s.s.s.s.s.s.s.s.s.s.s.s.s.s.s.s.s.s.",
"s.s.s.s.s.s.s.s.s.s.s.s.s.s.s.s.s.s.s.s.s.s.s.s.s.s.x F R ! ! K s.s.c F R ! ! Y s.s.s.s.s.s.s.s.s.s.s.s.s.s.s.s.s.s.s.s.s.s.s.s.",
"s.s.s.s.s.s.s.s.s.s.s.s.s.s.s.s.s.s.s.s.s.s.s.s.s.s.c c K R ! U s.s.F F K L R U s.s.s.s.s.s.s.s.s.s.s.s.s.s.s.s.s.s.s.s.s.s.s.s.",
"s.s.s.s.s.s.s.s.s.s.s.s.s.s.s.s.s.s.s.s.s.s.s.s.s.s.v c W L L K s.s.c c H J Q K s.s.s.s.s.s.s.s.s.s.s.s.s.s.s.s.s.s.s.s.s.s.s.s.",
"s.s.s.s.s.s.s.s.s.s.s.s.s.s.s.s.s.s.s.s.s.s.s.s.s.s.b c M N V P s.s.c c b n m T s.s.s.s.s.s.s.s.s.s.s.s.s.s.s.s.s.s.s.s.s.s.s.s.",
"s.s.s.s.s.s.s.s.s.s.s.s.s.s.s.s.s.s.s.s.s.s.s.s.s.s.c c B D R E s.s.c c Z K R R s.s.s.s.s.s.s.s.s.s.s.s.s.s.s.s.s.s.s.s.s.s.s.s.",
"s.s.s.s.s.s.s.s.s.s.s.s.s.s.s.s.s.s.s.s.s.s.s.s.s.s.c c Y R R R s.s.c S K Y ! R s.s.s.s.s.s.s.s.s.s.s.s.s.s.s.s.s.s.s.s.s.s.s.s.",
"s.s.s.s.s.s.s.s.s.s.s.s.s.s.s.s.s.s.s.s.s.s.s.s.s.s.F F R ! ! K s.s.c F R R ! ! s.s.s.s.s.s.s.s.s.s.s.s.s.s.s.s.s.s.s.s.s.s.s.s.",
"s.s.s.s.s.s.s.s.s.s.s.s.s.s.s.s.s.s.s.s.s.s.s.s.s.s.c F R ! ! U s.s.c F R ! U U s.s.s.s.s.s.s.s.s.s.s.s.s.s.s.s.s.s.s.s.s.s.s.s.",
"s.s.s.s.s.s.s.s.s.s.s.s.s.s.s.s.s.s.s.s.s.s.s.s.s.s.c F R R ! Y s.s.F c R ! R R s.s.s.s.s.s.s.s.s.s.s.s.s.s.s.s.s.s.s.s.s.s.s.s.",
"s.s.s.s.s.s.s.s.s.s.s.s.s.s.s.s.s.s.s.s.s.s.s.s.s.s.c F R R ! R s.s.c c R ! ! R s.s.s.s.s.s.s.s.s.s.s.s.s.s.s.s.s.s.s.s.s.s.s.s.",
"s.s.s.s.s.s.s.s.s.s.s.s.s.s.s.s.s.s.s.s.s.s.s.s.s.s.c F T ^ R R s.s.c F R R R R s.s.s.s.s.s.s.s.s.s.s.s.s.s.s.s.s.s.s.s.s.s.s.s.",
"s.s.s.s.s.s.s.s.s.s.s.s.s.s.s.s.s.s.s.s.s.s.s.s.s.s.c S R ! R R s.s.c F ! R R R s.s.s.s.s.s.s.s.s.s.s.s.s.s.s.s.s.s.s.s.s.s.s.s.",
"s.s.s.s.s.s.s.s.s.s.s.s.s.s.s.s.s.s.s.s.s.s.s.s.s.s.l C K R U K s.s.z C I R ! K s.s.s.s.s.s.s.s.s.s.s.s.s.s.s.s.s.s.s.s.s.s.s.s.",
"s.s.s.s.s.s.s.s.s.s.s.s.s.s.s.s.s.s.s.s.s.s.s.s.s.s.i i ] ( / ( s.s.i t ( _ ( ) s.s.s.s.s.s.s.s.s.s.s.s.s.s.s.s.s.s.s.s.s.s.s.s.",
"s.s.s.s.s.s.s.s.s.s.s.s.s.s.s.s.s.s.s.s.s.s.s.s.s.s.i i ] ( [ ` s.s.u t ' / ( _ s.s.s.s.s.s.s.s.s.s.s.s.s.s.s.s.s.s.s.s.s.s.s.s.",
"s.s.s.s.s.s.s.s.s.s.s.s.s.s.s.s.s.s.s.s.s.s.s.s.s.s.i t t t y ] ` ` ` t i t _ _ _ ] s.s.s.s.s.s.s.s.s.s.s.s.s.s.s.s.s.s.s.s.s.s.",
"s.s.s.s.s.s.s.s.s.s.s.s.s.s.s.s.s.s.s.s.s.s.s.s.s.s.k i i i t ] _ ] ( t t i ] _ _ ] s.s.s.s.s.s.s.s.s.s.s.s.s.s.s.s.s.s.s.s.s.s.",
"s.s.s.s.s.s.s.s.s.s.s.s.s.s.s.s.s.s.s.s.s.s.s.s.s.s.} { } } | 9.0.8.8.} } } 8.8.8.8.s.s.s.s.s.s.s.s.s.s.s.s.s.s.s.s.s.s.s.s.s.s.",
"s.s.s.s.s.s.s.s.s.s.s.s.s.s.s.s.s.s.s.s.s.s.s.s.s.s.} } } } | 8.8.8.7.} | } 8.8.8.8.s.s.s.s.s.s.s.s.s.s.s.s.s.s.s.s.s.s.s.s.s.s."
};
