/* XPM */
static char *result[] = {
/* columns rows colors chars-per-pixel */
"64 64 164 2 ",
"   c black",
".  c #010101",
"X  c #020202",
"o  c gray1",
"O  c #030306",
"+  c #040306",
"@  c #040406",
"#  c #040407",
"$  c #050407",
"%  c #161616",
"&  c #181819",
"*  c #1A1A20",
"=  c #202020",
"-  c gray13",
";  c #222222",
":  c #232323",
">  c #232324",
",  c #272727",
"<  c #282727",
"1  c #282728",
"2  c #282828",
"3  c #3A3A3A",
"4  c #3A3A3B",
"5  c gray23",
"6  c #3E3E3E",
"7  c #7A5A3A",
"8  c #7B5A3A",
"9  c #7B5B3A",
"0  c #7C5B3B",
"q  c #7D5B3B",
"w  c #32586D",
"e  c #305971",
"r  c gray26",
"t  c #805E3C",
"y  c #805F3D",
"u  c #815F3D",
"i  c #83603E",
"p  c #8C6846",
"a  c #8D6846",
"s  c #8D6946",
"d  c #936D48",
"f  c #936D49",
"g  c #997149",
"h  c #9A7049",
"j  c #9A7149",
"k  c #9B714A",
"l  c #9B724A",
"z  c #9D734B",
"x  c #9F744C",
"c  c #425F9E",
"v  c #42609F",
"b  c #43619F",
"n  c #44609F",
"m  c #44619F",
"M  c #4461A0",
"N  c #4461A1",
"B  c #4562A0",
"V  c #4462A1",
"C  c #4562A1",
"Z  c #4463A1",
"A  c #4663A2",
"S  c #4866A4",
"D  c #4D6AAB",
"F  c #4E6AAB",
"G  c #4E6BAD",
"H  c #4E6CAC",
"J  c #4E6CAD",
"K  c #4E6CAE",
"L  c #4F6DAF",
"P  c #5572B1",
"I  c #5C78B9",
"U  c #5C7ABA",
"Y  c #5D7ABA",
"T  c #627FC4",
"R  c #4B819F",
"E  c #4C819F",
"W  c #4682A5",
"Q  c #4782A5",
"!  c #6682C2",
"~  c #6281C4",
"^  c #6382C6",
"/  c #6383C6",
"(  c #6483C6",
")  c #6A87CA",
"_  c #6B87CA",
"`  c #6A87CB",
"'  c #6B88CA",
"]  c #6B8ACB",
"[  c #6C8ACB",
"{  c #6B89CC",
"}  c #6B8ACC",
"|  c #6C8ACC",
" . c #748EC7",
".. c #718DCE",
"X. c #7792CD",
"o. c #7892CD",
"O. c #7893CD",
"+. c #718ED0",
"@. c #718FD0",
"#. c #728FD0",
"$. c #7290D2",
"%. c #7391D3",
"&. c #7591D1",
"*. c #7592D3",
"=. c #7692D3",
"-. c #7693D3",
";. c #7795D6",
":. c #7B97D3",
">. c #7895D6",
",. c #7A97D7",
"<. c #7C98D4",
"1. c #7D99D7",
"2. c #7E99D7",
"3. c #7A97D8",
"4. c #7B97D8",
"5. c #7A98D8",
"6. c #7B98D8",
"7. c #7E9BD8",
"8. c #7F9BD8",
"9. c #7F9CDD",
"0. c gray57",
"q. c #929292",
"w. c #939393",
"e. c #9A9A9A",
"r. c #9B9B9B",
"t. c gray62",
"y. c #9F9F9F",
"u. c #A09F9F",
"i. c #A4A3A8",
"p. c #A4A3A9",
"a. c #A7A6AC",
"s. c #C2878B",
"d. c #C3898D",
"f. c #C4888D",
"g. c #C4898D",
"h. c #C08F92",
"j. c #C08F93",
"k. c #C29092",
"l. c #C7959A",
"z. c #C8969B",
"x. c #DFB7BD",
"c. c #DFB8BC",
"v. c #DFB9BC",
"b. c #DFB8BD",
"n. c #DFB9BD",
"m. c #E0BABE",
"M. c #809CDB",
"N. c #809DDC",
"B. c #819EDD",
"V. c #83A0DF",
"C. c #D6D6D7",
"Z. c #D9D9DA",
"A. c #DAD9DA",
"S. c #DADADB",
"D. c #EBE9E9",
"F. c #ECEAEA",
"G. c #F8F3EF",
"H. c #FFFCFA",
"J. c #FEFDFE",
"K. c #FEFEFE",
"L. c #FFFEFE",
"P. c #FEFEFF",
"I. c white",
"U. c None",
/* MARIO */
"U.U.U.U.U.U.U.U.U.U.U.U.U.U.U.U.U.U.U.U.U.U.U.U.U.U.U.U.U.U.U.U.U.U.U.U.U.U.U.U.U.U.U.U.U.U.U.U.U.U.U.U.U.U.U.U.U.U.U.U.U.U.U.U.",
"U.U.U.U.U.U.U.U.U.U.U.U.U.U.U.U.U.U.U.U.U.U.U.U.U.U.U.U.U.U.U.U.U.U.U.U.U.U.U.U.U.U.U.U.U.U.U.U.U.U.U.U.U.U.U.U.U.U.U.U.U.U.U.U.",
"U.U.U.U.U.U.U.U.U.U.U.U.U.U.U.U.U.U.U.U.U.U.U.U.U.U.U.U.U.U.U.U.U.U.U.U.U.U.U.U.U.U.U.U.U.U.U.U.U.U.U.U.U.U.U.U.U.U.U.U.U.U.U.U.",
"U.U.U.U.U.U.U.U.U.U.U.U.U.U.U.U.U.U.U.U.U.U.U.U.U.U.U.U.U.u 9 t d f s f f f s s s U.U.U.U.U.U.U.U.U.U.U.U.U.U.U.U.U.U.U.U.U.U.U.",
"U.U.U.U.U.U.U.U.U.U.U.U.U.U.U.U.U.U.U.U.U.U.U.U.U.t U.U.8 8 9 t f a s s 8 8 s f s 0 0 U.U.U.U.U.U.U.U.U.U.U.U.U.U.U.U.U.U.U.U.U.",
"U.U.U.U.U.U.U.U.U.U.U.U.U.U.U.U.U.U.U.U.U.U.U.U.t u 8 8 8 d s a p a a 0 0 0 0 0 s s p f U.U.U.U.U.U.U.U.U.U.U.U.U.U.U.U.U.U.U.U.",
"U.U.U.U.U.U.U.U.U.U.U.U.U.U.U.U.U.U.U.U.U.U.U.U.U.y 8 8 8 f 8 0 s 0 a u 8 g j x x z z d U.U.U.U.U.U.U.U.U.U.U.U.U.U.U.U.U.U.U.U.",
"U.U.U.U.U.U.U.U.U.U.U.U.U.U.U.U.U.U.U.U.U.U.U.U.t 8 8 8 u 0 8 8 0 f d 8 i x z z q q z z k l U.U.U.U.U.U.U.U.U.U.U.U.U.U.U.U.U.U.",
"U.U.U.U.U.U.U.U.U.U.U.U.U.U.U.U.U.U.U.U.U.U.U.U.8 u 8 8 8 8 8 u l j g x z j x q q q q z z z U.U.U.U.U.U.U.U.U.U.U.U.U.U.U.U.U.U.",
"U.U.U.U.U.U.U.U.U.U.U.U.U.U.U.U.U.U.U.U.U.U.U.U.t 8 u 8 8 8 8 t l q q x g k k l.l.z.l.s l z U.U.U.U.U.U.U.U.U.U.U.U.U.U.U.U.U.U.",
"U.U.U.U.U.U.U.U.U.U.U.U.U.U.U.U.U.U.U.U.U.U.U.U.u 8 t 8 8 8 g x g q q q q q l z.z.z.l.8 l z U.U.U.U.U.U.U.U.U.U.U.U.U.U.U.U.U.U.",
"U.U.U.U.U.U.U.U.U.U.U.U.U.U.U.U.U.U.U.U.U.U.U.U.8 8 l.h.t j x q g g w w l.z.l.e w D.F.8 s U.U.U.U.U.U.U.U.U.U.U.U.U.U.U.U.U.U.U.",
"U.U.U.U.U.U.U.U.U.U.U.U.U.U.U.U.U.U.U.U.U.U.U.U.8 8 z.l.t h j q G.H.w w l.z.l.e w D.F.9 U.U.U.U.U.U.U.U.U.U.U.U.U.U.U.U.U.U.U.U.",
"U.U.U.U.U.U.U.U.U.U.U.U.U.U.U.U.U.U.U.U.U.U.U.U.U.t l.j.h.k.z.z.I.I.Q E n.n.m.W R I.I.U.U.U.U.U.U.U.U.U.U.U.U.U.U.U.U.U.U.U.U.U.",
"U.U.U.U.U.U.U.U.U.U.U.U.U.U.U.U.U.U.U.U.U.U.U.U.U.8 j.l.h.z.z.z.K.K.W R m.n.n.R R I.K.U.U.U.U.U.U.U.U.U.U.U.U.U.U.U.U.U.U.U.U.U.",
"U.U.U.U.U.U.U.U.U.U.U.U.U.U.U.U.U.U.U.U.U.U.U.U.U.U.8 7 l.z.z.z.m.m.n.n.n.n.n.n.n.m.m.U.U.U.U.U.U.U.U.U.U.U.U.U.U.U.U.U.U.U.U.U.",
"U.U.U.U.U.U.U.U.U.U.U.U.U.U.U.U.U.U.U.U.U.U.U.U.U.U.U.t z.z.z.z.m.n.n.n.n.n.n.n.n.n.n.U.U.U.U.U.U.U.U.U.U.U.U.U.U.U.U.U.U.U.U.U.",
"U.U.U.U.U.U.U.U.U.U.U.U.U.U.U.U.U.U.U.U.U.U.U.U.U.U.U.U.z.z.z.l.n.n.n.n.n.n.n.n.n.n.c.U.U.U.U.U.U.U.U.U.U.U.U.U.U.U.U.U.U.U.U.U.",
"U.U.U.U.U.U.U.U.U.U.U.U.U.U.U.U.U.U.U.U.U.U.U.U.U.U.U.U.l.z.z.h.n.n.n.n.n.n.n.n.v.n.c.U.U.U.U.U.U.U.U.U.U.U.U.U.U.U.U.U.U.U.U.U.",
"U.U.U.U.U.U.U.U.U.U.U.U.U.U.U.U.U.U.U.U.U.U.U.U.U.$ .     . . @ d.g.g.f.O .   % U.U.U.U.U.U.U.U.U.U.U.U.U.U.U.U.U.U.U.U.U.U.U.U.",
"U.U.U.U.U.U.U.U.U.U.U.U.U.U.U.U.U.U.U.U.U.U.U.U.U.  .     . .   d.s.s.s.@ .   @ U.U.U.U.U.U.U.U.U.U.U.U.U.U.U.U.U.U.U.U.U.U.U.U.",
"U.U.U.U.U.U.U.U.U.U.U.U.U.U.U.U.U.U.U.U.U.U.U.U.  . > > > , >   > > > > @ > : > X X U.U.U.U.U.U.U.U.U.U.U.U.U.U.U.U.U.U.U.U.U.U.",
"U.U.U.U.U.U.U.U.U.U.U.U.U.U.U.U.U.U.U.U.U.U.U.    . < : , , ;   ; , , , . , , ; ; X U.U.U.U.U.U.U.U.U.U.U.U.U.U.U.U.U.U.U.U.U.U.",
"U.U.U.U.U.U.U.U.U.U.U.U.U.U.U.U.U.U.U.U.U.U.$ . . % < ; 2 ; ; . ; , ; : . , , , , ; o o U.U.U.U.U.U.U.U.U.U.U.U.U.U.U.U.U.U.U.U.",
"U.U.U.U.U.U.U.U.U.U.U.U.U.U.U.U.U.U.U.U.U..     > ; ; > : ; ; # ; ; : > . : ; < < ; ; o U.U.U.U.U.U.U.U.U.U.U.U.U.U.U.U.U.U.U.U.",
"U.U.U.U.U.U.U.U.U.U.U.U.U.U.U.U.U.U.U.U.U.. . % ; , ; O ; ; > I.I.; ; J.@ I.P.> O ; , o U.U.U.U.U.U.U.U.U.U.U.U.U.U.U.U.U.U.U.U.",
"U.U.U.U.U.U.U.U.U.U.U.U.U.U.U.U.U.U.U.U.U.    % ; ; : % ; > I.> I., ; ; @ ; ; P.  > ; o U.U.U.U.U.U.U.U.U.U.U.U.U.U.U.U.U.U.U.U.",
"U.U.U.U.U.U.U.U.U.U.U.U.U.U.U.U.U.U.U.U.U.O > , , ;     > I.: : I., , , > ; > P.. = ; o U.U.U.U.U.U.U.U.U.U.U.U.U.U.U.U.U.U.U.U.",
"U.U.U.U.U.U.U.U.U.U.U.U.U.U.U.U.U.U.U.U.U.  ; ; ; ; % . I.> : > I.> > L.P.J.P.P.  = ; o U.U.U.U.U.U.U.U.U.U.U.U.U.U.U.U.U.U.U.U.",
"U.U.U.U.U.U.U.U.U.U.U.U.U.U.U.U.U.U.U.U.U.O ; , , ;     I.I.I.I.I.I.> P.> : ; >   = ; o U.U.U.U.U.U.U.U.U.U.U.U.U.U.U.U.U.U.U.U.",
"U.U.U.U.U.U.U.U.U.U.U.U.U.U.U.U.U.U.U.U.U.O > , ; ;     : ; ; > I.: > P.> ; ; > . - : o U.U.U.U.U.U.U.U.U.U.U.U.U.U.U.U.U.U.U.U.",
"U.U.U.U.U.U.U.U.U.U.U.U.U.U.U.U.U.U.U.U.U.. . ; , , .   , , , > I.: > P.J.L.I.J.  = ; o U.U.U.U.U.U.U.U.U.U.U.U.U.U.U.U.U.U.U.U.",
"U.U.U.U.U.U.U.U.U.U.U.U.U.U.U.U.U.U.U.U.U.. . ; ; ;     ; ; , ; : : ; ; ; ; ; ; . - ; o U.U.U.U.U.U.U.U.U.U.U.U.U.U.U.U.U.U.U.U.",
"U.U.U.U.U.U.U.U.U.U.U.U.U.U.U.U.U.U.U.U.U.& , , , ; % . ; ; ; ; ; ; , ; ; ; ; ; X - ; o U.U.U.U.U.U.U.U.U.U.U.U.U.U.U.U.U.U.U.U.",
"U.U.U.U.U.U.U.U.U.U.U.U.U.U.U.U.U.U.U.U.U.* 1 ; ; ; .   ; , ; ; , ; ; , , ; : ;     1 o U.U.U.U.U.U.U.U.U.U.U.U.U.U.U.U.U.U.U.U.",
"U.U.U.U.U.U.U.U.U.U.U.U.U.U.U.U.U.U.U.U.U.  % O % O     > ; ; ; ; ; ; ; ; ; >   . % % % U.U.U.U.U.U.U.U.U.U.U.U.U.U.U.U.U.U.U.U.",
"U.U.U.U.U.U.U.U.U.U.U.U.U.U.U.U.U.U.U.U.U.. + O % O     % ; ; , , , , ; ; > . .   +   . U.U.U.U.U.U.U.U.U.U.U.U.U.U.U.U.U.U.U.U.",
"U.U.U.U.U.U.U.U.U.U.U.U.U.U.U.U.U.U.U.U.U.l.z.z.z.z.z.    > : : ; : : : : > . % z.z.z.l.U.U.U.U.U.U.U.U.U.U.U.U.U.U.U.U.U.U.U.U.",
"U.U.U.U.U.U.U.U.U.U.U.U.U.U.U.U.U.U.U.U.U.z.z.l.z.z.l.% O O     % %   % O O   $ z.z.z.l.U.U.U.U.U.U.U.U.U.U.U.U.U.U.U.U.U.U.U.U.",
"U.U.U.U.U.U.U.U.U.U.U.U.U.U.U.U.U.U.U.U.U.z.z.b.x.n.c.C J +     . .   . O ) J b c.n.n.b.U.U.U.U.U.U.U.U.U.U.U.U.U.U.U.U.U.U.U.U.",
"U.U.U.U.U.U.U.U.U.U.U.U.U.U.U.U.U.U.U.U.U.l.l.n.n.n.c.C J J [ ( ( K M | +.+.L L n.n.n.c.U.U.U.U.U.U.U.U.U.U.U.U.U.U.U.U.U.U.U.U.",
"U.U.U.U.U.U.U.U.U.U.U.U.U.U.U.U.U.U.U.U.U.U.U.n.n.n.n.J J | +.#.| J M | >.>.| K n.n.U.U.U.U.U.U.U.U.U.U.U.U.U.U.U.U.U.U.U.U.U.U.",
"U.U.U.U.U.U.U.U.U.U.U.U.U.U.U.U.U.U.U.U.U.U.U.c.n.n.c.L | #.:.] J M M | >.2.%.^ c.c.U.U.U.U.U.U.U.U.U.U.U.U.U.U.U.U.U.U.U.U.U.U.",
"U.U.U.U.U.U.U.U.U.U.U.U.U.U.U.U.U.U.U.U.U.U.U.U.U.U.v J +.M.8.( U.U.c I &.6.<.( U.U.U.U.U.U.U.U.U.U.U.U.U.U.U.U.U.U.U.U.U.U.U.U.",
"U.U.U.U.U.U.U.U.U.U.U.U.U.U.U.U.U.U.U.U.U.U.U.U.U.U.M J 6.V.9.T U.U.J Y #.8.8.( U.U.U.U.U.U.U.U.U.U.U.U.U.U.U.U.U.U.U.U.U.U.U.U.",
"U.U.U.U.U.U.U.U.U.U.U.U.U.U.U.U.U.U.U.U.U.U.U.U.U.U.m J >.B.N.T U.U.M U | 2.8.} U.U.U.U.U.U.U.U.U.U.U.U.U.U.U.U.U.U.U.U.U.U.U.U.",
"U.U.U.U.U.U.U.U.U.U.U.U.U.U.U.U.U.U.U.U.U.U.U.U.U.U.M M _ ;.<.^ U.U.J J ..,.;.{ U.U.U.U.U.U.U.U.U.U.U.U.U.U.U.U.U.U.U.U.U.U.U.U.",
"U.U.U.U.U.U.U.U.U.U.U.U.U.U.U.U.U.U.U.U.U.U.U.U.U.U.N V  .' ' T U.U.V N _ ` X._ U.U.U.U.U.U.U.U.U.U.U.U.U.U.U.U.U.U.U.U.U.U.U.U.",
"U.U.U.U.U.U.U.U.U.U.U.U.U.U.U.U.U.U.U.U.U.U.U.U.U.U.M V V A S ~ U.U.V V Z C B { U.U.U.U.U.U.U.U.U.U.U.U.U.U.U.U.U.U.U.U.U.U.U.U.",
"U.U.U.U.U.U.U.U.U.U.U.U.U.U.U.U.U.U.U.U.U.U.U.U.U.U.M M A H | } U.U.M M F _ %.| U.U.U.U.U.U.U.U.U.U.U.U.U.U.U.U.U.U.U.U.U.U.U.U.",
"U.U.U.U.U.U.U.U.U.U.U.U.U.U.U.U.U.U.U.U.U.U.U.U.U.U.v M } | | ( U.U.M G _ 5.8.| U.U.U.U.U.U.U.U.U.U.U.U.U.U.U.U.U.U.U.U.U.U.U.U.",
"U.U.U.U.U.U.U.U.U.U.U.U.U.U.U.U.U.U.U.U.U.U.U.U.U.U.J J *.7.2.T U.U.M U #.6.8.o.U.U.U.U.U.U.U.U.U.U.U.U.U.U.U.U.U.U.U.U.U.U.U.U.",
"U.U.U.U.U.U.U.U.U.U.U.U.U.U.U.U.U.U.U.U.U.U.U.U.U.U.M J -.7.<.^ U.U.M U #.8.3.{ U.U.U.U.U.U.U.U.U.U.U.U.U.U.U.U.U.U.U.U.U.U.U.U.",
"U.U.U.U.U.U.U.U.U.U.U.U.U.U.U.U.U.U.U.U.U.U.U.U.U.U.M ! =.>.<./ U.U.J P >.8.6.| U.U.U.U.U.U.U.U.U.U.U.U.U.U.U.U.U.U.U.U.U.U.U.U.",
"U.U.U.U.U.U.U.U.U.U.U.U.U.U.U.U.U.U.U.U.U.U.U.U.U.U.M U #.>.2.( U.U.M P >.8.8.] U.U.U.U.U.U.U.U.U.U.U.U.U.U.U.U.U.U.U.U.U.U.U.U.",
"U.U.U.U.U.U.U.U.U.U.U.U.U.U.U.U.U.U.U.U.U.U.U.U.U.U.M J @.2.>.| U.U.M J %.4.4.| U.U.U.U.U.U.U.U.U.U.U.U.U.U.U.U.U.U.U.U.U.U.U.U.",
"U.U.U.U.U.U.U.U.U.U.U.U.U.U.U.U.U.U.U.U.U.U.U.U.U.U.M G ( 1.>.| U.U.M J <.>.@.| U.U.U.U.U.U.U.U.U.U.U.U.U.U.U.U.U.U.U.U.U.U.U.U.",
"U.U.U.U.U.U.U.U.U.U.U.U.U.U.U.U.U.U.U.U.U.U.U.U.U.U.c D _ | { _ U.U.n D $.%.O.) U.U.U.U.U.U.U.U.U.U.U.U.U.U.U.U.U.U.U.U.U.U.U.U.",
"U.U.U.U.U.U.U.U.U.U.U.U.U.U.U.U.U.U.U.U.U.U.U.U.U.U.6 6 y.q.0.q.U.U.6 3 q.e.q.w.U.U.U.U.U.U.U.U.U.U.U.U.U.U.U.U.U.U.U.U.U.U.U.U.",
"U.U.U.U.U.U.U.U.U.U.U.U.U.U.U.U.U.U.U.U.U.U.U.U.U.U.6 6 y.q.u.r.U.U.5 3 t.0.q.e.U.U.U.U.U.U.U.U.U.U.U.U.U.U.U.U.U.U.U.U.U.U.U.U.",
"U.U.U.U.U.U.U.U.U.U.U.U.U.U.U.U.U.U.U.U.U.U.U.U.U.U.6 3 3 3 4 y.r.r.r.3 6 3 e.e.e.y.U.U.U.U.U.U.U.U.U.U.U.U.U.U.U.U.U.U.U.U.U.U.",
"U.U.U.U.U.U.U.U.U.U.U.U.U.U.U.U.U.U.U.U.U.U.U.U.U.U.r 6 6 6 3 y.e.y.q.3 3 6 y.e.e.y.U.U.U.U.U.U.U.U.U.U.U.U.U.U.U.U.U.U.U.U.U.U.",
"U.U.U.U.U.U.U.U.U.U.U.U.U.U.U.U.U.U.U.U.U.U.U.U.U.U.p.i.p.p.a.A.S.Z.Z.p.p.p.Z.Z.Z.Z.U.U.U.U.U.U.U.U.U.U.U.U.U.U.U.U.U.U.U.U.U.U.",
"U.U.U.U.U.U.U.U.U.U.U.U.U.U.U.U.U.U.U.U.U.U.U.U.U.U.p.p.p.p.a.Z.Z.Z.C.p.a.p.Z.Z.Z.Z.U.U.U.U.U.U.U.U.U.U.U.U.U.U.U.U.U.U.U.U.U.U."
};
