/* XPM */
static char *result[] = {
/* columns rows colors chars-per-pixel */
"64 64 109 2 ",
"   c black",
".  c #010101",
"X  c #010104",
"o  c #020104",
"O  c #020204",
"+  c #020205",
"@  c #030205",
"#  c gray8",
"$  c #161617",
"%  c #18181E",
"&  c #1E1E1E",
"*  c gray12",
"=  c #251300",
"-  c #2B1B0A",
";  c #2B1C0A",
":  c #321800",
">  c #321900",
",  c #3B2007",
"<  c #3B2108",
"1  c #3C2209",
"2  c #202020",
"3  c gray13",
"4  c #212122",
"5  c #252525",
"6  c #262525",
"7  c #262526",
"8  c gray15",
"9  c gray22",
"0  c #383839",
"q  c #393939",
"w  c #3C3C3C",
"e  c #3F3F3F",
"r  c #412100",
"t  c #422100",
"y  c #442811",
"u  c #284686",
"i  c #294686",
"p  c #294786",
"a  c #294787",
"s  c #294788",
"d  c #2A4888",
"f  c #315091",
"g  c #365596",
"h  c #375597",
"j  c #375699",
"k  c #375799",
"l  c #39599C",
"z  c #4D6DB1",
"x  c #5978BB",
"c  c #617BB7",
"v  c #617FC3",
"b  c #617EC4",
"n  c #617EC5",
"m  c #627FC4",
"M  c #6281C6",
"N  c #6282C6",
"B  c #6382C6",
"V  c #6682C5",
"C  c #728CC7",
"Z  c #738DC8",
"A  c #738EC9",
"S  c #748EC8",
"D  c #909090",
"F  c gray57",
"G  c #929292",
"H  c gray60",
"J  c #9A9A9A",
"K  c #9D9D9D",
"L  c gray62",
"P  c #9F9E9E",
"I  c #A3A2A8",
"U  c #A3A2A9",
"Y  c #A7A5AC",
"T  c #C2868A",
"R  c #C4878C",
"E  c #C3888C",
"W  c #C4888C",
"Q  c #C4898D",
"!  c #C59395",
"~  c #CC999D",
"^  c #CD9A9D",
"/  c #CD9A9E",
"(  c #CE9B9F",
")  c #D4A4A8",
"_  c #D4A5A8",
"`  c #D5A5A9",
"'  c #D3A8AB",
"]  c #D4A9AC",
"[  c #D6B1B3",
"{  c #DEB7BB",
"}  c #DFB7BD",
"|  c #DFB8BC",
" . c #DFB8BD",
".. c #DFB9BD",
"X. c #E0B2B5",
"o. c #E0B3B5",
"O. c #E0B3B6",
"+. c #E0BABE",
"@. c #D6D6D7",
"#. c #D9D9DA",
"$. c #DAD9DA",
"%. c #DADADB",
"&. c #F5F4F4",
"*. c #F7F5F5",
"=. c #FBF9F8",
"-. c gray98",
";. c #FDFDFC",
":. c white",
">. c None",
/* GIAMPY */
">.>.>.>.>.>.>.>.>.>.>.>.>.>.>.>.>.>.>.>.>.>.>.>.>.>.>.>.>.>.>.>.>.>.>.>.>.>.>.>.>.>.>.>.>.>.>.>.>.>.>.>.>.>.>.>.>.>.>.>.>.>.>.>.",
">.>.>.>.>.>.>.>.>.>.>.>.>.>.>.>.>.>.>.>.>.>.>.>.>.>.>.>.>.>.>.>.>.>.>.>.>.>.>.>.>.>.>.>.>.>.>.>.>.>.>.>.>.>.>.>.>.>.>.>.>.>.>.>.",
">.>.>.>.>.>.>.>.>.>.>.>.>.>.>.>.>.>.>.>.>.>.>.>.>.>.>.>.>.>.>.>.>.>.>.>.>.>.>.>.>.>.>.>.>.>.>.>.>.>.>.>.>.>.>.>.>.>.>.>.>.>.>.>.",
">.>.>.>.>.>.>.>.>.>.>.>.>.>.>.>.>.>.>.>.>.>.>.>.>.>.>.>.>.>.>.>.>.>.>.>.>.>.>.>.>.>.>.>.>.>.>.>.>.>.>.>.>.>.>.>.>.>.>.>.>.>.>.>.",
">.>.>.>.>.>.>.>.>.>.>.>.>.>.>.>.>.>.>.>.>.>.>.>.>.>.>.>.>.>.>.>.>.>.>.>.>.>.>.>.>.>.>.>.>.>.>.>.>.>.>.>.>.>.>.>.>.>.>.>.>.>.>.>.",
">.>.>.>.>.>.>.>.>.>.>.>.>.>.>.>.>.>.>.>.>.>.>.>.>.>.>.>.>.>.>.>.>.>.>.>.>.>.>.>.>.>.>.>.>.>.>.>.>.>.>.>.>.>.>.>.>.>.>.>.>.>.>.>.",
">.>.>.>.>.>.>.>.>.>.>.>.>.>.>.>.>.>.>.>.>.>.>.>.>.>.>.>.>.>.>.>.>.>.>.>.>.>.>.>.>.>.>.>.>.>.>.>.>.>.>.>.>.>.>.>.>.>.>.>.>.>.>.>.",
">.>.>.>.>.>.>.>.>.>.>.>.>.>.>.>.>.>.>.>.>.>.>.>.>.>.>.>.>.>.>.>.>.>.>.>.>.>.>.>.>.>.>.>.>.>.>.>.>.>.>.>.>.>.>.>.>.>.>.>.>.>.>.>.",
">.>.>.>.>.>.>.>.>.>.>.>.>.>.>.>.>.>.>.>.>.>.>.>.>.>.>.>.>.>.>.>.>.>.>.>.>.>.>.>.>.>.>.>.>.>.>.>.>.>.>.>.>.>.>.>.>.>.>.>.>.>.>.>.",
">.>.>.>.>.>.>.>.>.>.>.>.>.>.>.>.>.>.>.>.>.>.>.>.>.>.>.>.>.>.>.>.>.>.>.>.>.>.>.>.>.>.>.>.>.>.>.>.>.>.>.>.>.>.>.>.>.>.>.>.>.>.>.>.",
">.>.>.>.>.>.>.>.>.>.>.>.>.>.>.>.>.>.>.>.>.>.>.>.>.>.>.>.>.>.>.>.>.>.>.>.>.>.>.>.>.>.>.>.>.>.>.>.>.>.>.>.>.>.>.>.>.>.>.>.>.>.>.>.",
">.>.>.>.>.>.>.>.>.>.>.>.>.>.>.>.>.>.>.>.>.>.>.>.>.>.>.>.>.>.>.>.>.>.>.>.>.>.>.>.>.>.>.>.>.>.>.>.>.>.>.>.>.>.>.>.>.>.>.>.>.>.>.>.",
">.>.>.>.>.>.>.>.>.>.>.>.>.>.>.>.>.>.>.>.>.>.>.>.>.>.>.>.>.>.>.^ ^ ^ ` ` ` _ ` ` >.>.>.>.>.>.>.>.>.>.>.>.>.>.>.>.>.>.>.>.>.>.>.>.",
">.>.>.>.>.>.>.>.>.>.>.>.>.>.>.>.>.>.>.>.>.>.>.>.>.>.>.>.>.^ ^ ^ ` ` ` o.X.X.o.X.O.>.>.>.>.>.>.>.>.>.>.>.>.>.>.>.>.>.>.>.>.>.>.>.",
">.>.>.>.>.>.>.>.>.>.>.>.>.>.>.>.>.>.>.>.>.>.>.>.>.>.>.>.^ ) ` ` ` X.X.O.....X.O.X.O.>.>.>.>.>.>.>.>.>.>.>.>.>.>.>.>.>.>.>.>.>.>.",
">.>.>.>.>.>.>.>.>.>.>.>.>.>.>.>.>.>.>.>.>.>.>.>.>.>.>.^ ^ ` ` X.X.X.O.........O.O.o.O.>.>.>.>.>.>.>.>.>.>.>.>.>.>.>.>.>.>.>.>.>.",
">.>.>.>.>.>.>.>.>.>.>.>.>.>.>.>.>.>.>.>.>.>.>.>.>.>.>.^ _ ` X.O.O.................O.X.>.>.>.>.>.>.>.>.>.>.>.>.>.>.>.>.>.>.>.>.>.",
">.>.>.>.>.>.>.>.>.>.>.>.>.>.>.>.>.>.>.>.>.>.>.>.>.>.>.^ _ ` O...O...................{ >.>.>.>.>.>.>.>.>.>.>.>.>.>.>.>.>.>.>.>.>.",
">.>.>.>.>.>.>.>.>.>.>.>.>.>.>.>.>.>.>.>.>.>.>.>.>.>.Q Q ) ] ] ' =.;.- - { +.+.- - &.*.>.>.>.>.>.>.>.>.>.>.>.>.>.>.>.>.>.>.>.>.>.",
">.>.>.>.>.>.>.>.>.>.>.>.>.>.>.>.>.>.>.>.>.>.>.>.>.>.W W ( / ' ] :.;.; ; +.+.+.= - &.-.>.>.>.>.>.>.>.>.>.>.>.>.>.>.>.>.>.>.>.>.>.",
">.>.>.>.>.>.>.>.>.>.>.>.>.>.>.>.>.>.>.>.>.>.>.>.>.>.W W , / / ' :.:.r r +...+.r r :.:.>.>.>.>.>.>.>.>.>.>.>.>.>.>.>.>.>.>.>.>.>.",
">.>.>.>.>.>.>.>.>.>.>.>.>.>.>.>.>.>.>.>.>.>.>.>.>.>.Q Q , ~ ^ / :.:.t r +.....r r :.:.>.>.>.>.>.>.>.>.>.>.>.>.>.>.>.>.>.>.>.>.>.",
">.>.>.>.>.>.>.>.>.>.>.>.>.>.>.>.>.>.>.>.>.>.>.>.>.>.>.>.> > > ! +.1 1 1 1 1 1 1 1 1 +.>.>.>.>.>.>.>.>.>.>.>.>.>.>.>.>.>.>.>.>.>.",
">.>.>.>.>.>.>.>.>.>.>.>.>.>.>.>.>.>.>.>.>.>.>.>.>.>.>.>.Q : > , 1 > > ..+.+.+...> 1 1 >.>.>.>.>.>.>.>.>.>.>.>.>.>.>.>.>.>.>.>.>.",
">.>.>.>.>.>.>.>.>.>.>.>.>.>.>.>.>.>.>.>.>.>.>.>.>.>.>.>.Q y < > > : > [ > : > [ r > > >.>.>.>.>.>.>.>.>.>.>.>.>.>.>.>.>.>.>.>.>.",
">.>.>.>.>.>.>.>.>.>.>.>.>.>.>.>.>.>.>.>.>.>.>.>.>.>.>.>.Q Q y > 1 > 1 1 1 1 1 > > > 1 >.>.>.>.>.>.>.>.>.>.>.>.>.>.>.>.>.>.>.>.>.",
">.>.>.>.>.>.>.>.>.>.>.>.>.>.>.>.>.>.>.>.>.>.>.>.>.@           O E W W R X     # >.>.>.>.>.>.>.>.>.>.>.>.>.>.>.>.>.>.>.>.>.>.>.>.",
">.>.>.>.>.>.>.>.>.>.>.>.>.>.>.>.>.>.>.>.>.>.>.>.>.              E T T T O     O >.>.>.>.>.>.>.>.>.>.>.>.>.>.>.>.>.>.>.>.>.>.>.>.",
">.>.>.>.>.>.>.>.>.>.>.>.>.>.>.>.>.>.>.>.>.>.>.>.    4 4 4 5 4   4 4 4 4 O 4 3 4     >.>.>.>.>.>.>.>.>.>.>.>.>.>.>.>.>.>.>.>.>.>.",
">.>.>.>.>.>.>.>.>.>.>.>.>.>.>.>.>.>.>.>.>.>.>.      6 3 5 5 2   2 5 5 5   5 5 2 2   >.>.>.>.>.>.>.>.>.>.>.>.>.>.>.>.>.>.>.>.>.>.",
">.>.>.>.>.>.>.>.>.>.>.>.>.>.>.>.>.>.>.>.>.>.@     # 6 2 8 2 2   2 5 2 3   5 5 5 5 2 . . >.>.>.>.>.>.>.>.>.>.>.>.>.>.>.>.>.>.>.>.",
">.>.>.>.>.>.>.>.>.>.>.>.>.>.>.>.>.>.>.>.>.      4 2 2 4 3 2 2 + 2 2 3 4   3 2 6 6 2 2 . >.>.>.>.>.>.>.>.>.>.>.>.>.>.>.>.>.>.>.>.",
">.>.>.>.>.>.>.>.>.>.>.>.>.>.>.>.>.>.>.>.>.    # 2 5 2 X 2 2 4 :.:.2 2 :.O :.:.4 X 2 5 . >.>.>.>.>.>.>.>.>.>.>.>.>.>.>.>.>.>.>.>.",
">.>.>.>.>.>.>.>.>.>.>.>.>.>.>.>.>.>.>.>.>.    # 2 2 3 # 2 4 :.4 :.5 2 2 O 2 2 :.  4 2 . >.>.>.>.>.>.>.>.>.>.>.>.>.>.>.>.>.>.>.>.",
">.>.>.>.>.>.>.>.>.>.>.>.>.>.>.>.>.>.>.>.>.X 4 5 5 2     4 :.3 3 :.5 5 5 4 2 4 :.  & 2 . >.>.>.>.>.>.>.>.>.>.>.>.>.>.>.>.>.>.>.>.",
">.>.>.>.>.>.>.>.>.>.>.>.>.>.>.>.>.>.>.>.>.  2 2 2 2 #   :.4 3 4 :.4 4 :.:.:.:.:.  & 2 . >.>.>.>.>.>.>.>.>.>.>.>.>.>.>.>.>.>.>.>.",
">.>.>.>.>.>.>.>.>.>.>.>.>.>.>.>.>.>.>.>.>.X 2 5 5 2     :.:.:.:.:.:.4 :.4 3 2 4   & 2 . >.>.>.>.>.>.>.>.>.>.>.>.>.>.>.>.>.>.>.>.",
">.>.>.>.>.>.>.>.>.>.>.>.>.>.>.>.>.>.>.>.>.X 4 5 2 2     3 2 2 4 :.3 4 :.4 2 2 4   * 3 . >.>.>.>.>.>.>.>.>.>.>.>.>.>.>.>.>.>.>.>.",
">.>.>.>.>.>.>.>.>.>.>.>.>.>.>.>.>.>.>.>.>.    2 5 5     5 5 5 4 :.3 4 :.:.:.:.:.  & 2 . >.>.>.>.>.>.>.>.>.>.>.>.>.>.>.>.>.>.>.>.",
">.>.>.>.>.>.>.>.>.>.>.>.>.>.>.>.>.>.>.>.>.    2 2 2     2 2 5 2 3 3 2 2 2 2 2 2   * 2 . >.>.>.>.>.>.>.>.>.>.>.>.>.>.>.>.>.>.>.>.",
">.>.>.>.>.>.>.>.>.>.>.>.>.>.>.>.>.>.>.>.>.$ 5 5 5 2 #   2 2 2 2 2 2 5 2 2 2 2 2   * 2 . >.>.>.>.>.>.>.>.>.>.>.>.>.>.>.>.>.>.>.>.",
">.>.>.>.>.>.>.>.>.>.>.>.>.>.>.>.>.>.>.>.>.% 7 2 2 2     2 5 2 2 5 2 2 5 5 2 3 2     7 . >.>.>.>.>.>.>.>.>.>.>.>.>.>.>.>.>.>.>.>.",
">.>.>.>.>.>.>.>.>.>.>.>.>.>.>.>.>.>.>.>.>.  # X # X     4 2 2 2 2 2 2 2 2 2 4     # # # >.>.>.>.>.>.>.>.>.>.>.>.>.>.>.>.>.>.>.>.",
">.>.>.>.>.>.>.>.>.>.>.>.>.>.>.>.>.>.>.>.>.  o X # X     # 2 2 5 5 5 5 2 2 4       o     >.>.>.>.>.>.>.>.>.>.>.>.>.>.>.>.>.>.>.>.",
">.>.>.>.>.>.>.>.>.>.>.>.>.>.>.>.>.>.>.>.>.R T R E T E     4 3 3 2 3 3 3 3 4   # E T T R >.>.>.>.>.>.>.>.>.>.>.>.>.>.>.>.>.>.>.>.",
">.>.>.>.>.>.>.>.>.>.>.>.>.>.>.>.>.>.>.>.>.T T T T T E # X X     # #   # X X   @ R T T R >.>.>.>.>.>.>.>.>.>.>.>.>.>.>.>.>.>.>.>.",
">.>.>.>.>.>.>.>.>.>.>.>.>.>.>.>.>.>.>.>.>.T T  .} ..| d k o             X b k d | .... .>.>.>.>.>.>.>.>.>.>.>.>.>.>.>.>.>.>.>.>.",
">.>.>.>.>.>.>.>.>.>.>.>.>.>.>.>.>.>.>.>.>.T T ......| d k k B B B l a B M M l l ......| >.>.>.>.>.>.>.>.>.>.>.>.>.>.>.>.>.>.>.>.",
">.>.>.>.>.>.>.>.>.>.>.>.>.>.>.>.>.>.>.>.>.>.>.........k k B M B B k a B B B B l ....>.>.>.>.>.>.>.>.>.>.>.>.>.>.>.>.>.>.>.>.>.>.",
">.>.>.>.>.>.>.>.>.>.>.>.>.>.>.>.>.>.>.>.>.>.>.| ....| l B B A N k a a B B S B M | | >.>.>.>.>.>.>.>.>.>.>.>.>.>.>.>.>.>.>.>.>.>.",
">.>.>.>.>.>.>.>.>.>.>.>.>.>.>.>.>.>.>.>.>.>.>.>.>.>.a k M S S B >.>.i h b B S B >.>.>.>.>.>.>.>.>.>.>.>.>.>.>.>.>.>.>.>.>.>.>.>.",
">.>.>.>.>.>.>.>.>.>.>.>.>.>.>.>.>.>.>.>.>.>.>.>.>.>.a k B S B b >.>.k k B S S B >.>.>.>.>.>.>.>.>.>.>.>.>.>.>.>.>.>.>.>.>.>.>.>.",
">.>.>.>.>.>.>.>.>.>.>.>.>.>.>.>.>.>.>.>.>.>.>.>.>.>.p k B S S b >.>.a k B S S N >.>.>.>.>.>.>.>.>.>.>.>.>.>.>.>.>.>.>.>.>.>.>.>.",
">.>.>.>.>.>.>.>.>.>.>.>.>.>.>.>.>.>.>.>.>.>.>.>.>.>.a a b B S M >.>.k k b m B M >.>.>.>.>.>.>.>.>.>.>.>.>.>.>.>.>.>.>.>.>.>.>.>.",
">.>.>.>.>.>.>.>.>.>.>.>.>.>.>.>.>.>.>.>.>.>.>.>.>.>.a s C m m b >.>.a a v V Z m >.>.>.>.>.>.>.>.>.>.>.>.>.>.>.>.>.>.>.>.>.>.>.>.",
">.>.>.>.>.>.>.>.>.>.>.>.>.>.>.>.>.>.>.>.>.>.>.>.>.>.a f z c x B >.>.a k B B B B >.>.>.>.>.>.>.>.>.>.>.>.>.>.>.>.>.>.>.>.>.>.>.>.",
">.>.>.>.>.>.>.>.>.>.>.>.>.>.>.>.>.>.>.>.>.>.>.>.>.>.a j B S B B >.>.a k S B B B >.>.>.>.>.>.>.>.>.>.>.>.>.>.>.>.>.>.>.>.>.>.>.>.",
">.>.>.>.>.>.>.>.>.>.>.>.>.>.>.>.>.>.>.>.>.>.>.>.>.>.u g b B M b >.>.i g n B S b >.>.>.>.>.>.>.>.>.>.>.>.>.>.>.>.>.>.>.>.>.>.>.>.",
">.>.>.>.>.>.>.>.>.>.>.>.>.>.>.>.>.>.>.>.>.>.>.>.>.>.w w L F D F >.>.w 9 F H F G >.>.>.>.>.>.>.>.>.>.>.>.>.>.>.>.>.>.>.>.>.>.>.>.",
">.>.>.>.>.>.>.>.>.>.>.>.>.>.>.>.>.>.>.>.>.>.>.>.>.>.w w L F P J >.>.q 9 K D F H >.>.>.>.>.>.>.>.>.>.>.>.>.>.>.>.>.>.>.>.>.>.>.>.",
">.>.>.>.>.>.>.>.>.>.>.>.>.>.>.>.>.>.>.>.>.>.>.>.>.>.w 9 9 9 0 L J J J 9 w 9 H H H L >.>.>.>.>.>.>.>.>.>.>.>.>.>.>.>.>.>.>.>.>.>.",
">.>.>.>.>.>.>.>.>.>.>.>.>.>.>.>.>.>.>.>.>.>.>.>.>.>.e w w w 9 L H L F 9 9 w L H H L >.>.>.>.>.>.>.>.>.>.>.>.>.>.>.>.>.>.>.>.>.>.",
">.>.>.>.>.>.>.>.>.>.>.>.>.>.>.>.>.>.>.>.>.>.>.>.>.>.U I U U Y $.%.#.#.U U U #.#.#.#.>.>.>.>.>.>.>.>.>.>.>.>.>.>.>.>.>.>.>.>.>.>.",
">.>.>.>.>.>.>.>.>.>.>.>.>.>.>.>.>.>.>.>.>.>.>.>.>.>.U U U U Y #.#.#.@.U Y U #.#.#.#.>.>.>.>.>.>.>.>.>.>.>.>.>.>.>.>.>.>.>.>.>.>."
};
