/* XPM */
static char *result[] = {
/* columns rows colors chars-per-pixel */
"64 64 186 2 ",
"   c black",
".  c #010101",
"X  c #020202",
"o  c gray1",
"O  c #030306",
"+  c #040306",
"@  c #040406",
"#  c #040407",
"$  c #050407",
"%  c #161616",
"&  c #181819",
"*  c #1A1A20",
"=  c #202020",
"-  c gray13",
";  c #222222",
":  c #232323",
">  c #232324",
",  c #272727",
"<  c #282727",
"1  c #282728",
"2  c #282828",
"3  c #3A3A3A",
"4  c #3A3A3B",
"5  c gray23",
"6  c #3E3E3E",
"7  c gray26",
"8  c #C9A26B",
"9  c #D1A56A",
"0  c #D0A66E",
"q  c #D3AA72",
"w  c #D3AB72",
"e  c #D4AB74",
"r  c #D6AD75",
"t  c #D6AD76",
"y  c #D6AE78",
"u  c #D8AF78",
"i  c #D9B077",
"p  c #DAB077",
"a  c #D8B079",
"s  c #DAB179",
"d  c #DBB179",
"f  c #DDB47B",
"g  c #DEB57B",
"h  c #DDB57C",
"j  c #DEB57C",
"k  c #DEB57D",
"l  c #DFB67C",
"z  c #DFB77E",
"x  c #E2B57A",
"c  c #E1B77D",
"v  c #E0B87C",
"b  c #E1B87D",
"n  c #E1B87E",
"m  c #E0B87F",
"M  c #E5BA7E",
"N  c #E4BB7F",
"B  c #2A4887",
"V  c #2B4887",
"C  c #2B4987",
"Z  c #2B4988",
"A  c #2B4989",
"S  c #2B4A88",
"D  c #2C4989",
"F  c #2C4A89",
"G  c #2D4A8A",
"H  c #2D4B8A",
"J  c #2E4C8B",
"K  c #304F8F",
"L  c #385697",
"P  c #395697",
"I  c #395698",
"U  c #39579A",
"Y  c #3A5899",
"T  c #39589A",
"R  c #3B5A9D",
"E  c #617EC2",
"W  c #617EC4",
"Q  c #627FC4",
"!  c #6380C4",
"~  c #6281C4",
"^  c #6280C5",
"/  c #6382C6",
"(  c #6383C6",
")  c #6383C7",
"_  c #6483C6",
"`  c #6483C7",
"'  c #748EC7",
"]  c #748EC8",
"[  c #758FC8",
"{  c #748FC9",
"}  c #768FC8",
"|  c gray57",
" . c #929292",
".. c #939393",
"X. c #9A9A9A",
"o. c #9B9B9B",
"O. c gray62",
"+. c #9F9F9F",
"@. c #A09F9F",
"#. c #A4A3A8",
"$. c #A4A3A9",
"%. c #A7A6AC",
"&. c #C2878B",
"*. c #C3898D",
"=. c #C4888D",
"-. c #C4898D",
";. c #C8979A",
":. c #C9979A",
">. c #CD999D",
",. c #CD999E",
"<. c #CC9A9E",
"1. c #CD9A9E",
"2. c #CD9B9E",
"3. c #CD9A9F",
"4. c #CD9B9F",
"5. c #CD9C9F",
"6. c #E2BA80",
"7. c #E5BB80",
"8. c #E5BB81",
"9. c #E5BB82",
"0. c #E6BD84",
"q. c #E7BE85",
"w. c #E9BD80",
"e. c #E9BF83",
"r. c #E9BF85",
"t. c #CE9BA0",
"y. c #CE9CA0",
"u. c #CF9CA0",
"i. c #DEB7BB",
"p. c #DFB7BD",
"a. c #DFB8BC",
"s. c #DFB8BD",
"d. c #DFB9BD",
"f. c #DFBABD",
"g. c #E0BABD",
"h. c #E0BABE",
"j. c #E9C083",
"k. c #E9C084",
"l. c #E8C085",
"z. c #E9C189",
"x. c #EBC289",
"c. c #EDC489",
"v. c #F0C486",
"b. c #F0C587",
"n. c #F0C68B",
"m. c #F3C88A",
"M. c #F1C88D",
"N. c #F2C88D",
"B. c #F3C88D",
"V. c #F3C98E",
"C. c #F3CA8E",
"Z. c #F6CB8C",
"A. c #F4CB8F",
"S. c #F8CC8D",
"D. c #F7CE92",
"F. c #F6CE93",
"G. c #F6CE97",
"H. c #FBD091",
"J. c #F9D093",
"K. c #FBD195",
"L. c #FCD294",
"P. c #FDD397",
"I. c #FAD39A",
"U. c #FDD399",
"Y. c #91B6CC",
"T. c #92B6CC",
"R. c #92B7CC",
"E. c #9FC3D7",
"W. c #9FC3D8",
"Q. c #A2CBE3",
"!. c #A3CCE4",
"~. c #D6D6D7",
"^. c #D9D9DA",
"/. c #DAD9DA",
"(. c #DADADB",
"). c #F5F4F4",
"_. c #F6F5F5",
"`. c #FAF8F7",
"'. c #F9F9F9",
"]. c #FCFCFB",
"[. c #FEFDFE",
"{. c #FEFEFE",
"}. c #FFFEFE",
"|. c #FEFEFF",
" X c white",
".X c None",
/* GIOVA */
".X.X.X.X.X.X.X.X.X.X.X.X.X.X.X.X.X.X.X.X.X.X.X.X.X.X.X.X.X.X.X.X.X.X.X.X.X.X.X.X.X.X.X.X.X.X.X.X.X.X.X.X.X.X.X.X.X.X.X.X.X.X.X.X",
".X.X.X.X.X.X.X.X.X.X.X.X.X.X.X.X.X.X.X.X.X.X.X.X.X.X.X.X.X.X.X.X.X.X.X.X.X.X.X.X.X.X.X.X.X.X.X.X.X.X.X.X.X.X.X.X.X.X.X.X.X.X.X.X",
".X.X.X.X.X.X.X.X.X.X.X.X.X.X.X.X.X.X.X.X.X.X.X.X.X.X.X.X.X.X.X.X.X.X.X.X.X.X.X.X.X.X.X.X.X.X.X.X.X.X.X.X.X.X.X.X.X.X.X.X.X.X.X.X",
".X.X.X.X.X.X.X.X.X.X.X.X.X.X.X.X.X.X.X.X.X.X.X.X.X.X.X.X.X.X.X.X.X.X.X.X.X.X.X.X.X.X.X.X.X.X.X.X.X.X.X.X.X.X.X.X.X.X.X.X.X.X.X.X",
".X.X.X.X.X.X.X.X.X.X.X.X.X.X.X.X.X.X.X.X.X.X.X.X.X.X.X.X.X.X.X.X.X.X.X.X.X.X.X.X.X.X.X.X.X.X.X.X.X.X.X.X.X.X.X.X.X.X.X.X.X.X.X.X",
".X.X.X.X.X.X.X.X.X.X.X.X.X.X.X.X.X.X.X.X.X.X.X.X.X.X.X.X.X0 p q l i d 0.M.c n q.m .X.X.X.X.X.X.X.X.X.X.X.X.X.X.X.X.X.X.X.X.X.X.X",
".X.X.X.X.X.X.X.X.X.X.X.X.X.X.X.X.X.X.X.X.X.X.X.X.X.X.X.Xs z l k f j.Z.B.L.L.b.H.S.e..X.X.X.X.X.X.X.X.X.X.X.X.X.X.X.X.X.X.X.X.X.X",
".X.X.X.X.X.X.X.X.X.X.X.X.X.X.X.X.X.X.X.X.X.X.X.X.X.X.Xe 9.d s n.m.x.D.V.K.J.P.U.I.C.M .X.X.X.X.X.X.X.X.X.X.X.X.X.X.X.X.X.X.X.X.X",
".X.X.X.X.X.X.X.X.X.X.X.X.X.X.X.X.X.X.X.X.X.X.X.X.X.X8 l.h g N m.7.8.N.k.c.r.A.F.G.C.v..X.X.X.X.X.X.X.X.X.X.X.X.X.X.X.X.X.X.X.X.X",
".X.X.X.X.X.X.X.X.X.X.X.X.X.X.X.X.X.X.X.X.X.X.X.X.X.Xy 6.a j b.w.d.d.d.d.d.d.d.d.d.i.x .X.X.X.X.X.X.X.X.X.X.X.X.X.X.X.X.X.X.X.X.X",
".X.X.X.X.X.X.X.X.X.X.X.X.X.X.X.X.X.X.X.X.X.X.X.X.X.Xt u r v >.2.d.d.d.d.d.d.d.d.d.i.i..X.X.X.X.X.X.X.X.X.X.X.X.X.X.X.X.X.X.X.X.X",
".X.X.X.X.X.X.X.X.X.X.X.X.X.X.X.X.X.X.X.X.X.X.X.X.X.X4.;.z.5.4.1.`.].T.T.i.h.h.Y.Y.)._..X.X.X.X.X.X.X.X.X.X.X.X.X.X.X.X.X.X.X.X.X",
".X.X.X.X.X.X.X.X.X.X.X.X.X.X.X.X.X.X.X.X.X.X.X.X.X.X4.;.y.4.2.2. X].R.R.h.h.h.Y.Y.).'..X.X.X.X.X.X.X.X.X.X.X.X.X.X.X.X.X.X.X.X.X",
".X.X.X.X.X.X.X.X.X.X.X.X.X.X.X.X.X.X.X.X.X.X.X.X.X.X4.4.t.4.4.u. X XQ.Q.h.d.h.W.E. X X.X.X.X.X.X.X.X.X.X.X.X.X.X.X.X.X.X.X.X.X.X",
".X.X.X.X.X.X.X.X.X.X.X.X.X.X.X.X.X.X.X.X.X.X.X.X.X.X:.4.4.4.4.3.{.{.Q.!.h.d.d.W.E. X{..X.X.X.X.X.X.X.X.X.X.X.X.X.X.X.X.X.X.X.X.X",
".X.X.X.X.X.X.X.X.X.X.X.X.X.X.X.X.X.X.X.X.X.X.X.X.X.Xw b 4.4.4.,.h.h.d.d.h.h.d.h.h.h.h..X.X.X.X.X.X.X.X.X.X.X.X.X.X.X.X.X.X.X.X.X",
".X.X.X.X.X.X.X.X.X.X.X.X.X.X.X.X.X.X.X.X.X.X.X.X.X.X.X9 4.4.4.<.h.h.h.h.h.h.h.h.h.h.g..X.X.X.X.X.X.X.X.X.X.X.X.X.X.X.X.X.X.X.X.X",
".X.X.X.X.X.X.X.X.X.X.X.X.X.X.X.X.X.X.X.X.X.X.X.X.X.X.X.X4.4.4.4.h.h.h.h.h.h.h.h.h.h.h..X.X.X.X.X.X.X.X.X.X.X.X.X.X.X.X.X.X.X.X.X",
".X.X.X.X.X.X.X.X.X.X.X.X.X.X.X.X.X.X.X.X.X.X.X.X.X.X.X.X;.4.4.4.g.h.f.d.d.d.f.f.h.h.g..X.X.X.X.X.X.X.X.X.X.X.X.X.X.X.X.X.X.X.X.X",
".X.X.X.X.X.X.X.X.X.X.X.X.X.X.X.X.X.X.X.X.X.X.X.X.X$ .     . . @ *.-.-.=.O .   % .X.X.X.X.X.X.X.X.X.X.X.X.X.X.X.X.X.X.X.X.X.X.X.X",
".X.X.X.X.X.X.X.X.X.X.X.X.X.X.X.X.X.X.X.X.X.X.X.X.X  .     . .   *.&.&.&.@ .   @ .X.X.X.X.X.X.X.X.X.X.X.X.X.X.X.X.X.X.X.X.X.X.X.X",
".X.X.X.X.X.X.X.X.X.X.X.X.X.X.X.X.X.X.X.X.X.X.X.X  . > > > , >   > > > > @ > : > X X .X.X.X.X.X.X.X.X.X.X.X.X.X.X.X.X.X.X.X.X.X.X",
".X.X.X.X.X.X.X.X.X.X.X.X.X.X.X.X.X.X.X.X.X.X.X    . < : , , ;   ; , , , . , , ; ; X .X.X.X.X.X.X.X.X.X.X.X.X.X.X.X.X.X.X.X.X.X.X",
".X.X.X.X.X.X.X.X.X.X.X.X.X.X.X.X.X.X.X.X.X.X$ . . % < ; 2 ; ; . ; , ; : . , , , , ; o o .X.X.X.X.X.X.X.X.X.X.X.X.X.X.X.X.X.X.X.X",
".X.X.X.X.X.X.X.X.X.X.X.X.X.X.X.X.X.X.X.X.X.     > ; ; > : ; ; # ; ; : > . : ; < < ; ; o .X.X.X.X.X.X.X.X.X.X.X.X.X.X.X.X.X.X.X.X",
".X.X.X.X.X.X.X.X.X.X.X.X.X.X.X.X.X.X.X.X.X. . % ; , ; O ; ; >  X X; ; [.@  X|.> O ; , o .X.X.X.X.X.X.X.X.X.X.X.X.X.X.X.X.X.X.X.X",
".X.X.X.X.X.X.X.X.X.X.X.X.X.X.X.X.X.X.X.X.X    % ; ; : % ; >  X>  X, ; ; @ ; ; |.  > ; o .X.X.X.X.X.X.X.X.X.X.X.X.X.X.X.X.X.X.X.X",
".X.X.X.X.X.X.X.X.X.X.X.X.X.X.X.X.X.X.X.X.XO > , , ;     >  X: :  X, , , > ; > |.. = ; o .X.X.X.X.X.X.X.X.X.X.X.X.X.X.X.X.X.X.X.X",
".X.X.X.X.X.X.X.X.X.X.X.X.X.X.X.X.X.X.X.X.X  ; ; ; ; % .  X> : >  X> > }.|.[.|.|.  = ; o .X.X.X.X.X.X.X.X.X.X.X.X.X.X.X.X.X.X.X.X",
".X.X.X.X.X.X.X.X.X.X.X.X.X.X.X.X.X.X.X.X.XO ; , , ;      X X X X X X> |.> : ; >   = ; o .X.X.X.X.X.X.X.X.X.X.X.X.X.X.X.X.X.X.X.X",
".X.X.X.X.X.X.X.X.X.X.X.X.X.X.X.X.X.X.X.X.XO > , ; ;     : ; ; >  X: > |.> ; ; > . - : o .X.X.X.X.X.X.X.X.X.X.X.X.X.X.X.X.X.X.X.X",
".X.X.X.X.X.X.X.X.X.X.X.X.X.X.X.X.X.X.X.X.X. . ; , , .   , , , >  X: > |.[.}. X[.  = ; o .X.X.X.X.X.X.X.X.X.X.X.X.X.X.X.X.X.X.X.X",
".X.X.X.X.X.X.X.X.X.X.X.X.X.X.X.X.X.X.X.X.X. . ; ; ;     ; ; , ; : : ; ; ; ; ; ; . - ; o .X.X.X.X.X.X.X.X.X.X.X.X.X.X.X.X.X.X.X.X",
".X.X.X.X.X.X.X.X.X.X.X.X.X.X.X.X.X.X.X.X.X& , , , ; % . ; ; ; ; ; ; , ; ; ; ; ; X - ; o .X.X.X.X.X.X.X.X.X.X.X.X.X.X.X.X.X.X.X.X",
".X.X.X.X.X.X.X.X.X.X.X.X.X.X.X.X.X.X.X.X.X* 1 ; ; ; .   ; , ; ; , ; ; , , ; : ;     1 o .X.X.X.X.X.X.X.X.X.X.X.X.X.X.X.X.X.X.X.X",
".X.X.X.X.X.X.X.X.X.X.X.X.X.X.X.X.X.X.X.X.X  % O % O     > ; ; ; ; ; ; ; ; ; >   . % % % .X.X.X.X.X.X.X.X.X.X.X.X.X.X.X.X.X.X.X.X",
".X.X.X.X.X.X.X.X.X.X.X.X.X.X.X.X.X.X.X.X.X. + O % O     % ; ; , , , , ; ; > . .   +   . .X.X.X.X.X.X.X.X.X.X.X.X.X.X.X.X.X.X.X.X",
".X.X.X.X.X.X.X.X.X.X.X.X.X.X.X.X.X.X.X.X.X=.&.=.*.&.*.    > : : ; : : : : > . % *.&.&.=..X.X.X.X.X.X.X.X.X.X.X.X.X.X.X.X.X.X.X.X",
".X.X.X.X.X.X.X.X.X.X.X.X.X.X.X.X.X.X.X.X.X&.&.&.&.&.*.% O O     % %   % O O   $ =.&.&.=..X.X.X.X.X.X.X.X.X.X.X.X.X.X.X.X.X.X.X.X",
".X.X.X.X.X.X.X.X.X.X.X.X.X.X.X.X.X.X.X.X.X&.&.s.p.d.a.F T +     . .   . O Q T F a.d.d.s..X.X.X.X.X.X.X.X.X.X.X.X.X.X.X.X.X.X.X.X",
".X.X.X.X.X.X.X.X.X.X.X.X.X.X.X.X.X.X.X.X.X&.&.d.d.d.a.F T T _ _ _ R Z _ / / R R d.d.d.a..X.X.X.X.X.X.X.X.X.X.X.X.X.X.X.X.X.X.X.X",
".X.X.X.X.X.X.X.X.X.X.X.X.X.X.X.X.X.X.X.X.X.X.Xd.d.d.d.T T _ / _ _ T Z _ _ _ _ R d.d..X.X.X.X.X.X.X.X.X.X.X.X.X.X.X.X.X.X.X.X.X.X",
".X.X.X.X.X.X.X.X.X.X.X.X.X.X.X.X.X.X.X.X.X.X.Xa.d.d.a.R _ _ { ( T Z Z _ _ [ _ / a.a..X.X.X.X.X.X.X.X.X.X.X.X.X.X.X.X.X.X.X.X.X.X",
".X.X.X.X.X.X.X.X.X.X.X.X.X.X.X.X.X.X.X.X.X.X.X.X.X.XZ T / [ [ _ .X.XV I Q _ [ _ .X.X.X.X.X.X.X.X.X.X.X.X.X.X.X.X.X.X.X.X.X.X.X.X",
".X.X.X.X.X.X.X.X.X.X.X.X.X.X.X.X.X.X.X.X.X.X.X.X.X.XZ T _ [ _ Q .X.XT T _ [ [ _ .X.X.X.X.X.X.X.X.X.X.X.X.X.X.X.X.X.X.X.X.X.X.X.X",
".X.X.X.X.X.X.X.X.X.X.X.X.X.X.X.X.X.X.X.X.X.X.X.X.X.XC T _ [ [ Q .X.XZ T _ [ [ ( .X.X.X.X.X.X.X.X.X.X.X.X.X.X.X.X.X.X.X.X.X.X.X.X",
".X.X.X.X.X.X.X.X.X.X.X.X.X.X.X.X.X.X.X.X.X.X.X.X.X.XZ Z Q _ [ / .X.XT T Q ! _ / .X.X.X.X.X.X.X.X.X.X.X.X.X.X.X.X.X.X.X.X.X.X.X.X",
".X.X.X.X.X.X.X.X.X.X.X.X.X.X.X.X.X.X.X.X.X.X.X.X.X.XA Z ' ! ! Q .X.XZ Z E W ] Q .X.X.X.X.X.X.X.X.X.X.X.X.X.X.X.X.X.X.X.X.X.X.X.X",
".X.X.X.X.X.X.X.X.X.X.X.X.X.X.X.X.X.X.X.X.X.X.X.X.X.XS Z G H K ~ .X.XZ Z S D F ) .X.X.X.X.X.X.X.X.X.X.X.X.X.X.X.X.X.X.X.X.X.X.X.X",
".X.X.X.X.X.X.X.X.X.X.X.X.X.X.X.X.X.X.X.X.X.X.X.X.X.XZ Z J Y _ ` .X.XZ Z P Q _ _ .X.X.X.X.X.X.X.X.X.X.X.X.X.X.X.X.X.X.X.X.X.X.X.X",
".X.X.X.X.X.X.X.X.X.X.X.X.X.X.X.X.X.X.X.X.X.X.X.X.X.XZ Z ( _ _ _ .X.XZ U Q ( [ _ .X.X.X.X.X.X.X.X.X.X.X.X.X.X.X.X.X.X.X.X.X.X.X.X",
".X.X.X.X.X.X.X.X.X.X.X.X.X.X.X.X.X.X.X.X.X.X.X.X.X.XT T _ [ [ Q .X.XZ T _ _ [ [ .X.X.X.X.X.X.X.X.X.X.X.X.X.X.X.X.X.X.X.X.X.X.X.X",
".X.X.X.X.X.X.X.X.X.X.X.X.X.X.X.X.X.X.X.X.X.X.X.X.X.XZ T _ [ [ / .X.XZ T _ [ / / .X.X.X.X.X.X.X.X.X.X.X.X.X.X.X.X.X.X.X.X.X.X.X.X",
".X.X.X.X.X.X.X.X.X.X.X.X.X.X.X.X.X.X.X.X.X.X.X.X.X.XZ T _ _ [ ( .X.XT Z _ [ _ _ .X.X.X.X.X.X.X.X.X.X.X.X.X.X.X.X.X.X.X.X.X.X.X.X",
".X.X.X.X.X.X.X.X.X.X.X.X.X.X.X.X.X.X.X.X.X.X.X.X.X.XZ T _ _ [ _ .X.XZ Z _ [ [ _ .X.X.X.X.X.X.X.X.X.X.X.X.X.X.X.X.X.X.X.X.X.X.X.X",
".X.X.X.X.X.X.X.X.X.X.X.X.X.X.X.X.X.X.X.X.X.X.X.X.X.XZ T ) } _ _ .X.XZ T _ _ _ _ .X.X.X.X.X.X.X.X.X.X.X.X.X.X.X.X.X.X.X.X.X.X.X.X",
".X.X.X.X.X.X.X.X.X.X.X.X.X.X.X.X.X.X.X.X.X.X.X.X.X.XZ U _ [ _ _ .X.XZ T [ _ _ _ .X.X.X.X.X.X.X.X.X.X.X.X.X.X.X.X.X.X.X.X.X.X.X.X",
".X.X.X.X.X.X.X.X.X.X.X.X.X.X.X.X.X.X.X.X.X.X.X.X.X.XB L Q _ / Q .X.XV L ^ _ [ Q .X.X.X.X.X.X.X.X.X.X.X.X.X.X.X.X.X.X.X.X.X.X.X.X",
".X.X.X.X.X.X.X.X.X.X.X.X.X.X.X.X.X.X.X.X.X.X.X.X.X.X6 6 +. .|  ..X.X6 3  .X. ....X.X.X.X.X.X.X.X.X.X.X.X.X.X.X.X.X.X.X.X.X.X.X.X",
".X.X.X.X.X.X.X.X.X.X.X.X.X.X.X.X.X.X.X.X.X.X.X.X.X.X6 6 +. .@.o..X.X5 3 O.|  .X..X.X.X.X.X.X.X.X.X.X.X.X.X.X.X.X.X.X.X.X.X.X.X.X",
".X.X.X.X.X.X.X.X.X.X.X.X.X.X.X.X.X.X.X.X.X.X.X.X.X.X6 3 3 3 4 +.o.o.o.3 6 3 X.X.X.+..X.X.X.X.X.X.X.X.X.X.X.X.X.X.X.X.X.X.X.X.X.X",
".X.X.X.X.X.X.X.X.X.X.X.X.X.X.X.X.X.X.X.X.X.X.X.X.X.X7 6 6 6 3 +.X.+. .3 3 6 +.X.X.+..X.X.X.X.X.X.X.X.X.X.X.X.X.X.X.X.X.X.X.X.X.X",
".X.X.X.X.X.X.X.X.X.X.X.X.X.X.X.X.X.X.X.X.X.X.X.X.X.X$.#.$.$.%./.(.^.^.$.$.$.^.^.^.^..X.X.X.X.X.X.X.X.X.X.X.X.X.X.X.X.X.X.X.X.X.X",
".X.X.X.X.X.X.X.X.X.X.X.X.X.X.X.X.X.X.X.X.X.X.X.X.X.X$.$.$.$.%.^.^.^.~.$.%.$.^.^.^.^..X.X.X.X.X.X.X.X.X.X.X.X.X.X.X.X.X.X.X.X.X.X"
};
