/* XPM */
static char *result[] = {
/* columns rows colors chars-per-pixel */
"64 64 194 2 ",
"   c black",
".  c #010101",
"X  c #020202",
"o  c gray1",
"O  c #030306",
"+  c #040306",
"@  c #040406",
"#  c #040407",
"$  c #050407",
"%  c #040A0A",
"&  c #0E0E0E",
"*  c #081312",
"=  c #081313",
"-  c #121617",
";  c #161616",
":  c #181819",
">  c #1A1A20",
",  c #202020",
"<  c gray13",
"1  c #222222",
"2  c #232323",
"3  c #232324",
"4  c #272727",
"5  c #282727",
"6  c #282728",
"7  c #282828",
"8  c #3A3A3A",
"9  c #3A3A3B",
"0  c gray23",
"q  c #3E3E3E",
"w  c #414141",
"e  c #425F9E",
"r  c #43619E",
"t  c #42609F",
"y  c #44609E",
"u  c #44619F",
"i  c #4461A0",
"p  c #4461A1",
"a  c #4562A0",
"s  c #4462A1",
"d  c #4562A1",
"f  c #4463A1",
"g  c #4663A2",
"h  c #4866A4",
"j  c #4D6AAB",
"k  c #4E6AAB",
"l  c #4E6BAD",
"z  c #4E6CAC",
"x  c #4E6CAD",
"c  c #4E6CAE",
"v  c #4F6DAF",
"b  c #5572B1",
"n  c #5C78B9",
"m  c #5C7ABA",
"M  c #5D7ABA",
"N  c #627FC4",
"B  c #488D95",
"V  c #488D96",
"C  c #488E96",
"Z  c #4C949C",
"A  c #4C949D",
"S  c #4C959D",
"D  c #4F9AA3",
"F  c #4F9CA5",
"G  c #4F9DA5",
"H  c #509BA4",
"J  c #509CA5",
"K  c #4CA3A2",
"L  c #4DA3A2",
"P  c #4DA5A5",
"I  c #4EA5A4",
"U  c #4FA5A4",
"Y  c #54A4AD",
"T  c #54A4AE",
"R  c #55A4AE",
"E  c #59ADB7",
"W  c #5AADB7",
"Q  c #59AEB8",
"!  c #63B8BF",
"~  c #6682C2",
"^  c #6281C4",
"/  c #6382C6",
"(  c #6383C6",
")  c #6483C6",
"_  c #6A86C9",
"`  c #6B86C9",
"'  c #6A86CA",
"]  c #6B86CA",
"[  c #6B87CA",
"{  c #6A87CB",
"}  c #6B88CA",
"|  c #6B8ACB",
" . c #6C8ACB",
".. c #6B89CC",
"X. c #6B8ACC",
"o. c #6C8ACC",
"O. c #748EC7",
"+. c #758FC8",
"@. c #718DCE",
"#. c #7792CD",
"$. c #7892CD",
"%. c #7893CD",
"&. c #718ED0",
"*. c #718FD0",
"=. c #728FD0",
"-. c #7290D2",
";. c #7391D3",
":. c #7591D1",
">. c #7592D3",
",. c #7692D3",
"<. c #7693D3",
"1. c #7795D6",
"2. c #7B97D3",
"3. c #7895D6",
"4. c #7A97D7",
"5. c #7C98D4",
"6. c #7D99D7",
"7. c #7E99D7",
"8. c #7A97D8",
"9. c #7B97D8",
"0. c #7A98D8",
"q. c #7B98D8",
"w. c #7E9BD8",
"e. c #7F9BD8",
"r. c #7F9CDD",
"t. c #5FB9C4",
"y. c #5FBAC5",
"u. c #66BBC1",
"i. c #67BCC2",
"p. c #66BAC4",
"a. c #61BCC6",
"s. c #61BDC6",
"d. c #60BCC7",
"f. c #60BDC7",
"g. c #61BDC7",
"h. c #67BCC6",
"j. c #60C7C3",
"k. c #67C5C2",
"l. c #67C6C3",
"z. c #60C7C4",
"x. c #69C0CA",
"c. c #64C5D0",
"v. c #65C5D0",
"b. c gray57",
"n. c #929292",
"m. c #939393",
"M. c #9A9A9A",
"N. c #9B9B9B",
"B. c gray62",
"V. c #9F9F9F",
"C. c #A09F9F",
"Z. c #A3A2A9",
"A. c #A4A3A8",
"S. c #A4A3A9",
"D. c #A7A6AC",
"F. c #C2878B",
"G. c #C3898D",
"H. c #C4888D",
"J. c #C4898D",
"K. c #C8979A",
"L. c #CD9A9F",
"P. c #CD9B9F",
"I. c #CF9CA0",
"U. c #DEA2A9",
"Y. c #DEA3A9",
"T. c #DFA3AA",
"R. c #DFA4AB",
"E. c #DEB7BB",
"W. c #DFB7BD",
"Q. c #DFB8BC",
"!. c #DFB8BD",
"~. c #DFB9BD",
"^. c #DFBABD",
"/. c #E0BABD",
"(. c #E0BABE",
"). c #809CDB",
"_. c #809DDC",
"`. c #819EDD",
"'. c #83A0DF",
"]. c #D6D6D7",
"[. c #D9D9DA",
"{. c #DAD9DA",
"}. c #DADADB",
"|. c #F5F4F4",
" X c #F6F4F4",
".X c #F6F5F5",
"XX c #F9F9F9",
"oX c #FDFAFA",
"OX c #FEFDFE",
"+X c #FEFEFE",
"@X c #FFFEFE",
"#X c #FEFEFF",
"$X c white",
"%X c None",
/* MARTA */
"%X%X%X%X%X%X%X%X%X%X%X%X%X%X%X%X%X%X%X%X%X%X%X%X%X%X%X%X%X%X%X%X%X%X%X%X%X%X%X%X%X%X%X%X%X%X%X%X%X%X%X%X%X%X%X%X%X%X%X%X%X%X%X%X",
"%X%X%X%X%X%X%X%X%X%X%X%X%X%X%X%X%X%X%X%X%X%X%X%X%X%X%X%X%X%X%X%X%X%X%X%X%X%X%X%X%X%X%X%X%X%X%X%X%X%X%X%X%X%X%X%X%X%X%X%X%X%X%X%X",
"%X%X%X%X%X%X%X%X%X%X%X%X%X%X%X%X%X%X%X%X%X%X%X%X%X%X%X%X%X%X%X%X%X%X%X%X%X%X%X%X%X%X%X%X%X%X%X%X%X%X%X%X%X%X%X%X%X%X%X%X%X%X%X%X",
"%X%X%X%X%X%X%X%X%X%X%X%X%X%X%X%X%X%X%X%X%X%X%X%X%X%X%X%X%XQ E T R R R R R R E R W %X%X%X%X%X%X%X%X%X%X%X%X%X%X%X%X%X%X%X%X%X%X%X",
"%X%X%X%X%X%X%X%X%X%X%X%X%X%X%X%X%X%X%X%X%X%X%X%X%XB %X%XW E R R E R R R Y R R R R R R %X%X%X%X%X%X%X%X%X%X%X%X%X%X%X%X%X%X%X%X%X",
"%X%X%X%X%X%X%X%X%X%X%X%X%X%X%X%X%X%X%X%X%X%X%X%XH Z H B Q R R Y R R E E T R R E R R R R %X%X%X%X%X%X%X%X%X%X%X%X%X%X%X%X%X%X%X%X",
"%X%X%X%X%X%X%X%X%X%X%X%X%X%X%X%X%X%X%X%X%X%X%X%X%XZ Z D Q R E R E J B f.d.c.c.d.s.c.c.a.%X%X%X%X%X%X%X%X%X%X%X%X%X%X%X%X%X%X%X%X",
"%X%X%X%X%X%X%X%X%X%X%X%X%X%X%X%X%X%X%X%X%X%X%X%XZ A A Z Z B Q R Q B B d.c.d.c.y.B c.c.c.s.! %X%X%X%X%X%X%X%X%X%X%X%X%X%X%X%X%X%X",
"%X%X%X%X%X%X%X%X%X%X%X%X%X%X%X%X%X%X%X%X%X%X%X%XB Z Z A A B B s.c.d.d.d.c.d.c.D D J v.c.c.c.%X%X%X%X%X%X%X%X%X%X%X%X%X%X%X%X%X%X",
"%X%X%X%X%X%X%X%X%X%X%X%X%X%X%X%X%X%X%X%X%X%X%X%XB Z Z Z B B B s.c.g.c.c.c.c.d.~.~.E.i.c.c.c.%X%X%X%X%X%X%X%X%X%X%X%X%X%X%X%X%X%X",
"%X%X%X%X%X%X%X%X%X%X%X%X%X%X%X%X%X%X%X%X%X%X%XJ B Z A Z B V g.c.c.c.d.c.h.g.h.~.~.E.E.c.d.! %X%X%X%X%X%X%X%X%X%X%X%X%X%X%X%X%X%X",
"%X%X%X%X%X%X%X%X%X%X%X%X%X%X%X%X%X%X%X%X%X%X%XB Z Z A Z B B c.c.d.g.* = E.(.(.% % & & B a.%X%X%X%X%X%X%X%X%X%X%X%X%X%X%X%X%X%X%X",
"%X%X%X%X%X%X%X%X%X%X%X%X%X%X%X%X%X%X%X%X%X%X%XB B J Z B C t.v.v.c.x.L K (.(.(.P L |.XX- G %X%X%X%X%X%X%X%X%X%X%X%X%X%X%X%X%X%X%X",
"%X%X%X%X%X%X%X%X%X%X%X%X%X%X%X%X%X%X%X%X%X%X%XD Z B A B p.P.P.I..X$XI U (.~.(.I U  X.XZ Z %X%X%X%X%X%X%X%X%X%X%X%X%X%X%X%X%X%X%X",
"%X%X%X%X%X%X%X%X%X%X%X%X%X%X%X%X%X%X%X%X%X%X%XJ B Z B B p.P.P.L.+X+Xj.j.(.~.~.z.j.$X+XZ Z %X%X%X%X%X%X%X%X%X%X%X%X%X%X%X%X%X%X%X",
"%X%X%X%X%X%X%X%X%X%X%X%X%X%X%X%X%X%X%X%X%X%X%X%XZ Z C i.P.P.P.Y.oXoXk.l.(.(.~.l.k.oXoXZ F %X%X%X%X%X%X%X%X%X%X%X%X%X%X%X%X%X%X%X",
"%X%X%X%X%X%X%X%X%X%X%X%X%X%X%X%X%X%X%X%X%X%X%X%XS Z J u.P.P.P.U.R.T.R.(.(.(.(.(.R.T.R.Z %X%X%X%X%X%X%X%X%X%X%X%X%X%X%X%X%X%X%X%X",
"%X%X%X%X%X%X%X%X%X%X%X%X%X%X%X%X%X%X%X%X%X%X%XB B J d.f.P.P.P.P.(.(.(.(.(.(.(.(.(.(.(.%X%X%X%X%X%X%X%X%X%X%X%X%X%X%X%X%X%X%X%X%X",
"%X%X%X%X%X%X%X%X%X%X%X%X%X%X%X%X%X%X%X%X%X%X%XZ Z d.d.f.K.P.P.P./.(.^.~.~.~.^.^.(.(./.%X%X%X%X%X%X%X%X%X%X%X%X%X%X%X%X%X%X%X%X%X",
"%X%X%X%X%X%X%X%X%X%X%X%X%X%X%X%X%X%X%X%X%X%X%XJ B $ .     . . @ G.J.J.H.O .   ; Z C %X%X%X%X%X%X%X%X%X%X%X%X%X%X%X%X%X%X%X%X%X%X",
"%X%X%X%X%X%X%X%X%X%X%X%X%X%X%X%X%X%X%X%X%X%X%XC D   .     . .   G.F.F.F.@ .   @ C %X%X%X%X%X%X%X%X%X%X%X%X%X%X%X%X%X%X%X%X%X%X%X",
"%X%X%X%X%X%X%X%X%X%X%X%X%X%X%X%X%X%X%X%X%X%X%XC   . 3 3 3 4 3   3 3 3 3 @ 3 2 3 X X %X%X%X%X%X%X%X%X%X%X%X%X%X%X%X%X%X%X%X%X%X%X",
"%X%X%X%X%X%X%X%X%X%X%X%X%X%X%X%X%X%X%X%X%X%X%X    . 5 2 4 4 1   1 4 4 4 . 4 4 1 1 X %X%X%X%X%X%X%X%X%X%X%X%X%X%X%X%X%X%X%X%X%X%X",
"%X%X%X%X%X%X%X%X%X%X%X%X%X%X%X%X%X%X%X%X%X%X$ . . ; 5 1 7 1 1 . 1 4 1 2 . 4 4 4 4 1 o o %X%X%X%X%X%X%X%X%X%X%X%X%X%X%X%X%X%X%X%X",
"%X%X%X%X%X%X%X%X%X%X%X%X%X%X%X%X%X%X%X%X%X.     3 1 1 3 2 1 1 # 1 1 2 3 . 2 1 5 5 1 1 o %X%X%X%X%X%X%X%X%X%X%X%X%X%X%X%X%X%X%X%X",
"%X%X%X%X%X%X%X%X%X%X%X%X%X%X%X%X%X%X%X%X%X. . ; 1 4 1 O 1 1 3 $X$X1 1 OX@ $X#X3 O 1 4 o %X%X%X%X%X%X%X%X%X%X%X%X%X%X%X%X%X%X%X%X",
"%X%X%X%X%X%X%X%X%X%X%X%X%X%X%X%X%X%X%X%X%X    ; 1 1 2 ; 1 3 $X3 $X4 1 1 @ 1 1 #X  3 1 o %X%X%X%X%X%X%X%X%X%X%X%X%X%X%X%X%X%X%X%X",
"%X%X%X%X%X%X%X%X%X%X%X%X%X%X%X%X%X%X%X%X%XO 3 4 4 1     3 $X2 2 $X4 4 4 3 1 3 #X. , 1 o %X%X%X%X%X%X%X%X%X%X%X%X%X%X%X%X%X%X%X%X",
"%X%X%X%X%X%X%X%X%X%X%X%X%X%X%X%X%X%X%X%X%X  1 1 1 1 ; . $X3 2 3 $X3 3 @X#XOX#X#X  , 1 o %X%X%X%X%X%X%X%X%X%X%X%X%X%X%X%X%X%X%X%X",
"%X%X%X%X%X%X%X%X%X%X%X%X%X%X%X%X%X%X%X%X%XO 1 4 4 1     $X$X$X$X$X$X3 #X3 2 1 3   , 1 o %X%X%X%X%X%X%X%X%X%X%X%X%X%X%X%X%X%X%X%X",
"%X%X%X%X%X%X%X%X%X%X%X%X%X%X%X%X%X%X%X%X%XO 3 4 1 1     2 1 1 3 $X2 3 #X3 1 1 3 . < 2 o %X%X%X%X%X%X%X%X%X%X%X%X%X%X%X%X%X%X%X%X",
"%X%X%X%X%X%X%X%X%X%X%X%X%X%X%X%X%X%X%X%X%X. . 1 4 4 .   4 4 4 3 $X2 3 #XOX@X$XOX  , 1 o %X%X%X%X%X%X%X%X%X%X%X%X%X%X%X%X%X%X%X%X",
"%X%X%X%X%X%X%X%X%X%X%X%X%X%X%X%X%X%X%X%X%X. . 1 1 1     1 1 4 1 2 2 1 1 1 1 1 1 . < 1 o %X%X%X%X%X%X%X%X%X%X%X%X%X%X%X%X%X%X%X%X",
"%X%X%X%X%X%X%X%X%X%X%X%X%X%X%X%X%X%X%X%X%X: 4 4 4 1 ; . 1 1 1 1 1 1 4 1 1 1 1 1 X < 1 o %X%X%X%X%X%X%X%X%X%X%X%X%X%X%X%X%X%X%X%X",
"%X%X%X%X%X%X%X%X%X%X%X%X%X%X%X%X%X%X%X%X%X> 6 1 1 1 .   1 4 1 1 4 1 1 4 4 1 2 1     6 o %X%X%X%X%X%X%X%X%X%X%X%X%X%X%X%X%X%X%X%X",
"%X%X%X%X%X%X%X%X%X%X%X%X%X%X%X%X%X%X%X%X%X  ; O ; O     3 1 1 1 1 1 1 1 1 1 3   . ; ; ; %X%X%X%X%X%X%X%X%X%X%X%X%X%X%X%X%X%X%X%X",
"%X%X%X%X%X%X%X%X%X%X%X%X%X%X%X%X%X%X%X%X%X. + O ; O     ; 1 1 4 4 4 4 1 1 3 . .   +   . %X%X%X%X%X%X%X%X%X%X%X%X%X%X%X%X%X%X%X%X",
"%X%X%X%X%X%X%X%X%X%X%X%X%X%X%X%X%X%X%X%X%XH.F.H.G.F.G.    3 2 2 1 2 2 2 2 3 . ; G.F.F.H.%X%X%X%X%X%X%X%X%X%X%X%X%X%X%X%X%X%X%X%X",
"%X%X%X%X%X%X%X%X%X%X%X%X%X%X%X%X%X%X%X%X%XF.F.F.F.F.G.; O O     ; ;   ; O O   $ H.F.F.H.%X%X%X%X%X%X%X%X%X%X%X%X%X%X%X%X%X%X%X%X",
"%X%X%X%X%X%X%X%X%X%X%X%X%X%X%X%X%X%X%X%X%XF.F.!.W.~.Q.a x +     . .   . O _ x r Q.~.~.!.%X%X%X%X%X%X%X%X%X%X%X%X%X%X%X%X%X%X%X%X",
"%X%X%X%X%X%X%X%X%X%X%X%X%X%X%X%X%X%X%X%X%XF.F.~.~.~.Q.d x x  .) ) c i o.&.&.v v ~.~.~.Q.%X%X%X%X%X%X%X%X%X%X%X%X%X%X%X%X%X%X%X%X",
"%X%X%X%X%X%X%X%X%X%X%X%X%X%X%X%X%X%X%X%X%X%X%X~.~.~.~.x x o.&.=.o.x i o.3.3.o.c ~.~.%X%X%X%X%X%X%X%X%X%X%X%X%X%X%X%X%X%X%X%X%X%X",
"%X%X%X%X%X%X%X%X%X%X%X%X%X%X%X%X%X%X%X%X%X%X%XQ.~.~.Q.v o.=.2.| x i i o.3.7.;./ Q.Q.%X%X%X%X%X%X%X%X%X%X%X%X%X%X%X%X%X%X%X%X%X%X",
"%X%X%X%X%X%X%X%X%X%X%X%X%X%X%X%X%X%X%X%X%X%X%X%X%X%Xt x &.).e.) %X%Xe n :.q.5.) %X%X%X%X%X%X%X%X%X%X%X%X%X%X%X%X%X%X%X%X%X%X%X%X",
"%X%X%X%X%X%X%X%X%X%X%X%X%X%X%X%X%X%X%X%X%X%X%X%X%X%Xi x q.'.r.N %X%Xx M =.e.e.) %X%X%X%X%X%X%X%X%X%X%X%X%X%X%X%X%X%X%X%X%X%X%X%X",
"%X%X%X%X%X%X%X%X%X%X%X%X%X%X%X%X%X%X%X%X%X%X%X%X%X%Xu x 3.`._.N %X%Xi m o.7.e.X.%X%X%X%X%X%X%X%X%X%X%X%X%X%X%X%X%X%X%X%X%X%X%X%X",
"%X%X%X%X%X%X%X%X%X%X%X%X%X%X%X%X%X%X%X%X%X%X%X%X%X%Xi i [ 1.5./ %X%Xx x @.4.1...%X%X%X%X%X%X%X%X%X%X%X%X%X%X%X%X%X%X%X%X%X%X%X%X",
"%X%X%X%X%X%X%X%X%X%X%X%X%X%X%X%X%X%X%X%X%X%X%X%X%X%Xp s O.} } N %X%Xs p [ { #.] %X%X%X%X%X%X%X%X%X%X%X%X%X%X%X%X%X%X%X%X%X%X%X%X",
"%X%X%X%X%X%X%X%X%X%X%X%X%X%X%X%X%X%X%X%X%X%X%X%X%X%Xi s s g h ^ %X%Xs s f d a ..%X%X%X%X%X%X%X%X%X%X%X%X%X%X%X%X%X%X%X%X%X%X%X%X",
"%X%X%X%X%X%X%X%X%X%X%X%X%X%X%X%X%X%X%X%X%X%X%X%X%X%Xi i g z o.X.%X%Xi i k [ ;.o.%X%X%X%X%X%X%X%X%X%X%X%X%X%X%X%X%X%X%X%X%X%X%X%X",
"%X%X%X%X%X%X%X%X%X%X%X%X%X%X%X%X%X%X%X%X%X%X%X%X%X%Xt i X.o.o.) %X%Xi l [ 0.e.o.%X%X%X%X%X%X%X%X%X%X%X%X%X%X%X%X%X%X%X%X%X%X%X%X",
"%X%X%X%X%X%X%X%X%X%X%X%X%X%X%X%X%X%X%X%X%X%X%X%X%X%Xx x >.w.7.N %X%Xi m =.q.e.$.%X%X%X%X%X%X%X%X%X%X%X%X%X%X%X%X%X%X%X%X%X%X%X%X",
"%X%X%X%X%X%X%X%X%X%X%X%X%X%X%X%X%X%X%X%X%X%X%X%X%X%Xi x <.w.5./ %X%Xi m =.e.8...%X%X%X%X%X%X%X%X%X%X%X%X%X%X%X%X%X%X%X%X%X%X%X%X",
"%X%X%X%X%X%X%X%X%X%X%X%X%X%X%X%X%X%X%X%X%X%X%X%X%X%Xi ~ ,.3.5.( %X%Xx b 3.e.q.o.%X%X%X%X%X%X%X%X%X%X%X%X%X%X%X%X%X%X%X%X%X%X%X%X",
"%X%X%X%X%X%X%X%X%X%X%X%X%X%X%X%X%X%X%X%X%X%X%X%X%X%Xi m =.3.+.) %X%Xi b 3.e.e.| %X%X%X%X%X%X%X%X%X%X%X%X%X%X%X%X%X%X%X%X%X%X%X%X",
"%X%X%X%X%X%X%X%X%X%X%X%X%X%X%X%X%X%X%X%X%X%X%X%X%X%Xi x *.7.3.o.%X%Xi x ;.9.9.o.%X%X%X%X%X%X%X%X%X%X%X%X%X%X%X%X%X%X%X%X%X%X%X%X",
"%X%X%X%X%X%X%X%X%X%X%X%X%X%X%X%X%X%X%X%X%X%X%X%X%X%Xi l ) 6.3.o.%X%Xi x 5.3.*.o.%X%X%X%X%X%X%X%X%X%X%X%X%X%X%X%X%X%X%X%X%X%X%X%X",
"%X%X%X%X%X%X%X%X%X%X%X%X%X%X%X%X%X%X%X%X%X%X%X%X%X%Xe j ` ) / N %X%Xy j -.;.%.' %X%X%X%X%X%X%X%X%X%X%X%X%X%X%X%X%X%X%X%X%X%X%X%X",
"%X%X%X%X%X%X%X%X%X%X%X%X%X%X%X%X%X%X%X%X%X%X%X%X%X%Xq q V.n.b.n.%X%Xq 8 n.M.n.m.%X%X%X%X%X%X%X%X%X%X%X%X%X%X%X%X%X%X%X%X%X%X%X%X",
"%X%X%X%X%X%X%X%X%X%X%X%X%X%X%X%X%X%X%X%X%X%X%X%X%X%Xq q V.n.C.N.%X%X0 8 B.b.n.M.%X%X%X%X%X%X%X%X%X%X%X%X%X%X%X%X%X%X%X%X%X%X%X%X",
"%X%X%X%X%X%X%X%X%X%X%X%X%X%X%X%X%X%X%X%X%X%X%X%X%X%Xq 8 8 8 9 V.N.N.N.8 q 8 M.M.M.V.%X%X%X%X%X%X%X%X%X%X%X%X%X%X%X%X%X%X%X%X%X%X",
"%X%X%X%X%X%X%X%X%X%X%X%X%X%X%X%X%X%X%X%X%X%X%X%X%X%Xw q q q 8 V.M.V.n.8 8 q V.M.M.V.%X%X%X%X%X%X%X%X%X%X%X%X%X%X%X%X%X%X%X%X%X%X",
"%X%X%X%X%X%X%X%X%X%X%X%X%X%X%X%X%X%X%X%X%X%X%X%X%X%XS.A.S.S.D.{.}.[.[.S.S.S.[.[.[.[.%X%X%X%X%X%X%X%X%X%X%X%X%X%X%X%X%X%X%X%X%X%X",
"%X%X%X%X%X%X%X%X%X%X%X%X%X%X%X%X%X%X%X%X%X%X%X%X%X%XS.S.Z.S.D.[.[.[.].S.D.S.[.[.[.[.%X%X%X%X%X%X%X%X%X%X%X%X%X%X%X%X%X%X%X%X%X%X"
};
