/* XPM */
static char *result[] = {
/* columns rows colors chars-per-pixel */
"64 64 130 2 ",
"   c black",
".  c #010101",
"X  c #020202",
"o  c gray1",
"O  c #030306",
"+  c #040306",
"@  c #040406",
"#  c #040407",
"$  c #050407",
"%  c #161616",
"&  c #181819",
"*  c #3D1E00",
"=  c #3C1E01",
"-  c #3D1E01",
";  c #3E1E01",
":  c #3E1F01",
">  c #3E1F02",
",  c #391C0B",
"<  c #1A1A20",
"1  c #202020",
"2  c gray13",
"3  c #222222",
"4  c #232323",
"5  c #232324",
"6  c #272727",
"7  c #282727",
"8  c #282728",
"9  c #282828",
"0  c #3A3A3A",
"q  c #3A3A3B",
"w  c gray23",
"e  c #3E3E3E",
"r  c #402002",
"t  c #442101",
"y  c #452201",
"u  c #452301",
"i  c #442202",
"p  c #462302",
"a  c #4E2701",
"s  c #4B2709",
"d  c #4E2B0C",
"f  c #512801",
"g  c #522801",
"h  c #522901",
"j  c #542900",
"k  c #552A00",
"l  c #5B2E00",
"z  c #5D2D00",
"x  c #5E2D00",
"c  c #5F2E00",
"v  c #592E04",
"b  c #602E00",
"n  c #612E00",
"m  c #602F00",
"M  c #673301",
"N  c #693402",
"B  c #643308",
"V  c #62300E",
"C  c gray26",
"Z  c #2A4887",
"A  c #2B4887",
"S  c #2B4987",
"D  c #2B4988",
"F  c #2B4989",
"G  c #2B4A88",
"H  c #2C4989",
"J  c #2C4A89",
"K  c #2D4A8A",
"L  c #2D4B8A",
"P  c #2E4C8B",
"I  c #304F8F",
"U  c #385697",
"Y  c #395697",
"T  c #395698",
"R  c #39579A",
"E  c #3A5899",
"W  c #39589A",
"Q  c #3B5A9D",
"!  c #617EC2",
"~  c #617EC4",
"^  c #627FC4",
"/  c #6380C4",
"(  c #6281C4",
")  c #6280C5",
"_  c #6382C6",
"`  c #6383C6",
"'  c #6383C7",
"]  c #6483C6",
"[  c #6483C7",
"{  c #748EC7",
"}  c #748EC8",
"|  c #758FC8",
" . c #748FC9",
".. c #768FC8",
"X. c gray57",
"o. c #929292",
"O. c #939393",
"+. c #9A9A9A",
"@. c #9B9B9B",
"#. c gray62",
"$. c #9F9F9F",
"%. c #A09F9F",
"&. c #A4A3A8",
"*. c #A4A3A9",
"=. c #A7A6AC",
"-. c #C2868A",
";. c #C2878B",
":. c #C3888C",
">. c #C3898D",
",. c #C4888D",
"<. c #C4898D",
"1. c #D7B1B3",
"2. c #D8B2B4",
"3. c #DFB7BD",
"4. c #DFB8BC",
"5. c #DFB8BD",
"6. c #DFB9BD",
"7. c #E0BABE",
"8. c #D6D6D7",
"9. c #D9D9DA",
"0. c #DAD9DA",
"q. c #DADADB",
"w. c #EBE9E9",
"e. c #ECEAEA",
"r. c #FEFDFE",
"t. c #FEFEFE",
"y. c #FFFEFE",
"u. c #FEFEFF",
"i. c white",
"p. c None",
/* PASQUALE */
"p.p.p.p.p.p.p.p.p.p.p.p.p.p.p.p.p.p.p.p.p.p.p.p.p.p.p.p.p.p.p.p.p.p.p.p.p.p.p.p.p.p.p.p.p.p.p.p.p.p.p.p.p.p.p.p.p.p.p.p.p.p.p.p.",
"p.p.p.p.p.p.p.p.p.p.p.p.p.p.p.p.p.p.p.p.p.p.p.p.p.p.p.p.p.p.p.p.p.p.p.p.p.p.p.p.p.p.p.p.p.p.p.p.p.p.p.p.p.p.p.p.p.p.p.p.p.p.p.p.",
"p.p.p.p.p.p.p.p.p.p.p.p.p.p.p.p.p.p.p.p.p.p.p.p.p.p.p.p.p.p.p.p.p.p.p.p.p.p.p.p.p.p.p.p.p.p.p.p.p.p.p.p.p.p.p.p.p.p.p.p.p.p.p.p.",
"p.p.p.p.p.p.p.p.p.p.p.p.p.p.p.p.p.p.p.p.p.p.p.p.p.p.p.p.p.t - ; k k l j k k j k v p.p.p.p.p.p.p.p.p.p.p.p.p.p.p.p.p.p.p.p.p.p.p.",
"p.p.p.p.p.p.p.p.p.p.p.p.p.p.p.p.p.p.p.p.p.p.p.p.p.= p.p.t t t i j g g j g j g g f g h p.p.p.p.p.p.p.p.p.p.p.p.p.p.p.p.p.p.p.p.p.",
"p.p.p.p.p.p.p.p.p.p.p.p.p.p.p.p.p.p.p.p.p.p.p.p.- - t i ; v h g j g h j g j g g f g h v p.p.p.p.p.p.p.p.p.p.p.p.p.p.p.p.p.p.p.p.",
"p.p.p.p.p.p.p.p.p.p.p.p.p.p.p.p.p.p.p.p.p.p.p.p.p.t - - ; j f f j u ; N N N N c N N N n p.p.p.p.p.p.p.p.p.p.p.p.p.p.p.p.p.p.p.p.",
"p.p.p.p.p.p.p.p.p.p.p.p.p.p.p.p.p.p.p.p.p.p.p.p.t t - - t v g g l u y c N N N N c c N N N n p.p.p.p.p.p.p.p.p.p.p.p.p.p.p.p.p.p.",
"p.p.p.p.p.p.p.p.p.p.p.p.p.p.p.p.p.p.p.p.p.p.p.p.a t - - - ; y y N N N c c c N N m b N N N c p.p.p.p.p.p.p.p.p.p.p.p.p.p.p.p.p.p.",
"p.p.p.p.p.p.p.p.p.p.p.p.p.p.p.p.p.p.p.p.p.p.p.p.t ; - - - t y y N N c c N N N <.;.;.:.y N N p.p.p.p.p.p.p.p.p.p.p.p.p.p.p.p.p.p.",
"p.p.p.p.p.p.p.p.p.p.p.p.p.p.p.p.p.p.p.p.p.p.p.t t t t t - ; n c N N N N N N N <.;.;.:.y N N p.p.p.p.p.p.p.p.p.p.p.p.p.p.p.p.p.p.",
"p.p.p.p.p.p.p.p.p.p.p.p.p.p.p.p.p.p.p.p.p.p.p.t t t ;.r - ; N N c N , - <.;.<., , w.e.; y p.p.p.p.p.p.p.p.p.p.p.p.p.p.p.p.p.p.p.",
"p.p.p.p.p.p.p.p.p.p.p.p.p.p.p.p.p.p.p.p.p.p.p.t t t ;.r - t c c N N - * ;.;.;., , w.e.; y p.p.p.p.p.p.p.p.p.p.p.p.p.p.p.p.p.p.p.",
"p.p.p.p.p.p.p.p.p.p.p.p.p.p.p.p.p.p.p.p.p.p.p.t t t ;.s t c c ;.i.i.V M 6.6.7.V M i.i.y n p.p.p.p.p.p.p.p.p.p.p.p.p.p.p.p.p.p.p.",
"p.p.p.p.p.p.p.p.p.p.p.p.p.p.p.p.p.p.p.p.p.p.p.t t t s t t c B ;.t.t.V M 7.6.6.V M i.t.- c p.p.p.p.p.p.p.p.p.p.p.p.p.p.p.p.p.p.p.",
"p.p.p.p.p.p.p.p.p.p.p.p.p.p.p.p.p.p.p.p.p.p.p.p.t t t t c > -.;.7.7.6.d p y y y 6.7.7.z c p.p.p.p.p.p.p.p.p.p.p.p.p.p.p.p.p.p.p.",
"p.p.p.p.p.p.p.p.p.p.p.p.p.p.p.p.p.p.p.p.p.p.p.p.t t t x > - : ;.7.6.p d 6.6.6.d y 6.2.c p.p.p.p.p.p.p.p.p.p.p.p.p.p.p.p.p.p.p.p.",
"p.p.p.p.p.p.p.p.p.p.p.p.p.p.p.p.p.p.p.p.p.p.p.t t t y c > - > > 2.y d d d d d d d y 1.p.p.p.p.p.p.p.p.p.p.p.p.p.p.p.p.p.p.p.p.p.",
"p.p.p.p.p.p.p.p.p.p.p.p.p.p.p.p.p.p.p.p.p.p.p.t t z c x > > > - d d d y y y y y d d d p.p.p.p.p.p.p.p.p.p.p.p.p.p.p.p.p.p.p.p.p.",
"p.p.p.p.p.p.p.p.p.p.p.p.p.p.p.p.p.p.p.p.p.p.p.t t $ .     . . @ >.<.<.,.O .   % p.p.p.p.p.p.p.p.p.p.p.p.p.p.p.p.p.p.p.p.p.p.p.p.",
"p.p.p.p.p.p.p.p.p.p.p.p.p.p.p.p.p.p.p.p.p.p.p.p.p.  .     . .   >.;.;.;.@ .   @ p.p.p.p.p.p.p.p.p.p.p.p.p.p.p.p.p.p.p.p.p.p.p.p.",
"p.p.p.p.p.p.p.p.p.p.p.p.p.p.p.p.p.p.p.p.p.p.p.p.  . 5 5 5 6 5   5 5 5 5 @ 5 4 5 X X p.p.p.p.p.p.p.p.p.p.p.p.p.p.p.p.p.p.p.p.p.p.",
"p.p.p.p.p.p.p.p.p.p.p.p.p.p.p.p.p.p.p.p.p.p.p.    . 7 4 6 6 3   3 6 6 6 . 6 6 3 3 X p.p.p.p.p.p.p.p.p.p.p.p.p.p.p.p.p.p.p.p.p.p.",
"p.p.p.p.p.p.p.p.p.p.p.p.p.p.p.p.p.p.p.p.p.p.$ . . % 7 3 9 3 3 . 3 6 3 4 . 6 6 6 6 3 o o p.p.p.p.p.p.p.p.p.p.p.p.p.p.p.p.p.p.p.p.",
"p.p.p.p.p.p.p.p.p.p.p.p.p.p.p.p.p.p.p.p.p..     5 3 3 5 4 3 3 # 3 3 4 5 . 4 3 7 7 3 3 o p.p.p.p.p.p.p.p.p.p.p.p.p.p.p.p.p.p.p.p.",
"p.p.p.p.p.p.p.p.p.p.p.p.p.p.p.p.p.p.p.p.p.. . % 3 6 3 O 3 3 5 i.i.3 3 r.@ i.u.5 O 3 6 o p.p.p.p.p.p.p.p.p.p.p.p.p.p.p.p.p.p.p.p.",
"p.p.p.p.p.p.p.p.p.p.p.p.p.p.p.p.p.p.p.p.p.    % 3 3 4 % 3 5 i.5 i.6 3 3 @ 3 3 u.  5 3 o p.p.p.p.p.p.p.p.p.p.p.p.p.p.p.p.p.p.p.p.",
"p.p.p.p.p.p.p.p.p.p.p.p.p.p.p.p.p.p.p.p.p.O 5 6 6 3     5 i.4 4 i.6 6 6 5 3 5 u.. 1 3 o p.p.p.p.p.p.p.p.p.p.p.p.p.p.p.p.p.p.p.p.",
"p.p.p.p.p.p.p.p.p.p.p.p.p.p.p.p.p.p.p.p.p.  3 3 3 3 % . i.5 4 5 i.5 5 y.u.r.u.u.  1 3 o p.p.p.p.p.p.p.p.p.p.p.p.p.p.p.p.p.p.p.p.",
"p.p.p.p.p.p.p.p.p.p.p.p.p.p.p.p.p.p.p.p.p.O 3 6 6 3     i.i.i.i.i.i.5 u.5 4 3 5   1 3 o p.p.p.p.p.p.p.p.p.p.p.p.p.p.p.p.p.p.p.p.",
"p.p.p.p.p.p.p.p.p.p.p.p.p.p.p.p.p.p.p.p.p.O 5 6 3 3     4 3 3 5 i.4 5 u.5 3 3 5 . 2 4 o p.p.p.p.p.p.p.p.p.p.p.p.p.p.p.p.p.p.p.p.",
"p.p.p.p.p.p.p.p.p.p.p.p.p.p.p.p.p.p.p.p.p.. . 3 6 6 .   6 6 6 5 i.4 5 u.r.y.i.r.  1 3 o p.p.p.p.p.p.p.p.p.p.p.p.p.p.p.p.p.p.p.p.",
"p.p.p.p.p.p.p.p.p.p.p.p.p.p.p.p.p.p.p.p.p.. . 3 3 3     3 3 6 3 4 4 3 3 3 3 3 3 . 2 3 o p.p.p.p.p.p.p.p.p.p.p.p.p.p.p.p.p.p.p.p.",
"p.p.p.p.p.p.p.p.p.p.p.p.p.p.p.p.p.p.p.p.p.& 6 6 6 3 % . 3 3 3 3 3 3 6 3 3 3 3 3 X 2 3 o p.p.p.p.p.p.p.p.p.p.p.p.p.p.p.p.p.p.p.p.",
"p.p.p.p.p.p.p.p.p.p.p.p.p.p.p.p.p.p.p.p.p.< 8 3 3 3 .   3 6 3 3 6 3 3 6 6 3 4 3     8 o p.p.p.p.p.p.p.p.p.p.p.p.p.p.p.p.p.p.p.p.",
"p.p.p.p.p.p.p.p.p.p.p.p.p.p.p.p.p.p.p.p.p.  % O % O     5 3 3 3 3 3 3 3 3 3 5   . % % % p.p.p.p.p.p.p.p.p.p.p.p.p.p.p.p.p.p.p.p.",
"p.p.p.p.p.p.p.p.p.p.p.p.p.p.p.p.p.p.p.p.p.. + O % O     % 3 3 6 6 6 6 3 3 5 . .   +   . p.p.p.p.p.p.p.p.p.p.p.p.p.p.p.p.p.p.p.p.",
"p.p.p.p.p.p.p.p.p.p.p.p.p.p.p.p.p.p.p.p.p.,.;.,.>.;.>.    5 4 4 3 4 4 4 4 5 . % >.;.;.,.p.p.p.p.p.p.p.p.p.p.p.p.p.p.p.p.p.p.p.p.",
"p.p.p.p.p.p.p.p.p.p.p.p.p.p.p.p.p.p.p.p.p.;.;.;.;.;.>.% O O     % %   % O O   $ ,.;.;.,.p.p.p.p.p.p.p.p.p.p.p.p.p.p.p.p.p.p.p.p.",
"p.p.p.p.p.p.p.p.p.p.p.p.p.p.p.p.p.p.p.p.p.;.;.5.3.6.4.J W +     . .   . O ^ W J 4.6.6.5.p.p.p.p.p.p.p.p.p.p.p.p.p.p.p.p.p.p.p.p.",
"p.p.p.p.p.p.p.p.p.p.p.p.p.p.p.p.p.p.p.p.p.;.;.6.6.6.4.J W W ] ] ] Q D ] _ _ Q Q 6.6.6.4.p.p.p.p.p.p.p.p.p.p.p.p.p.p.p.p.p.p.p.p.",
"p.p.p.p.p.p.p.p.p.p.p.p.p.p.p.p.p.p.p.p.p.p.p.6.6.6.6.W W ] _ ] ] W D ] ] ] ] Q 6.6.p.p.p.p.p.p.p.p.p.p.p.p.p.p.p.p.p.p.p.p.p.p.",
"p.p.p.p.p.p.p.p.p.p.p.p.p.p.p.p.p.p.p.p.p.p.p.4.6.6.4.Q ] ]  .` W D D ] ] | ] _ 4.4.p.p.p.p.p.p.p.p.p.p.p.p.p.p.p.p.p.p.p.p.p.p.",
"p.p.p.p.p.p.p.p.p.p.p.p.p.p.p.p.p.p.p.p.p.p.p.p.p.p.D W _ | | ] p.p.A T ^ ] | ] p.p.p.p.p.p.p.p.p.p.p.p.p.p.p.p.p.p.p.p.p.p.p.p.",
"p.p.p.p.p.p.p.p.p.p.p.p.p.p.p.p.p.p.p.p.p.p.p.p.p.p.D W ] | ] ^ p.p.W W ] | | ] p.p.p.p.p.p.p.p.p.p.p.p.p.p.p.p.p.p.p.p.p.p.p.p.",
"p.p.p.p.p.p.p.p.p.p.p.p.p.p.p.p.p.p.p.p.p.p.p.p.p.p.S W ] | | ^ p.p.D W ] | | ` p.p.p.p.p.p.p.p.p.p.p.p.p.p.p.p.p.p.p.p.p.p.p.p.",
"p.p.p.p.p.p.p.p.p.p.p.p.p.p.p.p.p.p.p.p.p.p.p.p.p.p.D D ^ ] | _ p.p.W W ^ / ] _ p.p.p.p.p.p.p.p.p.p.p.p.p.p.p.p.p.p.p.p.p.p.p.p.",
"p.p.p.p.p.p.p.p.p.p.p.p.p.p.p.p.p.p.p.p.p.p.p.p.p.p.F D { / / ^ p.p.D D ! ~ } ^ p.p.p.p.p.p.p.p.p.p.p.p.p.p.p.p.p.p.p.p.p.p.p.p.",
"p.p.p.p.p.p.p.p.p.p.p.p.p.p.p.p.p.p.p.p.p.p.p.p.p.p.G D K L I ( p.p.D D G H J ' p.p.p.p.p.p.p.p.p.p.p.p.p.p.p.p.p.p.p.p.p.p.p.p.",
"p.p.p.p.p.p.p.p.p.p.p.p.p.p.p.p.p.p.p.p.p.p.p.p.p.p.D D P E ] [ p.p.D D Y ^ ] ] p.p.p.p.p.p.p.p.p.p.p.p.p.p.p.p.p.p.p.p.p.p.p.p.",
"p.p.p.p.p.p.p.p.p.p.p.p.p.p.p.p.p.p.p.p.p.p.p.p.p.p.D D ` ] ] ] p.p.D R ^ ` | ] p.p.p.p.p.p.p.p.p.p.p.p.p.p.p.p.p.p.p.p.p.p.p.p.",
"p.p.p.p.p.p.p.p.p.p.p.p.p.p.p.p.p.p.p.p.p.p.p.p.p.p.W W ] | | ^ p.p.D W ] ] | | p.p.p.p.p.p.p.p.p.p.p.p.p.p.p.p.p.p.p.p.p.p.p.p.",
"p.p.p.p.p.p.p.p.p.p.p.p.p.p.p.p.p.p.p.p.p.p.p.p.p.p.D W ] | | _ p.p.D W ] | _ _ p.p.p.p.p.p.p.p.p.p.p.p.p.p.p.p.p.p.p.p.p.p.p.p.",
"p.p.p.p.p.p.p.p.p.p.p.p.p.p.p.p.p.p.p.p.p.p.p.p.p.p.D W ] ] | ` p.p.W D ] | ] ] p.p.p.p.p.p.p.p.p.p.p.p.p.p.p.p.p.p.p.p.p.p.p.p.",
"p.p.p.p.p.p.p.p.p.p.p.p.p.p.p.p.p.p.p.p.p.p.p.p.p.p.D W ] ] | ] p.p.D D ] | | ] p.p.p.p.p.p.p.p.p.p.p.p.p.p.p.p.p.p.p.p.p.p.p.p.",
"p.p.p.p.p.p.p.p.p.p.p.p.p.p.p.p.p.p.p.p.p.p.p.p.p.p.D W ' ..] ] p.p.D W ] ] ] ] p.p.p.p.p.p.p.p.p.p.p.p.p.p.p.p.p.p.p.p.p.p.p.p.",
"p.p.p.p.p.p.p.p.p.p.p.p.p.p.p.p.p.p.p.p.p.p.p.p.p.p.D R ] | ] ] p.p.D W | ] ] ] p.p.p.p.p.p.p.p.p.p.p.p.p.p.p.p.p.p.p.p.p.p.p.p.",
"p.p.p.p.p.p.p.p.p.p.p.p.p.p.p.p.p.p.p.p.p.p.p.p.p.p.Z U ^ ] _ ^ p.p.A U ) ] | ^ p.p.p.p.p.p.p.p.p.p.p.p.p.p.p.p.p.p.p.p.p.p.p.p.",
"p.p.p.p.p.p.p.p.p.p.p.p.p.p.p.p.p.p.p.p.p.p.p.p.p.p.e e $.o.X.o.p.p.e 0 o.+.o.O.p.p.p.p.p.p.p.p.p.p.p.p.p.p.p.p.p.p.p.p.p.p.p.p.",
"p.p.p.p.p.p.p.p.p.p.p.p.p.p.p.p.p.p.p.p.p.p.p.p.p.p.e e $.o.%.@.p.p.w 0 #.X.o.+.p.p.p.p.p.p.p.p.p.p.p.p.p.p.p.p.p.p.p.p.p.p.p.p.",
"p.p.p.p.p.p.p.p.p.p.p.p.p.p.p.p.p.p.p.p.p.p.p.p.p.p.e 0 0 0 q $.@.@.@.0 e 0 +.+.+.$.p.p.p.p.p.p.p.p.p.p.p.p.p.p.p.p.p.p.p.p.p.p.",
"p.p.p.p.p.p.p.p.p.p.p.p.p.p.p.p.p.p.p.p.p.p.p.p.p.p.C e e e 0 $.+.$.o.0 0 e $.+.+.$.p.p.p.p.p.p.p.p.p.p.p.p.p.p.p.p.p.p.p.p.p.p.",
"p.p.p.p.p.p.p.p.p.p.p.p.p.p.p.p.p.p.p.p.p.p.p.p.p.p.*.&.*.*.=.0.q.9.9.*.*.*.9.9.9.9.p.p.p.p.p.p.p.p.p.p.p.p.p.p.p.p.p.p.p.p.p.p.",
"p.p.p.p.p.p.p.p.p.p.p.p.p.p.p.p.p.p.p.p.p.p.p.p.p.p.*.*.*.*.=.9.9.9.8.*.=.*.9.9.9.9.p.p.p.p.p.p.p.p.p.p.p.p.p.p.p.p.p.p.p.p.p.p."
};
