/* XPM */
static char *result[] = {
/* columns rows colors chars-per-pixel */
"65 65 143 2 ",
"   c #676767",
".  c DimGray",
"X  c #6A6A6A",
"o  c gray42",
"O  c #6C6C6C",
"+  c #6D6D6D",
"@  c gray43",
"#  c #6F6F6F",
"$  c gray44",
"%  c #717171",
"&  c #727272",
"*  c #737272",
"=  c gray45",
"-  c #747474",
";  c gray46",
":  c #767575",
">  c #767676",
",  c #777676",
"<  c #777777",
"1  c #787777",
"2  c #777778",
"3  c gray47",
"4  c #797979",
"5  c #7A7979",
"6  c gray48",
"7  c #7B7A7A",
"8  c #7B7B7B",
"9  c #7C7B7B",
"0  c #7C7C7C",
"q  c #7D7C7C",
"w  c gray49",
"e  c #7E7D7D",
"r  c #7F7D7D",
"t  c #7E7E7E",
"y  c #7F7E7E",
"u  c gray50",
"i  c #808080",
"p  c #818080",
"a  c #808081",
"s  c #818181",
"d  c #828181",
"f  c gray51",
"g  c #838282",
"h  c #838383",
"j  c #848383",
"k  c #848484",
"l  c #858484",
"z  c gray52",
"x  c #868585",
"c  c #868686",
"v  c #878686",
"b  c gray53",
"n  c #888787",
"m  c #888888",
"M  c #898888",
"N  c #898989",
"B  c #8A8989",
"V  c gray54",
"C  c #8B8B8B",
"Z  c #8C8B8B",
"A  c #8A8B8D",
"S  c #8A8B8E",
"D  c #8C8B8C",
"F  c #8B8C8F",
"G  c gray55",
"H  c #8D8D8D",
"J  c #8E8D8D",
"K  c #8E8E8E",
"L  c gray56",
"P  c #908F8F",
"I  c #8C8D90",
"U  c #8D8E91",
"Y  c #8D8F92",
"T  c #8E8F92",
"R  c #909090",
"E  c gray57",
"W  c #929292",
"Q  c #939393",
"!  c #949393",
"~  c gray58",
"^  c #959494",
"/  c #959595",
"(  c gray59",
")  c #979696",
"_  c #979797",
"`  c #989898",
"'  c gray60",
"]  c #9A9A9A",
"[  c #9B9B9B",
"{  c #9D9D9D",
"}  c gray62",
"|  c #9F9F9F",
" . c #A0A0A0",
".. c #A5A6A8",
"X. c #A6A7A9",
"o. c #A6A7AA",
"O. c #A7A8AB",
"+. c #A6AAAE",
"@. c #A8A9AC",
"#. c #A9AAAD",
"$. c #A8ABAE",
"%. c #A9ABAE",
"&. c #AAAAAE",
"*. c #AAABAE",
"=. c #ABACAF",
"-. c #ABABB0",
";. c #ACADB0",
":. c #ADAEB1",
">. c #AEAFB2",
",. c #AFB0B3",
"<. c #B0B1B4",
"1. c #B2B3B5",
"2. c #B3B4B5",
"3. c #BFBFC0",
"4. c #BFC0C2",
"5. c #C1C1C2",
"6. c #C0C1C3",
"7. c #C5C6C8",
"8. c #C6C6C8",
"9. c #CACBCC",
"0. c #CDCECF",
"q. c #D5D5D7",
"w. c #D9DADB",
"e. c #DBDBDD",
"r. c #DBDCDE",
"t. c #DCDCDD",
"y. c #DCDCDE",
"u. c #DCDDDE",
"i. c #E2E2E2",
"p. c gray89",
"a. c #E5E5E6",
"s. c #E6E6E6",
"d. c #E7E6E6",
"f. c #E7E7E8",
"g. c #E7E8E9",
"h. c gray95",
"j. c #F4F4F5",
"k. c gray99",
"l. c #FDFDFD",
"z. c #FEFDFD",
"x. c #FEFDFE",
"c. c #FEFEFE",
"v. c white",
/* pixels */
"X - - o E E < c X X P X N / p & % X > > X ; V M - y @ ; H o 4 X X E % X { X X 3 f i # # m m X 8 X i i # X 8 m X X X X > V 6 - 8 X ",
"N u & X X X 4 f < t R w E Q k D t X > G $ X = u @ X s s X w X X t G % X X X X 6 C 3 3 X m ' X X 3 z i f R 0 6 X 3 3 o X h z & % % ",
"N 8 X X X X 0 X < R - w 8 X 3 N = 6 > = N X X u f - k s 8 m z X m k - X < % k 6 p / 8 $ X s 8 8 = X X ` _ X } X X X X X X u 6 % C ",
"| X X k k 6 > f X 6 - w = - X 6 C N X X N X + # # X X X 8 m w X X - - ( X % X V z X $ $ X s s 8 = X X L h o 6 X X u u X X 6 6 X X ",
"X X = m k G > K b 4 X 4 4 - X X H u X X h X i % c X X X H < z - > > X W < % X V z X X X X X % 4 = X G ( H X X h X 0 - % X X $ 8 X ",
"X X 8 8 H Q z ; o X % % i s c X b X X & _ k u ; m 3 H 8 3 0 c X m h h H H 0 N G 4 t t $ X X L 4 3 X ( g i & X X 3 t X 0 X & b w W ",
"; b b 8 7 k z c 6 m G X k c s X m = X 0 z X ; h k z 8 } < X X 6 d / R H H H H G ; H H X X b ` 0 f t p c E B X m 3 t X 3 m X k t L ",
"' ' k X < 6 $ c X X 0 m s h e 5.3.8.8.7.7.7.7.7.8.8.8.8.8.8.8.8.8.8.8.8.8.8.8.8.8.8.8.8.8.8.8.8.8.8.q.3 a 1 X m + [ ~ m m K ( X X ",
"X X C ; < < X K ~ X X X % s e.=.*.*.*.*.*.*.*.*.*.*.*.*.*.*.*.*.*.*.*.*.*.*.*.*.*.*.*.*.*.*.*.*.*.*.=.r.2 u X R ) i w m m 4 s 8 X ",
"X 4 h k E X < 4 N 0 0 X 3 w.*.%.*.*.*.*.+.*.*.*.*.%.*.*.*.*.*.*.*.*.*.*.*.*.*.*.*.*.*.*.*.*.*.*.*.*.*.*.y.u b X X $ = C C X X 8 @ ",
"X - E ] k |  .` R X X w h *.*.*.*.*.*.*.*.*.*.*.*.*.*.*.*.*.*.*.*.*.*.*.*.*.*.*.*.*.*.*.*.*.*.*.*.*.*.*.*.X 8 8 u X + X f f X X G ",
"X u < H X |  .z t X X E X *.*.*.*.*.*.*.*.*.%.*.*.*.*.*.*.*.*.*.*.*.*.*.*.*.*.*.*.*.*.*.*.*.*.*.*.*.*.*.*.X | { ` h X L / Q V X ] ",
"X E L m = 3 3 X & & & X X *.*.*.*.*.*.*.*.*.*.*.*.*.*.*.*.*.*.*.*.*.*.*.*.*.*.*.*.*.*.*.*.*.*.*.*.*.*.*.#.o { { ~ / G X X V # N u ",
"# c c = k b t & H $ < C N *.*.*.*.*.*.*.*.*.*.%.$.*.*.*.*.*.*.*.*.*.*.*.*.*.*.*.*.*.*.*.*.*.*.*.*.*.*.*.X.i X X H H t X ( s X H & ",
"X X X = X - 4 h G 6 X h l *.*.*.*.*.*.*.*.*.*.*.*.*.*.*.*.*.*.*.*.*.*.*.*.*.*.*.*.*.*.*.*.*.*.*.*.*.*.*...0 0 i X X i X ( X X & & ",
"X X X X 8 $ X m h X X - - *.*.*.*.*.*.*.*.*.*.*.*.*.*.*.*.*.*.*.*.*.*.*.*.*.*.*.*.*.*.*.*.*.*.*.*.*.*.*.o.o $ i X f b X X $ X s X ",
"X X X h W ~ = h u 4 X > > *.*.*.*.*.*.*.*.*.*.*.*.*.*.*.*.*.*.*.*.*.*.*.*.*.*.*.*.*.*.*.*.*.*.*.*.*.*.*.O.o Z $ X f < X X $ - } i ",
"X X 4 % % 0 h h X X X X = *.*.*.*.*.*.*.*.*.*.*.*.*.*.*.*.*.T I *.Y I I I *.*.*.*.*.*.*.*.*.*.*.*.*.*.*.#.o X X X X X X X s % b & ",
"X X 0 K - X k f h < X m = *.*.*.*.*.%.*.*.*.*.*.*.*.*.*.*.T @.I *.*.*.*.I *.*.*.*.*.*.*.*.*.*.*.*.*.*.*.*.% 0 o C V h = E = 4 8 c ",
"v.v.v.v.v.v.v.v.c.v.v.v.k.*.*.*.*.*.*.*.*.*.*.*.*.*.*.*.I @.*.I @.*.*.*.I *.*.*.*.*.*.*.*.*.*.*.*.*.*.*.*.z.v.v.v.v.v.v.v.v.v.v.v.",
"v.v.v.v.v.v.v.v.v.v.v.v.v.*.*.*.*.*.%.*.*.*.*.*.*.*.*.*.T I S I I I I I I *.*.*.*.*.*.*.*.*.*.*.*.*.*.*.*.v.v.v.v.v.v.v.v.v.v.v.v.",
"v.v.v.v.v.v.v.v.v.v.v.v.v.*.*.*.*.*.*.*.*.*.*.*.*.*.*.*.*.*.*.I *.I *.*.*.*.#.*.*.*.*.*.*.*.*.*.*.*.*.*.*.v.v.v.v.v.v.v.v.v.v.v.v.",
"v.v.v.v.v.v.v.v.v.v.v.v.v.*.*.*.*.*.*.*.*.*.*.*.*.*.*.*.*.*.*.I *.I *.*.*.*.*.*.*.#.*.*.*.*.*.*.*.*.*.*.*.v.v.v.v.v.v.v.v.v.v.v.v.",
"v.v.v.v.v.v.v.v.v.v.v.v.v.*.*.*.*.*.*.*.*.*.*.*.*.*.*.*.%.*.*.I *.I I S I @.*.*.*.*.*.*.*.*.*.*.*.*.*.*.*.v.v.v.v.v.v.v.v.v.v.v.v.",
"v.v.v.v.v.v.v.v.v.v.v.v.v.*.*.*.*.*.*.*.*.*.*.*.*.*.*.*.*.*.*.*.*.*.*.*.*.*.*.*.*.*.*.*.*.*.*.*.*.*.*.*.*.v.v.v.v.v.v.v.v.v.v.v.v.",
"v.v.v.v.v.v.v.v.v.v.v.v.v.*.*.*.*.*.*.*.*.*.*.*.*.*.*.*.*.*.*.*.*.*.*.*.*.*.*.*.*.*.*.*.*.*.*.*.*.*.*.*.*.v.v.v.v.v.v.v.v.v.v.v.v.",
"v.v.v.v.v.v.v.v.v.v.v.v.v.*.*.*.*.*.*.*.*.*.*.*.*.*.*.*.*.*.*.*.*.*.*.*.*.*.*.*.*.*.*.*.*.*.*.*.*.*.*.*.*.v.v.v.v.v.v.v.v.v.v.v.v.",
"v.v.v.v.v.v.v.v.v.v.v.v.v.*.*.*.*.*.*.*.*.*.%.*.*.*.*.*.*.*.*.*.*.*.*.*.*.*.*.*.*.*.*.*.*.*.*.*.*.*.*.*.*.v.v.v.v.v.v.v.v.v.v.v.v.",
"v.v.v.v.v.v.v.v.v.v.v.v.v.*.*.*.*.*.*.*.*.*.*.*.*.*.*.*.*.*.*.*.*.*.*.*.*.*.*.*.*.*.*.*.*.*.*.*.*.*.*.*.*.v.v.v.v.v.v.v.v.v.v.v.v.",
"v.v.v.v.v.v.v.v.v.v.v.v.v.;.*.%.*.*.*.*.*.*.*.*.*.*.*.*.*.%.*.*.*.*.*.*.*.*.*.*.*.*.*.*.*.*.*.%.*.*.%.*.:.v.v.v.v.v.v.v.v.v.v.v.v.",
"v.v.v.v.v.v.v.v.v.v.v.v.v.h.-.*.*.*.*.*.*.*.*.*.*.*.*.*.*.*.*.*.*.*.*.*.*.*.*.*.*.*.*.*.*.*.*.*.*.*.&.*.j.v.v.v.v.v.v.v.v.v.v.v.v.",
"v.v.v.v.v.v.v.v.v.v.v.v.v.v.a.<.*.*.*.*.*.*.*.*.*.*.*.*.*.*.*.*.*.*.*.*.*.*.*.*.*.*.*.*.*.*.*.*.*.*.1.g.v.v.v.v.v.v.v.v.v.v.v.v.v.",
"v.v.v.v.v.v.v.v.v.v.v.v.v.v.v.a.t.t.t.t.t.u.u.u.u.u.u.u.4.F S S S S S S S S 6.t.t.t.t.t.t.t.t.t.t.t.f.v.v.v.v.v.v.v.v.v.v.v.v.v.v.",
"v.v.v.v.v.v.v.v.v.v.v.v.v.v.v.v.v.v.v.,.*.*.*.*.*.*.*.*.;.S S S S S S S S S :.,.*.*.*.*.*.,.,.v.v.v.v.v.v.v.v.v.v.v.v.v.v.v.v.v.v.",
"v.v.v.v.v.v.v.v.v.v.v.v.v.v.v.v.v.v.v.,.*.*.*.*.*.*.*.>.A A A A A S A A A A A 2.*.*.*.*.,.*.,.v.v.v.v.v.v.v.v.v.v.v.v.v.v.v.v.v.v.",
"v.v.v.v.v.v.v.v.v.v.v.v.v.v.v.v.v.v.v.v.v.v.v.v.v.v.v.I S S S S A S S S S S S F v.v.v.v.v.<.v.v.v.v.v.v.v.v.v.v.v.v.v.v.v.v.v.v.v.",
"v.v.v.v.v.v.v.v.v.v.v.v.v.v.v.v.v.v.v.v.v.l.c.c.v.v.c.S S S S S S S S S S S S S x.v.v.v.v.<.v.v.v.v.v.v.v.v.v.v.v.v.v.v.v.v.v.v.v.",
"v.v.v.v.v.v.v.v.v.v.v.v.v.v.v.v.v.v.v.v.v.v.v.v.v.v.I S S S S S S S S S S S S S S 0.9.9.9.<.v.v.v.v.v.v.v.v.v.v.v.v.v.v.v.v.v.v.v.",
"v.v.v.v.v.v.v.v.v.v.v.v.v.v.v.v.v.v.v.v.v.v.v.v.v.v.U I S S S S I S S I S S S I I v.v.v.v.l.c.v.v.v.v.v.v.v.v.v.v.v.v.v.v.v.v.v.v.",
"v.v.v.v.v.v.v.v.v.v.v.v.v.v.v.v.v.v.v.v.v.v.v.v.v.v.v.v.v.v.v.v.v.v.v.v.v.v.v.v.v.v.v.v.v.v.v.v.v.v.v.v.v.v.v.v.v.v.v.v.v.v.v.v.v.",
"v.v.v.v.v.v.v.v.v.v.v.v.v.v.v.v.v.v.v.v.v.v.v.v.v.v.v.v.v.v.v.v.v.v.v.v.v.l.v.v.v.v.v.v.v.v.v.v.v.v.v.v.v.v.v.v.v.v.v.v.v.v.v.v.v.",
"v.v.v.v.v.v.v.v.v.v.v.v.v.v.v.v.v.v.v.v.v.v.v.v.v.v.v.v.v.v.v.v.v.v.v.v.v.v.v.v.v.v.v.v.v.v.v.v.v.v.v.v.v.v.v.v.v.v.v.v.v.v.v.v.v.",
"v.v.v.v.v.v.v.v.v.v.v.v.v.v.v.v.v.v.v.v.v.v.v.v.v.v.v.v.v.v.v.v.v.v.v.v.v.v.v.v.v.v.v.v.v.v.v.v.v.v.k.v.v.v.v.v.v.v.v.v.v.v.v.v.v.",
"v.v.v.v.v.v.v.v.v.v.v.v.v.v.v.v.v.v.v.v.v.v.v.v.v.v.v.v.v.v.v.v.v.v.v.v.v.v.v.v.v.v.v.v.v.v.v.v.v.v.c.l.v.v.v.v.v.v.v.v.v.v.v.v.v.",
"i.i.i.i.i.i.i.i.w H - m | X X X $ X X E X @ X X X X X X X N N W W X X { X X X X X 6 X 6 m 8 j 3 6 - i 8 8 ~ Q   + p.i.i.i.i.i.i.i.",
"i.i.i.i.i.i.i.i.b z < h t - < < i X X X X X X X X X = X X N W X h c c | X i $ 0 0 3 3 3 8 X b z c - O $ 8 6 X X - i.i.i.i.i.i.i.i.",
"i.p.i.i.i.i.i.i.X 4 i x X 6 < N N X X X X 8 0 X X 8 k X i > W b < - s 6 ; i t > N n h i X X X @ s k N m X y G J l i.i.i.i.i.i.i.p.",
"i.i.i.i.i.i.i.i.6 i X 6 X 6 - m m & X X # ; i O z w 8 N m X K G - X f i X X X H R z c i G z ( _ t X < < X X X w w i.i.i.i.i.i.i.i.",
"i.i.i.p.i.i.i.i.i - = X X X X k - X X E L L m m z # X N N i N k c - X 4 t = 4 R N j X X k 6 ` ' z X q < W > X > < i.i.i.i.i.i.i.i.",
"i.i.i.i.i.i.i.i.t u > X X - - k 3 X 6 O K H m m X 4 X 8 X E N k R f w 4 C 8 i C 6 6 X 3 H X X V 6 i - % W b X K c i.i.i.i.i.i.i.i.",
"i.i.i.i.i.i.i.i.i u u & s z 8 $ $ o t $ O X X z z 4 u X 4 u k Q N N m X C 8 X X X $ X X @ 6 X C 6 X X b 3 s c @ W i.i.i.i.i.i.i.i.",
"i.i.i.p.i.i.i.i.; ; c m z 4 X N c 6 X & % $ X X X t X s c 8 = G m N m Q K G X X = = X X @ @ X V : X X X < m i @ Q i.i.i.i.i.i.i.i.",
"i.i.i.i.i.i.i.i.3 c K E H X X $ $ $ + m 3 o X X X u s h C N X 4 4 X X Q z X - X = = z N X z R k c = X X X f u & z i.i.i.i.i.i.i.i.",
"i.i.i.i.i.i.i.i.@ < n u 4 - < X $ 0 X H L K > b f 3 X X X X X - X 4 s 6 X X - - - = G z E s R i X ; W s > = s h @ i.i.i.i.i.i.i.i.",
"i.i.i.i.i.i.i.i.X | s u h 5 X & $ u $ X | c & _ 8 < < X X X - X X 4 s X < 8 X X X X z c E E s 0 X 4 3 N c X s V t i.i.i.i.i.i.i.i.",
"i.i.i.i.i.i.i.i.X > > > $ X X b N 8 $ X c K i w X t < O X _ ~ > @ z X X X X 6 X X $ $ # X u u ~ X X # m m 6 X X s i.i.i.i.i.i.i.i.",
"i.i.i.i.i.i.i.i.k m 0 X } $ X X X X X # X X X X X c - O X u X ; i m X X X X = X X $ 4 4 & 3 u t O 3 X & & 6 X f 3 i.i.i.i.i.i.i.i.",
"i.i.i.i.i.i.i.i.s X & <  .X X & X f f & - + X E | h 4 C 0 X X G V V 0 & X & t s 3 X X m v k H O O X ; ; V t 0 b 3 i.i.i.i.i.i.i.i.",
"i.i.i.i.i.i.i.i.N s X X X % X X X f K 3 - + X s c X * b R N t X f w < X m m 0 f 3 X X N > X X X X X X s N X 0 0 X i.i.i.i.i.i.i.i.",
"i.i.i.p.i.i.i.i.- = = k N - 4 X k k t 4 X c 0 s c X < - V ; 6 = X X X . m m H = X f b f # 6 H f @ X X % X m 8 X > i.i.i.i.i.i.i.i.",
"i.i.i.s.i.i.i.i.t - X ; 6 % s < t t = X # X 0 - - i 6 n H X X X b L K X X - - ; ; X 4 X X & & X w b 0 X 6 X X 3 X i.i.i.i.i.i.i.i.",
"i.i.i.s.i.i.i.i.k G = 0 i 4 8 @ H h O h $ W r Z z H X X - 4 s s m L ~ X & & X ; 4 ; $ X X % m X 0 s b 6 X - - k % i.i.i.i.i.i.i.i.",
"i.i.i.s.i.i.i.i.l 3 8 ; 4 t & & s E _ f $ W # { | z z E E K k i i X X X X X 9 X X 0 3 > = h w > X X 6 6 X s f # W i.i.i.i.i.i.i.i.",
"i.i.i.d.i.i.i.i.p X ; f u 3 ~ X X E E o W X X } { O C z | u 1 k ! 8 } X , X m C C 0 | i H Q X X 0 = X X X k f # W i.i.i.i.i.i.i.i.",
"i.i.i.p.i.i.i.i.0 < X X - h E $ X X s o / X X $ + X 0 > | u X t W 6 i X X X X X & 3 } X b [ ^ > s > X X X X   X - i.i.i.i.i.i.i.i."
};
