/* XPM */
static char *result[] = {
/* columns rows colors chars-per-pixel */
"65 65 93 2 ",
"   c #001111",
".  c #1A1F1F",
"X  c #3B0000",
"o  c #321515",
"O  c #2D2D2D",
"+  c #2D3333",
"@  c #2D3838",
"#  c #313131",
"$  c #3B3333",
"%  c #3A3A3A",
"&  c #540000",
"*  c #441515",
"=  c #591010",
"-  c #7C1515",
";  c #642A2A",
":  c #742929",
">  c #7D2F2F",
",  c #354646",
"<  c #434343",
"1  c #444D4D",
"2  c #4A4A4A",
"3  c #4C5757",
"4  c #545454",
"5  c #5B5B5B",
"6  c #626262",
"7  c #6C6C6C",
"8  c #667272",
"9  c #6A7272",
"0  c #6C7B7B",
"q  c #737272",
"w  c #767C7C",
"e  c gray50",
"r  c #840D0D",
"t  c #B30B0B",
"y  c #BA0B0B",
"u  c #A41111",
"i  c #BA1717",
"p  c #8A2626",
"a  c #913D3D",
"s  c #AC2626",
"d  c #A53A3A",
"f  c #D61919",
"g  c #FF0707",
"h  c #FF0909",
"j  c #804E4E",
"k  c #975555",
"l  c #A75757",
"z  c #987575",
"x  c #B77575",
"c  c #C55353",
"v  c #CC6363",
"b  c #7D8D8D",
"n  c #828282",
"m  c #8D8D8D",
"M  c #938F8F",
"N  c #8A9696",
"B  c #939393",
"V  c #9B9B9B",
"C  c #B39D9D",
"Z  c #BD9F9F",
"A  c #92A0A0",
"S  c #9AA9A9",
"D  c #9BB0B0",
"F  c #A2A3A3",
"G  c #AAAAAA",
"H  c #ACB5B5",
"J  c #A7BBBB",
"K  c #ACB8B8",
"L  c #B4B4B4",
"P  c #B1BCBC",
"I  c #BBBBBB",
"U  c #D9BDBD",
"Y  c #B5C4C4",
"T  c #BEC3C3",
"R  c #C4C4C4",
"E  c #C8C6C6",
"W  c #C2CCCC",
"Q  c #CCCCCC",
"!  c #DFCDCD",
"~  c #C5D3D3",
"^  c #C9D2D2",
"/  c #D4D4D4",
"(  c #D4DBDB",
")  c #DBDBDB",
"_  c #E4E4E4",
"`  c #E3E9E9",
"'  c #EDEDED",
"]  c #ECF3F3",
"[  c #F3F3F3",
"{  c #F8F7F7",
"}  c #F7FCFC",
"|  c #FAFAFA",
" . c None",
/* pixels */
" . .| | [ '  . . . . . . . . . .| { | / ) { / ) | / ) | / _ | | | | | | | | { [ | | | { [ [ | { |  . . . . . . . . . . . . . . . .",
" . .| | [ ]  . . . . . . . . . .{ { | / ) { / ) | ) ) { / ) | | | { { { | | { | | | | | { { | { {  . . . . . . . . . . . . . . . .",
" . .{ | [ '  . . . . . . . . . .| [ [ Q ) { Q ) | / ( { / / { { | [ [ { { { { { | | { { [ [ [ [ |  . . . . . . . . . . . . . . . .",
" . .| { [ [  . . . . . . . . . .{ [ [ Q ) | Q ( { Q / { Q / [ { | { ` ` ) / / Q Q Q ^ / ) ` ` [ |  . . . . . . . . . . . . . . . .",
"| | { | { { | |  . . . . . . . .{ [ [ E ) { Q ) { Q ) { Q / [ [ | { _ / I V B n n z N V G / ) [ |  . . . . . . . . . . . . . . . .",
"| | | { { { | }  . . . . . . . .| [ [ E ) { Q ) | Q / { ^ / [ { | | ) T B 7 5 2 2 2 3 7 n L / [ |  . . . . . . . . . . . . . . . .",
"{ | { | } | | {  . . . . . . . .{ ] [ Q ) { Q / { Q ) { Q / [ [ | | ) G q 5 2 # # O , 5 6 V Q { |  . . . . . . . . . . . . . . . .",
"| { | { | | { {  . . . . . . . .{ [ [ E ) { Q ) { Q / | / / [ { { | / m 5 2 < O O O % 1 3 z R { {  . . . . . . . . . . . . . . . .",
"| { | | | | [ |  . . . . . . . .[ [ [ Q ) { Q / { Q / | Q / [ [ [ | R q 2 $ # O O O # % , 6 G { [  . . . . . . . . . . . . . . . .",
"{ | { { | | ' {  . . . . . . . .[ ' [ R ) { Q ) | Q ) | ^ / { [ ' | I 6 < O # # # # + O % 5 V { '  . . . . . . . . . . . . . . . .",
"} | { [ { [ ' {  . . . . . . . .' [ [ E ) { Q / { Q / | Q / [ ' ' | I 6 < O O + # # O O % 5 V { [  . . . . . . . . . . . . . . . .",
"{ | { ' { [ [ |  . . . . . . . .[ [ [ Q ) | Q ( | Q / | / / [ [ [ | I 5 < O O # # O # O $ 4 B { [  . . . . . . . . . . . . . . . .",
"[ { [ ] [ [ { {  . . . . . . . .{ [ [ E ) { Q ) { Q / | Q / [ [ | | L < # # # # # # # O # < m { {  . . . . . . . . . . . . . . . .",
"[ | [ [ ] { { {  . . . . . . . .{ [ [ E / [ Q ) | Q / { Q / [ { | | G % O # # # # # # # O O n | {  . . . . . . . . . . . . . . . .",
"{ { [ [ [ [ [ [  . . . . . . . .| [ [ Q E ` Q ) | Q ) ` R / [ [ | | G % O # # # # # # # O O n | {  . . . . . . . . . . . . . . . .",
"{ { { [ { [ [ [  . . . . . . . .{ [ [ ) I _ Q ) | Q ) ) I ) [ ' { | G % O # # # # O # # O # n | [  . . . . . . . . . . . . . . . .",
"[ [ { { { ] { '  . . . . . . . .| [ ] ` U ) ^ ) | Q ) / Q _ [ [ | | G % O # # # # O # # O # n { [  . . . . . . . . . . . . . . . .",
"[ ] { | { [ { [  . . . . . . . .{ [ ' [ W / Q ) { Q ) / / { ' { | | G % O # # # # # # # O + n { |  . . . . . . . . . . . . . . . .",
"[ { [ { { [ { [  . . . . . . . .[ [ ' { Q R R ) | Q ) / / { ' [ | | G # O # # # # # # # O O n | |  . . . . . . . . . . . . . . . .",
"{ { [ { | ] { [  . . . . . . . .[ ' [ [ ) R R _ { Q / Q / { [ { { | G < # O O # # # # O + % n { |  . . . . . . . . . . . . . . . .",
"[ [ { [ { [ [ [  . . . . . . . .[ ' [ [ ` R Q [ [ / E R ) [ ' [ { | L 4 % O # # # O # O % 2 B { |  . . . . . . . . . . . . . . . .",
"[ [ { [ { ' [ '  . . . . . . . .[ [ ' ' [ Q / [ [ ) R R _ [ ] { { | I 5 % O # # # # # O # 5 V { |  . . . . . . . . . . . . . . . .",
"' ' [ { [ [ [ [  . . . . . . . .[ [ ' [ [ Q ) { [ _ E Q ` [ ' [ | | I 6 < O O # # # # O % 5 V { [  . . . . . . . . . . . . . . . .",
"[ [ ] { [ ' { [  . . . . . . . .{ [ [ [ [ Q ) [ [ [ / ) [ [ [ ' { | I 7 2 # # O # O # O % 5 F [ [  . . . . . . . . . . . . . . . .",
"{ { ] [ [ ' | [  . . . . . . . .{ [ ' [ [ Q ) [ [ [ / ) { ' [ [ { } Q e 4 < % O O O # < 2 q I [ {  . . . . . . . . . . . . . . . .",
"{ { [ [ ' [ { [  . . . . . . . .{ [ [ ' [ Q ( [ [ [ Q / [ [ ' { | | ) V 6 4 < O # O % 5 5 m Q [ {  . . . . . . . . . . . . . . . .",
"[ [ ' [ [ ' [ [  . . . . . . . .{ [ ' [ [ R ) [ [ [ Q / [ ' ' [ | { ) L n 6 4 # $ # 2 6 q G / { |  . . . . . . . . . . . . . . . .",
"[ [ [ ' [ ' [ '  . . . . . . . .{ [ [ ' [ Q ) [ [ [ / / [ [ [ { | | _ Q F n q 6 6 6 7 n B R / [ |  . . . . . . . . . . . . . . . .",
"' [ ' [ [ ' ' [  . . . . . . . .{ [ ' ' [ ) _ [ ' [ _ _ [ ' ' { | [ _ ) Q I L G G G L L R ) ) ] |  . . . . . . . . . . . . . . . .",
"[ ' [ ' ' [ [ '  . . . . . . . .| [ [ ] [ ' ' [ ' [ ' ' ' [ ] [ | { [ [ [ ` ' ' ' ' ` ' ' [ [ [ |  . . . . . . . . . . . . . . . .",
"' ' [ ' ' ' [ [  . . . . . . . .{ { [ { { { [ [ [ [ [ { { { [ { | { | | | | | | | | | | | | { { |  . . . . . . . . . . . . . . . .",
"[ [ [ [ [ [ [ '  . . . . . . . .| { | { | [ { { [ [ { [ { { | { { | | | | { | | | | | { | | | | |  . . . . . . . . . . . . . . . .",
"{ { { { [ [ [ ' | | [ [ ] { | | | | | | | { [ { { { { [ { { } | | | | | | { ' | { | { [ [ { | | | | | [ / { ` / [ [ Q [ _ R { |  .",
"{ [ { { { [ ' [ { { [ ' [ { | { | | | | | [ ' ' [ | [ [ ] { | { { | | { | { [ ' [ { { ' ] [ [ [ | | | ` / | _ Q [ ' Q [ _ E { | { ",
"{ ) ) { { [ [ ' [ { [ ' ' [ { { { { [ | | ) _ [ [ | ) _ { [ { { | { [ { { [ [ _ ) _ [ ' [ ` ) _ | [ ) / Q { _ Q [ ' Q [ _ R [ | { ",
"{ / Q ' [ ' ' [ [ ] [ ' [ [ ' { | [ [ ' [ Q ) [ [ [ / / ' ' ] { | [ [ ] ' ' [ _ E ) [ [ [ _ Q ) | [ Q Q E { _ R [ ` R [ ' R _ [ { ",
"{ ( / ' [ ' [ ' ' ' ' [ ' [ ' { | ] [ ) Q / _ [ ' [ ) Q ^ ) ] [ | { ' [ ] ' [ _ / ) { [ [ _ / ) | [ / Q Q [ _ R [ _ R [ ` Y / ) { ",
"{ ' ' [ [ [ ' [ [ [ ' [ [ ' [ { | [ [ Q R _ [ [ [ [ [ ) U ) [ { | [ ' ' [ [ [ ' _ ' [ ' [ [ ` ' | | ' ) R { _ R [ _ R ' ' U Q ^ { ",
"| [ [ [ [ ' ' [ ' [ [ ' ' [ [ { { [ [ ) / | | ' ' [ | [ / ) [ [ | { ' [ ' [ [ [ { ' / _ [ [ [ [ | | | _ R [ _ R [ _ R ] ` U / ) { ",
"{ [ [ ' ' [ [ ' [ ' [ [ [ ' [ { | [ [ ' _ ` ' [ [ ] ' _ _ ' [ [ | [ ' [ [ ' [ ' { _ E / [ [ [ [ | { [ _ E { _ R [ ` R ] ` R _ ' { ",
"{ ] ' ) ) ' [ [ ' [ [ [ ' [ ' [ { [ [ ] L N W ' [ ' K N E [ [ [ { [ [ ' ' [ [ ' [ _ / ) [ [ [ [ ] ) _ ) R [ _ E [ _ R [ _ R [ { | ",
"[ [ [ Q Q ' [ [ [ ' ' [ [ ' [ [ [ ' [ ^ 7 $ B _ | ) q $ n _ [ [ [ ' [ [ [ [ ' [ [ ' ' ' [ [ ' [ ` Q ) _ E { _ R [ ` R ' _ R ' [ ' ",
"' [ ' ) / ' ' [ [ [ _ ' [ ' [ ' ' ' _ A + & j ^ | K > X 1 L ' [ ' [ ' [ ] _ _ { [ [ [ [ _ ) _ [ _ / ) _ E [ _ R [ ' R [ ' R ' ) ) ",
"[ ' [ _ ` [ [ ' [ { / ` [ ' [ ' [ [ / z @ u a Y | A s - , V _ [ [ ' [ ' { ) ) { ' [ [ [ _ Q / [ [ ' ] _ E [ _ R [ _ R [ _ E _ / Q ",
"[ [ [ { [ [ [ [ ' | Q _ [ ' ' [ { [ ) F 9 c x ^ | P v l w G _ [ [ [ [ [ [ ) / | ' [ [ [ _ / ) [ [ { { ) R { _ R [ _ T ] ' E ' / ) ",
"[ [ [ [ [ [ [ ' [ { Q _ [ [ [ { | [ _ ) L Z ! ] [ ' U C T _ ' [ { [ ' ] [ / ) { ' [ [ [ [ _ _ [ { { [ _ R [ _ R [ _ R ' _ R ' ' ' ",
"{ [ ) ) ' _ ) ' [ { _ ) ' [ [ [ | [ [ | / ~ } | [ | ] R ) | [ [ { [ [ { ' ) _ { [ _ ) _ [ [ [ [ { { [ _ R { _ R [ _ U ] ` Y ' [ | ",
"{ [ / Q ' / Q _ ' [ [ / _ [ [ [ | { ] | / ) | | ] | } ^ ) | [ [ { { ' [ ) ) { [ [ _ Q / [ [ [ ' { { { ) R { _ R [ ` R [ ` U [ [ [ ",
"{ ' / / _ ) / ' ) [ | ) ) ) [ { | | { { R ) | [ ' { | ) ) { [ [ | { _ ) ) _ | ` _ ' Q ) [ ' [ ' [ { [ _ Q { _ R [ ` / [ _ U ` ] [ ",
"{ [ ' ` [ _ _ [ / _ [ [ / Q _ { | [ ' [ Q ) | { [ [ [ ' ' [ [ [ | { _ E ) { { ) / [ _ _ [ [ ' [ | { ] _ Q [ _ R [ [ _ [ ' R ' ] { ",
"[ [ { [ [ [ [ [ ) ) ) [ _ / ' _ _ ) ) ' ) _ { | | | [ _ ' _ ) _ _ ` _ / ' [ ) ) _ [ [ [ [ [ [ [ | { [ _ / [ _ R [ ' _ [ _ Q ' [ _ ",
"[ [ [ [ [ [ [ [ [ / Q [ [ [ [ ) Q / Q _ ` ' { | | | { / ) ) Q Q / ) [ [ [ _ E ) [ [ [ [ [ ' [ [ { [ [ _ Q [ _ R ' ' / [ ` Q ' ' / ",
"' ) ) [ [ [ [ [ | ) / ) _ { { ) / ) / _ _ ' | ) L [ | ) ) ` / ) / _ { [ _ ) / _ | [ [ [ ' ) _ [ [ ) _ _ Q { _ R [ ' ) [ ' Q ' [ ) ",
"' / Q ' [ [ [ [ { [ [ / Q ' [ [ ' [ [ [ / ' | B , I | ' ` [ [ [ [ [ { _ Q ) [ [ [ [ ' [ _ Q ) { [ Q / _ Q { _ E ' [ _ [ ' Q ' [ ' ",
"[ / / [ [ [ ) ) ) | | ) / ' _ _ ' _ [ { / ' / 3   w _ } [ { [ _ ` _ _ _ / _ | [ ) ) _ [ _ Q ) [ ' / ) ' ) [ _ Q [ ' _ [ ' ) ' [ { ",
"[ _ _ [ [ ' / Q Q [ { [ ' [ / Q / / ` [ _ | N O . $ U } [ [ _ Q / / ) [ ' [ | _ Q Q ) [ [ _ _ [ [ ` _ [ ' [ _ Q [ ' / [ [ ` ' [ [ ",
"| [ [ [ _ ) ) / / ) _ _ { [ ) / / / ' [ [ | 7 * : o G | ] [ _ / ) / _ { [ _ _ ) / / ) [ [ [ ' ' { | [ ' _ [ _ / [ _ Q ' [ _ ' [ { ",
"| [ [ ' / / _ ' ' / Q / [ [ [ [ ' ' [ [ [ | 8 r f = S | [ ' ' ' ' [ [ { _ Q Q ) ' [ [ [ [ [ [ [ { | [ _ ) { _ Q [ _ Q [ ' / [ [ { ",
"| [ [ ' / / [ | | ) / / ' _ _ ' ` { [ ' [ | 0 t h - S | ' [ { [ _ ' _ ' _ / Q _ | | { ` ) _ [ [ | { [ ' / [ _ / [ _ Q [ [ / _ _ _ ",
"{ [ [ [ _ _ [ { { ' ' ` [ / / / / ' [ [ ' | N i h p J | [ ' [ _ / / Q ) [ ' ' [ { [ { _ Q ) [ [ | { [ [ _ [ _ Q [ ' Q [ [ _ ' / / ",
"{ _ ) ' [ [ ' ' ' { | { [ ) / / / _ [ ' [ | K d y k ~ | ' [ [ _ / / / ) [ { | [ ' [ [ _ Q ) [ [ | { ' ) _ [ _ ) [ ` / [ ' [ _ / / ",
"{ / / ' [ [ ' [ ' [ { { [ _ ' ` ' ' ] [ [ } _ z ; C ] | ' ' ' ' ` ' ' ' [ [ { [ [ ] ' ' _ _ ' [ | | ' Q / [ [ _ [ [ _ ' [ [ [ _ ' ",
"| / / ' [ [ [ [ [ [ ' [ { | | | | [ [ [ [ { | P 0 / | | [ [ { | | | | | [ [ [ [ [ ' ' [ { [ [ [ | | ' Q ) [ [ [ [ [ [ [ [ [ [ [ | ",
"{ ' ` { { [ [ { ] { [ { { | | | | { { { { [ } ] T [ | { { { { | | | | { [ [ [ { [ [ { [ | { { { { | [ ' ' [ [ { [ [ { [ { { { | | ",
"| { [ { | [ { { [ { ] { { | | | | | { { | [ { { ] } | { { { { | } | | | | [ [ | { [ { [ | { { { | { { [ { { [ { { ] { [ { { { } } "
};
