/* XPM */
static char *result[] = {
/* columns rows colors chars-per-pixel */
"65 65 146 2 ",
"   c #010101",
".  c #020202",
"X  c #040404",
"o  c gray2",
"O  c #060606",
"+  c #070707",
"@  c gray3",
"#  c #090909",
"$  c gray4",
"%  c #0B0B0B",
"&  c #0C0C0C",
"*  c gray5",
"=  c #0E0E0E",
"-  c gray6",
";  c #101010",
":  c #111111",
">  c gray12",
",  c #202020",
"<  c gray13",
"1  c #222121",
"2  c #222222",
"3  c #2D2D2D",
"4  c gray18",
"5  c #2F2F2F",
"6  c #313131",
"7  c #535353",
"8  c gray34",
"9  c #5A5A5A",
"0  c #646464",
"q  c #656565",
"w  c DimGray",
"e  c #6A6A6A",
"r  c gray42",
"t  c #6C6C6C",
"y  c #6D6D6D",
"u  c gray43",
"i  c #6F6E6E",
"p  c #6F6F6F",
"a  c gray44",
"s  c #717171",
"d  c #727171",
"f  c #727272",
"g  c #737272",
"h  c gray45",
"j  c #747373",
"k  c #747474",
"l  c #757474",
"z  c gray46",
"x  c #767676",
"c  c #777676",
"v  c #777777",
"b  c #787777",
"n  c gray47",
"m  c #797979",
"M  c #7A7979",
"N  c gray48",
"B  c #7B7A7A",
"V  c #7B7B7B",
"C  c #7C7B7B",
"Z  c #7C7C7C",
"A  c #7D7C7C",
"S  c gray49",
"D  c #7E7D7D",
"F  c #7F7D7D",
"G  c #7E7E7E",
"H  c #7F7E7E",
"J  c gray50",
"K  c #807F7F",
"L  c #06E614",
"P  c #07E715",
"I  c #06F315",
"U  c #07F516",
"Y  c #08F617",
"T  c #7C827C",
"R  c #7D837D",
"E  c #808080",
"W  c #818080",
"Q  c #818181",
"!  c #828181",
"~  c gray51",
"^  c #838282",
"/  c #838383",
"(  c #848383",
")  c #848484",
"_  c #858484",
"`  c gray52",
"'  c #868585",
"]  c #868686",
"[  c #878686",
"{  c gray53",
"}  c #888787",
"|  c #888888",
" . c #898888",
".. c #898989",
"X. c #8A8989",
"o. c gray54",
"O. c #8B8B8B",
"+. c #8C8B8B",
"@. c gray55",
"#. c #8D8D8D",
"$. c #8E8D8D",
"%. c #8E8E8E",
"&. c #8F8E8E",
"*. c gray56",
"=. c #908F8F",
"-. c #909090",
";. c gray57",
":. c #929292",
">. c #939292",
",. c #939393",
"<. c #949393",
"1. c gray58",
"2. c #959494",
"3. c #959595",
"4. c gray59",
"5. c #979696",
"6. c #979797",
"7. c #989898",
"8. c gray60",
"9. c #9A9A9A",
"0. c #9B9B9B",
"q. c #9C9B9B",
"w. c gray61",
"e. c #9D9C9C",
"r. c #9D9D9D",
"t. c gray62",
"y. c #9F9F9F",
"u. c #A0A0A0",
"i. c gray63",
"p. c #A2A2A2",
"a. c gray64",
"s. c #A5A5A5",
"d. c #A7A7A7",
"f. c #A9A9A9",
"g. c #AFAFAF",
"h. c #B4B3B3",
"j. c #B5B4B4",
"k. c #B7B6B6",
"l. c #B8B6B6",
"z. c #B8B7B7",
"x. c gray72",
"c. c #B9B8B8",
"v. c #BAB8B8",
"b. c #BAB9B9",
"n. c #BBB9B9",
"m. c #BBBBBB",
/* pixels */
"e k k e ;.;.v ] e e =.e ..3.W f s e x x e z o. .k H u z #.r m e e ;.s e r.e e n ~ E p p | | e V e E E p e V | e e e e x o.N k V e ",
"..J f e e e n ~ v G -.S ;.,.) D n e x @.a e h J u e Q Q e S e e G @.s e e e e N O.n n e | 8.e e n ` E ~ -.Z N e n n e e / ` f s s ",
"..V e e e e V e v -.k S V e n ..h N x h ..e e J ~ k ) Q V | ` e | ) k e v s ) N W 3.V a e Q V V h e e 7.6.e t.e e e e e e J N s O.",
"y.e e ) ) N x ~ e N k S h k e N O...e e ..e y p p e e e V | S e e k k 4.e s e o.` e a a e Q Q V h e e *./ e N e e J J e e N N e e ",
"e e f { ) @.x %.{ m e m m k e e #.J e e / e E s ] e e e #.v ` k x x e :.v s e o.` e e e e e s m h e @.4.#.e e / e Z k s e e a V e ",
"e e N N #.,.` z e e s s E Q ] e { e e f 6.) J z | n #.V n Z ] e | / / #.#.Z ..@.m G G a e e *.m n e 4.^ E f e e n G e Z e f { S :.",
"z { { N B ) ` ] N | @.e ) ] Q e | h e Z ` e z / ) ` V t.v e e N ! 3.-.+._ ~ J S z #.#.e e { 7.Z ~ G W ] -.X.e | n G e n | e ) G *.",
"8.8.) e v N a ] e e Z | Q / A e e V u Z e v x o.| Q ~ y.V s e { ` ;./ %.V e e e e k o.e ;.e e Z Z Z x v Z b e | y 0.1.| | %.4.e e ",
"e e O.z v v e %.1.e e e s Q G e E u e e e Q n v ~ Z ~ @.e ] x W Q e J *.V u e e O.V e e e e e O.:.e N ! f J e -.5.E S | | m Q V e ",
"e m / ) ;.e v m ..Z Z e n #.D 3.A a a J / m u e J ~ e G N ..m ~ %.#.k r m u v v O.V e o.V f e 2.,.e N E S J { e e a a O.O.e e V u ",
"e k ;.9.) y.u.7.-.e e S / 1...5...O.a E / W -.| E e e e | ` u E e n V f e e e t e e e o.E k v Q e e e e h e V V J e e e ~ ~ e e @.",
"e J v #.e y.u.` G e e ;.e G G e e G Q e e W { @.Z e k A v Q Q s ;.e Z Z e e a t k e Q E h -.J m e Q e a 9.e y.r.7./ e *.3.,.o.e 9.",
"e ;.*.| f n n e f f f e e u e e N ` ..e Z e e e e s { G S a e s e e e e e e e n G e / e { e e e e Q e e S r r.r.1.3.@.e e o.p ..J ",
"p ] ] h ) { G f #.a v O...V :.#.e e | e e a a e e s Q e m ] ) n e e e G z e e e S ] e e G G k k e @.e t E E e e #.#.G e 4.Q e #.f ",
"e e e h e k m / @.N e / _ ] #.#.#.-.e h e a v e e e e e e / k S e J e G e J V Z ] *.e y ] ` e ..o.7.e e e Z Z E e e E e 4.e e f f ",
"e e e e V a e | / e e k k / e p *.4.E e e e f s Q e #.] e e e J e J e e e e e e Z Z e n ..` a e e ] e n n e a E e ~ { e e a e Q e ",
"e e e / :.1.h / J m e x x e e e e ] ~ e e e e e E k ] e e v ) Q e e e Q N p Q / e e e e e e z e { *.e S S e +.a e ~ v e e a k t.E ",
"e e m s s Z / / e e e e e e -.{ e x s s G G e y a e d J ] N Q Q p e e Q v z n ` >.a a e Z Z e e h e e { { e e e e e e e e Q s { f ",
"e e Z %.k e ) ~ / v e | e s 8.Z e e e e ..z | p ;.;.E ~ m ~ e f p x x e e h N | <.N n p ` ~ ~ e e e e Z Z e V e O./ V e o.e s h G ",
"e J e e ~ n ` e ~ ..h h a e 4.-.e e e G G ,.e e %.%.E ..e ] ~ ] Q ` Z h N ] h z E Q S { e f E e e e t Z e x V e J V / n ` e h h h ",
"V X.#.G n n e e k V h J v Q v | a a u e O.{ H e y Z @.E e { E G ~ x J e G ] Z e e h h y.r.s m e a Q ~ *.y n ..) | / n 9.;.) ../ e ",
"Q E ) s e v / e f n m ..v m 1.;...a Z =.1.*.J e e Z Z e e e e e ] G ` G V Z e v G V G e e e x | a Q K n y y K e e p J ;.3.O...k e ",
"e E E e e e ` *.} f n N a v ;.8.9.0.` :.%.Q J e e v e n e e e e { / e J J f e J G o.O.e k k t _ f e n n e e | e e e z e e e v h V ",
"e e e G ] C ^ J e e e h k n e h 9.:.@.Z e e e e e ) n n e f -.Z G V x ` G V V e e ` Q ` k k t J G e ..Z Z e Z e Z Z ,.o...O.m n 1.",
"v e e e r.h e ~ n %...h c c e Q *.V y.r.Q e ] 3.7.#.v e e ) N N N ..] ( e e h e e o.#.n e e v v e e e Z Z e / e ' ' @.;.9.7.a p m ",
"v Q *.e e N N x x e e f c c e l l e e / &.Z #.^ J e e e ) ` f e e e e e e Z ` | E -.n n e e G k v r ;.7.e e v ~ ) n e f e @.e G ) ",
"n E e e e N N ] ] e e e #.| e e e e N Q +...Z x h e e %.G / Z Z e Z Z e e z Q S @.s e e e e S e e m e e E Q z V e e b D v e e V { ",
"{ E e V ~ -.f E E E E e ~ { ) e s s u Q S e a x e e e a e e ~ Z / o.Z v e e e x %.e e ` k e N :.;.e e e s J Z e e n e e v y h a e ",
"z e e G ] #.e ..G e f e e e Z l s s Z k V V a h e e e G { n v ~ e C C ) Q / e e ) s s ,.,.e e :.#.e e e e Z e Q S O.z e e e e e e ",
"k k e e O                       x x h k V V ..h G e e J E ] i i V e e Q @.;.e e Q Q e e e e e e e     .                 O t e #.#.",
"! e e v o                 @     x x z z e t ..e G e e e e C h u ` o.e ` ` v v e Q ) h v ..e e G G     #                 O t e #.*.",
"e e e v v           Y U f   G | e N e e n N e ` e u / { e e | Z o.%.m e e v v G f e E / #.) | ..V n e . @.Y U           G G / 3.;.",
"h e ) e e           | T I   h ..N N e e V V e | V e Q Q *.o.| e ~ / e k ` G z G e e e N S ` ` n e e e   Y R %.          e e Z e u ",
"e e e e e           Y P E   e n n v e e u f C :.4.e } e V e ] e z -.3.e Q -.:.s G G e e S Q e G S ] _   e L U           ,.s V X.@.",
"*.h e e v             # >   ] k t V t e p u e ;.;.e e r Z G e e { z e k N Z N s e e e x v e E m N h )   , #             J x n k ~ ",
"-.z V s x   2 5 6   h.c.c.c.c.c.c./ ;.a m e f e e e k e e Z Z x z J Q @.e e e s ..,.n | Z Q G S c.c.c.c.c.c.h.  1 < 6   S e e e e ",
" .z V ` :.O 5 5 5   x.q.;.D n.c.c.c.c.c.k t V ` *.*.J #.#.1...~ e v / *.e e e Q ..,.n y.E c.c.c.c.c.v.$.4.g.m.  < < 5   ;.J e s e ",
"5.e V h O.. < < 5   b.c.c.c.c.c.e.7.b.c.h y e e e D ^ ;.:.) S x e v e t e e f Q e e x m Q c.c.%.e.c.c.c.c.c.b.  < < <   J J e v a ",
"3.E ` / N   5 < <   5 0.f.d.c.v.z.l.z.k.e e n n e e Q ) J e e v v e V V G ) G v J e x ~ p z.c.c.c.c.c.s.f.d.5   < < <   ~ e / ;.;.",
"e e G ~ b   5 < <   5 O.@.    ~ + o - k.e y y e p { ] ] e e e x x e v k N #.%.e e v k e e c.;.i.+ + v @ o = 5   5 < 5   j e e e z ",
"O.%.;.N f   5 5 5   5 J o o   v o o o c.N J e Q e Z Q Q e z z ~ J e x Z e e e Z e | V ] e c.v o O O @.o o o 5   5 < 5   0 t t x | ",
"z -.,.] /   < < <   n J o `   ;.-.Z   c.N e e O.:.3.] e e G z v y e @.` e ` ` ,.f ;.e Z e c.3.o v   v 1.Z @ v   5 < <   w e Q ] x ",
"%.,.,.` w   < 5 5 . ..o o ;.  1.1.K . c.e -.a e e n { G e e ` | Q Q ` ;.e S N / | N #.e e c.O o v   v ..n : &.. < 5 5   w e { { e ",
"Q S G @.e   < < 5   5 o o E   -.) v . z.e / a e e n e e e e ) ~ t G e ) +.e K e s J #.e V c.O o E   ~ Q n = 5   5 < 5   o.e y e e ",
"x x n ..m   5 5 5   5 o o o o o       c.e u e e e e e e e ....:.:.e e r.e e e e e N e N | c.O o o o O     . 5   < 5 5   *.) x e d ",
"e e e ..V   5 < <   3 O o o o o o X . c.e e e e e e h e e ..:.e / ] ] y.e E a Z Z n n n V c.O O o o % o O O 4   < < <   z J e h Z ",
"k o.e e Q   < 5 5   J $.v `   ;.o n n v.e V Z e e V ) e E x :.{ v k Q N z E G x ..} / E e c.v V Q   ;.o v  . .  5 < <   h h o.0.z ",
"v y.e e G   < 5 5   n ) v )   -.o G n k.p z E t ` S V ..| e %.@.k e ~ E e e e #.-.` ] E #.c.0.w.|   ~ o v v M   5 < 5   e e e n Q ",
"v r.e B %.  5 < <   J v v v   ` o o o j.*.*.| | ` p e ....E ..) ] k e m G h m -...( e e ) c.r.r.#.  / o o - v   5 < <   e e v n m ",
"m e N ` `   5 < <   Q v v E   | o o o z.%.#.| | e m e V e ;...) -.~ S m O.V E O.N N e n #.c.v -.) O G o o ; v   5 < <   e e o.o.k ",
"G e %.e Z   5 < <   ..G #.#.q { 8 7 9 c.t e e ` ` m J e m J ) ,.....| e O.V e e e a e e u c.v :.) w v x n J 4.  < < 5   e ` { 6.:.",
"-.e N N Z   5 5 4 X %.-.#.) v ;.%.  @ c.s a e e e G e Q ] V h @.| ..| ,.%.@.e e h h e e u c.v ;.W v v v # . m X 5 < <   e ` n G G ",
"~ G O.Q ;.  5 < 4 @ 3.6.1.v v Z Z Z N c.n r e e e J Q / O...e m m e e ,.` e k e h h ` ..e c.4.#.%.J v c v O...+ 5 5 5   e e e z *.",
"S e ! x Q   < < 5 $ =.../ E ~ v Z   @ c.*.%.x { ~ n e e e e e k e m Q N e e k k k h @.` ;.c.4...v E 7.o.#   N % < < 5   e e N ,.*.",
"o.z k e Z   5 5 5 * o...@.) v G Z ..Z c.y.] f 6.V v v e e e k e e m Q e v V e e e e ` ] ;.c.o.] v ) / ;.%.v o.% < 5 5   N e t.N S ",
"z | ..v -.  5 < < $ Q Q Z v v *.;.` S c.] %.E S e G v t e 6.1.x u ` e e e e N e e a a p e c...9.v v Z -.-.) v # < < <   w h t.s b ",
"J e / e w   5 5 < * ] v p.Z v v v v v c.e e e e e ] k t e J e z E | e e e e h e e a m m f c...| m / v G G ) v & 5 < <   w e e a e ",
"G e e e w   < 5 5 $ G ~ a.v v G v O.O.c.k y e ;.y./ m O.Z e e @.o.o.Z f e f G Q n e e | [ c.1.m m v E Q ;.| ] * 5 5 <   s ` e e e ",
"| ) ;.( C   5 < 5 & v v v S v v v O.3.c.k y e Q ] e g { -...J e ~ S n e | | Z ~ n e e ..x c.v v v v v o.;.v ] & < < <   s ` e o.N ",
"N ) ;.:.{   < 5 < $ E #.;.E / v #.#.O.c.e ] Z Q ] e v k o.z } h e e C e | | #.h e ~ { ~ p c.4.O.V v v Z v -.` $ 5 < 5   e e e N #.",
"h e n ) S   < 5 < $ c.c.c.c.c.c.c.c.c.h.p e Z k k E N } #.e t e { *.*.e e k k z z e m e e j.c.c.c.c.c.c.c.c.c.$ < < <   r r e V e ",
"S e e a ,.  5 < < $ h Z ` m V u #./ t / a :.F +.` #.e e k m Q Q | *.1.e f f e z m z a e e s | e Z Q { N p k k $ 5 < <   Q v e / ~ ",
"O.Q #.e :.        + V z G G f f Q ;.6.~ a :.p r.y.` ` ;.;.%.) E E e e e e e C e e Z n x h / S x e e N N e Q ~ O         v  .c G ~ ",
"e ~ ~ e e e J ) W e z ~ ] n 1.e e ;.;.r :.e e t.r.t O.` y.J b ) <.V t.e c e | O.O.Z y.E #.,.e e Z h e e e ) ~ p :.S Z Q ) ~ G e e ",
"E e O.e a e %.%.E v e e k / ;.a e e Q r 3.e e a y e Z x y.J e G :.N E e e e e e f n t.e { 0.2.x Q x e e e e e e k G x ] G N G e v "
};
