/* XPM */
static char *result[] = {
/* columns rows colors chars-per-pixel */
"65 65 89 1 ",
"  c #6A6A6A",
". c gray42",
"X c #6C6C6C",
"o c #6D6D6D",
"O c gray43",
"+ c #6F6E6E",
"@ c #6F6F6F",
"# c gray44",
"$ c #717171",
"% c #727171",
"& c #727272",
"* c #737272",
"= c gray45",
"- c #747373",
"; c #747474",
": c #757474",
"> c gray46",
", c #767575",
"< c #767676",
"1 c #777676",
"2 c #777777",
"3 c #787777",
"4 c gray47",
"5 c #797979",
"6 c #7A7979",
"7 c gray48",
"8 c #7B7A7A",
"9 c #7B7B7B",
"0 c #7C7B7B",
"q c #7C7C7C",
"w c #7D7C7C",
"e c gray49",
"r c #7E7D7D",
"t c #7F7D7D",
"y c #7E7E7E",
"u c #7F7E7E",
"i c gray50",
"p c #807F7F",
"a c #808080",
"s c #818080",
"d c #818181",
"f c #828181",
"g c gray51",
"h c #838282",
"j c #838383",
"k c #848383",
"l c #848484",
"z c #858484",
"x c gray52",
"c c #868585",
"v c #868686",
"b c #878686",
"n c gray53",
"m c #888787",
"M c #888888",
"N c #898888",
"B c #898989",
"V c #8A8989",
"C c gray54",
"Z c #8B8B8B",
"A c #8C8B8B",
"S c gray55",
"D c #8D8D8D",
"F c #8E8D8D",
"G c #8E8E8E",
"H c #8F8E8E",
"J c gray56",
"K c #908F8F",
"L c #909090",
"P c gray57",
"I c #929292",
"U c #939292",
"Y c #939393",
"T c #949393",
"R c gray58",
"E c #959494",
"W c #959595",
"Q c gray59",
"! c #979696",
"~ c #979797",
"^ c #989898",
"/ c gray60",
"( c #9A9A9A",
") c #9B9B9B",
"_ c gray61",
"` c #9D9D9D",
"' c gray62",
"] c #9F9F9F",
"[ c #A0A0A0",
/* pixels */
" ;; PP2v  K BWs&$ << >CN;uO>D.5  P$ `  4ga@@MM 9 aa@ 9M    <C7;9 ",
"Bi&   4g2yLePYlr4 <S# =iO dd e  yS$    7Z44 M/  4xagLq7 44  jx&$$",
"B9    9 2L;e9 4B=7<=B  ig;ld9Mx Ml; 2$l7sW9# d99=  ^~ '      i7$Z",
"]  ll7<g 7;e=; 7ZB  B o@@   9Me  ;;Q $ Cx ## dd9=  Jj 7  ii  77  ",
"  &nlS<Gn5 55;  Di  j a$v   D2x;<< I2$ Cx     $5= SQD  j q;$  #9 ",
"  77DYx>  $$adv n  &~li>M4D94qv MjjDDqBS5yy#  J54 Qha&  4y q &neI",
">nn78lxv7MS lvd M= qx >jlx9'2  7fWLAzgie>DD  n^qgysvLV M4y 4M lyJ",
"//l 27#v  qMdjw  9Oq 2<CMdg]9$ nxPjG9    ;C P  qqq<2q3 Mo)RMMGQ  ",
"  Z>22 GR   $dy aO   d42gqgS v<sd iJ9O  Z9     ZI 7f&i L!aeMM5d9 ",
" 5jlP 25Bqq 4DrWw##ij5O ig y7B5gGD;.5O22Z9 C9& EY 7aein  ##ZZ  9O",
" ;P(l][^L  ejRB!BZ#ajsLMa   MxOa 49&   X   Ca;2d    = 99i   gg  S",
" i2D ][xy  P yy  yd  snSq ;w2dd$P qq  #X; da=Li5 d #( ]`^j JWYC (",
" PJM&44 &&&  O  7xB q    $nye# $       4y j n    d  e.``RWS  C@Bi",
"@vv=lny&D#2ZB9ID  M  ##  $d 5vl4   y>   ev  yy;; S Xaa  DDy Qd D&",
"   = ;5jS7 jzvDDDL = #2      j;e i y i9qvJ ovx BC^   qqa  a Q  &&",
"    9# Mj  ;;j @JQa   &$d Dv   i i      qq 4Bx#  v 44 #a gn  # d ",
"   jIR=ji5 <<    vg     a;v  2ld   d7@dj      > nJ ee A# g2  #;'a",
"  5$$qjj      Ln <$$yy o# %iv7dd@  d2>4xU## qq  =  nn        d$n&",
"  qG; lgj2 M $/q    B>M@PPag5g &@<<  =7MT74@xgg    qq 9 Zj9 C $=y",
" i  g4x gB==# QL   yyY  GGaB vgvdxq=7v=>aden &a   Xq <9 i9j4x ===",
"9VDy44  ;9=i2d2M##O Znu oqSa nayg<i yvq  ==]`$5 #dgJo4BlMj4(PlBj ",
"dal$ 2j &45B25RPB#qKRJi  qq     vyxy9q 2y9y   <M#dp4oop  @iPWZB; ",
" aa   xJm&47#2P/()xIGdi  2 4    nj ii& iyCZ ;;Xz& 44  M   >   2=9",
"   yv0hi   =;4 =(ISq     l44 &Lqy9<xy99  xdx;;Xiy Bqq q qqYCBZ54R",
"2   `= g4GB=11 dJ9]`d vW^D2  l777Bvk  =  CD4  22   qq j ccSP(^#@5",
"2dJ  77<<  &11 ::  jHqDhi   lx&      qxMaL44  y;2.P^  2gl4 & S yl",
"4a   77vv   DM    7dABq<=  Gyjqq qq  >deS$    e  5  ad>9  3r2  9n",
"na 9gL&aaaa gnl $$Ode #<   #  gqjCq2   <G  x; 7IP   $iq  4  2o=# ",
">  yvD By &   q:$$q;99#=   yn42g 00ldj  l$$YY  ID    q deZ>      ",
";;  ;;$d5 &     <<=;99B=y  iav++9  dSP  dd         MMJn Lev2XX DD",
"f  22ddy  #  q4 <<>> XB y    0=OxC xx22 dl=2B  yy  MM   eXj nX DJ",
"   22dd>> j>&@yM 7  47 x Ojn  MqCG5  22y& ajDlMB94 nSj& i ;xyyjWP",
"= l      9Mi P=B77  99 M9 ddJCM gj ;xy>y   7exx4   nDaGG7 a;  q O",
"         <xyaP 442  O&0IQ m 9 v >LW dLI$yy  ed yevz% Oqdl q&Y$9VS",
"J=  2xiM>;7<  == 7X OO PP   qq  n> &797$   << d44&##iO44o&  i<4;g",
"L>9$<Cqa2hj<  ii eP#5 &   ;  qq<>idS   $BY4Mqdy<  > yZ4goaL(e    ",
"N>9xIMig4ga<< ee#XX2& 9xJJiDDIBg 2jD   dBY4`yjy  lviiWx IP_'Pi $ ",
"! 9=ZZq##5ai#o   5jM&    rhPIje< 2    &d  <<dM2  4lyqM4 CCj5ii 2#",
"Waxj9d d 3<<jv;  O9   44  dli  22 99yly2i <g@2li 4 #dIvP  77j jPP",
"  ygsjue 3>gj59> @4  oo @nvv   << 2;7DG  2;  BB``    Pvqq &&w   >",
"ZGP75 j 22 =    ide77i d qdd >>gi <q   q M9v   `` 22#     &v XX<M",
">LYvxx$x   = yaBB$ 77  ZIWv  y>2o Sx xxY&P q YJ  5 DyM7CL2    dv<",
"GYYx  >>  i  CyDD->  L#  4ny  xMddxP e7jM7D  nii 5 a.Bl < X   nn ",
"deyS 7   nioo>vPL 22 j#  4    lgXy lA p $iD 9D7;; << e5 o9X7C o  ",
"<<4B5  7dD;M]   #  P O       BBII  `     7 7M9k47;a99RY @By7Jl< %",
"   Bq55ynx2jy;22a         =  BI jvv] a#qq4449 nxv;X#97  ;ly=<i =q",
";C  dCy> 5ac 72BB    9q  9l a<In2;d7>ay<Bmja   OdlBM uSFzdj===C)>",
"2]  yZz>7a 7 7;MM&  @>aXxe9BM GS; ga   DLxvaDvQ~y 22   eeqj    4d",
"2` 8GnnMa;=    l;  PJJMMx@ BBaBlv; 5y=5LBk  l7^/x w2I< <2yaa  245",
"5 7xx; <yi<  ;;l4 7XGDMM 5 9 PBlLge5Z9aZ77 4D  C7a;$In GvdBn  CC;",
"y G qq7gaii&xx9##.y#X  xx5i 5ilYBBM Z9   #  O7 Z7  n4dvOI5q< xn~I",
"L 77qqn >>vMx5 Bv7 &$#   y dv9=SMBMYGS  ==  OO C,   2MaOY7   x4yy",
"gyZdPDM54vGPG  ###oM4.   idjZB 55  Yx ; ==xB xLlv=   gi&xn3x   >J",
"e f<djdeO2mi5;2 #q DJG<ng4     ; 5d7  ;;;=SxPdLa >Id<=djOy3   7YJ",
"C>; qaI& ]dij6 &#i# ]v&~922   ;  5d 29    xvPPdq 54Bv dCy<qq7 '7e",
">MB2P5&& <<<#  nB9# vGae y2X ~R<Ox    7  ##@ iiR  @MM7  d9 n ='$3",
"i j  qq lMq '#     @     v;X i >aM    =  #55&4iyX4 &&7 g4 i    # ",
"y       d &2[  & gg&;o P]j5Zq  SCCq& &yd4  MblDXX >>Cyqn4  &&x   ",
"MlPkw  MBd   $   gG4;o dv *nLBy ge2 MMqg4  B<      dB qq   &&x C7",
"7lPIn =a;==lB;5 lly5 vqdv 2;C>7=    MMD= gng@7DgO  $ M9 <na    7D",
"= 4le2xxy; >7$d2yy= @ q;;a7mD   nJG  ;;>> 5  && enq 7  4 Mx .. 9 ",
"e  #YvSvlS=qd59ODjXj#ItAxD  ;5ddMJR && >5>#  $M qdn7 ;;l$g>7d2 jg",
"ZdD I7Zwz49>yy&&dP~g#I@`]xxPPGlaa     0  q4<=je<  77 dg@IDCi2N1yg",
" gg   ils >gv4R  PP.I  '`XZx]i3lT9' 1 MZZq]aDY  q=   lg@Ieqdlgy  ",
"a Z # GGa2  ;jP#  d.W  #o q<]i yI7a     &4' n)E<d<      ;y<vy7y 2"
};
