/* XPM */
static char *result[] = {
/* columns rows colors chars-per-pixel */
"65 65 245 2 ",
"   c #060606",
".  c #0A0A0B",
"X  c #0B0B0B",
"o  c gray5",
"O  c #101010",
"+  c #1B1C1C",
"@  c gray11",
"#  c #1E1E1E",
"$  c #175869",
"%  c #175969",
"&  c #175B6C",
"*  c #175C6C",
"=  c #494949",
"-  c #4B4B4B",
";  c #555555",
":  c #5F5F5F",
">  c #626262",
",  c gray39",
"<  c #656565",
"1  c gray40",
"2  c #676767",
"3  c #686868",
"4  c DimGray",
"5  c #6A6A6A",
"6  c gray42",
"7  c #6C6C6C",
"8  c #6D6D6D",
"9  c gray43",
"0  c #6F6F6F",
"q  c gray44",
"w  c #717171",
"e  c #727272",
"r  c #737272",
"t  c gray45",
"y  c #747474",
"u  c gray46",
"i  c #767575",
"p  c #767676",
"a  c #777676",
"s  c #777777",
"d  c #787777",
"f  c gray47",
"g  c #797979",
"h  c #7A7979",
"j  c gray48",
"k  c #7B7A7A",
"l  c #7B7B7B",
"z  c #7C7B7B",
"x  c #7C7C7C",
"c  c #7D7C7C",
"v  c gray49",
"b  c #7F7D7D",
"n  c #7E7E7E",
"m  c #7F7E7E",
"M  c gray50",
"N  c #1A8DA9",
"B  c #1B8DA9",
"V  c #1D8DAA",
"C  c #248DAC",
"Z  c #248EAC",
"A  c #288DAE",
"S  c #808080",
"D  c #818080",
"F  c #818181",
"G  c gray51",
"H  c #838383",
"J  c #848383",
"K  c #848484",
"L  c #858484",
"P  c gray52",
"I  c #868585",
"U  c #868686",
"Y  c #878686",
"T  c gray53",
"R  c #888787",
"E  c #888888",
"W  c #898888",
"Q  c #898989",
"!  c #8A8989",
"~  c gray54",
"^  c #8B8B8B",
"/  c #8C8B8B",
"(  c #8A8B8D",
")  c #8A8B8E",
"_  c gray55",
"`  c #8D8D8D",
"'  c #8E8D8D",
"]  c #8E8E8E",
"[  c gray56",
"{  c #908F8F",
"}  c #8F9091",
"|  c #909090",
" . c gray57",
".. c #909192",
"X. c #929292",
"o. c #939393",
"O. c #949393",
"+. c gray58",
"@. c #959494",
"#. c #959595",
"$. c gray59",
"%. c #979696",
"&. c #979797",
"*. c #97989A",
"=. c #97989B",
"-. c #989898",
";. c gray60",
":. c #98999B",
">. c #9A9A9A",
",. c #9B9B9B",
"<. c #9B9C9F",
"1. c #9D9D9D",
"2. c gray62",
"3. c #9F9F9F",
"4. c #9C9DA0",
"5. c #A0A0A0",
"6. c #A5A6A9",
"7. c #A7A8AB",
"8. c #A8A9AC",
"9. c #A9AAAD",
"0. c #AAAAAE",
"q. c #AAABAE",
"w. c #ABACAF",
"e. c #ABABB0",
"r. c #ACADB0",
"t. c #ADAEB1",
"y. c #AEAFB2",
"u. c #AFB0B3",
"i. c #B0B1B2",
"p. c gray70",
"a. c #B0B1B4",
"s. c #B1B2B4",
"d. c #B1B2B5",
"f. c #B2B3B5",
"g. c #B2B3B6",
"h. c #B3B4B5",
"j. c #B3B4B6",
"k. c #B3B4B7",
"l. c #B4B5B7",
"z. c #B6B6B6",
"x. c #B4B5B8",
"c. c #B5B5B8",
"v. c #B5B6B9",
"b. c #B6B7B9",
"n. c #B6B7BA",
"m. c #B7B8BB",
"M. c #BBBBBB",
"N. c #B8B9BC",
"B. c #B9BABD",
"V. c #BBBCBF",
"C. c #BCBCBF",
"Z. c gray",
"A. c gray75",
"S. c #BDBEC0",
"D. c #BDBEC1",
"F. c #BEBFC1",
"G. c #BEBFC2",
"H. c #BFBFC2",
"J. c #BFC0C2",
"K. c #BFC0C3",
"L. c #C0C1C4",
"P. c #C1C2C5",
"I. c #C2C3C5",
"U. c #C2C3C6",
"Y. c #C3C4C7",
"T. c #C4C4C7",
"R. c #C4C5C8",
"E. c #C5C6C8",
"W. c #C5C6C9",
"Q. c #C6C6C8",
"!. c #C6C7CA",
"~. c #C7C8CB",
"^. c #CBCBCB",
"/. c #C9C9CC",
"(. c #C9CACD",
"). c #CACBCC",
"_. c #CACBCE",
"`. c #CBCBCE",
"'. c #CDCECF",
"]. c #CECECE",
"[. c #CDCED1",
"{. c #CECED1",
"}. c #CDCED2",
"|. c #CFD0D2",
" X c #D0D0D3",
".X c #D2D2D2",
"XX c #D0D1D4",
"oX c #D1D2D5",
"OX c #D2D2D4",
"+X c #D3D3D5",
"@X c #D2D3D6",
"#X c #D5D5D7",
"$X c #D4D5D8",
"%X c #D5D6D9",
"&X c #D7D7D8",
"*X c #D6D6D9",
"=X c #D7D7DA",
"-X c #D9D9DB",
";X c #D9DADB",
":X c #DADADB",
">X c #D8D9DC",
",X c #D9DADD",
"<X c #DADADC",
"1X c #DBDBDC",
"2X c #DBDBDD",
"3X c #DBDCDE",
"4X c #DCDCDD",
"5X c #DCDCDE",
"6X c #DCDDDE",
"7X c #DCDDE0",
"8X c #DDDDE0",
"9X c #E0E0E3",
"0X c #E2E2E2",
"qX c gray89",
"wX c #E2E3E4",
"eX c #E4E5E6",
"rX c #E5E5E6",
"tX c #E5E6E7",
"yX c #E6E6E6",
"uX c #E7E6E6",
"iX c #E6E6E7",
"pX c #E6E7E8",
"aX c #E7E7E8",
"sX c #E7E8E8",
"dX c #E7E8E9",
"fX c #ECECED",
"gX c #EEEEEE",
"hX c #F0F0F1",
"jX c #F1F1F1",
"kX c gray95",
"lX c #F2F3F3",
"zX c #F4F4F4",
"xX c #F4F4F5",
"cX c #F6F6F7",
"vX c gray97",
"bX c #FBF9FC",
"nX c #FCFAFD",
"mX c #FDFBFD",
"MX c gray99",
"NX c #FDFDFD",
"BX c #FDFCFE",
"VX c #FDFDFE",
"CX c #FEFEFE",
"ZX c #FEFEFF",
"AX c white",
/* pixels */
"5 y y 6  . .s U 5 5 { 5 Q #.D e w 5 p p 5 u ~ W y m 9 u ` 6 g 5 5  .w 5 1.5 5 f G S 0 0 E E 5 l 5 S S 0 5 l E 5 5 5 5 p ~ j y v 5 ",
"Q M e 5 5 5 g G s n | v  .o.K OXQ.Q.Q.E.E.E.E.E.Q.Q.Q.Q.Q.Q.Q.Q.Q.Q.Q.Q.Q.Q.Q.Q.Q.Q.Q.Q.Q.Q.Q.Q.Q.Q.#XG | x j 5 f f 6 5 H P e w w ",
"Q l 5 5 5 5 x 5 s | y v l 6 2Xw.q.q.q.q.q.q.q.q.q.q.q.q.q.q.q.q.q.q.q.q.q.q.q.q.q.q.q.q.q.q.q.q.q.q.w.3X&.5 2.5 5 5 5 5 5 M S w ^ ",
"3.5 5 K K j p G 5 j y v t ;Xq.B N N N N N N N N N N N N N N N N N N N N N N N N N N N N B N N N N N B q.5X6 j 5 5 M M 5 5 j l 6 5 ",
"5 5 t E K _ p ] T g 5 g g q.q.N N N N N N N N N N N N N N N N N N N N N N N N N N N N N N N N N N N N q.q.5 5 H 5 x y w 5 5 q x 5 ",
"5 5 l l ` o.P u 6 5 w w S q.q.N N N N N N N V N N N N N N N N N N N N N N N N N N N N N N N N N N C & q.q.e 5 5 f n 5 x 5 e T v X.",
"u T T l k K P U j E _ 5 K q.q.C N N N N N N N N N N N C bXAXAXN N N N N N N N N N B N N N N N C $ $ $ q.q.! 5 E f n 5 g E 5 K n [ ",
";.;.K 5 s j q U 5 5 x E F q.q.N N B N N N N N N N N B AXAXAXAXN N N N AXAXAXAXAXAXAXAXAXCXB B & $ $ % q.q.d 5 E 8 ,.+.E E ] $.5 5 ",
"5 5 ^ u s s 5 ] +.5 5 5 w q.q.N N A N V N N N N N B AXAXZ AXAXN N N N AXAXAXAXAXAXAXAXAXCX* * $ $ $ % q.q.M 5 | %.S v E E g F l 5 ",
"5 g H K  .5 s g Q x x 5 f q.q.N N N N N N N N N N AXAXN N AXAXN N N N N N N N N N N C AXAX% % % % $ $ q.q.M T 5 5 q t ^ ^ 5 5 l 9 ",
"5 y  .>.K 3.5.-.| 5 5 v H q.q.N N N N N N N N C AXAXC N N AXAXN N N N N N N N N B & & AXAX$ % $ $ $ % q.q.5 l l M 5 8 5 G G 5 5 _ ",
"5 M s ` 5 3.5.P n 5 5  .5 q.q.N N N B N N N B BXAXC N B C AXAXN N N N N N N C & $ $ $ AXAX$ $ % $ $ $ q.q.5 3.1.-.H 5 [ #.o.~ 5 >.",
"5  .[ E t f f 5 e e e 5 5 q.q.N N N N N N C AXAXC N N N C AXAXB N N N C % $ $ $ $ % & AXAX$ $ $ $ $ $ q.q.6 1.1.+.#._ 5 5 ~ 0 Q M ",
"0 U U t K T n e ` q s ^ Q q.q.N N N N N N AXAXAXAXAXAXAXAXAXAXAXZXC C CXAXAXAXAXAXAXAXAXAX$ $ % $ $ $ q.q.S 5 5 ` ` n 5 $.F 5 ` e ",
"5 5 5 t 5 y g H _ j 5 H L q.q.N N N N N B AXAXAXAXmXAXAXAXAXAXAXBX& & AXAXAXAXAXAXAXAXAXnX% $ $ $ $ $ q.q.x x S 5 5 S 5 $.5 5 e e ",
"5 5 5 5 l q 5 E H 5 5 y y q.q.N N N N N B N C C N N N N C AXAX& $ % $ AXAX& $ $ $ $ % $ % % $ % $ $ $ q.q.6 q S 5 G T 5 5 q 5 F 5 ",
"5 5 5 H X.+.t H M g 5 p p q.q.N N N N N B N N N N N N N C AXAX$ $ % % AXAX$ $ $ % $ $ $ $ $ $ $ $ $ $ q.q.t / q 5 G s 5 5 q y 2.S ",
"5 5 g w w x H H 5 5 5 5 t q.q.N N N N N N N N N N C C % & AXAX$ $ $ $ AXAX% * $ % $ $ % $ $ % % % % % q.q.6 5 5 5 5 5 5 5 F w T e ",
"5 5 x ] y 5 K G H s 5 E t q.q.N N N N N N C N N N C % $ $ AXAX$ $ $ $ AXAXAXAXAXAXAXAXAXBX% % % % $ $ q.q.6 5 5 5 5 5 5 5 F w T e ",
"AXAXAXAXAXAXAXAXAXAXAXAXAXq.q.N N N C N N B B C % $ $ $ $ AXBX% % % * AXAXCXZXZXCXAXAXAXCX$ $ % % $ $ q.q.AXAXAXAXAXAXAXAXAXAXAXAX",
"AXAXAXAXAXAXAXAXAXAXAXAXAXq.q.N N N N B N C * % % $ $ $ $ $ $ $ $ $ $ $ $ $ $ $ $ $ % $ $ $ $ % $ $ $ q.q.AXAXAXAXAXAXAXAXAXAXAXAX",
"AXAXAXAXAXAXAXAXAXAXAXAXAXq.q.N N N N C * * $ $ % $ $ $ % $ $ % $ $ % $ % % $ $ $ $ % $ $ $ $ % $ $ $ q.q.AXAXAXAXAXAXAXAXAXAXAXAX",
"AXAXAXAXAXAXAXAXAXAXAXAXAXq.q.N N C * % % $ % % % $ $ $ % % $ $ % % % % % % $ $ $ $ $ $ $ % $ $ % $ $ q.q.AXAXAXAXAXAXAXAXAXAXAXAX",
"AXAXAXAXAXAXAXAXAXAXAXAXAXr.q.C C * * $ % $ % $ $ $ $ $ $ $ $ $ $ % % % % % $ $ $ % $ $ $ % $ $ $ % * q.t.AXAXAXAXAXAXAXAXAXAXAXAX",
"AXAXAXAXAXAXAXAXAXAXAXAXAXhXe.q.q.q.q.q.q.q.q.q.q.q.q.q.q.q.q.q.q.q.q.q.q.q.q.q.q.q.q.q.q.q.q.q.q.q.0.q.xXAXAXAXAXAXAXAXAXAXAXAXAX",
"AXAXAXAXAXAXAXAXAXAXAXAXAXAXrXa.q.q.q.q.q.q.q.q.q.q.q.q.q.q.q.q.q.q.q.q.q.q.q.q.q.q.q.q.q.q.q.q.q.q.f.dXAXAXAXAXAXAXAXAXAXAXAXAXAX",
"AXAXAXAXAXAXAXAXAXAXAXAXAXAXAXrX4X4X4X4X4X6X6X6X6X6X6X6XJ.=.=.=.=.*.*.=.=.=.=.4X4X4X4X4X4X4X4X4X4X4XaXAXAXAXAXAXAXAXAXAXAXAXAXAXAX",
"AXAXAXAXAXAXAXAXAXAXAXAXAXAXAXAXAXAXAXAXAXAXAXAXAXAXAXAX'.( ( ( ( ( ( ( ( ( ( AXAXAXAXAXAXAXAXAXAXAXAXAXAXAXAXAXAXAXAXAXAXAXAXAXAX",
"AXAXAXAXAXAXAXAXAXAXAXAXAXAXAXAXAXAXAXAXAXAXAXAXAXAXAXvX( ( ( ( ( ) ( ( ( ( ( h.AXAXAXAXAXAXAXAXAXAXAXAXAXAXAXAXAXAXAXAXAXAXAXAXAX",
"AXAXAXAXAXAXAXAXAXAXAXAXAXAXAXAXAXAXAXAXAXAXAXAXAXAXAXi.( ( ( ( ( ( ( ( ( ( ( :.sXAXAXAXAXAXAXAXAXAXAXAXAXAXAXAXAXAXAXAXAXAXAXAXAX",
"AXAXAXAXAXAXAXAXAXAXAXAXAXAXAXAXAXAXAXAXAXNXCXCXCXCXCXq.q.q.q.q.q.q.7.8.q.q.q.r.iXAXAXAXAXAXAXAXAXAXAXAXAXAXAXAXAXAXAXAXAXAXAXAXAX",
"AXAXAXAXAXAXAXAXAXAXAXAXAXAXAXAXAXAXAXAXAXs.).).).).j.q.q.9.9.9.q.q.q.q.q.q.q.q.q.MXAXAXAXAXAXAXAXAXAXAXAXAXAXAXAXAXAXAXAXAXAXAXAX",
"AXAXAXAXAXAXAXAXAXAXAXAXAXAXAXAXAXAXAXAXAXa.AXAXAXAXI.q.q.q.q.q.q.q.q.q.q.q.q.y.t.AXAXAXAXNXCXAXAXAXAXAXAXAXAXAXAXAXAXAXAXAXAXAXAX",
"AXAXAXAXAXAXAXAXAXAXAXAXAXAXAXAXAXAXAXAXAXa.AXAXAXAXAXAXAXAXAXAXAXAXAXAXAXAXAXAXAXAXAXAXAXCXAXAXAXAXAXAXAXAXAXAXAXAXAXAXAXAXAXAXAX",
"AXAXAXAXAXAXAXAXAXAXAXAXAXAXAXAXAXAXAX;X;Xt.;X;X;X<X:X:X:X<X<X:X<X;X;X;X;X;X;X;X;X;X;X;X-X&X-X<X<X;X;X;X;X1XzXAXAXAXAXAXAXAXAXAXAX",
"AXAXAXAXAXAXAXAXAXAXAXAXAXAXAXAXAXAXMXq.~.y.tXVXq.`.}.t.~.oXd.T.%Xx.L.>XN.D.7XV.B.,XK.n.,XU.g.b.fXgXgXgXgX;XpXAXAXAXAXAXAXAXAXAXAX",
"AXAXAXAXAXAXAXAXAXAXAXAXAXAXAXAXAXcXx.D.!.NXL.R.9XY.L.8X!.F.,X(.V.=X[.N.$X Xc.XX@Xn.{.*XB._.>Xg.|.NXAXAXAXwXeXAXAXAXAXAXAXAXAXAXAX",
"AXAXAXAXAXAXAXAXAXAXAXAXAXAXAXAXAX+Xq.U.C.r.P.H.q.G.L.r.V.P.y.B.R.a.B.!.x.v./.x.k.(.m.d.W.B.u.Y.t.lXAXp.v ..} K z.AXAXAXAXAXAXAXAX",
"AXAXAXAXAXAXAXAXAXAXAXAXAXAXAXAXjXu.q.q.q.q.q.q.q.q.q.q.q.q.q.q.q.q.q.q.q.q.q.q.q.w.q.q.q.q.q.q.w.l.AX> o 4.<.. @ ^.AXAXAXAXAXAXAX",
"AXAXAXAXAXAXAXAXAXAXAXAXAXAXAXAXkXS.S.S.S.S.S.S.S.S.S.S.S.S.S.S.S.S.S.S.S.S.S.S.S.S.S.S.S.S.S.S.S.S.Z.+ 7.q.q.6.# A.AXAXAXAXAXAXAX",
"AXAXAXAXAXAXAXAXAXAXAXAXAXAXAXAXAXAXAXAXAXAXAXAXAXAXAXAXAXAXAXAXAXAXAXAXAXAXAXAXAXAXAXAXAXAXAXAXAXAXM.O 9.q.q.q.O A.AXAXAXAXAXAXAX",
"AXAXAXAXAXAXAXAXAXAXAXAXAXAXAXAXAXAXAXAXAXAXAXAXAXAXAXAXAXAXAXAXAXAXAXAXAXAXAXAXAXAXAXAXAXAXAXAXAXAXM.  X X X X   A.AXAXAXAXAXAXAX",
"AXAXAXAXAXAXAXAXAXAXAXAXAXAXAXAXAXAXAXAXAXAXAXAXAXAXAXAXAXAXAXAXAXAXAXAXAXAXAXAXAXAXAXAXAXAXAXAXAXAX].= - - - - - .XAXAXAXAXAXAXAX",
"AXAXAXAXAXAXAXAXAXAXAXAXAXAXAXAXAXAXAXAXAXAXAXAXAXAXAXAXAXAXAXAXAXAXAXAXAXAXAXAXAXAXAXAXAXAXAXAXAXAXCXNXAXAXAXAXAXAXAXAXAXAXAXAXAX",
"0X0X0X0X0X0X0X0Xv ` y E 3.5 5 5 q 5 5  .5 9 5 5 5 5 5 5 5 Q Q X.X.5 5 1.5 5 5 5 5 j 5 j E l J f j y S l l +.o.2 8 qX0X0X0X0X0X0X0X",
"0X0X0X0X0X0X0X0XT P s H n y s s S 5 5 5 5 5 5 5 5 5 t 5 5 Q X.5 H U U 3.5 S q x x f f f l 5 T P U y 7 q l j 5 5 y 0X0X0X0X0X0X0X0X",
"0XqX0X0X0X0X0X0X5 g S I 5 j s Q Q 5 5 5 5 l x 5 5 l K 5 S p X.T s y F j u S n p Q R H S 5 5 5 9 F K Q E 5 m _ ' L 0X0X0X0X0X0X0XqX",
"0X0X0X0X0X0X0X0Xj S 5 j 5 j y E E e 5 5 0 u S 7 P v l Q E 5 ] _ y 5 G S 5 5 5 ` | P U S _ P $.&.n 5 s s 5 5 5 v v 0X0X0X0X0X0X0X0X",
"0X0X0XqX0X0X0X0XS y t 5 5 5 5 K y 5 5  .[ [ E E S 0 5 Q Q S Q K U y 5 g n t g | Q J 5 5 K j -.;.v 5 c s X.p 5 p s 0X0X0X0X0X0X0X0X",
"0X0X0X0X0X0X0X0Xn M p 5 5 y y K f 5 j 7 ] ` E E 5 g 5 l 5  .Q K | G v g ^ l S ^ j j 5 f ` 5 5 ~ j S t w X.T 5 ] U 0X0X0X0X0X0X0X0X",
"0X0X0X0X0X0X0X0XS M M e F P l q q 6 n q 4 1 5 P P g M 5 g M K o.Q Q E 5 ^ l 5 5 5 q 5 5 9 j 4 S j 5 5 T f F U 9 X.0X0X0X0X0X0X0X0X",
"0X0X0XqX0X0X0X0Xu u U E P g 5 Q U j 5 7 7 6 5 5 5 v , F U l t _ E Q E X.` _ 5 5 t t 5 5 8 : , ~ i 5 5 5 s E S 9 o.0X0X0X0X0X0X0X0X",
"0X0X0X0X0X0X0X0Xf U ]  .` 5 5 q q 6 2 U f 6 5 5 1 j p H ^ K 3 f g 5 5 o.P 5 y 5 t t K E 5 P | K U t 5 5 5 G M e P 0X0X0X0X0X0X0X0X",
"0X0X0X0X0X0X0X0X9 s R M g t s 5 q x 5 _ [ ] p T G f 5 5 5 5 5 y 5 g F j 5 5 y y t t _ P | F | S 5 u X.F p t F H 9 0X0X0X0X0X0X0X0X",
"0X0X0X0X0X0X0X0X5 3.F M H h 5 e q M q 5 3.U w U q u y 5 5 5 y 5 5 g F 5 s l 5 5 5 5 P U |  .F x 5 g f Q U 5 F ~ n 0X0X0X0X0X0X0X0X",
"0X0X0X0X0X0X0X0X5 p p p q 5 5 T Q l q 5 U ] S x 3 n s 7 5 &.+.p 8 P 5 5 5 5 j 4 3 q q 0 3 M M +.5 2 0 E E j 5 5 F 0X0X0X0X0X0X0X0X",
"0X0X0X0X0X0X0X0XK E x 5 2.q 5 5 5 5 5 0 5 5 5 5 5 U y 7 5 y ; y S E 5 5 5 5 t 5 5 q g g e f M n 7 f 5 e e j 5 G f 0X0X0X0X0X0X0X0X",
"0X0X0X0X0X0X0X0XF 5 e s 5.5 5 e 5 G G e t 8 4  .3.H g ^ x > 5 _ ~ ~ x e 4 w n S f 5 5 E Y K ` 7 7 5 u u ~ n x T f 0X0X0X0X0X0X0X0X",
"0X0X0X0X0X0X0X0XQ F 5 5 5 w 5 5 5 G ] f y 8 5 F U 5 r T | Q n 5 G v s 4 T T s s f 5 5 Q p 5 5 5 5 5 5 F Q 5 x x 5 0X0X0X0X0X0X0X0X",
"0X0X0XqX0X0X0X0Xy t t K Q y g 5 K K n u 1 K x F U 5 s y ~ u j t 5 5 5 4 E E ` t 5 G T G 0 j ` G 9 5 5 w 5 E l 5 p 0X0X0X0X0X0X0X0X",
"0X0X0XyX0X0X0X0Xn y 5 u j w F s n n t 5 0 5 x y y S j R ` 5 5 5 U [ ] 5 5 y y u u 5 g 5 5 e e 5 v T x 5 j 5 5 f 5 0X0X0X0X0X0X0X0X",
"0X0X0XyX0X0X0X0XK _ t x S g l 9 ` H 7 H q q b / P ` 5 5 y g v S E [ +.5 e w 4 u g u q 5 5 w E 5 x F T j 5 y y K w 0X0X0X0X0X0X0X0X",
"0X0X0XyX0X0X0X0XL f l u g n e e F  .&.G q X.0 1.3.P P  . .] K S S 5 5 5 5 5 z 5 5 x f p t H v p 5 5 j j 5 F G 0 X.0X0X0X0X0X0X0X0X",
"0X0X0XuX0X0X0X0XD 5 u G M f +.5 5  . .6 X.5 5 2.1.7 ^ P 3.M d K O.l 2.5 a 5 E S S 5 2.S ` o.5 5 x t 5 5 5 K G 0 X.0X0X0X0X0X0X0X0X",
"0X0X0XqX0X0X0X0Xx s 5 5 y H  .q 5 < x 6 #.5 5 q 7 5 x p 3.M 5 n X.j S 5 5 5 5 5 e f 1.5 T ,.@.p F p 5 5 5 5 2 5 y 0X0X0X0X0X0X0X0X"
};
