/* XPM */
static char *result[] = {
/* columns rows colors chars-per-pixel */
"65 65 4 1 ",
"  c #F2F7EF",
". c #F2F6F0",
"X c #F2F7F0",
"o c None",
/* pixels */
" o o o o o o o o o o o o o o o o o o o oXo o o o o o o o o o o o ",
"o o o o o o o o o o o o o o o o o o o o oXo o o o o o o o o o o o",
" o o o o o o o o o o o o o o o o o o o oXo o o o o o o o o o o o ",
"o o o o o o o o o o o o o o o o o o o o oXo o o o o o o o o o o o",
" o o o o o o o o o o o o o o o o o o o oXo o o o o o o o o o o o ",
"o o o o o o o o o o o o o o o o o o o o oXo o o o o o o o o o o o",
" o o o o o o o o o o o o o o o o o o o oXo o o o o o o o o o o o ",
"o o o o o o o o o o o o o o o o o o o o oXo o o o o o o o o o o o",
" o o o o o o o o o o o o o o o o o o o oXo o o o o o o o o o o o ",
"o o o o o o o o o o o o o o o o o o o o oXo o o o o o o o o o o o",
" o o o o o o o o o o o o o o o o o o o oXo o o o o o o o o o o o ",
"o o o o o o o o o o o o o o o o o o o o o o o o o o o o o o o o o",
" o o o o o o o o o o o o o o o o o o o oXo o o o o o o o o o o o ",
"o o o o o o o o o o o o o o o o o o o o oXo o o o o o o o o o o o",
" o o o o o o o o o o o o o o o o o o o oXo o o o o o o o o o o o ",
"o o o o o o o o o o o o o o o o o o o o oXo o o o o o o o o o o o",
" o o o o o o o o o o o o o o o o o o o oXo o o o o o o o o o o o ",
"o o o o o o o o o o o o o o o o o o o o oXo o o o o o o o o o o o",
" o o o o o o o o o o o o o o o o o o o oXo o o o o o o o o o o o ",
"o o o o o o o o o o o o o o o o o o o o oXo o o o o o o o o o o o",
" o o o o o o o o o o o o o o o o o o o oXo o o o o o o o o o o o ",
"o o o o o o o o o o o o o o o o o o o o oXo o o o o o o o o o o o",
" o o o o o o o o o o o o o o o o o o o oXo o o o o o o o o o o o ",
"o o o o o o o o o o o o o o o o o o o o o o o o o o o o o o o o o",
" o o o o o o o o o o o o o o o o o o o oXo o o o o o o o o o o o ",
"o o o o o o o o o o o o o o o o o o o o oXo o o o o o o o o o o o",
" o o o o o o o o o o o o o o o o o o o oXo o o o o o o o o o o o ",
"o o o o o o o o o o o o o o o o o o o o oXo o o o o o o o o o o o",
" o o o o o o o o o o o o o o o o o o o oXo o o o o o o o o o o o ",
"o o o o o o o o o o o o o o o o o o o o oXo o o o o o o o o o o o",
" o o o o o o o o o o o o o o o o o o o oXo o o o o o o o o o o o ",
"o o o o o o o o o o o o o o o o o o o o oXo o o o o o o o o o o o",
" o o o o o o o o o o o o o o o o o o o oXo o o o o o o o o o o o ",
"oXoXoXoXoXoXoXoXoXoXoXoXoXoXoXoXoXoXoXoXoXo o o o o o o o o o o o",
"XoXoXoXoXoXoXoXoXoXoXoXoXoXoXoXoXoXoXoXo.oXoXoXoXoXoXoXoXoXoXoXoX",
"oXoXoXoXoXoXo oXoXoXoXoXoXo oXoXoXoXoXoXoXoXoXoXoXoXo oXoXoXoXoXo",
" o o o o o o o o o o o o o o o o o o o oXo o o o o o o o o o o o ",
"o o o o o o o o o o o o o o o o o o o o o o o o o o o o o o o o o",
" o o o o o o o o o o o o o o o o o o o oXo o o o o o o o o o o o ",
"o o o o o o o o o o o o o o o o o o o o o o o o o o o o o o o o o",
" o o o o o o o o o o o o o o o o o o o oXo o o o o o o o o o o o ",
"o o o o o o o o o o o o o o o o o o o o o o o o o o o o o o o o o",
" o o o o o o o o o o o o o o o o o o o oXo o o o o o o o o o o o ",
"o o o o o o o o o o o o o o o o o o o o o o o o o o o o o o o o o",
" o o o o o o o o o o o o o o o o o o o o o o o o o o o o o o o o ",
"o o o o o o o o o o o o o o o o o o o o o o o o o o o o o o o o o",
" o o o o o o o o o o o o o o o o o o o oXo o o o o o o o o o o o ",
"o o o o o o o o o o o o o o o o o o o o o o o o o o o o o o o o o",
" o o o o o o o o o o o o o o o o o o o oXo o o o o o o o o o o o ",
"o o o o o o o o o o o o o o o o o o o o o o o o o o o o o o o o o",
" o o o o o o o o o o o o o o o o o o o oXo o o o o o o o o o o o ",
"o o o o o o o o o o o o o o o o o o o o o o o o o o o o o o o o o",
" o o o o o o o o o o o o o o o o o o o oXo o o o o o o o o o o o ",
"o o o o o o o o o o o o o o o o o o o o o o o o o o o o o o o o o",
" o o o o o o o o o o o o o o o o o o o oXo o o o o o o o o o o o ",
"o o o o o o o o o o o o o o o o o o o o o o o o o o o o o o o o o",
" o o o o o o o o o o o o o o o o o o o o o o o o o o o o o o o o ",
"o o o o o o o o o o o o o o o o o o o o o o o o o o o o o o o o o",
" o o o o o o o o o o o o o o o o o o o oXo o o o o o o o o o o o ",
"o o o o o o o o o o o o o o o o o o o o o o o o o o o o o o o o o",
" o o o o o o o o o o o o o o o o o o o oXo o o o o o o o o o o o ",
"o o o o o o o o o o o o o o o o o o o o o o o o o o o o o o o o o",
" o o o o o o o o o o o o o o o o o o o oXo o o o o o o o o o o o ",
"o o o o o o o o o o o o o o o o o o o o o o o o o o o o o o o o o",
" o o o o o o o o o o o o o o o o o o o oXo o o o o o o o o o o o "
};
